<?xml version="1.0" standalone="no"?>
<!DOCTYPE svg PUBLIC "-//W3C//DTD SVG 20010904//EN"
 "http://www.w3.org/TR/2001/REC-SVG-20010904/DTD/svg10.dtd">
<svg version="1.0" xmlns="http://www.w3.org/2000/svg"
 width="181.000000pt" height="181.000000pt" viewBox="0 0 181.000000 181.000000"
 preserveAspectRatio="xMidYMid meet">
<metadata>
Created by potrace 1.14, written by Peter Selinger 2001-2017
</metadata>
<g transform="translate(0.000000,181.000000) scale(0.100000,-0.100000)"
fill="#000000" stroke="none">
<path d="M880 1728 c0 -27 14 -34 58 -29 6 1 12 -2 12 -7 0 -5 -16 -8 -35 -7
-23 2 -35 -2 -35 -10 0 -8 17 -13 50 -14 49 -1 50 0 50 29 0 26 -4 29 -37 33
l-38 4 38 1 c56 3 42 25 -16 26 -45 1 -47 0 -47 -26z"/>
<path d="M743 1738 c-36 -8 -43 -13 -43 -34 0 -21 4 -24 43 -25 42 -2 42 -2 8
-8 -19 -3 -36 -12 -39 -19 -4 -12 32 -11 81 4 33 10 12 60 -22 51 -12 -3 -21
-1 -21 4 0 5 9 9 19 9 21 0 37 16 24 23 -5 2 -27 0 -50 -5z"/>
<path d="M1015 1741 c-9 -15 -15 -72 -9 -83 9 -14 24 10 24 40 0 12 4 22 9 22
6 0 7 -16 4 -35 -7 -43 13 -48 22 -5 4 17 10 30 15 30 5 0 4 -14 -1 -32 -5
-17 -6 -34 -4 -37 10 -9 23 14 30 51 7 35 5 37 -21 43 -59 13 -64 13 -69 6z"/>
<path d="M608 1702 l-36 -14 15 -43 c14 -43 15 -43 46 -33 47 16 59 31 51 62
-9 37 -32 46 -76 28z m49 -28 c4 -11 -1 -22 -13 -31 -16 -12 -20 -11 -32 4
-11 15 -10 20 5 30 23 17 32 16 40 -3z"/>
<path d="M1127 1680 c-10 -26 -12 -42 -5 -46 6 -4 14 -1 18 6 11 17 53 3 46
-16 -3 -8 1 -14 8 -14 7 0 20 18 28 39 l16 40 -46 15 c-25 9 -46 16 -47 16 -1
0 -9 -18 -18 -40z m69 -5 c15 -11 16 -14 3 -15 -8 0 -24 7 -35 15 -15 11 -16
14 -3 15 8 0 24 -7 35 -15z"/>
<path d="M495 1652 c-16 -9 -32 -18 -34 -19 -2 -2 4 -21 14 -43 17 -39 43 -50
37 -17 -3 18 27 30 52 21 21 -8 20 7 -1 45 -21 36 -27 37 -68 13z m26 -33
c-13 -11 -27 -17 -30 -13 -7 7 28 34 43 34 6 -1 0 -10 -13 -21z"/>
<path d="M1240 1631 c-16 -33 -18 -41 -6 -41 8 0 18 4 21 10 8 14 46 -12 41
-27 -8 -19 10 -25 24 -8 7 8 9 15 6 15 -4 0 0 7 8 16 21 21 20 29 -6 46 -52
34 -66 32 -88 -11z m66 -6 c10 -8 14 -15 7 -15 -19 0 -43 11 -43 21 0 13 14
11 36 -6z"/>
<path d="M388 1583 c-18 -15 -35 -28 -37 -29 -1 -2 9 -19 24 -38 l27 -36 39
28 c21 15 39 30 39 35 0 11 -28 9 -35 -3 -3 -5 -16 -15 -28 -20 -14 -7 -9 0
12 19 52 45 33 55 -29 15 -16 -10 -13 -5 8 14 43 38 25 51 -20 15z"/>
<path d="M1370 1605 c0 -3 5 -14 12 -25 10 -15 9 -23 -7 -40 -14 -15 -16 -23
-7 -32 8 -8 14 -4 23 16 11 23 17 26 41 21 39 -9 35 5 -11 38 -39 27 -51 32
-51 22z"/>
<path d="M315 1520 c-4 -7 -2 -16 6 -21 11 -6 10 -12 -5 -28 -15 -16 -22 -18
-33 -10 -27 23 -26 -2 2 -31 33 -34 49 -39 40 -11 -8 25 22 56 40 41 7 -6 16
-7 19 -2 3 5 -10 23 -28 41 -24 23 -36 29 -41 21z"/>
<path d="M857 1460 c-19 -32 -53 -54 -102 -64 -17 -4 -43 -18 -58 -32 -46 -43
-47 -88 -4 -171 l22 -43 -22 -21 c-30 -31 -70 -19 -81 23 l-8 32 -17 -36 c-23
-49 -21 -96 8 -173 l24 -65 -23 -62 c-120 -323 293 -569 533 -319 56 59 76
113 76 211 0 69 -5 93 -23 127 l-22 42 40 46 c22 25 40 54 41 63 0 9 2 25 4
36 5 24 -22 106 -44 132 -9 12 -27 27 -40 34 -21 11 -23 10 -18 -4 11 -29 -13
-66 -44 -66 -35 0 -43 23 -40 110 l2 65 -56 49 -57 49 6 -54 c8 -61 2 -75 -36
-84 -21 -5 -33 -1 -52 18 -27 28 -27 44 6 114 12 27 16 48 11 58 -7 12 -12 9
-26 -15z"/>
<path d="M1492 1464 c-17 -15 -32 -30 -32 -33 0 -3 14 -21 31 -40 l30 -35 20
21 c19 19 19 21 4 37 -21 21 -41 11 -24 -12 7 -10 2 -7 -11 5 -23 22 -23 23
-6 36 17 12 22 10 47 -17 23 -25 28 -27 29 -13 0 10 -12 31 -28 48 l-28 30
-32 -27z"/>
<path d="M175 1350 c-14 -22 -25 -42 -25 -45 0 -11 29 -4 33 8 3 9 12 7 36 -6
24 -14 31 -15 31 -4 0 7 -11 19 -23 26 -18 9 -23 19 -19 37 6 35 -4 30 -33
-16z"/>
<path d="M1565 1363 c-34 -23 -37 -28 -20 -31 28 -5 47 -32 34 -48 -18 -22 6
-23 43 0 l37 22 -25 42 c-14 23 -26 42 -27 42 -1 0 -20 -12 -42 -27z m60 -52
c-8 -8 -35 22 -35 38 0 12 5 10 20 -9 10 -14 17 -27 15 -29z"/>
<path d="M113 1233 l-21 -45 42 -18 41 -17 17 31 c26 47 22 61 -20 78 l-38 15
-21 -44z m65 -28 c-7 -15 -16 -21 -29 -18 -21 6 -21 8 -13 40 5 19 9 20 29 11
20 -9 22 -14 13 -33z"/>
<path d="M1627 1259 c-21 -11 -35 -24 -32 -29 4 -7 13 -6 25 0 10 5 27 10 37
9 12 0 6 -6 -14 -15 -18 -8 -33 -19 -33 -24 0 -13 16 -13 42 1 11 6 22 8 25 6
3 -3 -9 -13 -27 -22 -18 -9 -29 -19 -26 -22 7 -8 86 18 86 27 0 13 -29 78 -37
83 -5 3 -25 -4 -46 -14z"/>
<path d="M80 1144 c0 -8 7 -14 16 -14 11 0 14 -8 12 -27 -2 -23 -7 -27 -25
-25 -39 6 -25 -17 18 -28 42 -11 65 -6 40 9 -19 12 -6 62 14 55 9 -4 15 0 15
8 0 9 -17 19 -45 25 -36 8 -45 8 -45 -3z"/>
<path d="M1680 1145 c-30 -8 -44 -16 -41 -26 2 -8 7 -27 10 -43 4 -16 12 -31
19 -34 14 -4 15 3 3 46 -6 18 -6 30 -1 27 5 -3 11 -19 15 -35 10 -47 28 -36
22 13 l-6 42 11 -37 c15 -48 40 -53 28 -5 -5 17 -10 39 -12 48 -3 13 -9 14
-48 4z"/>
<path d="M79 904 c-10 -13 -10 -17 1 -24 17 -10 30 -4 30 15 0 22 -16 26 -31
9z"/>
<path d="M1713 913 c-14 -5 -17 -29 -5 -37 4 -2 14 -1 21 3 16 11 2 40 -16 34z"/>
<path d="M1660 762 c0 -4 5 -13 11 -19 15 -15 2 -53 -17 -46 -7 3 -14 0 -14
-5 0 -15 9 -19 54 -27 31 -6 38 -5 34 6 -3 8 -11 13 -17 11 -8 -1 -11 8 -9 25
2 16 9 29 18 29 33 3 34 4 25 13 -14 12 -85 24 -85 13z"/>
<path d="M135 748 c-3 -8 -1 -27 5 -42 5 -15 6 -25 1 -21 -5 3 -12 19 -16 35
-10 47 -28 36 -21 -12 l5 -43 -11 35 c-14 43 -14 43 -27 36 -9 -6 4 -73 17
-88 4 -4 26 -2 49 3 l41 11 -13 39 c-8 22 -14 42 -14 45 1 14 -11 15 -16 2z"/>
<path d="M1614 615 c-9 -25 -15 -47 -13 -48 2 -1 20 -10 40 -19 l37 -17 16 43
c9 23 16 45 16 49 0 5 -64 37 -75 37 -2 0 -11 -20 -21 -45z m66 -16 c0 -23
-27 -36 -42 -21 -5 5 -7 19 -4 30 8 26 46 18 46 -9z"/>
<path d="M133 625 c-18 -8 -33 -16 -33 -19 0 -4 27 -67 36 -84 3 -7 84 31 84
39 0 12 -12 11 -44 -1 -17 -6 -26 -6 -26 0 0 5 11 12 25 16 14 3 25 12 25 20
0 10 -6 11 -31 2 -16 -6 -33 -8 -36 -4 -3 3 8 11 25 17 18 6 32 15 32 20 0 13
-19 11 -57 -6z"/>
<path d="M205 524 c-11 -9 -27 -19 -35 -24 -12 -7 -11 -13 5 -45 11 -20 23
-39 27 -41 11 -7 78 37 72 48 -3 5 -12 7 -19 4 -7 -2 -17 6 -23 19 -8 18 -8
25 1 28 8 3 9 8 2 15 -7 7 -16 6 -30 -4z m18 -77 c-4 -6 -12 -3 -20 8 -20 28
-16 41 7 20 11 -10 17 -22 13 -28z"/>
<path d="M1560 507 c0 -8 12 -19 26 -25 18 -9 24 -17 19 -31 -12 -37 10 -28
37 15 17 28 23 44 15 44 -7 0 -18 -5 -24 -11 -8 -8 -19 -6 -42 5 -25 13 -31
14 -31 3z"/>
<path d="M273 422 c-19 -15 -20 -20 -9 -34 19 -26 39 -23 31 5 l-7 22 17 -23
c14 -18 14 -26 4 -38 -10 -13 -16 -12 -39 11 -47 45 -55 28 -11 -24 32 -37 34
-37 82 10 15 16 15 19 -15 52 -30 34 -32 35 -53 19z"/>
<path d="M1480 402 c0 -4 5 -13 10 -18 7 -7 4 -16 -10 -29 -17 -15 -23 -16
-29 -6 -6 10 -10 10 -16 1 -9 -14 45 -69 62 -63 9 4 9 9 -3 20 -13 14 -13 17
2 34 13 14 20 16 35 6 33 -21 32 1 -2 32 -33 31 -49 38 -49 23z"/>
<path d="M1372 299 l-41 -30 21 -21 20 -20 29 21 c16 12 29 18 29 13 0 -5 -11
-15 -25 -22 -22 -12 -35 -40 -19 -40 9 0 74 52 74 59 0 4 -11 21 -23 39 l-24
31 -41 -30z m18 -29 c-14 -10 -27 -17 -29 -14 -6 5 31 33 44 33 6 1 -1 -8 -15
-19z"/>
<path d="M420 269 c-9 -15 -18 -19 -35 -15 -28 7 -43 -10 -16 -19 10 -3 26
-14 36 -25 10 -11 22 -20 27 -20 13 0 9 28 -4 33 -10 3 -8 9 5 24 9 11 17 25
17 31 0 19 -18 14 -30 -9z"/>
<path d="M1306 251 c-4 -6 -5 -15 -2 -20 3 -4 -5 -13 -19 -19 -17 -8 -25 -8
-27 0 -2 6 -9 8 -15 5 -8 -5 -5 -19 10 -46 l21 -39 38 20 c21 11 40 23 43 27
2 4 -6 25 -19 46 -14 23 -26 33 -30 26z m14 -66 c-7 -8 -19 -15 -27 -15 -13 0
-13 3 -3 15 7 8 19 15 27 15 13 0 13 -3 3 -15z"/>
<path d="M482 210 l-22 -39 39 -21 c22 -11 44 -20 49 -20 7 0 42 62 42 75 0 3
-7 5 -15 5 -8 0 -15 -5 -15 -10 0 -7 -6 -7 -20 0 -11 6 -20 20 -20 30 0 31
-13 24 -38 -20z m54 -35 c10 -8 14 -15 7 -15 -19 0 -43 11 -43 21 0 13 14 11
36 -6z"/>
<path d="M596 160 c-9 -22 -16 -42 -16 -44 0 -5 91 -39 94 -35 1 2 9 23 18 47
13 34 14 42 3 42 -7 0 -15 -5 -17 -11 -5 -16 -48 -1 -48 16 0 31 -19 22 -34
-15z m54 -30 c8 -5 12 -11 9 -14 -7 -8 -49 5 -49 15 0 12 21 11 40 -1z"/>
<path d="M1162 187 c-32 -10 -33 -12 -27 -46 9 -49 17 -55 59 -41 46 15 50 23
36 65 -12 37 -17 39 -68 22z m47 -36 c8 -15 7 -20 -5 -25 -28 -11 -42 -7 -47
14 -8 32 36 41 52 11z"/>
<path d="M1053 156 c-35 -7 -43 -13 -43 -32 0 -30 11 -35 49 -24 17 5 31 5 31
0 0 -4 -16 -11 -35 -14 -52 -10 -45 -30 8 -22 51 8 58 15 50 44 -5 21 -10 23
-47 18 l-41 -5 42 12 c57 16 44 36 -14 23z"/>
<path d="M715 119 c-4 -22 -5 -42 -3 -45 9 -9 86 -15 91 -7 2 4 8 25 11 47 6
29 4 37 -6 34 -7 -3 -15 -15 -16 -29 -2 -13 -8 -28 -14 -34 -7 -7 -8 0 -3 22
7 37 -2 63 -16 42 -5 -8 -9 -24 -9 -36 0 -13 -4 -23 -9 -23 -6 0 -7 16 -4 35
3 21 2 35 -5 35 -6 0 -13 -18 -17 -41z"/>
<path d="M840 120 c0 -11 -1 -23 -2 -27 -2 -3 12 -7 29 -8 18 -1 36 -5 40 -10
5 -4 -6 -5 -24 -2 -21 4 -35 1 -43 -8 -11 -13 -5 -15 41 -15 52 0 54 1 56 28
2 26 -1 28 -35 30 -51 4 -54 12 -4 12 23 0 42 5 42 10 0 6 -22 10 -50 10 -43
0 -50 -3 -50 -20z"/>
</g>
</svg>
