<svg width="110" height="106" viewBox="0 0 110 106" fill="none" xmlns="http://www.w3.org/2000/svg">
<path d="M91.0389 74.8493L94.2814 68.4231L93.4101 67.9834C96.5627 52.5442 86.5308 34.7142 68.3413 25.5363C50.1518 16.3584 29.8838 18.8998 19.3314 30.6053L18.4669 30.1691L15.2244 36.5954C6.81587 53.26 16.9653 75.3256 37.8914 85.8844C58.8175 96.4431 82.6304 91.5139 91.0389 74.8493Z" fill="#FDD835"/>
<path d="M77.5338 87.7898L84.6027 73.78L86.2773 74.625L80.4381 86.1977C79.4984 86.7787 78.529 87.3101 77.5338 87.7898Z" fill="#FBC02D"/>
<path d="M69.7597 90.4367L79.47 71.1921L81.1719 72.0508L72.2172 89.7978C71.4388 90.0541 70.6162 90.2796 69.7597 90.4367Z" fill="#FBC02D"/>
<path d="M62.9091 91.385L74.3918 68.6277L76.0664 69.4727L65.1058 91.1952C64.3996 91.2915 63.6526 91.3502 62.9091 91.385Z" fill="#FBC02D"/>
<path d="M56.533 91.2613L69.2591 66.0397L70.9609 66.8984L58.5955 91.4052C57.9408 91.3824 57.2522 91.3424 56.533 91.2613Z" fill="#FBC02D"/>
<path d="M50.5857 90.4192L64.1808 63.4753L65.8555 64.3203L52.5214 90.7468C51.9011 90.6559 51.2571 90.5274 50.5857 90.4192Z" fill="#FBC02D"/>
<path d="M44.9446 88.8387L59.0481 60.8874L60.75 61.7461L46.7873 89.4184C46.2048 89.2526 45.5849 89.0593 44.9446 88.8387Z" fill="#FBC02D"/>
<path d="M39.6397 86.7237L53.9699 58.323L55.6445 59.168L41.3624 87.4733C40.8006 87.2496 40.2184 86.9986 39.6397 86.7237Z" fill="#FBC02D"/>
<path d="M36.2362 85.0062C35.6644 84.7176 35.1234 84.3849 34.579 84.0589L48.8645 55.7468L50.5664 56.6055L36.2362 85.0062Z" fill="#FBC02D"/>
<path d="M31.3301 81.967C30.7995 81.5968 30.2757 81.213 29.7691 80.8292L43.7317 53.1569L45.4336 54.0156L31.3301 81.967Z" fill="#FBC02D"/>
<path d="M26.7603 78.397C26.2573 77.9553 25.7713 77.5136 25.3023 77.0549L38.6536 50.5944L40.3555 51.4531L26.7603 78.397Z" fill="#FBC02D"/>
<path d="M22.4931 74.0878C22.0278 73.5712 21.5865 73.041 21.1553 72.5075L33.5208 48.0007L35.2227 48.8594L22.4931 74.0878Z" fill="#FBC02D"/>
<path d="M18.6579 69.0581C18.2442 68.4393 17.8509 67.7969 17.4781 67.1646L28.4388 45.4421L30.1406 46.3008L18.6579 69.0581Z" fill="#FBC02D"/>
<path d="M15.3014 62.9556C14.953 62.1734 14.6388 61.3914 14.3552 60.5992L23.3099 42.8522L25.0117 43.7109L15.3014 62.9556Z" fill="#FBC02D"/>
<path d="M12.8622 55.1591C12.6498 54.0626 12.4956 52.9556 12.4003 51.8429L18.2395 40.2702L19.9414 41.1289L12.8622 55.1591Z" fill="#FBC02D"/>
<path style="mix-blend-mode:multiply" d="M91.0389 74.8493L94.2814 68.4231L93.4101 67.9834C96.5627 52.5442 86.5308 34.7142 68.3413 25.5363C50.1518 16.3584 29.8838 18.8998 19.3314 30.6053L18.4669 30.1691L15.2244 36.5954C6.81587 53.26 16.9653 75.3256 37.8914 85.8844C58.8175 96.4431 82.6304 91.5139 91.0389 74.8493Z" fill="url(#paint0_linear_414_19391)"/>
<path d="M18.4865 30.1809C10.0789 46.8437 20.2303 68.9126 41.1603 79.4733C62.0903 90.034 85.8731 85.0873 94.2806 68.4245C102.688 51.7618 92.5368 29.6928 71.6068 19.1321C50.6769 8.5714 26.8941 13.5181 18.4865 30.1809Z" fill="#FBC02D"/>
<path d="M21.8253 31.8635C14.4572 46.4659 23.958 66.1112 43.0457 75.7424C62.1335 85.3735 83.5801 81.3434 90.9481 66.7409C98.3161 52.1385 88.8154 32.4932 69.7277 22.8621C50.6399 13.2309 29.1933 17.261 21.8253 31.8635Z" fill="#F9A825"/>
<path style="mix-blend-mode:multiply" d="M21.8253 31.8635C14.4572 46.4659 23.958 66.1112 43.0457 75.7424C62.1335 85.3735 83.5801 81.3434 90.9481 66.7409C98.3161 52.1385 88.8154 32.4932 69.7277 22.8621C50.6399 13.2309 29.1933 17.261 21.8253 31.8635Z" fill="url(#paint1_linear_414_19391)"/>
<path style="mix-blend-mode:multiply" d="M68.8724 24.489C87.5997 33.9383 97.0882 53.0314 90.4778 67.5373C90.6152 67.265 90.756 66.9859 90.8934 66.7136C98.2612 52.1116 88.761 32.466 69.6729 22.8347C50.5849 13.2034 29.1383 17.2341 21.7706 31.8361C21.6332 32.1084 21.4923 32.3875 21.3549 32.6598C29.1839 18.7688 50.1723 15.0535 68.8724 24.489Z" fill="url(#paint2_radial_414_19391)"/>
<g style="mix-blend-mode:multiply">
<path style="mix-blend-mode:multiply" d="M61.4367 39.9554L65.4336 37.9922L52.4246 31.4282L41.585 36.8139L46.3774 39.2321L53.2303 35.8403L61.4367 39.9554Z" fill="url(#paint3_linear_414_19391)"/>
<path style="mix-blend-mode:multiply" d="M69.624 44.0856L70.4127 48.4976L74.4233 46.5072L73.6311 42.1191L68.8523 39.7078L64.852 41.6778L69.624 44.0856Z" fill="url(#paint4_linear_414_19391)"/>
<path style="mix-blend-mode:multiply" d="M68.1116 53.0605L64.1045 55.0271L64.8966 59.4323L68.9037 57.4486L68.1116 53.0605Z" fill="url(#paint5_linear_414_19391)"/>
<path style="mix-blend-mode:multiply" d="M53.7817 38.9764L49.7951 40.9533L54.5739 43.3645L58.5742 41.3945L53.7817 38.9764Z" fill="url(#paint6_linear_414_19391)"/>
<path style="mix-blend-mode:multiply" d="M43.5078 40.6445L38.7358 38.2367L34.7286 40.2033L35.5207 44.6085L40.2928 47.0163L39.5075 42.6146L43.5078 40.6445Z" fill="url(#paint7_linear_414_19391)"/>
<path style="mix-blend-mode:multiply" d="M58.5928 65.9528L53.8208 63.545L54.6026 67.9536L59.3814 70.3648L63.392 68.3744L62.5999 63.9863L58.5928 65.9528Z" fill="url(#paint8_linear_414_19391)"/>
<path style="mix-blend-mode:multiply" d="M50.393 61.8422L42.2071 57.6863L40.8671 50.1691L36.0679 47.7476L38.176 59.6664L51.1851 66.2304L50.393 61.8422Z" fill="url(#paint9_linear_414_19391)"/>
<path style="mix-blend-mode:multiply" d="M49.8525 58.6801L49.0569 54.2987L44.278 51.8875L45.0532 56.2585L49.8525 58.6801Z" fill="url(#paint10_linear_414_19391)"/>
<path style="mix-blend-mode:multiply" d="M72.3223 59.1722L65.4422 62.5673L66.2343 66.9554L77.0943 61.5801L74.9588 49.6645L70.9585 51.6346L72.3223 59.1722Z" fill="url(#paint11_linear_414_19391)"/>
<path style="mix-blend-mode:multiply" d="M58.0433 62.824L58.0364 62.8376L62.0471 60.8472L60.6969 53.2994L67.5531 49.9349L66.7678 45.5331L61.9686 43.1115L55.1089 46.5169L46.8991 42.3745L42.9192 44.3548L43.6909 48.7327L51.9007 52.8751L53.2372 60.4161L58.0433 62.824Z" fill="url(#paint12_linear_414_19391)"/>
</g>
<path d="M62.0783 38.6807L53.9094 34.5588L47.077 37.9439L42.3118 35.5395L53.049 30.1704L66.0649 36.7379L62.0783 38.6807ZM70.2472 42.8025L65.482 40.3981L69.5026 38.4725L74.2678 40.8769L75.06 45.265L71.0528 47.2486L70.2472 42.8025ZM68.7721 51.7688L69.5642 56.1569L65.5571 58.1406L64.765 53.7354L68.7721 51.7688Z" fill="#FDD835"/>
<path d="M54.4244 37.7012L59.1896 40.1056L55.1892 42.0756L50.424 39.6712L54.4244 37.7012ZM44.1883 39.3688L40.1811 41.3354L40.9733 45.7406L36.208 43.3362L35.4227 38.9344L39.3822 36.9438L44.1883 39.3688ZM63.2467 62.7184L64.0389 67.1066L60.0317 69.0902L55.2665 66.6858L54.4812 62.284L59.2464 64.6884L63.2467 62.7184ZM42.8541 56.4173L51.023 60.5391L51.8152 64.9273L38.8061 58.3633L36.6979 46.4445L41.4632 48.8489L42.8541 56.4173Z" fill="#FDD835"/>
<path d="M45.6962 54.9831L44.9245 50.6053L49.6897 53.0097L50.4819 57.3978L45.6962 54.9831Z" fill="#FDD835"/>
<path d="M58.7099 61.5524L53.9106 59.1308L52.574 51.624L44.3643 47.4815L43.5925 43.1037L47.559 41.0654L55.7688 45.2078L62.6011 41.8227L67.4344 44.2615L68.2197 48.6632L61.3533 52.0311L62.7239 59.5552L58.7167 61.5388L58.7099 61.5524ZM75.6033 48.3833L77.7388 60.2988L66.8788 65.6742L66.0867 61.2861L72.919 57.901L71.5824 50.3942L75.6033 48.3833Z" fill="#FDD835"/>
<defs>
<linearGradient id="paint0_linear_414_19391" x1="74.245" y1="66.3755" x2="-17.3356" y2="20.1665" gradientUnits="userSpaceOnUse">
<stop offset="0.02" stop-color="white" stop-opacity="0"/>
<stop offset="1" stop-color="#F9A825"/>
</linearGradient>
<linearGradient id="paint1_linear_414_19391" x1="79.3074" y1="60.8673" x2="-23.0358" y2="9.22778" gradientUnits="userSpaceOnUse">
<stop offset="0.02" stop-color="white" stop-opacity="0"/>
<stop offset="1" stop-color="#F9A825"/>
</linearGradient>
<radialGradient id="paint2_radial_414_19391" cx="0" cy="0" r="1" gradientUnits="userSpaceOnUse" gradientTransform="translate(63.3701 36.7527) rotate(116.774) scale(29.4246 38.8405)">
<stop offset="0.02" stop-color="white" stop-opacity="0"/>
<stop offset="1" stop-color="#F9A825"/>
</radialGradient>
<linearGradient id="paint3_linear_414_19391" x1="71.3377" y1="45.0793" x2="-29.8398" y2="0.117311" gradientUnits="userSpaceOnUse">
<stop stop-color="#F9A825"/>
<stop offset="0.05" stop-color="#FAB74B" stop-opacity="0.83"/>
<stop offset="0.12" stop-color="#FBC875" stop-opacity="0.63"/>
<stop offset="0.2" stop-color="#FCD79A" stop-opacity="0.46"/>
<stop offset="0.27" stop-color="#FDE3B9" stop-opacity="0.32"/>
<stop offset="0.35" stop-color="#FEEDD3" stop-opacity="0.2"/>
<stop offset="0.44" stop-color="#FEF5E6" stop-opacity="0.11"/>
<stop offset="0.53" stop-color="#FFFBF4" stop-opacity="0.05"/>
<stop offset="0.63" stop-color="#FFFEFC" stop-opacity="0.01"/>
<stop offset="0.78" stop-color="white" stop-opacity="0"/>
</linearGradient>
<linearGradient id="paint4_linear_414_19391" x1="71.5032" y1="44.9314" x2="-30.27" y2="-0.288511" gradientUnits="userSpaceOnUse">
<stop stop-color="#F9A825"/>
<stop offset="0.05" stop-color="#FAB74B" stop-opacity="0.83"/>
<stop offset="0.12" stop-color="#FBC875" stop-opacity="0.63"/>
<stop offset="0.2" stop-color="#FCD79A" stop-opacity="0.46"/>
<stop offset="0.27" stop-color="#FDE3B9" stop-opacity="0.32"/>
<stop offset="0.35" stop-color="#FEEDD3" stop-opacity="0.2"/>
<stop offset="0.44" stop-color="#FEF5E6" stop-opacity="0.11"/>
<stop offset="0.53" stop-color="#FFFBF4" stop-opacity="0.05"/>
<stop offset="0.63" stop-color="#FFFEFC" stop-opacity="0.01"/>
<stop offset="0.78" stop-color="white" stop-opacity="0"/>
</linearGradient>
<linearGradient id="paint5_linear_414_19391" x1="66.6369" y1="56.3048" x2="-35.1396" y2="11.0748" gradientUnits="userSpaceOnUse">
<stop stop-color="#F9A825"/>
<stop offset="0.05" stop-color="#FAB74B" stop-opacity="0.83"/>
<stop offset="0.12" stop-color="#FBC875" stop-opacity="0.63"/>
<stop offset="0.2" stop-color="#FCD79A" stop-opacity="0.46"/>
<stop offset="0.27" stop-color="#FDE3B9" stop-opacity="0.32"/>
<stop offset="0.35" stop-color="#FEEDD3" stop-opacity="0.2"/>
<stop offset="0.44" stop-color="#FEF5E6" stop-opacity="0.11"/>
<stop offset="0.53" stop-color="#FFFBF4" stop-opacity="0.05"/>
<stop offset="0.63" stop-color="#FFFEFC" stop-opacity="0.01"/>
<stop offset="0.78" stop-color="white" stop-opacity="0"/>
</linearGradient>
<linearGradient id="paint6_linear_414_19391" x1="70.007" y1="48.2051" x2="-31.1709" y2="3.24306" gradientUnits="userSpaceOnUse">
<stop stop-color="#F9A825"/>
<stop offset="0.05" stop-color="#FAB74B" stop-opacity="0.83"/>
<stop offset="0.12" stop-color="#FBC875" stop-opacity="0.63"/>
<stop offset="0.2" stop-color="#FCD79A" stop-opacity="0.46"/>
<stop offset="0.27" stop-color="#FDE3B9" stop-opacity="0.32"/>
<stop offset="0.35" stop-color="#FEEDD3" stop-opacity="0.2"/>
<stop offset="0.44" stop-color="#FEF5E6" stop-opacity="0.11"/>
<stop offset="0.53" stop-color="#FFFBF4" stop-opacity="0.05"/>
<stop offset="0.63" stop-color="#FFFEFC" stop-opacity="0.01"/>
<stop offset="0.78" stop-color="white" stop-opacity="0"/>
</linearGradient>
<linearGradient id="paint7_linear_414_19391" x1="67.0463" y1="54.8616" x2="-34.1315" y2="9.89943" gradientUnits="userSpaceOnUse">
<stop stop-color="#F9A825"/>
<stop offset="0.05" stop-color="#FAB74B" stop-opacity="0.83"/>
<stop offset="0.12" stop-color="#FBC875" stop-opacity="0.63"/>
<stop offset="0.2" stop-color="#FCD79A" stop-opacity="0.46"/>
<stop offset="0.27" stop-color="#FDE3B9" stop-opacity="0.32"/>
<stop offset="0.35" stop-color="#FEEDD3" stop-opacity="0.2"/>
<stop offset="0.44" stop-color="#FEF5E6" stop-opacity="0.11"/>
<stop offset="0.53" stop-color="#FFFBF4" stop-opacity="0.05"/>
<stop offset="0.63" stop-color="#FFFEFC" stop-opacity="0.01"/>
<stop offset="0.78" stop-color="white" stop-opacity="0"/>
</linearGradient>
<linearGradient id="paint8_linear_414_19391" x1="61.8196" y1="67.5468" x2="-39.9502" y2="22.3202" gradientUnits="userSpaceOnUse">
<stop stop-color="#F9A825"/>
<stop offset="0.05" stop-color="#FAB74B" stop-opacity="0.83"/>
<stop offset="0.12" stop-color="#FBC875" stop-opacity="0.63"/>
<stop offset="0.2" stop-color="#FCD79A" stop-opacity="0.46"/>
<stop offset="0.27" stop-color="#FDE3B9" stop-opacity="0.32"/>
<stop offset="0.35" stop-color="#FEEDD3" stop-opacity="0.2"/>
<stop offset="0.44" stop-color="#FEF5E6" stop-opacity="0.11"/>
<stop offset="0.53" stop-color="#FFFBF4" stop-opacity="0.05"/>
<stop offset="0.63" stop-color="#FFFEFC" stop-opacity="0.01"/>
<stop offset="0.78" stop-color="white" stop-opacity="0"/>
</linearGradient>
<linearGradient id="paint9_linear_414_19391" x1="62.8396" y1="65.5262" x2="-39.5601" y2="20.0244" gradientUnits="userSpaceOnUse">
<stop stop-color="#F9A825"/>
<stop offset="0.05" stop-color="#FAB74B" stop-opacity="0.83"/>
<stop offset="0.12" stop-color="#FBC875" stop-opacity="0.63"/>
<stop offset="0.2" stop-color="#FCD79A" stop-opacity="0.46"/>
<stop offset="0.27" stop-color="#FDE3B9" stop-opacity="0.32"/>
<stop offset="0.35" stop-color="#FEEDD3" stop-opacity="0.2"/>
<stop offset="0.44" stop-color="#FEF5E6" stop-opacity="0.11"/>
<stop offset="0.53" stop-color="#FFFBF4" stop-opacity="0.05"/>
<stop offset="0.63" stop-color="#FFFEFC" stop-opacity="0.01"/>
<stop offset="0.78" stop-color="white" stop-opacity="0"/>
</linearGradient>
<linearGradient id="paint10_linear_414_19391" x1="63.9889" y1="62.8067" x2="-38.4179" y2="17.3013" gradientUnits="userSpaceOnUse">
<stop stop-color="#F9A825"/>
<stop offset="0.05" stop-color="#FAB74B" stop-opacity="0.83"/>
<stop offset="0.12" stop-color="#FBC875" stop-opacity="0.63"/>
<stop offset="0.2" stop-color="#FCD79A" stop-opacity="0.46"/>
<stop offset="0.27" stop-color="#FDE3B9" stop-opacity="0.32"/>
<stop offset="0.35" stop-color="#FEEDD3" stop-opacity="0.2"/>
<stop offset="0.44" stop-color="#FEF5E6" stop-opacity="0.11"/>
<stop offset="0.53" stop-color="#FFFBF4" stop-opacity="0.05"/>
<stop offset="0.63" stop-color="#FFFEFC" stop-opacity="0.01"/>
<stop offset="0.78" stop-color="white" stop-opacity="0"/>
</linearGradient>
<linearGradient id="paint11_linear_414_19391" x1="66.6269" y1="56.5462" x2="-34.3258" y2="11.6805" gradientUnits="userSpaceOnUse">
<stop stop-color="#F9A825"/>
<stop offset="0.05" stop-color="#FAB74B" stop-opacity="0.83"/>
<stop offset="0.12" stop-color="#FBC875" stop-opacity="0.63"/>
<stop offset="0.2" stop-color="#FCD79A" stop-opacity="0.46"/>
<stop offset="0.27" stop-color="#FDE3B9" stop-opacity="0.32"/>
<stop offset="0.35" stop-color="#FEEDD3" stop-opacity="0.2"/>
<stop offset="0.44" stop-color="#FEF5E6" stop-opacity="0.11"/>
<stop offset="0.53" stop-color="#FFFBF4" stop-opacity="0.05"/>
<stop offset="0.63" stop-color="#FFFEFC" stop-opacity="0.01"/>
<stop offset="0.78" stop-color="white" stop-opacity="0"/>
</linearGradient>
<linearGradient id="paint12_linear_414_19391" x1="66.6957" y1="55.9504" x2="-34.7406" y2="10.8749" gradientUnits="userSpaceOnUse">
<stop stop-color="#F9A825"/>
<stop offset="0.05" stop-color="#FAB74B" stop-opacity="0.83"/>
<stop offset="0.12" stop-color="#FBC875" stop-opacity="0.63"/>
<stop offset="0.2" stop-color="#FCD79A" stop-opacity="0.46"/>
<stop offset="0.27" stop-color="#FDE3B9" stop-opacity="0.32"/>
<stop offset="0.35" stop-color="#FEEDD3" stop-opacity="0.2"/>
<stop offset="0.44" stop-color="#FEF5E6" stop-opacity="0.11"/>
<stop offset="0.53" stop-color="#FFFBF4" stop-opacity="0.05"/>
<stop offset="0.63" stop-color="#FFFEFC" stop-opacity="0.01"/>
<stop offset="0.78" stop-color="white" stop-opacity="0"/>
</linearGradient>
</defs>
</svg>
