<svg width="92" height="66" viewBox="0 0 92 66" fill="none" xmlns="http://www.w3.org/2000/svg">
<path d="M82.0795 55.3938L87.0508 44.0859L9.3335 9.91938L4.36226 21.2273C1.95335 26.7067 17.4033 38.7963 38.8603 48.2294C60.3174 57.6625 79.6706 60.8733 82.0795 55.3938Z" fill="#FDD835"/>
<path d="M74.1021 58.0609L80.5831 43.3188L82.3281 44.0859L76.1908 58.0463C75.5498 58.0644 74.8647 58.088 74.1021 58.0609Z" fill="#FBC02D"/>
<path d="M68.1097 57.4842L75.3487 41.018L77.0938 41.7852L70.0696 57.7628C69.4222 57.7197 68.7845 57.5976 68.1097 57.4842Z" fill="#FBC02D"/>
<path d="M62.3659 56.3382L70.1143 38.7133L71.8594 39.4805L64.2614 56.7634C63.6438 56.6335 63.0084 56.4874 62.3659 56.3382Z" fill="#FBC02D"/>
<path d="M56.7756 54.8472L64.88 36.4125L66.625 37.1797L58.625 55.377C58.0189 55.2022 57.4027 55.0312 56.7756 54.8472Z" fill="#FBC02D"/>
<path d="M51.3049 53.0839L59.6456 34.1117L61.3906 34.8789L53.1052 53.7254C52.5144 53.5156 51.8983 53.3447 51.3049 53.0839Z" fill="#FBC02D"/>
<path d="M45.9102 51.1391L54.4073 31.811L56.1523 32.5781L47.6951 51.8155C47.1074 51.5988 46.5088 51.3689 45.9102 51.1391Z" fill="#FBC02D"/>
<path d="M40.6113 48.9849L49.1729 29.5102L50.918 30.2773L42.3687 49.7241C41.7832 49.4834 41.1977 49.2426 40.6113 48.9849Z" fill="#FBC02D"/>
<path d="M37.122 47.4473C36.5357 47.1896 35.9563 46.9349 35.377 46.6802L43.9385 27.2055L45.6836 27.9727L37.122 47.4473Z" fill="#FBC02D"/>
<path d="M31.9521 45C31.3657 44.7422 30.804 44.4286 30.2469 44.1421L38.7042 24.9047L40.4492 25.6719L31.9521 45Z" fill="#FBC02D"/>
<path d="M26.8706 42.3469C26.2987 42.0372 25.7409 41.7336 25.1961 41.4192L33.4815 22.5727L35.2266 23.3398L26.8706 42.3469Z" fill="#FBC02D"/>
<path d="M21.8761 39.505C21.3166 39.1673 20.771 38.8359 20.2354 38.5005L28.2354 20.3031L29.9805 21.0703L21.8761 39.505Z" fill="#FBC02D"/>
<path d="M16.9938 36.3945C16.4496 36.022 15.9123 35.6525 15.3991 35.2853L22.9971 18.0024L24.7422 18.7695L16.9938 36.3945Z" fill="#FBC02D"/>
<path d="M12.2688 32.935C11.7291 32.5145 11.2234 32.0922 10.7386 31.6792L17.7628 15.7016L19.5078 16.4688L12.2688 32.935Z" fill="#FBC02D"/>
<path d="M7.79185 28.9068C7.27718 28.3723 6.81052 27.8423 6.40278 27.3299L12.5401 13.3696L14.2852 14.1367L7.79185 28.9068Z" fill="#FBC02D"/>
<path style="mix-blend-mode:multiply" d="M82.0795 55.3938L87.0508 44.0859L9.3335 9.91938L4.36226 21.2273C1.95335 26.7067 17.4033 38.7963 38.8603 48.2294C60.3174 57.6625 79.6706 60.8733 82.0795 55.3938Z" fill="url(#paint0_linear_414_19485)"/>
<path d="M9.3323 9.92024C6.92402 15.3983 22.3693 27.4875 43.8304 36.9224C65.2914 46.3572 84.6413 49.5648 87.0496 44.0868C89.4579 38.6088 74.0126 26.5195 52.5515 17.0847C31.0905 7.64986 11.7406 4.44222 9.3323 9.92024Z" fill="#FBC02D"/>
<path d="M12.6875 11.5711C10.9215 15.5881 25.3562 25.8197 44.9283 34.4241C64.5003 43.0285 81.7982 46.7473 83.5642 42.7304C85.3301 38.7134 70.8954 28.4818 51.3234 19.8774C31.7513 11.273 14.4534 7.55416 12.6875 11.5711Z" fill="#F9A825"/>
<path style="mix-blend-mode:multiply" d="M12.6875 11.5711C10.9215 15.5881 25.3562 25.8197 44.9283 34.4241C64.5003 43.0285 81.7982 46.7473 83.5642 42.7304C85.3301 38.7134 70.8954 28.4818 51.3234 19.8774C31.7513 11.273 14.4534 7.55416 12.6875 11.5711Z" fill="url(#paint1_linear_414_19485)"/>
<path style="mix-blend-mode:multiply" d="M50.7158 21.2595C69.1434 29.3608 83.013 38.9065 83.0928 43.3478C83.2969 43.1789 83.4592 42.9652 83.5672 42.7234C85.3317 38.7098 70.8958 28.4819 51.3234 19.8774C31.7509 11.2729 14.455 7.55053 12.6905 11.5641C12.5891 11.8083 12.5416 12.0715 12.5512 12.3358C15.8777 9.39204 32.2881 13.1582 50.7158 21.2595Z" fill="url(#paint2_radial_414_19485)"/>
<g style="mix-blend-mode:multiply">
<path style="mix-blend-mode:multiply" d="M38.3272 24.0084L45.2371 32.4852L72.2579 38.9252L49.2448 23.3691L38.3272 24.0084Z" fill="url(#paint3_linear_414_19485)"/>
<path style="mix-blend-mode:multiply" d="M35.4723 22.7518L46.3828 22.1094L23.1313 17.3264L42.3721 31.2325L35.4723 22.7518Z" fill="url(#paint4_linear_414_19485)"/>
</g>
<path d="M72.5131 38.3502L71.4231 37.7794L38.9443 23.5009L38.5733 23.4544L45.4801 31.9381L72.5131 38.3502Z" fill="#FDD835"/>
<path d="M72.5157 38.3471L49.5026 22.791L38.5851 23.4303L72.5157 38.3471Z" fill="#FDD835"/>
<path d="M35.7289 22.1754L35.5301 22.0213L23.957 16.9335L23.3879 16.75L42.6287 30.656L35.7289 22.1754Z" fill="#FDD835"/>
<path d="M23.3891 16.7522L35.7301 22.1776L46.6406 21.5352L23.3891 16.7522Z" fill="#FDD835"/>
<path d="M38.5833 23.4312L45.4901 31.9149L54.3516 30.3633L38.5833 23.4312Z" fill="#FDD835"/>
<path d="M49.5009 22.7913L38.5834 23.4306L54.3516 30.3627L49.5009 22.7913Z" fill="#FDD835"/>
<defs>
<linearGradient id="paint0_linear_414_19485" x1="67.705" y1="56.754" x2="-11.3104" y2="-22.1283" gradientUnits="userSpaceOnUse">
<stop offset="0.02" stop-color="white" stop-opacity="0"/>
<stop offset="1" stop-color="#F9A825"/>
</linearGradient>
<linearGradient id="paint1_linear_414_19485" x1="63.2519" y1="33.8005" x2="-22.367" y2="-3.83974" gradientUnits="userSpaceOnUse">
<stop offset="0.02" stop-color="white" stop-opacity="0"/>
<stop offset="1" stop-color="#F9A825"/>
</linearGradient>
<radialGradient id="paint2_radial_414_19485" cx="0" cy="0" r="1" gradientUnits="userSpaceOnUse" gradientTransform="translate(49.4684 23.8096) rotate(113.732) scale(18.9861 40.2505)">
<stop offset="0.02" stop-color="white" stop-opacity="0"/>
<stop offset="1" stop-color="#F9A825"/>
</radialGradient>
<linearGradient id="paint3_linear_414_19485" x1="80.4758" y1="42.7213" x2="-120.251" y2="-46.6478" gradientUnits="userSpaceOnUse">
<stop stop-color="#F9A825"/>
<stop offset="0.04" stop-color="#FAB443" stop-opacity="0.86"/>
<stop offset="0.09" stop-color="#FBC36A" stop-opacity="0.68"/>
<stop offset="0.15" stop-color="#FCD28E" stop-opacity="0.52"/>
<stop offset="0.22" stop-color="#FDDEAC" stop-opacity="0.38"/>
<stop offset="0.29" stop-color="#FDE8C6" stop-opacity="0.26"/>
<stop offset="0.37" stop-color="#FEF1DB" stop-opacity="0.16"/>
<stop offset="0.46" stop-color="#FEF7EB" stop-opacity="0.09"/>
<stop offset="0.56" stop-color="#FFFCF7" stop-opacity="0.04"/>
<stop offset="0.7" stop-color="#FFFEFD" stop-opacity="0.01"/>
<stop offset="0.98" stop-color="white" stop-opacity="0"/>
</linearGradient>
<linearGradient id="paint4_linear_414_19485" x1="80.337" y1="42.6754" x2="-119.932" y2="-46.4841" gradientUnits="userSpaceOnUse">
<stop stop-color="#F9A825"/>
<stop offset="0.04" stop-color="#FAB443" stop-opacity="0.86"/>
<stop offset="0.09" stop-color="#FBC36A" stop-opacity="0.68"/>
<stop offset="0.15" stop-color="#FCD28E" stop-opacity="0.52"/>
<stop offset="0.22" stop-color="#FDDEAC" stop-opacity="0.38"/>
<stop offset="0.29" stop-color="#FDE8C6" stop-opacity="0.26"/>
<stop offset="0.37" stop-color="#FEF1DB" stop-opacity="0.16"/>
<stop offset="0.46" stop-color="#FEF7EB" stop-opacity="0.09"/>
<stop offset="0.56" stop-color="#FFFCF7" stop-opacity="0.04"/>
<stop offset="0.7" stop-color="#FFFEFD" stop-opacity="0.01"/>
<stop offset="0.98" stop-color="white" stop-opacity="0"/>
</linearGradient>
</defs>
</svg>
