<svg width="83" height="86" viewBox="0 0 83 86" fill="none" xmlns="http://www.w3.org/2000/svg">
<path d="M74.5452 15.7174L65.457 7.35156L7.97533 69.7959L17.0634 78.1618C21.4673 82.2156 37.9042 71.52 53.7786 54.275C69.6531 37.03 78.949 19.7712 74.5452 15.7174Z" fill="#FDD835"/>
<path d="M74.4947 24.1138L62.6465 13.2072L63.9375 11.8047L75.1574 22.1329C74.9669 22.7452 74.7519 23.4178 74.4947 24.1138Z" fill="#FBC02D"/>
<path d="M72.0054 29.5963L58.7715 17.4142L60.0625 16.0117L72.9037 27.8324C72.6274 28.459 72.3312 28.9947 72.0054 29.5963Z" fill="#FBC02D"/>
<path d="M69.0616 34.6606L54.8965 21.6212L56.1875 20.2188L70.0777 33.0051C69.7548 33.5473 69.4108 34.1011 69.0616 34.6606Z" fill="#FBC02D"/>
<path d="M65.8413 39.4706L51.0254 25.8322L52.3164 24.4297L66.9415 37.8925C66.5643 38.4262 66.2185 38.9369 65.8413 39.4706Z" fill="#FBC02D"/>
<path d="M62.4021 44.0753L47.1543 30.0392L48.4453 28.6367L63.5922 42.5798C63.2024 43.0708 62.8411 43.5984 62.4021 44.0753Z" fill="#FBC02D"/>
<path d="M58.8132 48.5457L43.2793 34.2462L44.5703 32.8438L60.0313 47.076C59.6204 47.5787 59.2246 48.0538 58.8132 48.5457Z" fill="#FBC02D"/>
<path d="M55.0561 52.8611L39.4043 38.4533L40.6953 37.0508L56.3246 51.438C55.9072 51.9139 55.4898 52.3899 55.0561 52.8611Z" fill="#FBC02D"/>
<path d="M52.476 55.6657C52.0422 56.1369 51.6136 56.6025 51.185 57.0682L35.5332 42.6603L36.8242 41.2578L52.476 55.6657Z" fill="#FBC02D"/>
<path d="M48.4832 59.7643C48.0494 60.2355 47.5707 60.6654 47.1192 61.0996L31.6582 46.8673L32.9492 45.4648L48.4832 59.7643Z" fill="#FBC02D"/>
<path d="M44.3267 63.7103C43.8485 64.151 43.3806 64.5805 42.9066 64.994L27.7598 51.0509L29.0508 49.6484L44.3267 63.7103Z" fill="#FBC02D"/>
<path d="M40.019 67.5173C39.5184 67.9374 39.028 68.3462 38.5372 68.7442L23.9121 55.2814L25.2031 53.8789L40.019 67.5173Z" fill="#FBC02D"/>
<path d="M35.4972 71.1253C34.9685 71.5195 34.4449 71.9081 33.9312 72.2748L20.041 59.4884L21.332 58.0859L35.4972 71.1253Z" fill="#FBC02D"/>
<path d="M30.6909 74.479C30.1182 74.8535 29.555 75.1952 29.0072 75.52L16.166 63.6994L17.457 62.2969L30.6909 74.479Z" fill="#FBC02D"/>
<path d="M25.4332 77.4077C24.7608 77.7216 24.1082 77.9914 23.4914 78.2112L12.2715 67.883L13.5625 66.4805L25.4332 77.4077Z" fill="#FBC02D"/>
<path style="mix-blend-mode:multiply" d="M74.5452 15.7174L65.457 7.35156L7.97533 69.7959L17.0634 78.1618C21.4673 82.2156 37.9042 71.52 53.7786 54.275C69.6531 37.03 78.949 19.7712 74.5452 15.7174Z" fill="url(#paint0_linear_414_19427)"/>
<path d="M7.97065 69.7994C12.3733 73.8522 28.8136 63.1552 44.691 45.907C60.5684 28.6588 69.8705 11.391 65.4678 7.3382C61.0652 3.28542 44.6249 13.9824 28.7475 31.2306C12.8701 48.4788 3.56798 65.7466 7.97065 69.7994Z" fill="#FBC02D"/>
<path d="M10.6162 67.1609C13.8446 70.1327 28.2001 59.7901 42.68 44.0601C57.1599 28.3301 66.281 13.1693 63.0526 10.1974C59.8242 7.22556 45.4688 17.5681 30.9889 33.2981C16.5089 49.0281 7.38781 64.189 10.6162 67.1609Z" fill="#F9A825"/>
<path style="mix-blend-mode:multiply" d="M10.6162 67.1609C13.8446 70.1327 28.2001 59.7901 42.68 44.0601C57.1599 28.3301 66.281 13.1693 63.0526 10.1974C59.8242 7.22556 45.4688 17.5681 30.9889 33.2981C16.5089 49.0281 7.38781 64.189 10.6162 67.1609Z" fill="url(#paint1_linear_414_19427)"/>
<path style="mix-blend-mode:multiply" d="M32.0996 34.3206C45.738 19.5047 59.2615 9.47469 63.4892 10.8377C63.3903 10.5931 63.2394 10.3728 63.047 10.1922C59.8213 7.22288 45.469 17.5678 30.9889 33.2981C16.5087 49.0284 7.38489 64.1863 10.6106 67.1557C10.8088 67.3307 11.0424 67.461 11.2956 67.5375C9.58794 63.4368 18.4664 49.1309 32.0996 34.3206Z" fill="url(#paint2_radial_414_19427)"/>
<g style="mix-blend-mode:multiply">
<path style="mix-blend-mode:multiply" d="M28.2422 44.0946C28.4726 43.9232 28.6479 43.8566 28.7096 43.9134L34.3757 49.1291C34.4823 49.2273 33.9647 49.8908 33.5613 50.1827L27.363 54.6645C27.1275 54.8415 26.9521 54.9081 26.8904 54.8513L21.2244 49.6356C21.1178 49.5374 21.6353 48.8739 22.0388 48.582L28.2422 44.0946Z" fill="url(#paint3_linear_414_19427)"/>
<path style="mix-blend-mode:multiply" d="M47.1941 23.5065C47.4296 23.3294 47.6049 23.2628 47.6666 23.3196L53.3327 28.5354C53.4393 28.6335 52.9217 29.2971 52.5183 29.589L46.32 34.0707C46.0845 34.2478 45.9091 34.3144 45.8474 34.2576L40.1814 29.0418C40.0748 28.9437 40.5924 28.2801 40.9958 27.9882L47.1941 23.5065Z" fill="url(#paint4_linear_414_19427)"/>
<path style="mix-blend-mode:multiply" d="M42.5917 38.1219C42.7435 37.8782 42.7954 37.698 42.7337 37.6412L37.0677 32.4255C36.9611 32.3273 36.3477 32.8923 36.085 33.3241L32.1306 39.8715C31.9737 40.1209 31.9269 40.2955 31.9886 40.3523L37.6547 45.568C37.7613 45.6661 38.3747 45.1011 38.6374 44.6693L42.5917 38.1219Z" fill="url(#paint5_linear_414_19427)"/>
</g>
<path d="M28.0259 43.8943C28.2618 43.7281 28.4316 43.6563 28.4989 43.7182L34.1649 48.934C34.2715 49.0321 33.754 49.6957 33.3505 49.9876L27.1522 54.4693C26.9167 54.6464 26.7414 54.713 26.6797 54.6562L21.008 49.4353C20.907 49.3423 21.4246 48.6787 21.828 48.3868L28.0259 43.8943Z" fill="#FDD835"/>
<path d="M46.9778 23.3062C47.2189 23.1343 47.3942 23.0677 47.4559 23.1245L53.122 28.3402C53.2285 28.4384 52.711 29.102 52.3075 29.3939L46.1092 33.8756C45.8737 34.0526 45.6984 34.1193 45.6367 34.0624L39.965 28.8415C39.8641 28.7486 40.3816 28.085 40.785 27.7931L46.9778 23.3062Z" fill="#FDD835"/>
<path d="M42.381 37.9268C42.5328 37.6831 42.5847 37.5029 42.523 37.4461L36.8513 32.2252C36.7503 32.1322 36.137 32.6972 35.8742 33.129L31.9199 39.6764C31.7685 39.9309 31.7162 40.1003 31.7835 40.1623L37.4496 45.3781C37.5562 45.4762 38.1695 44.9112 38.4323 44.4794L42.381 37.9268Z" fill="#FDD835"/>
<defs>
<linearGradient id="paint0_linear_414_19427" x1="71.1864" y1="29.7464" x2="-29.0364" y2="78.9524" gradientUnits="userSpaceOnUse">
<stop offset="0.02" stop-color="white" stop-opacity="0"/>
<stop offset="1" stop-color="#F9A825"/>
</linearGradient>
<linearGradient id="paint1_linear_414_19427" x1="48.025" y1="26.5224" x2="-15.3179" y2="95.334" gradientUnits="userSpaceOnUse">
<stop offset="0.02" stop-color="white" stop-opacity="0"/>
<stop offset="1" stop-color="#F9A825"/>
</linearGradient>
<radialGradient id="paint2_radial_414_19427" cx="0" cy="0" r="1" gradientUnits="userSpaceOnUse" gradientTransform="translate(33.919 36.5323) rotate(42.6304) scale(18.9861 40.2505)">
<stop offset="0.02" stop-color="white" stop-opacity="0"/>
<stop offset="1" stop-color="#F9A825"/>
</radialGradient>
<linearGradient id="paint3_linear_414_19427" x1="49.2186" y1="26.7788" x2="-14.921" y2="94.4632" gradientUnits="userSpaceOnUse">
<stop stop-color="#F9A825"/>
<stop offset="0.07" stop-color="#FAB74B" stop-opacity="0.83"/>
<stop offset="0.16" stop-color="#FBC875" stop-opacity="0.63"/>
<stop offset="0.25" stop-color="#FCD79A" stop-opacity="0.46"/>
<stop offset="0.35" stop-color="#FDE3B9" stop-opacity="0.32"/>
<stop offset="0.45" stop-color="#FEEDD3" stop-opacity="0.2"/>
<stop offset="0.56" stop-color="#FEF5E6" stop-opacity="0.11"/>
<stop offset="0.67" stop-color="#FFFBF4" stop-opacity="0.05"/>
<stop offset="0.8" stop-color="#FFFEFC" stop-opacity="0.01"/>
<stop offset="0.98" stop-color="white" stop-opacity="0"/>
</linearGradient>
<linearGradient id="paint4_linear_414_19427" x1="49.9602" y1="25.4102" x2="-14.1903" y2="93.0952" gradientUnits="userSpaceOnUse">
<stop stop-color="#F9A825"/>
<stop offset="0.07" stop-color="#FAB74B" stop-opacity="0.83"/>
<stop offset="0.16" stop-color="#FBC875" stop-opacity="0.63"/>
<stop offset="0.25" stop-color="#FCD79A" stop-opacity="0.46"/>
<stop offset="0.35" stop-color="#FDE3B9" stop-opacity="0.32"/>
<stop offset="0.45" stop-color="#FEEDD3" stop-opacity="0.2"/>
<stop offset="0.56" stop-color="#FEF5E6" stop-opacity="0.11"/>
<stop offset="0.67" stop-color="#FFFBF4" stop-opacity="0.05"/>
<stop offset="0.8" stop-color="#FFFEFC" stop-opacity="0.01"/>
<stop offset="0.98" stop-color="white" stop-opacity="0"/>
</linearGradient>
<linearGradient id="paint5_linear_414_19427" x1="49.8275" y1="25.8482" x2="-15.5332" y2="94.8028" gradientUnits="userSpaceOnUse">
<stop stop-color="#F9A825"/>
<stop offset="0.07" stop-color="#FAB74B" stop-opacity="0.83"/>
<stop offset="0.16" stop-color="#FBC875" stop-opacity="0.63"/>
<stop offset="0.25" stop-color="#FCD79A" stop-opacity="0.46"/>
<stop offset="0.35" stop-color="#FDE3B9" stop-opacity="0.32"/>
<stop offset="0.45" stop-color="#FEEDD3" stop-opacity="0.2"/>
<stop offset="0.56" stop-color="#FEF5E6" stop-opacity="0.11"/>
<stop offset="0.67" stop-color="#FFFBF4" stop-opacity="0.05"/>
<stop offset="0.8" stop-color="#FFFEFC" stop-opacity="0.01"/>
<stop offset="0.98" stop-color="white" stop-opacity="0"/>
</linearGradient>
</defs>
</svg>
