<svg width="113" height="114" viewBox="0 0 113 114" fill="none" xmlns="http://www.w3.org/2000/svg">
<path d="M86.7505 26.9883L81.3327 22.2493L80.6902 22.984C66.5203 16.0904 46.7555 21.3724 33.362 36.6846C19.9685 51.9969 17.3438 72.3118 26.082 85.4152L25.4445 86.1441L30.8623 90.883C44.9119 103.172 68.8085 98.8297 84.2401 81.1874C99.6718 63.545 100.8 39.2774 86.7505 26.9883Z" fill="#FDD835"/>
<path d="M95.9196 43.2895L84.1083 32.9582L85.3633 31.5234L95.12 40.0575C95.443 41.1201 95.7099 42.1989 95.9196 43.2895Z" fill="#FBC02D"/>
<path d="M96.5674 51.4546L80.3426 37.2629L81.5977 35.8281L96.5598 48.9154C96.5944 49.7561 96.6082 50.6089 96.5674 51.4546Z" fill="#FBC02D"/>
<path d="M95.7671 58.3496L76.5809 41.5676L77.8359 40.1328L96.1498 56.1518C96.0473 56.8827 95.9183 57.6208 95.7671 58.3496Z" fill="#FBC02D"/>
<path d="M94.0752 64.4716L72.8114 45.8723L74.0664 44.4375L94.7276 62.5097C94.5225 63.161 94.3125 63.8181 94.0752 64.4716Z" fill="#FBC02D"/>
<path d="M91.7655 70.0425L69.0497 50.1731L70.3047 48.7383L92.5843 68.2261C92.3219 68.8273 92.0372 69.4191 91.7655 70.0425Z" fill="#FBC02D"/>
<path d="M88.8493 75.0901L65.284 54.4778L66.5391 53.043L89.869 73.4495C89.5434 73.9954 89.2021 74.5478 88.8493 75.0901Z" fill="#FBC02D"/>
<path d="M85.4625 79.7261L61.5184 58.7825L62.7734 57.3477L86.6371 78.221C86.2606 78.7325 85.8727 79.234 85.4625 79.7261Z" fill="#FBC02D"/>
<path d="M82.9518 82.596C82.5302 83.0781 82.0733 83.5193 81.6222 83.9656L57.7528 63.0871L59.0078 61.6523L82.9518 82.596Z" fill="#FBC02D"/>
<path d="M78.8074 86.5694C78.3169 86.9912 77.8148 87.403 77.3171 87.7984L53.9872 67.3918L55.2422 65.957L78.8074 86.5694Z" fill="#FBC02D"/>
<path d="M74.1924 90.1311C73.6394 90.5085 73.0907 90.8694 72.5299 91.2095L50.2215 71.6965L51.4766 70.2617L74.1924 90.1311Z" fill="#FBC02D"/>
<path d="M68.9805 93.1668C68.3644 93.489 67.7411 93.7846 67.1171 94.0695L46.4559 75.9973L47.7109 74.5625L68.9805 93.1668Z" fill="#FBC02D"/>
<path d="M63.1354 95.6531C62.4332 95.9 61.7131 96.1211 61.0081 96.3249L42.6942 80.3059L43.9492 78.8711L63.1354 95.6531Z" fill="#FBC02D"/>
<path d="M56.4084 97.3675C55.5641 97.5104 54.7285 97.6202 53.8907 97.6979L38.9286 84.6106L40.1836 83.1758L56.4084 97.3675Z" fill="#FBC02D"/>
<path d="M48.227 97.8112C47.1121 97.7441 46.0016 97.6182 44.9001 97.4337L35.1434 88.8996L36.3984 87.4648L48.227 97.8112Z" fill="#FBC02D"/>
<path style="mix-blend-mode:multiply" d="M86.7505 26.9883L81.3327 22.2493L80.6902 22.984C66.5203 16.0904 46.7555 21.3724 33.362 36.6846C19.9685 51.9969 17.3438 72.3118 26.082 85.4152L25.4445 86.1441L30.8623 90.883C44.9119 103.172 68.8085 98.8297 84.2401 81.1874C99.6718 63.545 100.8 39.2774 86.7505 26.9883Z" fill="url(#paint0_linear_414_19515)"/>
<path d="M25.4375 86.1494C39.4855 98.4371 63.3858 94.0936 78.8204 76.448C94.2549 58.8024 95.3788 34.5366 81.3308 22.2489C67.2827 9.96117 43.3824 14.3046 27.9479 31.9502C12.5134 49.5959 11.3894 73.8616 25.4375 86.1494Z" fill="#FBC02D"/>
<path d="M27.8956 83.3404C40.2067 94.1087 61.5976 89.7927 75.6736 73.7002C89.7496 57.6077 91.1803 35.8327 78.8693 25.0643C66.5582 14.2959 45.1673 18.6119 31.0913 34.7044C17.0153 50.7969 15.5846 72.572 27.8956 83.3404Z" fill="#F9A825"/>
<path style="mix-blend-mode:multiply" d="M27.8956 83.3404C40.2067 94.1087 61.5976 89.7927 75.6736 73.7002C89.7496 57.6077 91.1803 35.8327 78.8693 25.0643C66.5582 14.2959 45.1673 18.6119 31.0913 34.7044C17.0153 50.7969 15.5846 72.572 27.8956 83.3404Z" fill="url(#paint1_linear_414_19515)"/>
<path style="mix-blend-mode:multiply" d="M32.475 35.9108C46.2852 20.1222 67.1383 15.6807 79.5442 25.6913C79.3146 25.4905 79.0793 25.2846 78.8497 25.0838C66.5391 14.3158 45.148 18.6312 31.0718 34.724C16.9956 50.8167 15.597 72.5789 27.8962 83.3369C28.1258 83.5377 28.3611 83.7435 28.5906 83.9443C17.0281 72.9696 18.6648 51.6994 32.475 35.9108Z" fill="url(#paint2_radial_414_19515)"/>
<g style="mix-blend-mode:multiply">
<path style="mix-blend-mode:multiply" d="M63.4028 45.1657C66.0428 47.4749 69.6035 47.7124 71.3605 45.7037C73.1175 43.695 72.4132 40.1918 69.7732 37.8826C67.1332 35.5734 63.5782 35.3409 61.8162 37.3553C60.0541 39.3698 60.7685 42.8615 63.4028 45.1657Z" fill="url(#paint3_linear_414_19515)"/>
<path style="mix-blend-mode:multiply" d="M39.3949 72.611C42.035 74.9202 45.5957 75.1577 47.3527 73.149C49.1097 71.1403 48.4054 67.6371 45.7654 65.3279C43.1253 63.0187 39.5704 62.7862 37.8084 64.8007C36.0463 66.8151 36.7606 70.3068 39.3949 72.611Z" fill="url(#paint4_linear_414_19515)"/>
<path style="mix-blend-mode:multiply" d="M52.3455 44.3949C56.2803 42.5486 59.1109 39.3009 58.6858 37.1462C58.2608 34.9915 54.7102 34.7425 50.7467 36.5637C46.7833 38.3849 43.9814 41.6577 44.4114 43.8066C44.8415 45.9556 48.405 46.2361 52.3455 44.3949Z" fill="url(#paint5_linear_414_19515)"/>
<path style="mix-blend-mode:multiply" d="M58.4541 73.9485C62.3839 72.1079 65.2195 68.8545 64.7894 66.7056C64.3594 64.5567 60.8138 64.3019 56.8446 66.1181C52.8754 67.9343 50.0793 71.2121 50.5093 73.361C50.9393 75.5099 54.5136 75.7897 58.4541 73.9485Z" fill="url(#paint6_linear_414_19515)"/>
<path style="mix-blend-mode:multiply" d="M37.174 61.7034C39.3783 61.8586 42.2254 58.6153 43.5093 54.4605C44.7933 50.3057 44.0818 46.8571 41.8696 46.6645C39.6575 46.4719 36.8126 49.7476 35.5293 53.9131C34.2461 58.0787 34.964 61.5431 37.174 61.7034Z" fill="url(#paint7_linear_414_19515)"/>
<path style="mix-blend-mode:multiply" d="M67.2783 63.8259C69.4876 63.9755 72.3296 60.7378 73.6186 56.5773C74.9076 52.4168 74.1911 48.9739 71.9739 48.7871C69.7568 48.6002 66.9276 51.8694 65.6386 56.03C64.3497 60.1905 65.074 63.6707 67.2783 63.8259Z" fill="url(#paint8_linear_414_19515)"/>
</g>
<path d="M62.3871 44.275C65.0214 46.5792 68.5879 46.8218 70.3449 44.8131C72.1019 42.8043 71.3919 39.2962 68.7576 36.992C66.1233 34.6878 62.5626 34.4502 60.8006 36.4647C59.0385 38.4792 59.7528 41.9708 62.3871 44.275Z" fill="#FDD835"/>
<path d="M38.3793 71.7204C41.0136 74.0246 44.58 74.2671 46.3371 72.2584C48.0941 70.2497 47.3841 66.7415 44.7498 64.4373C42.1155 62.1331 38.5548 61.8956 36.7927 63.91C35.0307 65.9245 35.745 69.4162 38.3793 71.7204Z" fill="#FDD835"/>
<path d="M51.3252 43.5084C55.2599 41.6621 58.0905 38.4144 57.6655 36.2598C57.2405 34.1051 53.6611 33.831 49.7264 35.6772C45.7916 37.5235 42.9553 40.7662 43.3911 42.9201C43.8268 45.0741 47.3847 45.3497 51.3252 43.5084Z" fill="#FDD835"/>
<path d="M57.4306 73.0588C61.3661 71.2232 64.2017 67.9698 63.7659 65.8159C63.3301 63.6619 59.7903 63.4122 55.8268 65.2334C51.8634 67.0546 49.0615 70.3273 49.4915 72.4763C49.9215 74.6252 53.4959 74.905 57.4306 73.0588Z" fill="#FDD835"/>
<path d="M36.1545 60.8088C38.3645 60.9691 41.2116 57.7257 42.4898 53.5659C43.768 49.4061 43.0623 45.9625 40.8501 45.77C38.638 45.5774 35.793 48.853 34.5098 53.0186C33.2266 57.1841 33.9502 60.6536 36.1545 60.8088Z" fill="#FDD835"/>
<path d="M66.2627 62.9353C68.4719 63.0848 71.314 59.8472 72.603 55.6867C73.892 51.5262 73.1755 48.0833 70.9583 47.8964C68.7411 47.7096 65.912 50.9788 64.623 55.1393C63.334 59.2999 64.0526 62.775 66.2627 62.9353Z" fill="#FDD835"/>
<defs>
<linearGradient id="paint0_linear_414_19515" x1="74.3661" y1="41.1469" x2="6.8313" y2="118.357" gradientUnits="userSpaceOnUse">
<stop offset="0.02" stop-color="white" stop-opacity="0"/>
<stop offset="1" stop-color="#F9A825"/>
</linearGradient>
<linearGradient id="paint1_linear_414_19515" x1="70.285" y1="34.8784" x2="-5.18652" y2="121.162" gradientUnits="userSpaceOnUse">
<stop offset="0.02" stop-color="white" stop-opacity="0"/>
<stop offset="1" stop-color="#F9A825"/>
</linearGradient>
<radialGradient id="paint2_radial_414_19515" cx="0" cy="0" r="1" gradientUnits="userSpaceOnUse" gradientTransform="translate(42.4886 44.8577) rotate(41.176) scale(29.4246 38.8405)">
<stop offset="0.02" stop-color="white" stop-opacity="0"/>
<stop offset="1" stop-color="#F9A825"/>
</radialGradient>
<linearGradient id="paint3_linear_414_19515" x1="17.3533" y1="106.695" x2="80.6699" y2="22.8886" gradientUnits="userSpaceOnUse">
<stop offset="0.02" stop-color="white" stop-opacity="0"/>
<stop offset="0.03" stop-color="#FFFDFB" stop-opacity="0.02"/>
<stop offset="0.4" stop-color="#FCD9A1" stop-opacity="0.43"/>
<stop offset="0.69" stop-color="#FBBF5E" stop-opacity="0.74"/>
<stop offset="0.9" stop-color="#F9AE35" stop-opacity="0.93"/>
<stop offset="1" stop-color="#F9A825"/>
</linearGradient>
<linearGradient id="paint4_linear_414_19515" x1="15.1991" y1="105.218" x2="78.5208" y2="21.4059" gradientUnits="userSpaceOnUse">
<stop offset="0.02" stop-color="white" stop-opacity="0"/>
<stop offset="0.03" stop-color="#FFFDFB" stop-opacity="0.02"/>
<stop offset="0.4" stop-color="#FCD9A1" stop-opacity="0.43"/>
<stop offset="0.69" stop-color="#FBBF5E" stop-opacity="0.74"/>
<stop offset="0.9" stop-color="#F9AE35" stop-opacity="0.93"/>
<stop offset="1" stop-color="#F9A825"/>
</linearGradient>
<linearGradient id="paint5_linear_414_19515" x1="6.69801" y1="99.813" x2="70.5662" y2="15.2832" gradientUnits="userSpaceOnUse">
<stop offset="0.02" stop-color="white" stop-opacity="0"/>
<stop offset="0.03" stop-color="#FFFDFB" stop-opacity="0.02"/>
<stop offset="0.4" stop-color="#FCD9A1" stop-opacity="0.43"/>
<stop offset="0.69" stop-color="#FBBF5E" stop-opacity="0.74"/>
<stop offset="0.9" stop-color="#F9AE35" stop-opacity="0.93"/>
<stop offset="1" stop-color="#F9A825"/>
</linearGradient>
<linearGradient id="paint6_linear_414_19515" x1="25.1929" y1="112.971" x2="89.066" y2="28.4352" gradientUnits="userSpaceOnUse">
<stop offset="0.02" stop-color="white" stop-opacity="0"/>
<stop offset="0.03" stop-color="#FFFDFB" stop-opacity="0.02"/>
<stop offset="0.4" stop-color="#FCD9A1" stop-opacity="0.43"/>
<stop offset="0.69" stop-color="#FBBF5E" stop-opacity="0.74"/>
<stop offset="0.9" stop-color="#F9AE35" stop-opacity="0.93"/>
<stop offset="1" stop-color="#F9A825"/>
</linearGradient>
<linearGradient id="paint7_linear_414_19515" x1="6.10437" y1="98.4285" x2="69.2382" y2="14.8772" gradientUnits="userSpaceOnUse">
<stop offset="0.02" stop-color="white" stop-opacity="0"/>
<stop offset="0.03" stop-color="#FFFDFB" stop-opacity="0.02"/>
<stop offset="0.4" stop-color="#FCD9A1" stop-opacity="0.43"/>
<stop offset="0.69" stop-color="#FBBF5E" stop-opacity="0.74"/>
<stop offset="0.9" stop-color="#F9AE35" stop-opacity="0.93"/>
<stop offset="1" stop-color="#F9A825"/>
</linearGradient>
<linearGradient id="paint8_linear_414_19515" x1="26.6723" y1="113.179" x2="89.8004" y2="29.6229" gradientUnits="userSpaceOnUse">
<stop offset="0.02" stop-color="white" stop-opacity="0"/>
<stop offset="0.03" stop-color="#FFFDFB" stop-opacity="0.02"/>
<stop offset="0.4" stop-color="#FCD9A1" stop-opacity="0.43"/>
<stop offset="0.69" stop-color="#FBBF5E" stop-opacity="0.74"/>
<stop offset="0.9" stop-color="#F9AE35" stop-opacity="0.93"/>
<stop offset="1" stop-color="#F9A825"/>
</linearGradient>
</defs>
</svg>
