<svg width="82" height="83" viewBox="0 0 82 83" fill="none" xmlns="http://www.w3.org/2000/svg">
<path d="M24.6265 15.0838L20.4038 18.2452L20.8325 18.8177C13.7314 27.9245 14.5055 42.8975 23.4405 54.8319C32.3755 66.7664 46.5378 71.7438 57.2624 67.477L57.6877 68.0451L61.9104 64.8837C72.8608 56.6855 73.39 38.894 63.0953 25.1434C52.8006 11.3928 35.5768 6.88552 24.6265 15.0838Z" fill="#FDD835"/>
<path d="M37.7032 10.984L28.4974 17.8761L27.6602 16.7578L35.2646 11.0646C36.0755 10.9949 36.8895 10.968 37.7032 10.984Z" fill="#FBC02D"/>
<path d="M43.6548 11.768L31.0091 21.2355L30.1719 20.1172L41.8335 11.3865C42.4581 11.5122 43.0548 11.6099 43.6548 11.768Z" fill="#FBC02D"/>
<path d="M48.4747 13.3954L33.5208 24.591L32.6836 23.4727L46.9575 12.7861C47.4659 12.971 47.9753 13.1759 48.4747 13.3954Z" fill="#FBC02D"/>
<path d="M52.6018 15.5386L36.0286 27.9464L35.1914 26.8281L51.2949 14.7719C51.7405 15.0315 52.1695 15.2688 52.6018 15.5386Z" fill="#FBC02D"/>
<path d="M56.2452 18.0428L38.5404 31.298L37.7031 30.1797L55.068 17.179C55.4589 17.4588 55.8398 17.753 56.2452 18.0428Z" fill="#FBC02D"/>
<path d="M59.419 20.9026L41.0521 34.6535L40.2148 33.5352L58.3983 19.9216C58.7501 20.2516 59.084 20.5671 59.419 20.9026Z" fill="#FBC02D"/>
<path d="M62.2298 24.0371L43.5677 38.0089L42.7305 36.8906L61.33 22.9657C61.6392 23.3135 61.9396 23.668 62.2298 24.0371Z" fill="#FBC02D"/>
<path d="M63.9043 26.2742C64.1856 26.65 64.4323 27.0447 64.6834 27.4361L46.0794 41.3644L45.2422 40.2461L63.9043 26.2742Z" fill="#FBC02D"/>
<path d="M66.1169 29.8508C66.3445 30.2667 66.5632 30.6893 66.7707 31.1064L48.5872 44.7199L47.75 43.6016L66.1169 29.8508Z" fill="#FBC02D"/>
<path d="M67.9666 33.7019C68.1528 34.1558 68.3279 34.6041 68.4862 35.0579L51.099 48.0753L50.2617 46.957L67.9666 33.7019Z" fill="#FBC02D"/>
<path d="M69.3471 37.9013C69.4842 38.392 69.6011 38.8838 69.7102 39.3746L53.6068 51.4308L52.7695 50.3125L69.3471 37.9013Z" fill="#FBC02D"/>
<path d="M70.239 42.4724C70.3089 43.0134 70.3577 43.5633 70.3963 44.0997L56.1224 54.7863L55.2852 53.668L70.239 42.4724Z" fill="#FBC02D"/>
<path d="M70.4426 47.552C70.4163 48.179 70.3677 48.7947 70.2957 49.4071L58.6341 58.1378L57.7969 57.0195L70.4426 47.552Z" fill="#FBC02D"/>
<path d="M69.5161 53.4845C69.2981 54.2735 69.0386 55.0503 68.7385 55.8118L61.1341 61.505L60.2969 60.3867L69.5161 53.4845Z" fill="#FBC02D"/>
<path style="mix-blend-mode:multiply" d="M24.6265 15.0838L20.4038 18.2452L20.8325 18.8177C13.7314 27.9245 14.5055 42.8975 23.4405 54.8319C32.3755 66.7664 46.5378 71.7438 57.2624 67.477L57.6877 68.0451L61.9104 64.8837C72.8608 56.6855 73.39 38.894 63.0953 25.1434C52.8006 11.3928 35.5768 6.88552 24.6265 15.0838Z" fill="url(#paint0_linear_414_12870)"/>
<path d="M57.6827 68.0439C68.6319 59.8465 69.1609 42.0522 58.8643 28.2991C48.5677 14.546 31.3446 10.0421 20.3955 18.2395C9.44634 26.4368 8.91735 44.2311 19.214 57.9842C29.5106 71.7373 46.7336 76.2412 57.6827 68.0439Z" fill="#FBC02D"/>
<path d="M56.0432 65.8548C65.6385 58.671 65.8047 42.6796 56.4144 30.137C47.0241 17.5945 31.6332 13.2503 22.0379 20.4341C12.4426 27.6178 12.2764 43.6092 21.6667 56.1518C31.057 68.6943 46.4479 73.0385 56.0432 65.8548Z" fill="#F9A825"/>
<path style="mix-blend-mode:multiply" d="M56.0432 65.8548C65.6385 58.671 65.8047 42.6796 56.4144 30.137C47.0241 17.5945 31.6332 13.2503 22.0379 20.4341C12.4426 27.6178 12.2764 43.6092 21.6667 56.1518C31.057 68.6943 46.4479 73.0385 56.0432 65.8548Z" fill="url(#paint1_linear_414_12870)"/>
<path style="mix-blend-mode:multiply" d="M22.7431 55.3424C13.5301 43.0367 13.5277 27.4162 22.5909 20.0445C22.412 20.1784 22.2286 20.3157 22.0496 20.4497C12.4546 27.6332 12.288 43.6246 21.6784 56.1674C31.0689 68.7102 46.46 73.0539 56.0549 65.8704C56.2339 65.7364 56.4173 65.5991 56.5962 65.4652C46.9436 72.0496 31.9561 67.6481 22.7431 55.3424Z" fill="url(#paint2_radial_414_12870)"/>
<g style="mix-blend-mode:multiply">
<path style="mix-blend-mode:multiply" d="M36.4395 54.0611C36.4434 53.9329 36.4755 53.8072 36.5333 53.6927C36.5911 53.5783 36.6734 53.4779 36.7742 53.3987L55.1858 39.6144C55.5213 39.3632 56.0597 39.728 56.0369 40.1918L55.6922 47.3116C55.6892 47.4412 55.6576 47.5685 55.5995 47.6844C55.5414 47.8003 55.4584 47.9019 55.3564 47.9819L36.9492 61.7628C36.6138 62.014 36.0754 61.6492 36.1026 61.1821L36.4395 54.0611Z" fill="url(#paint3_linear_414_12870)"/>
<path style="mix-blend-mode:multiply" d="M24.1498 37.6437C24.1532 37.5151 24.1845 37.3888 24.2418 37.2736C24.299 37.1584 24.3807 37.0571 24.4812 36.9768L42.8928 23.1925C43.2283 22.9413 43.7667 23.3061 43.744 23.7699L43.3993 30.8897C43.3963 31.0193 43.3646 31.1466 43.3066 31.2625C43.2485 31.3784 43.1655 31.48 43.0634 31.56L24.6563 45.341C24.3208 45.5921 23.7824 45.2273 23.8096 44.7602L24.1498 37.6437Z" fill="url(#paint4_linear_414_12870)"/>
<path style="mix-blend-mode:multiply" d="M45.8242 34.1154C45.6992 34.0837 45.5687 34.0796 45.4419 34.1035C45.315 34.1273 45.1949 34.1785 45.0899 34.2534L26.6783 48.0377C26.3428 48.2889 26.5378 48.9037 26.9971 49.0136L33.928 50.7004C34.052 50.7338 34.1819 50.7391 34.3082 50.7158C34.4345 50.6925 34.554 50.6412 34.6579 50.5658L53.0695 36.7814C53.405 36.5303 53.21 35.9154 52.7552 35.8022L45.8242 34.1154Z" fill="url(#paint5_linear_414_12870)"/>
</g>
<path d="M35.7504 54.5789C35.7544 54.4507 35.7864 54.325 35.8442 54.2105C35.9021 54.0961 35.9843 53.9957 36.0851 53.9165L54.4967 40.1322C54.8322 39.881 55.3706 40.2458 55.3478 40.7095L55.0032 47.8294C55.001 47.9591 54.9696 48.0867 54.9115 48.2027C54.8534 48.3188 54.7699 48.4202 54.6673 48.4996L36.2602 62.2806C35.9202 62.5351 35.3863 62.167 35.4091 61.7032L35.7504 54.5789Z" fill="#FDD835"/>
<path d="M23.4608 38.1654C23.4641 38.0368 23.4955 37.9105 23.5527 37.7953C23.6099 37.6801 23.6917 37.5788 23.7921 37.4985L42.2038 23.7142C42.5392 23.463 43.0776 23.8278 43.0549 24.2916L42.7102 31.4114C42.708 31.5412 42.6767 31.6688 42.6185 31.7848C42.5604 31.9008 42.477 32.0023 42.3744 32.0817L23.9672 45.8626C23.6272 46.1172 23.0934 45.749 23.1161 45.2853L23.4608 38.1654Z" fill="#FDD835"/>
<path d="M45.1268 34.6405C45.0018 34.608 44.8711 34.6035 44.7442 34.6274C44.6172 34.6512 44.4971 34.7028 44.3924 34.7784L25.9853 48.5594C25.6453 48.8139 25.8448 49.4254 26.2996 49.5387L33.2283 51.2131C33.3523 51.2466 33.4822 51.2518 33.6085 51.2285C33.7348 51.2052 33.8543 51.154 33.9582 51.0785L52.3698 37.2942C52.7053 37.043 52.5103 36.4282 52.0555 36.3149L45.1268 34.6405Z" fill="#FDD835"/>
<defs>
<linearGradient id="paint0_linear_414_12870" x1="32.8817" y1="26.1102" x2="77.9352" y2="86.2879" gradientUnits="userSpaceOnUse">
<stop offset="0.02" stop-color="white" stop-opacity="0"/>
<stop offset="1" stop-color="#F9A825"/>
</linearGradient>
<linearGradient id="paint1_linear_414_12870" x1="27.7646" y1="28.0832" x2="78.1129" y2="95.333" gradientUnits="userSpaceOnUse">
<stop offset="0.02" stop-color="white" stop-opacity="0"/>
<stop offset="1" stop-color="#F9A825"/>
</linearGradient>
<radialGradient id="paint2_radial_414_12870" cx="0" cy="0" r="1" gradientUnits="userSpaceOnUse" gradientTransform="translate(30.469 49.2427) rotate(-36.8212) scale(21.5638 28.4642)">
<stop offset="0.02" stop-color="white" stop-opacity="0"/>
<stop offset="1" stop-color="#F9A825"/>
</radialGradient>
<linearGradient id="paint3_linear_414_12870" x1="32.0677" y1="31.4017" x2="74.0018" y2="89.1471" gradientUnits="userSpaceOnUse">
<stop stop-color="#F9A825"/>
<stop offset="0.07" stop-color="#FAB74B" stop-opacity="0.83"/>
<stop offset="0.16" stop-color="#FBC875" stop-opacity="0.63"/>
<stop offset="0.25" stop-color="#FCD79A" stop-opacity="0.46"/>
<stop offset="0.35" stop-color="#FDE3B9" stop-opacity="0.32"/>
<stop offset="0.45" stop-color="#FEEDD3" stop-opacity="0.2"/>
<stop offset="0.56" stop-color="#FEF5E6" stop-opacity="0.11"/>
<stop offset="0.67" stop-color="#FFFBF4" stop-opacity="0.05"/>
<stop offset="0.8" stop-color="#FFFEFC" stop-opacity="0.01"/>
<stop offset="0.98" stop-color="white" stop-opacity="0"/>
</linearGradient>
<linearGradient id="paint4_linear_414_12870" x1="31.6843" y1="31.3816" x2="73.6219" y2="89.1316" gradientUnits="userSpaceOnUse">
<stop stop-color="#F9A825"/>
<stop offset="0.07" stop-color="#FAB74B" stop-opacity="0.83"/>
<stop offset="0.16" stop-color="#FBC875" stop-opacity="0.63"/>
<stop offset="0.25" stop-color="#FCD79A" stop-opacity="0.46"/>
<stop offset="0.35" stop-color="#FDE3B9" stop-opacity="0.32"/>
<stop offset="0.45" stop-color="#FEEDD3" stop-opacity="0.2"/>
<stop offset="0.56" stop-color="#FEF5E6" stop-opacity="0.11"/>
<stop offset="0.67" stop-color="#FFFBF4" stop-opacity="0.05"/>
<stop offset="0.8" stop-color="#FFFEFC" stop-opacity="0.01"/>
<stop offset="0.98" stop-color="white" stop-opacity="0"/>
</linearGradient>
<linearGradient id="paint5_linear_414_12870" x1="31.8434" y1="31.3476" x2="73.945" y2="89.3167" gradientUnits="userSpaceOnUse">
<stop stop-color="#F9A825"/>
<stop offset="0.07" stop-color="#FAB74B" stop-opacity="0.83"/>
<stop offset="0.16" stop-color="#FBC875" stop-opacity="0.63"/>
<stop offset="0.25" stop-color="#FCD79A" stop-opacity="0.46"/>
<stop offset="0.35" stop-color="#FDE3B9" stop-opacity="0.32"/>
<stop offset="0.45" stop-color="#FEEDD3" stop-opacity="0.2"/>
<stop offset="0.56" stop-color="#FEF5E6" stop-opacity="0.11"/>
<stop offset="0.67" stop-color="#FFFBF4" stop-opacity="0.05"/>
<stop offset="0.8" stop-color="#FFFEFC" stop-opacity="0.01"/>
<stop offset="0.98" stop-color="white" stop-opacity="0"/>
</linearGradient>
</defs>
</svg>
