<svg width="73" height="64" viewBox="0 0 73 64" fill="none" xmlns="http://www.w3.org/2000/svg">
<g filter="url(#filter0_d_414_20129)">
<path d="M22.0004 35.8333V21.9831C22.0004 21.4571 22.2146 20.9526 22.596 20.5807C22.9773 20.2088 23.4944 20 24.0337 20H48.5073C49.0466 20 49.5638 20.2088 49.9452 20.5807C50.3265 20.9526 50.5407 21.4571 50.5407 21.9831V43.0169C50.5407 43.5429 50.3265 44.0471 49.9452 44.419C49.5638 44.7909 49.0466 45 48.5073 45H26.0148" stroke="#FF2F34"/>
<path d="M26.6094 25H30.0419L32.4104 35H41.994" stroke="#FF2F34"/>
<path d="M33.4834 26.668H41.9947L40.5331 31.668H31.7383" stroke="#FF2F34"/>
<path d="M33.4477 39.1652C33.4477 39.33 33.3975 39.4909 33.3036 39.6279C33.2097 39.765 33.0762 39.8721 32.92 39.9352C32.7638 39.9983 32.592 40.0149 32.4262 39.9827C32.2604 39.9505 32.1082 39.8713 31.9886 39.7547C31.8691 39.6382 31.7877 39.4896 31.7547 39.328C31.7217 39.1663 31.7387 38.9987 31.8034 38.8464C31.8681 38.6941 31.9776 38.5639 32.1181 38.4724C32.2587 38.3808 32.4239 38.332 32.593 38.332C32.8196 38.332 33.037 38.4194 33.1973 38.5757C33.3576 38.732 33.4477 38.9442 33.4477 39.1652V39.1652Z" stroke="#FF2F34"/>
<path d="M40.2836 39.1652C40.2836 39.33 40.2336 39.4909 40.1397 39.6279C40.0458 39.765 39.9122 39.8721 39.756 39.9352C39.5999 39.9983 39.428 40.0149 39.2622 39.9827C39.0964 39.9505 38.944 39.8713 38.8245 39.7547C38.705 39.6382 38.6236 39.4896 38.5907 39.328C38.5577 39.1663 38.5745 38.9987 38.6392 38.8464C38.7039 38.6941 38.8135 38.5639 38.9541 38.4724C39.0947 38.3808 39.2599 38.332 39.429 38.332C39.6557 38.332 39.873 38.4194 40.0333 38.5757C40.1936 38.732 40.2836 38.9442 40.2836 39.1652V39.1652Z" stroke="#FF2F34"/>
</g>
<defs>
<filter id="filter0_d_414_20129" x="0.5" y="-1.5" width="71.5391" height="68" filterUnits="userSpaceOnUse" color-interpolation-filters="sRGB">
<feFlood flood-opacity="0" result="BackgroundImageFix"/>
<feColorMatrix in="SourceAlpha" type="matrix" values="0 0 0 0 0 0 0 0 0 0 0 0 0 0 0 0 0 0 127 0" result="hardAlpha"/>
<feOffset/>
<feGaussianBlur stdDeviation="10.5"/>
<feComposite in2="hardAlpha" operator="out"/>
<feColorMatrix type="matrix" values="0 0 0 0 1 0 0 0 0 0.235294 0 0 0 0 0.262745 0 0 0 1 0"/>
<feBlend mode="normal" in2="BackgroundImageFix" result="effect1_dropShadow_414_20129"/>
<feBlend mode="normal" in="SourceGraphic" in2="effect1_dropShadow_414_20129" result="shape"/>
</filter>
</defs>
</svg>
