<svg width="159" height="159" viewBox="0 0 159 159" fill="none" xmlns="http://www.w3.org/2000/svg">
    <path d="M116.691 111.239C134.269 90.6481 131.828 59.7058 111.237 42.1272C90.6466 24.5486 59.7044 26.9903 42.1258 47.5808C24.5472 68.1714 26.9888 99.1136 47.5794 116.692C68.1699 134.271 99.1121 131.829 116.691 111.239Z" fill="#FDD835"/>
    <path d="M59.289 118.594C81.0789 129.797 107.825 121.214 119.027 99.424C130.229 77.6341 121.646 50.8885 99.8565 39.6861C78.0666 28.4837 51.321 37.0665 40.1186 58.8565C28.9162 80.6464 37.4991 107.392 59.289 118.594Z" fill="#FBC02D"/>
    <path style="mix-blend-mode:multiply" d="M59.289 118.594C81.0789 129.797 107.825 121.214 119.027 99.424C130.229 77.6341 121.646 50.8885 99.8565 39.6861C78.0666 28.4837 51.321 37.0665 40.1186 58.8565C28.9162 80.6464 37.4991 107.392 59.289 118.594Z" fill="url(#paint0_linear_414_12744)"/>
    <g style="mix-blend-mode:multiply">
    <path style="mix-blend-mode:multiply" d="M41.6301 59.6339C52.8309 37.8472 78.9 28.9125 99.8566 39.6865C94.6731 37.021 89.0153 35.4025 83.2063 34.9235C77.3974 34.4445 71.5509 35.1143 66.0008 36.8948C60.4507 38.6753 55.3056 41.5315 50.8593 45.3004C46.4131 49.0692 42.7526 53.677 40.0871 58.8605C37.4215 64.044 35.8031 69.7017 35.3241 75.5107C34.8451 81.3197 35.515 87.1661 37.2954 92.7163C39.0759 98.2664 41.9321 103.411 45.701 107.858C49.4699 112.304 54.0776 115.964 59.2611 118.63C38.3123 107.86 30.4253 81.4285 41.6301 59.6339Z" fill="url(#paint1_radial_414_12744)"/>
    <path style="mix-blend-mode:multiply" d="M99.8477 39.6836C120.796 50.4536 128.7 76.8538 117.499 98.6405C106.298 120.427 80.2166 129.405 59.26 118.631C69.7037 123.816 81.7685 124.681 92.8453 121.04C103.922 117.399 113.121 109.545 118.452 99.175C123.783 88.8053 124.818 76.7539 121.334 65.6269C117.849 54.4999 110.125 45.1916 99.8315 39.7149L99.8477 39.6836Z" fill="url(#paint2_radial_414_12744)"/>
    </g>
    <g style="mix-blend-mode:multiply">
    <path style="mix-blend-mode:multiply" d="M64.2932 71.6717L61.0508 66.5195L53.3568 81.4852L62.2225 95.4591L65.0609 89.938L59.4732 81.1049L64.2932 71.6717Z" fill="url(#paint3_linear_414_12744)"/>
    <path style="mix-blend-mode:multiply" d="M69.1415 62.2448L75.2497 61.8998L71.98 56.7237L65.8991 57.0926L63.0768 62.5823L66.3192 67.7345L69.1415 62.2448Z" fill="url(#paint4_linear_414_12744)"/>
    <path style="mix-blend-mode:multiply" d="M81.9421 65.3386L85.1845 70.4909L91.2927 70.1459L88.0229 64.9698L81.9421 65.3386Z" fill="url(#paint5_linear_414_12744)"/>
    <path style="mix-blend-mode:multiply" d="M63.8256 80.8805L67.0801 86.0092L69.9024 80.5194L66.6641 75.3594L63.8256 80.8805Z" fill="url(#paint6_linear_414_12744)"/>
    <path style="mix-blend-mode:multiply" d="M67.3906 93.6406L64.5683 99.1304L67.8107 104.283L73.9189 103.938L76.7412 98.4479L70.6331 98.7928L67.3906 93.6406Z" fill="url(#paint7_linear_414_12744)"/>
    <path style="mix-blend-mode:multiply" d="M101.224 78.733L98.4012 84.2228L104.509 83.8778L107.332 78.3881L104.062 73.212L97.9811 73.5808L101.224 78.733Z" fill="url(#paint8_linear_414_12744)"/>
    <path style="mix-blend-mode:multiply" d="M96.4066 88.1804L91.5319 97.5854L81.1045 98.1851L78.2701 103.698L94.7895 102.785L102.488 87.8115L96.4066 88.1804Z" fill="url(#paint9_linear_414_12744)"/>
    <path style="mix-blend-mode:multiply" d="M92.0307 88.3955L85.9498 88.7645L83.1275 94.2542L89.1922 93.9167L92.0307 88.3955Z" fill="url(#paint10_linear_414_12744)"/>
    <path style="mix-blend-mode:multiply" d="M90.04 61.051L95.6391 69.9198L101.72 69.5508L92.8664 55.5534L76.3544 56.5101L79.5927 61.6701L90.04 61.051Z" fill="url(#paint11_linear_414_12744)"/>
    <path style="mix-blend-mode:multiply" d="M96.8781 78.9653L96.9016 78.9774L93.6279 73.8091L83.1649 74.4203L77.6128 65.5756L71.5125 65.9246L68.674 71.4457L74.2852 80.291L69.4256 89.7434L72.6801 94.8721L78.7527 94.5385L83.6123 85.0861L94.071 84.5025L96.8781 78.9653Z" fill="url(#paint12_linear_414_12744)"/>
    </g>
    <path d="M62.4038 70.7406L57.5725 80.1382L63.1682 88.9557L60.3499 94.4377L51.4764 80.4597L59.1462 65.541L62.4038 70.7406ZM67.2352 61.343L64.4169 66.825L61.1394 61.6448L63.9577 56.1629L70.0777 55.8141L73.3553 60.9943L67.2352 61.343ZM80.0314 64.4364L86.1514 64.0877L89.4289 69.2678L83.3129 69.6088L80.0314 64.4364Z" fill="#FDD835"/>
    <path d="M61.9453 79.9133L64.7837 74.3923L68.0613 79.5724L65.243 85.0543L61.9453 79.9133ZM65.528 92.6466L68.8096 97.8189L74.9256 97.4779L72.1073 102.96L65.9912 103.301L62.7097 98.1285L65.528 92.6466ZM96.117 72.5897L102.237 72.241L105.515 77.4211L102.696 82.903L96.5763 83.2518L99.3946 77.7699L96.117 72.5897ZM89.7077 96.612L94.539 87.2145L100.659 86.8657L92.9611 101.839L76.4376 102.76L79.2559 97.2784L89.7077 96.612Z" fill="#FDD835"/>
    <path d="M87.3136 92.9524L81.2097 93.2698L84.028 87.7879L90.148 87.4391L87.3136 92.9524Z" fill="#FDD835"/>
    <path d="M94.9943 78.0084L92.176 83.4903L81.7332 84.0623L76.8736 93.5146L70.7697 93.8321L67.476 88.6833L72.3114 79.2779L66.7 70.4523L69.5183 64.9703L75.6384 64.6216L81.1827 73.4622L91.6534 72.8551L94.931 78.0352L94.9943 78.0084ZM74.4522 55.566L90.972 54.6133L99.8418 68.5794L93.7218 68.9282L88.1305 60.0634L77.6832 60.6826L74.4522 55.566Z" fill="#FDD835"/>
    <defs>
    <linearGradient id="paint0_linear_414_12744" x1="80.8933" y1="76.5716" x2="46.7677" y2="142.95" gradientUnits="userSpaceOnUse">
    <stop offset="0.02" stop-color="white" stop-opacity="0"/>
    <stop offset="1" stop-color="#F9A825"/>
    </linearGradient>
    <radialGradient id="paint1_radial_414_12744" cx="0" cy="0" r="1" gradientUnits="userSpaceOnUse" gradientTransform="translate(80.6126 78.0811) rotate(27.2081) scale(120.435 120.435)">
    <stop offset="0.02" stop-color="white" stop-opacity="0"/>
    <stop offset="1" stop-color="#F9A825"/>
    </radialGradient>
    <radialGradient id="paint2_radial_414_12744" cx="0" cy="0" r="1" gradientUnits="userSpaceOnUse" gradientTransform="translate(80.6115 78.0823) rotate(27.2081) scale(120.435 120.435)">
    <stop offset="0.02" stop-color="white" stop-opacity="0"/>
    <stop offset="1" stop-color="#F9A825"/>
    </radialGradient>
    <linearGradient id="paint3_linear_414_12744" x1="70.7097" y1="60.3464" x2="17.599" y2="177.48" gradientUnits="userSpaceOnUse">
    <stop stop-color="#F9A825"/>
    <stop offset="0.05" stop-color="#FAB74B" stop-opacity="0.83"/>
    <stop offset="0.12" stop-color="#FBC875" stop-opacity="0.63"/>
    <stop offset="0.2" stop-color="#FCD79A" stop-opacity="0.46"/>
    <stop offset="0.27" stop-color="#FDE3B9" stop-opacity="0.32"/>
    <stop offset="0.35" stop-color="#FEEDD3" stop-opacity="0.2"/>
    <stop offset="0.44" stop-color="#FEF5E6" stop-opacity="0.11"/>
    <stop offset="0.53" stop-color="#FFFBF4" stop-opacity="0.05"/>
    <stop offset="0.63" stop-color="#FFFEFC" stop-opacity="0.01"/>
    <stop offset="0.78" stop-color="white" stop-opacity="0"/>
    </linearGradient>
    <linearGradient id="paint4_linear_414_12744" x1="70.1424" y1="60.086" x2="17.0199" y2="177.224" gradientUnits="userSpaceOnUse">
    <stop stop-color="#F9A825"/>
    <stop offset="0.05" stop-color="#FAB74B" stop-opacity="0.83"/>
    <stop offset="0.12" stop-color="#FBC875" stop-opacity="0.63"/>
    <stop offset="0.2" stop-color="#FCD79A" stop-opacity="0.46"/>
    <stop offset="0.27" stop-color="#FDE3B9" stop-opacity="0.32"/>
    <stop offset="0.35" stop-color="#FEEDD3" stop-opacity="0.2"/>
    <stop offset="0.44" stop-color="#FEF5E6" stop-opacity="0.11"/>
    <stop offset="0.53" stop-color="#FFFBF4" stop-opacity="0.05"/>
    <stop offset="0.63" stop-color="#FFFEFC" stop-opacity="0.01"/>
    <stop offset="0.78" stop-color="white" stop-opacity="0"/>
    </linearGradient>
    <linearGradient id="paint5_linear_414_12744" x1="86.686" y1="67.5895" x2="33.5676" y2="184.719" gradientUnits="userSpaceOnUse">
    <stop stop-color="#F9A825"/>
    <stop offset="0.05" stop-color="#FAB74B" stop-opacity="0.83"/>
    <stop offset="0.12" stop-color="#FBC875" stop-opacity="0.63"/>
    <stop offset="0.2" stop-color="#FCD79A" stop-opacity="0.46"/>
    <stop offset="0.27" stop-color="#FDE3B9" stop-opacity="0.32"/>
    <stop offset="0.35" stop-color="#FEEDD3" stop-opacity="0.2"/>
    <stop offset="0.44" stop-color="#FEF5E6" stop-opacity="0.11"/>
    <stop offset="0.53" stop-color="#FFFBF4" stop-opacity="0.05"/>
    <stop offset="0.63" stop-color="#FFFEFC" stop-opacity="0.01"/>
    <stop offset="0.78" stop-color="white" stop-opacity="0"/>
    </linearGradient>
    <linearGradient id="paint6_linear_414_12744" x1="75.1747" y1="62.368" x2="22.0599" y2="179.51" gradientUnits="userSpaceOnUse">
    <stop stop-color="#F9A825"/>
    <stop offset="0.05" stop-color="#FAB74B" stop-opacity="0.83"/>
    <stop offset="0.12" stop-color="#FBC875" stop-opacity="0.63"/>
    <stop offset="0.2" stop-color="#FCD79A" stop-opacity="0.46"/>
    <stop offset="0.27" stop-color="#FDE3B9" stop-opacity="0.32"/>
    <stop offset="0.35" stop-color="#FEEDD3" stop-opacity="0.2"/>
    <stop offset="0.44" stop-color="#FEF5E6" stop-opacity="0.11"/>
    <stop offset="0.53" stop-color="#FFFBF4" stop-opacity="0.05"/>
    <stop offset="0.63" stop-color="#FFFEFC" stop-opacity="0.01"/>
    <stop offset="0.78" stop-color="white" stop-opacity="0"/>
    </linearGradient>
    <linearGradient id="paint7_linear_414_12744" x1="85.1217" y1="66.8745" x2="32.0072" y2="184.016" gradientUnits="userSpaceOnUse">
    <stop stop-color="#F9A825"/>
    <stop offset="0.05" stop-color="#FAB74B" stop-opacity="0.83"/>
    <stop offset="0.12" stop-color="#FBC875" stop-opacity="0.63"/>
    <stop offset="0.2" stop-color="#FCD79A" stop-opacity="0.46"/>
    <stop offset="0.27" stop-color="#FDE3B9" stop-opacity="0.32"/>
    <stop offset="0.35" stop-color="#FEEDD3" stop-opacity="0.2"/>
    <stop offset="0.44" stop-color="#FEF5E6" stop-opacity="0.11"/>
    <stop offset="0.53" stop-color="#FFFBF4" stop-opacity="0.05"/>
    <stop offset="0.63" stop-color="#FFFEFC" stop-opacity="0.01"/>
    <stop offset="0.78" stop-color="white" stop-opacity="0"/>
    </linearGradient>
    <linearGradient id="paint8_linear_414_12744" x1="103.093" y1="75.0206" x2="49.97" y2="192.158" gradientUnits="userSpaceOnUse">
    <stop stop-color="#F9A825"/>
    <stop offset="0.05" stop-color="#FAB74B" stop-opacity="0.83"/>
    <stop offset="0.12" stop-color="#FBC875" stop-opacity="0.63"/>
    <stop offset="0.2" stop-color="#FCD79A" stop-opacity="0.46"/>
    <stop offset="0.27" stop-color="#FDE3B9" stop-opacity="0.32"/>
    <stop offset="0.35" stop-color="#FEEDD3" stop-opacity="0.2"/>
    <stop offset="0.44" stop-color="#FEF5E6" stop-opacity="0.11"/>
    <stop offset="0.53" stop-color="#FFFBF4" stop-opacity="0.05"/>
    <stop offset="0.63" stop-color="#FFFEFC" stop-opacity="0.01"/>
    <stop offset="0.78" stop-color="white" stop-opacity="0"/>
    </linearGradient>
    <linearGradient id="paint9_linear_414_12744" x1="100.345" y1="73.7791" x2="47.2304" y2="190.921" gradientUnits="userSpaceOnUse">
    <stop stop-color="#F9A825"/>
    <stop offset="0.05" stop-color="#FAB74B" stop-opacity="0.83"/>
    <stop offset="0.12" stop-color="#FBC875" stop-opacity="0.63"/>
    <stop offset="0.2" stop-color="#FCD79A" stop-opacity="0.46"/>
    <stop offset="0.27" stop-color="#FDE3B9" stop-opacity="0.32"/>
    <stop offset="0.35" stop-color="#FEEDD3" stop-opacity="0.2"/>
    <stop offset="0.44" stop-color="#FEF5E6" stop-opacity="0.11"/>
    <stop offset="0.53" stop-color="#FFFBF4" stop-opacity="0.05"/>
    <stop offset="0.63" stop-color="#FFFEFC" stop-opacity="0.01"/>
    <stop offset="0.78" stop-color="white" stop-opacity="0"/>
    </linearGradient>
    <linearGradient id="paint10_linear_414_12744" x1="96.3542" y1="71.9743" x2="43.2355" y2="189.105" gradientUnits="userSpaceOnUse">
    <stop stop-color="#F9A825"/>
    <stop offset="0.05" stop-color="#FAB74B" stop-opacity="0.83"/>
    <stop offset="0.12" stop-color="#FBC875" stop-opacity="0.63"/>
    <stop offset="0.2" stop-color="#FCD79A" stop-opacity="0.46"/>
    <stop offset="0.27" stop-color="#FDE3B9" stop-opacity="0.32"/>
    <stop offset="0.35" stop-color="#FEEDD3" stop-opacity="0.2"/>
    <stop offset="0.44" stop-color="#FEF5E6" stop-opacity="0.11"/>
    <stop offset="0.53" stop-color="#FFFBF4" stop-opacity="0.05"/>
    <stop offset="0.63" stop-color="#FFFEFC" stop-opacity="0.01"/>
    <stop offset="0.78" stop-color="white" stop-opacity="0"/>
    </linearGradient>
    <linearGradient id="paint11_linear_414_12744" x1="86.9212" y1="67.6952" x2="33.8064" y2="184.837" gradientUnits="userSpaceOnUse">
    <stop stop-color="#F9A825"/>
    <stop offset="0.05" stop-color="#FAB74B" stop-opacity="0.83"/>
    <stop offset="0.12" stop-color="#FBC875" stop-opacity="0.63"/>
    <stop offset="0.2" stop-color="#FCD79A" stop-opacity="0.46"/>
    <stop offset="0.27" stop-color="#FDE3B9" stop-opacity="0.32"/>
    <stop offset="0.35" stop-color="#FEEDD3" stop-opacity="0.2"/>
    <stop offset="0.44" stop-color="#FEF5E6" stop-opacity="0.11"/>
    <stop offset="0.53" stop-color="#FFFBF4" stop-opacity="0.05"/>
    <stop offset="0.63" stop-color="#FFFEFC" stop-opacity="0.01"/>
    <stop offset="0.78" stop-color="white" stop-opacity="0"/>
    </linearGradient>
    <linearGradient id="paint12_linear_414_12744" x1="86.3193" y1="67.418" x2="33.2086" y2="184.552" gradientUnits="userSpaceOnUse">
    <stop stop-color="#F9A825"/>
    <stop offset="0.05" stop-color="#FAB74B" stop-opacity="0.83"/>
    <stop offset="0.12" stop-color="#FBC875" stop-opacity="0.63"/>
    <stop offset="0.2" stop-color="#FCD79A" stop-opacity="0.46"/>
    <stop offset="0.27" stop-color="#FDE3B9" stop-opacity="0.32"/>
    <stop offset="0.35" stop-color="#FEEDD3" stop-opacity="0.2"/>
    <stop offset="0.44" stop-color="#FEF5E6" stop-opacity="0.11"/>
    <stop offset="0.53" stop-color="#FFFBF4" stop-opacity="0.05"/>
    <stop offset="0.63" stop-color="#FFFEFC" stop-opacity="0.01"/>
    <stop offset="0.78" stop-color="white" stop-opacity="0"/>
    </linearGradient>
    </defs>
</svg>