<svg width="107" height="117" viewBox="0 0 107 117" fill="none" xmlns="http://www.w3.org/2000/svg">
<path d="M74.5416 15.464L83.8024 21.3949L81.5159 24.9652C85.3014 36.3491 81.7019 54.0179 71.1513 70.4921C60.6006 86.9662 46.0806 97.5898 34.1336 98.9494L31.8471 102.52L22.5863 96.5887C10.105 88.5952 11.6323 63.9584 25.9767 41.5606C40.3211 19.1628 62.0603 7.47047 74.5416 15.464Z" fill="#FDD835"/>
<path d="M58.9363 13.8627L75.017 24.1614L76.1836 22.3398L61.9463 13.2218C60.9316 13.3782 59.9267 13.5922 58.9363 13.8627Z" fill="#FBC02D"/>
<path d="M51.513 16.8124L71.5209 29.6262L72.6875 27.8047L53.8016 15.7095C53.0421 16.045 52.2832 16.4118 51.513 16.8124Z" fill="#FBC02D"/>
<path d="M45.3787 20.5927L68.017 35.0911L69.1836 33.2695L47.3249 19.2704C46.6774 19.688 46.0231 20.132 45.3787 20.5927Z" fill="#FBC02D"/>
<path d="M40.0392 24.8769L64.5209 40.5559L65.6875 38.7344L41.745 23.4007C41.1729 23.8768 40.6034 24.3649 40.0392 24.8769Z" fill="#FBC02D"/>
<path d="M35.2787 29.5345L61.0209 46.0208L62.1875 44.1992L36.8023 27.9416C36.2958 28.4597 35.7846 28.9852 35.2787 29.5345Z" fill="#FBC02D"/>
<path d="M30.9991 34.5001L57.5209 51.4856L58.6875 49.6641L32.3697 32.8092C31.8923 33.346 31.4493 33.9253 30.9991 34.5001Z" fill="#FBC02D"/>
<path d="M27.1566 39.7456L54.0209 56.9505L55.1875 55.1289L28.3961 37.9707C27.9723 38.5521 27.5632 39.1429 27.1566 39.7456Z" fill="#FBC02D"/>
<path d="M24.8232 43.3889C24.4312 44.0009 24.0804 44.629 23.7295 45.2571L50.5209 62.4153L51.6875 60.5938L24.8232 43.3889Z" fill="#FBC02D"/>
<path d="M21.6657 49.073C21.332 49.7224 21.0129 50.3811 20.7031 51.0252L47.0209 67.8801L48.1875 66.0586L21.6657 49.073Z" fill="#FBC02D"/>
<path d="M18.9492 55.0372C18.6619 55.7265 18.3984 56.4106 18.1396 57.0874L43.5248 73.345L44.6914 71.5234L18.9492 55.0372Z" fill="#FBC02D"/>
<path d="M16.7097 61.3093C16.4806 62.0359 16.2755 62.7574 16.0823 63.4762L40.0248 78.8098L41.1914 76.9883L16.7097 61.3093Z" fill="#FBC02D"/>
<path d="M15.0526 67.9555C14.9037 68.7335 14.774 69.5135 14.6583 70.2717L36.517 84.2708L37.6836 82.4492L15.0526 67.9555Z" fill="#FBC02D"/>
<path d="M14.1795 75.1041C14.1379 75.9714 14.1149 76.8094 14.135 77.6443L33.0209 89.7395L34.1875 87.918L14.1795 75.1041Z" fill="#FBC02D"/>
<path d="M14.6068 83.0841C14.7754 84.0969 15.0013 85.0992 15.2836 86.0863L29.5209 95.2044L30.6875 93.3828L14.6068 83.0841Z" fill="#FBC02D"/>
<path style="mix-blend-mode:multiply" d="M74.5416 15.464L83.8024 21.3949L81.5159 24.9652C85.3014 36.3491 81.7019 54.0179 71.1513 70.4921C60.6006 86.9662 46.0806 97.5898 34.1336 98.9494L31.8471 102.52L22.5863 96.5887C10.105 88.5952 11.6323 63.9584 25.9767 41.5606C40.3211 19.1628 62.0603 7.47047 74.5416 15.464Z" fill="url(#paint0_linear_414_19727)"/>
<path d="M31.8402 102.514C19.3656 94.5253 20.8835 69.8884 35.2306 47.4864C49.5777 25.0844 71.3209 13.4005 83.7955 21.3897C96.2701 29.3789 94.7522 54.0159 80.4052 76.4178C66.0581 98.8198 44.3148 110.504 31.8402 102.514Z" fill="#FBC02D"/>
<path d="M34.1257 98.9425C23.1923 91.9403 24.936 69.702 38.0202 49.2718C51.1045 28.8416 70.5746 17.956 81.508 24.9582C92.4414 31.9603 90.6978 54.1987 77.6136 74.6288C64.5293 95.059 45.0591 105.945 34.1257 98.9425Z" fill="#F9A825"/>
<path style="mix-blend-mode:multiply" d="M34.1257 98.9425C23.1923 91.9403 24.936 69.702 38.0202 49.2718C51.1045 28.8416 70.5746 17.956 81.508 24.9582C92.4414 31.9603 90.6978 54.1987 77.6136 74.6288C64.5293 95.059 45.0591 105.945 34.1257 98.9425Z" fill="url(#paint1_linear_414_19727)"/>
<path style="mix-blend-mode:multiply" d="M75.6098 73.3456C88.293 53.5417 90.3268 32.0446 80.4818 24.3626C80.8357 24.5481 81.1802 24.7482 81.5153 24.9629C92.4447 31.9624 90.698 54.1983 77.6136 74.6289C64.5291 95.0594 45.0624 105.947 34.1331 98.9471C33.7965 98.7332 33.4717 98.5013 33.1602 98.2522C44.2511 103.989 62.9267 93.1495 75.6098 73.3456Z" fill="url(#paint2_radial_414_19727)"/>
<g style="mix-blend-mode:multiply">
<path style="mix-blend-mode:multiply" d="M50.245 70.8906L46.6445 55.4638L72.9282 35.4722L65.7562 67.7037L50.245 70.8906Z" fill="url(#paint3_linear_414_19727)"/>
<path style="mix-blend-mode:multiply" d="M48.3333 73.871L63.8398 70.6914L40.0832 86.7531L44.7208 58.4469L48.3333 73.871Z" fill="url(#paint4_linear_414_19727)"/>
</g>
<path d="M74.1246 36.2436L73.5847 37.552L51.8721 71.4548L51.4414 71.6619L47.8481 56.2398L74.1246 36.2436Z" fill="#FDD835"/>
<path d="M74.1264 36.2394L66.9398 68.4615L51.4213 71.6437L74.1045 36.2254L74.1264 36.2394Z" fill="#FDD835"/>
<path d="M49.5391 74.6398L49.5136 74.9523L41.7768 87.0328L41.2889 87.5218L45.9338 59.2203L49.5391 74.6398Z" fill="#FDD835"/>
<path d="M41.2853 87.5202L49.5354 74.6382L65.0273 71.4492L41.2853 87.5202Z" fill="#FDD835"/>
<path d="M51.447 71.6588L47.8537 56.2367L61.9883 55.1992L51.447 71.6588Z" fill="#FDD835"/>
<path d="M66.9411 68.4637L51.4226 71.6459L61.9639 55.1863L66.9411 68.4637Z" fill="#FDD835"/>
<defs>
<linearGradient id="paint0_linear_414_19727" x1="65.8295" y1="29.0673" x2="8.00392" y2="119.358" gradientUnits="userSpaceOnUse">
<stop offset="0.02" stop-color="white" stop-opacity="0"/>
<stop offset="1" stop-color="#F9A825"/>
</linearGradient>
<linearGradient id="paint1_linear_414_19727" x1="70.7287" y1="41.7894" x2="-5.92566" y2="161.48" gradientUnits="userSpaceOnUse">
<stop offset="0.02" stop-color="white" stop-opacity="0"/>
<stop offset="1" stop-color="#F9A825"/>
</linearGradient>
<radialGradient id="paint2_radial_414_19727" cx="0" cy="0" r="1" gradientUnits="userSpaceOnUse" gradientTransform="translate(67.1132 68.1306) rotate(-147.363) scale(32.2648 43.5575)">
<stop offset="0.02" stop-color="white" stop-opacity="0"/>
<stop offset="1" stop-color="#F9A825"/>
</radialGradient>
<linearGradient id="paint3_linear_414_19727" x1="78.2996" y1="26.7162" x2="-55.1827" y2="237.306" gradientUnits="userSpaceOnUse">
<stop stop-color="#F9A825"/>
<stop offset="0.04" stop-color="#FAB443" stop-opacity="0.86"/>
<stop offset="0.09" stop-color="#FBC36A" stop-opacity="0.68"/>
<stop offset="0.15" stop-color="#FCD28E" stop-opacity="0.52"/>
<stop offset="0.22" stop-color="#FDDEAC" stop-opacity="0.38"/>
<stop offset="0.29" stop-color="#FDE8C6" stop-opacity="0.26"/>
<stop offset="0.37" stop-color="#FEF1DB" stop-opacity="0.16"/>
<stop offset="0.46" stop-color="#FEF7EB" stop-opacity="0.09"/>
<stop offset="0.56" stop-color="#FFFCF7" stop-opacity="0.04"/>
<stop offset="0.7" stop-color="#FFFEFD" stop-opacity="0.01"/>
<stop offset="0.98" stop-color="white" stop-opacity="0"/>
</linearGradient>
<linearGradient id="paint4_linear_414_19727" x1="78.2352" y1="26.7801" x2="-55.0791" y2="237.107" gradientUnits="userSpaceOnUse">
<stop stop-color="#F9A825"/>
<stop offset="0.04" stop-color="#FAB443" stop-opacity="0.86"/>
<stop offset="0.09" stop-color="#FBC36A" stop-opacity="0.68"/>
<stop offset="0.15" stop-color="#FCD28E" stop-opacity="0.52"/>
<stop offset="0.22" stop-color="#FDDEAC" stop-opacity="0.38"/>
<stop offset="0.29" stop-color="#FDE8C6" stop-opacity="0.26"/>
<stop offset="0.37" stop-color="#FEF1DB" stop-opacity="0.16"/>
<stop offset="0.46" stop-color="#FEF7EB" stop-opacity="0.09"/>
<stop offset="0.56" stop-color="#FFFCF7" stop-opacity="0.04"/>
<stop offset="0.7" stop-color="#FFFEFD" stop-opacity="0.01"/>
<stop offset="0.98" stop-color="white" stop-opacity="0"/>
</linearGradient>
</defs>
</svg>
