<svg width="94" height="94" viewBox="0 0 94 94" fill="none" xmlns="http://www.w3.org/2000/svg">
<path d="M20.497 23.2813L24.8631 19.1928L25.4175 19.7849C36.9916 13.6603 53.5555 17.4901 65.1279 29.8483C76.7003 42.2065 79.4137 58.9629 72.5473 70.1149L73.0973 70.7023L68.7313 74.7907C57.4091 85.393 37.4401 82.46 24.1267 68.2425C10.8132 54.0251 9.17487 33.8836 20.497 23.2813Z" fill="#FDD835"/>
<path d="M13.3361 37.0783L22.8545 28.1651L21.7891 27.0273L13.9264 34.39C13.6829 35.2752 13.4858 36.1725 13.3361 37.0783Z" fill="#FBC02D"/>
<path d="M13.0428 43.8961L26.1179 31.6524L25.0352 30.4961L12.9776 41.787C12.9552 42.4676 12.9678 43.1763 13.0428 43.8961Z" fill="#FBC02D"/>
<path d="M13.889 49.5811L29.3506 35.1026L28.2852 33.9648L13.5265 47.785C13.6149 48.3707 13.7428 48.9801 13.889 49.5811Z" fill="#FBC02D"/>
<path d="M15.4781 54.6362L32.614 38.5899L31.5312 37.4336L14.881 53.0251C15.0523 53.5418 15.2453 54.0816 15.4781 54.6362Z" fill="#FBC02D"/>
<path d="M17.5406 59.1822L35.8467 42.0401L34.7812 40.9023L16.8267 57.7152C17.0443 58.1886 17.2974 58.6721 17.5406 59.1822Z" fill="#FBC02D"/>
<path d="M20.1195 63.3104L39.1101 45.5274L38.0273 44.3711L19.2264 61.9766C19.4949 62.4023 19.7939 62.8514 20.1195 63.3104Z" fill="#FBC02D"/>
<path d="M23.047 67.0465L42.3428 48.9776L41.2773 47.8398L22.0463 65.8481C22.3561 66.2438 22.6924 66.6493 23.047 67.0465Z" fill="#FBC02D"/>
<path d="M25.212 69.358C25.5758 69.7465 25.9677 70.1 26.3549 70.4579L45.5906 52.4453L44.5078 51.2891L25.212 69.358Z" fill="#FBC02D"/>
<path d="M28.7868 72.5604C29.2061 72.8969 29.6346 73.2248 30.0592 73.5391L48.8601 55.9336L47.7773 54.7773L28.7868 72.5604Z" fill="#FBC02D"/>
<path d="M32.7018 75.3686C33.1717 75.6665 33.6375 75.9507 34.1129 76.2174L52.0906 59.3828L51.0078 58.2266L32.7018 75.3686Z" fill="#FBC02D"/>
<path d="M37.1329 77.7616C37.6537 78.0118 38.1797 78.2397 38.7059 78.4588L55.3562 62.8672L54.2734 61.7109L37.1329 77.7616Z" fill="#FBC02D"/>
<path d="M42.0384 79.6465C42.6285 79.8317 43.2328 79.995 43.8241 80.1444L58.5827 66.3242L57.5 65.168L42.0384 79.6465Z" fill="#FBC02D"/>
<path d="M47.6944 80.896C48.3996 80.9909 49.0967 81.0586 49.7947 81.0995L61.8523 69.8086L60.7695 68.6523L47.6944 80.896Z" fill="#FBC02D"/>
<path d="M54.4794 81.016C55.4035 80.9289 56.3222 80.793 57.2318 80.6088L65.0945 73.2461L64.0117 72.0898L54.4794 81.016Z" fill="#FBC02D"/>
<path style="mix-blend-mode:multiply" d="M20.497 23.2813L24.8631 19.1928L25.4175 19.7849C36.9916 13.6603 53.5555 17.4901 65.1279 29.8483C76.7003 42.2065 79.4137 58.9629 72.5473 70.1149L73.0973 70.7023L68.7313 74.7907C57.4091 85.393 37.4401 82.46 24.1267 68.2425C10.8132 54.0251 9.17487 33.8836 20.497 23.2813Z" fill="url(#paint0_linear_414_19691)"/>
<path d="M73.0823 70.6905C61.7613 81.2916 41.7892 78.3578 28.4733 64.1377C15.1574 49.9176 13.5401 29.796 24.861 19.195C36.182 8.59387 56.1541 11.5277 69.47 25.7478C82.7859 39.9679 84.4032 60.0894 73.0823 70.6905Z" fill="#FBC02D"/>
<path d="M70.9623 68.4213C61.0411 77.7116 43.1539 74.7298 31.01 61.7614C18.8662 48.7929 17.0643 30.7486 26.9854 21.4583C36.9065 12.168 54.7938 15.1497 66.9376 28.1182C79.0815 41.0867 80.8834 59.131 70.9623 68.4213Z" fill="#F9A825"/>
<path style="mix-blend-mode:multiply" d="M70.9623 68.4213C61.0411 77.7116 43.1539 74.7298 31.01 61.7614C18.8662 48.7929 17.0643 30.7486 26.9854 21.4583C36.9065 12.168 54.7938 15.1497 66.9376 28.1182C79.0815 41.0867 80.8834 59.131 70.9623 68.4213Z" fill="url(#paint1_linear_414_19691)"/>
<path style="mix-blend-mode:multiply" d="M65.8408 29.1826C53.9263 16.459 36.4822 13.3578 26.4609 22.0214C26.6459 21.8482 26.8356 21.6706 27.0206 21.4973C36.9414 12.2074 54.8287 15.1886 66.9728 28.1573C79.1169 41.126 80.9182 59.1704 70.9975 68.4604C70.8125 68.6336 70.6228 68.8112 70.4378 68.9844C79.6838 59.493 77.7381 41.8876 65.8408 29.1826Z" fill="url(#paint2_radial_414_19691)"/>
<g style="mix-blend-mode:multiply">
<path style="mix-blend-mode:multiply" d="M55.2403 38.7283L55.8711 35.082L64.1476 43.9205L62.3879 53.8237L59.3389 50.5676L60.441 44.3099L55.2403 38.7283Z" fill="url(#paint3_linear_414_19691)"/>
<path style="mix-blend-mode:multiply" d="M50.0302 33.166L46.3275 33.569L46.9768 29.9054L50.6612 29.5108L53.7016 32.7576L53.0662 36.4082L50.0302 33.166Z" fill="url(#paint4_linear_414_19691)"/>
<path style="mix-blend-mode:multiply" d="M43.2276 36.4679L42.5965 40.1231L38.8985 40.5217L39.5432 36.8624L43.2276 36.4679Z" fill="url(#paint5_linear_414_19691)"/>
<path style="mix-blend-mode:multiply" d="M57.8108 44.6037L57.1667 48.2451L54.1263 44.9983L54.7617 41.3477L57.8108 44.6037Z" fill="url(#paint6_linear_414_19691)"/>
<path style="mix-blend-mode:multiply" d="M58.8828 53.1836L61.9188 56.4258L61.2878 60.081L57.5897 60.4796L54.5537 57.2374L58.2474 56.8342L58.8828 53.1836Z" fill="url(#paint7_linear_414_19691)"/>
<path style="mix-blend-mode:multiply" d="M35.1747 47.0762L38.2107 50.3184L34.5124 50.7259L31.472 47.4791L32.1213 43.8155L35.8057 43.421L35.1747 47.0762Z" fill="url(#paint8_linear_414_19691)"/>
<path style="mix-blend-mode:multiply" d="M40.3684 52.6531L45.5968 58.2087L51.9044 57.5193L54.9578 60.7799L44.9605 61.8862L36.684 53.0477L40.3684 52.6531Z" fill="url(#paint9_linear_414_19691)"/>
<path style="mix-blend-mode:multiply" d="M43.0166 52.3425L46.6964 51.9523L49.7368 55.1991L46.0699 55.6032L43.0166 52.3425Z" fill="url(#paint10_linear_414_19691)"/>
<path style="mix-blend-mode:multiply" d="M37.3699 34.539L36.2716 40.8193L32.5872 41.2138L34.3339 31.2968L44.3349 30.2131L43.6995 33.8637L37.3699 34.539Z" fill="url(#paint11_linear_414_19691)"/>
<path style="mix-blend-mode:multiply" d="M37.8003 46.7811L37.791 46.7897L38.4403 43.1261L44.7748 42.4376L45.8543 36.1836L49.548 35.7804L52.6013 39.0411L51.49 45.3075L56.7132 50.8853L56.0648 54.522L52.3934 54.9305L47.1702 49.3526L40.8444 50.0504L37.8003 46.7811Z" fill="url(#paint12_linear_414_19691)"/>
</g>
<path d="M56.1108 37.9165L61.308 43.4666L60.2065 49.7065L63.2382 52.944L65.0086 43.1264L56.7277 34.2833L56.1108 37.9165ZM50.9136 32.3665L53.9453 35.604L54.5406 31.9476L51.5089 28.7101L47.8245 29.1046L47.1798 32.7639L50.9136 32.3665ZM44.1088 35.6396L40.4243 36.0342L39.7797 39.6934L43.4777 39.2949L44.1088 35.6396Z" fill="#FDD835"/>
<path d="M58.6809 43.7924L55.6492 40.5548L55.0138 44.2054L58.0455 47.443L58.6809 43.7924ZM59.7449 52.3447L59.1138 56L55.4158 56.3985L58.4475 59.6361L62.1412 59.2329L62.8026 55.61L59.7449 52.3447ZM36.6686 42.6078L32.9842 43.0024L32.3395 46.6616L35.3712 49.8992L39.0649 49.496L36.0332 46.2584L36.6686 42.6078ZM46.4622 57.3956L41.265 51.8455L37.5806 52.2401L45.8571 61.0786L55.8544 59.9723L52.8227 56.7348L46.4622 57.3956Z" fill="#FDD835"/>
<path d="M46.9434 54.7935L50.6148 54.3851L47.5831 51.1476L43.8987 51.5421L46.9434 54.7935Z" fill="#FDD835"/>
<path d="M38.6594 45.9514L41.7127 49.2121L48.0114 48.5223L53.2346 54.1002L56.906 53.6918L57.6038 50.0522L52.3806 44.4743L53.4821 38.2345L50.4071 34.9507L46.7134 35.3539L45.6336 41.6169L39.3133 42.2835L38.6686 45.9428L38.6594 45.9514ZM45.2099 29.4006L35.2089 30.4843L33.4622 40.4013L37.1466 40.0068L38.2481 33.7669L44.5467 33.0772L45.2099 29.4006Z" fill="#FDD835"/>
<defs>
<linearGradient id="paint0_linear_414_19691" x1="31.1816" y1="34.6914" x2="89.4464" y2="96.9125" gradientUnits="userSpaceOnUse">
<stop offset="0.02" stop-color="white" stop-opacity="0"/>
<stop offset="1" stop-color="#F9A825"/>
</linearGradient>
<linearGradient id="paint1_linear_414_19691" x1="34.3914" y1="29.3672" x2="99.5035" y2="98.9005" gradientUnits="userSpaceOnUse">
<stop offset="0.02" stop-color="white" stop-opacity="0"/>
<stop offset="1" stop-color="#F9A825"/>
</linearGradient>
<radialGradient id="paint2_radial_414_19691" cx="0" cy="0" r="1" gradientUnits="userSpaceOnUse" gradientTransform="translate(57.3484 36.4381) rotate(136.881) scale(24.4518 32.2764)">
<stop offset="0.02" stop-color="white" stop-opacity="0"/>
<stop offset="1" stop-color="#F9A825"/>
</radialGradient>
<linearGradient id="paint3_linear_414_19691" x1="48.839" y1="32.0314" x2="108.354" y2="102.197" gradientUnits="userSpaceOnUse">
<stop stop-color="#F9A825"/>
<stop offset="0.05" stop-color="#FAB74B" stop-opacity="0.83"/>
<stop offset="0.12" stop-color="#FBC875" stop-opacity="0.63"/>
<stop offset="0.2" stop-color="#FCD79A" stop-opacity="0.46"/>
<stop offset="0.27" stop-color="#FDE3B9" stop-opacity="0.32"/>
<stop offset="0.35" stop-color="#FEEDD3" stop-opacity="0.2"/>
<stop offset="0.44" stop-color="#FEF5E6" stop-opacity="0.11"/>
<stop offset="0.53" stop-color="#FFFBF4" stop-opacity="0.05"/>
<stop offset="0.63" stop-color="#FFFEFC" stop-opacity="0.01"/>
<stop offset="0.78" stop-color="white" stop-opacity="0"/>
</linearGradient>
<linearGradient id="paint4_linear_414_19691" x1="48.9163" y1="31.8653" x2="108.776" y2="102.446" gradientUnits="userSpaceOnUse">
<stop stop-color="#F9A825"/>
<stop offset="0.05" stop-color="#FAB74B" stop-opacity="0.83"/>
<stop offset="0.12" stop-color="#FBC875" stop-opacity="0.63"/>
<stop offset="0.2" stop-color="#FCD79A" stop-opacity="0.46"/>
<stop offset="0.27" stop-color="#FDE3B9" stop-opacity="0.32"/>
<stop offset="0.35" stop-color="#FEEDD3" stop-opacity="0.2"/>
<stop offset="0.44" stop-color="#FEF5E6" stop-opacity="0.11"/>
<stop offset="0.53" stop-color="#FFFBF4" stop-opacity="0.05"/>
<stop offset="0.63" stop-color="#FFFEFC" stop-opacity="0.01"/>
<stop offset="0.78" stop-color="white" stop-opacity="0"/>
</linearGradient>
<linearGradient id="paint5_linear_414_19691" x1="40.9854" y1="38.4026" x2="100.854" y2="108.983" gradientUnits="userSpaceOnUse">
<stop stop-color="#F9A825"/>
<stop offset="0.05" stop-color="#FAB74B" stop-opacity="0.83"/>
<stop offset="0.12" stop-color="#FBC875" stop-opacity="0.63"/>
<stop offset="0.2" stop-color="#FCD79A" stop-opacity="0.46"/>
<stop offset="0.27" stop-color="#FDE3B9" stop-opacity="0.32"/>
<stop offset="0.35" stop-color="#FEEDD3" stop-opacity="0.2"/>
<stop offset="0.44" stop-color="#FEF5E6" stop-opacity="0.11"/>
<stop offset="0.53" stop-color="#FFFBF4" stop-opacity="0.05"/>
<stop offset="0.63" stop-color="#FFFEFC" stop-opacity="0.01"/>
<stop offset="0.78" stop-color="white" stop-opacity="0"/>
</linearGradient>
<linearGradient id="paint6_linear_414_19691" x1="46.6572" y1="33.8238" x2="106.172" y2="103.989" gradientUnits="userSpaceOnUse">
<stop stop-color="#F9A825"/>
<stop offset="0.05" stop-color="#FAB74B" stop-opacity="0.83"/>
<stop offset="0.12" stop-color="#FBC875" stop-opacity="0.63"/>
<stop offset="0.2" stop-color="#FCD79A" stop-opacity="0.46"/>
<stop offset="0.27" stop-color="#FDE3B9" stop-opacity="0.32"/>
<stop offset="0.35" stop-color="#FEEDD3" stop-opacity="0.2"/>
<stop offset="0.44" stop-color="#FEF5E6" stop-opacity="0.11"/>
<stop offset="0.53" stop-color="#FFFBF4" stop-opacity="0.05"/>
<stop offset="0.63" stop-color="#FFFEFC" stop-opacity="0.01"/>
<stop offset="0.78" stop-color="white" stop-opacity="0"/>
</linearGradient>
<linearGradient id="paint7_linear_414_19691" x1="42.0412" y1="37.7385" x2="101.556" y2="107.904" gradientUnits="userSpaceOnUse">
<stop stop-color="#F9A825"/>
<stop offset="0.05" stop-color="#FAB74B" stop-opacity="0.83"/>
<stop offset="0.12" stop-color="#FBC875" stop-opacity="0.63"/>
<stop offset="0.2" stop-color="#FCD79A" stop-opacity="0.46"/>
<stop offset="0.27" stop-color="#FDE3B9" stop-opacity="0.32"/>
<stop offset="0.35" stop-color="#FEEDD3" stop-opacity="0.2"/>
<stop offset="0.44" stop-color="#FEF5E6" stop-opacity="0.11"/>
<stop offset="0.53" stop-color="#FFFBF4" stop-opacity="0.05"/>
<stop offset="0.63" stop-color="#FFFEFC" stop-opacity="0.01"/>
<stop offset="0.78" stop-color="white" stop-opacity="0"/>
</linearGradient>
<linearGradient id="paint8_linear_414_19691" x1="33.149" y1="44.8759" x2="93.0133" y2="115.452" gradientUnits="userSpaceOnUse">
<stop stop-color="#F9A825"/>
<stop offset="0.05" stop-color="#FAB74B" stop-opacity="0.83"/>
<stop offset="0.12" stop-color="#FBC875" stop-opacity="0.63"/>
<stop offset="0.2" stop-color="#FCD79A" stop-opacity="0.46"/>
<stop offset="0.27" stop-color="#FDE3B9" stop-opacity="0.32"/>
<stop offset="0.35" stop-color="#FEEDD3" stop-opacity="0.2"/>
<stop offset="0.44" stop-color="#FEF5E6" stop-opacity="0.11"/>
<stop offset="0.53" stop-color="#FFFBF4" stop-opacity="0.05"/>
<stop offset="0.63" stop-color="#FFFEFC" stop-opacity="0.01"/>
<stop offset="0.78" stop-color="white" stop-opacity="0"/>
</linearGradient>
<linearGradient id="paint9_linear_414_19691" x1="34.5201" y1="43.5895" x2="94.751" y2="114.603" gradientUnits="userSpaceOnUse">
<stop stop-color="#F9A825"/>
<stop offset="0.05" stop-color="#FAB74B" stop-opacity="0.83"/>
<stop offset="0.12" stop-color="#FBC875" stop-opacity="0.63"/>
<stop offset="0.2" stop-color="#FCD79A" stop-opacity="0.46"/>
<stop offset="0.27" stop-color="#FDE3B9" stop-opacity="0.32"/>
<stop offset="0.35" stop-color="#FEEDD3" stop-opacity="0.2"/>
<stop offset="0.44" stop-color="#FEF5E6" stop-opacity="0.11"/>
<stop offset="0.53" stop-color="#FFFBF4" stop-opacity="0.05"/>
<stop offset="0.63" stop-color="#FFFEFC" stop-opacity="0.01"/>
<stop offset="0.78" stop-color="white" stop-opacity="0"/>
</linearGradient>
<linearGradient id="paint10_linear_414_19691" x1="36.42" y1="42.0349" x2="96.6556" y2="113.054" gradientUnits="userSpaceOnUse">
<stop stop-color="#F9A825"/>
<stop offset="0.05" stop-color="#FAB74B" stop-opacity="0.83"/>
<stop offset="0.12" stop-color="#FBC875" stop-opacity="0.63"/>
<stop offset="0.2" stop-color="#FCD79A" stop-opacity="0.46"/>
<stop offset="0.27" stop-color="#FDE3B9" stop-opacity="0.32"/>
<stop offset="0.35" stop-color="#FEEDD3" stop-opacity="0.2"/>
<stop offset="0.44" stop-color="#FEF5E6" stop-opacity="0.11"/>
<stop offset="0.53" stop-color="#FFFBF4" stop-opacity="0.05"/>
<stop offset="0.63" stop-color="#FFFEFC" stop-opacity="0.01"/>
<stop offset="0.78" stop-color="white" stop-opacity="0"/>
</linearGradient>
<linearGradient id="paint11_linear_414_19691" x1="40.7959" y1="38.4664" x2="100.181" y2="108.475" gradientUnits="userSpaceOnUse">
<stop stop-color="#F9A825"/>
<stop offset="0.05" stop-color="#FAB74B" stop-opacity="0.83"/>
<stop offset="0.12" stop-color="#FBC875" stop-opacity="0.63"/>
<stop offset="0.2" stop-color="#FCD79A" stop-opacity="0.46"/>
<stop offset="0.27" stop-color="#FDE3B9" stop-opacity="0.32"/>
<stop offset="0.35" stop-color="#FEEDD3" stop-opacity="0.2"/>
<stop offset="0.44" stop-color="#FEF5E6" stop-opacity="0.11"/>
<stop offset="0.53" stop-color="#FFFBF4" stop-opacity="0.05"/>
<stop offset="0.63" stop-color="#FFFEFC" stop-opacity="0.01"/>
<stop offset="0.78" stop-color="white" stop-opacity="0"/>
</linearGradient>
<linearGradient id="paint12_linear_414_19691" x1="41.2579" y1="38.2741" x2="100.924" y2="108.619" gradientUnits="userSpaceOnUse">
<stop stop-color="#F9A825"/>
<stop offset="0.05" stop-color="#FAB74B" stop-opacity="0.83"/>
<stop offset="0.12" stop-color="#FBC875" stop-opacity="0.63"/>
<stop offset="0.2" stop-color="#FCD79A" stop-opacity="0.46"/>
<stop offset="0.27" stop-color="#FDE3B9" stop-opacity="0.32"/>
<stop offset="0.35" stop-color="#FEEDD3" stop-opacity="0.2"/>
<stop offset="0.44" stop-color="#FEF5E6" stop-opacity="0.11"/>
<stop offset="0.53" stop-color="#FFFBF4" stop-opacity="0.05"/>
<stop offset="0.63" stop-color="#FFFEFC" stop-opacity="0.01"/>
<stop offset="0.78" stop-color="white" stop-opacity="0"/>
</linearGradient>
</defs>
</svg>
