<svg width="126" height="132" viewBox="0 0 126 132" fill="none" xmlns="http://www.w3.org/2000/svg">
<path d="M37.9557 19.9445L46.0397 16.4426L46.5146 17.5388C65.6046 14.792 86.672 28.3258 96.5691 51.1734C106.466 74.0209 101.943 98.6806 86.8671 110.693L87.3382 111.781L79.2542 115.283C58.2906 124.364 32.0563 110.383 20.6531 84.0586C9.24997 57.7342 16.9921 29.0255 37.9557 19.9445Z" fill="#FDD835"/>
<path d="M21.1786 35.5173L38.8024 27.8831L37.875 25.7422L23.317 32.0484C22.5438 33.1664 21.83 34.3243 21.1786 35.5173Z" fill="#FBC02D"/>
<path d="M17.3745 44.7919L41.5836 34.305L40.6562 32.1641L18.3311 41.8349C17.977 42.8019 17.6352 43.7738 17.3745 44.7919Z" fill="#FBC02D"/>
<path d="M15.7408 53.1279L44.3688 40.7268L43.4414 38.5859L16.1151 50.4231C15.9617 51.3134 15.8366 52.2219 15.7408 53.1279Z" fill="#FBC02D"/>
<path d="M15.4221 60.9004L47.15 47.1565L46.2227 45.0156L15.3939 58.37C15.3898 59.2058 15.3745 60.0158 15.4221 60.9004Z" fill="#FBC02D"/>
<path d="M16.0367 68.253L49.9313 53.5706L49.0039 51.4297L15.7602 65.8302C15.8417 66.6288 15.9526 67.4249 16.0367 68.253Z" fill="#FBC02D"/>
<path d="M17.5506 75.2278L52.7125 59.9964L51.7852 57.8555L16.9743 72.9348C17.15 73.6927 17.3418 74.4639 17.5506 75.2278Z" fill="#FBC02D"/>
<path d="M19.7705 81.8945L55.4977 66.4182L54.5703 64.2773L18.963 79.7017C19.211 80.4384 19.4761 81.1678 19.7705 81.8945Z" fill="#FBC02D"/>
<path d="M21.6244 86.1755C21.936 86.8948 22.3038 87.5796 22.6631 88.2682L58.279 72.8401L57.3516 70.6992L21.6244 86.1755Z" fill="#FBC02D"/>
<path d="M24.9709 92.3564C25.3852 93.0313 25.8167 93.6987 26.2493 94.3452L61.0602 79.2659L60.1328 77.125L24.9709 92.3564Z" fill="#FBC02D"/>
<path d="M29.0195 98.2215C29.5232 98.8678 30.0281 99.4932 30.5549 100.099L63.8415 85.68L62.9141 83.5391L29.0195 98.2215Z" fill="#FBC02D"/>
<path d="M33.9666 103.716C34.5645 104.322 35.1807 104.899 35.8017 105.464L66.6305 92.1096L65.7031 89.9688L33.9666 103.716Z" fill="#FBC02D"/>
<path d="M39.8525 108.792C40.5789 109.342 41.3358 109.868 42.0815 110.369L69.4079 98.5315L68.4805 96.3906L39.8525 108.792Z" fill="#FBC02D"/>
<path d="M47.0486 113.303C47.9794 113.785 48.9124 114.225 49.86 114.628L72.1852 104.957L71.2578 102.816L47.0486 113.303Z" fill="#FBC02D"/>
<path d="M56.4208 116.876C57.7454 117.214 59.0868 117.481 60.4397 117.678L74.9977 111.371L74.0703 109.23L56.4208 116.876Z" fill="#FBC02D"/>
<path style="mix-blend-mode:multiply" d="M37.9557 19.9445L46.0397 16.4426L46.5146 17.5388C65.6046 14.792 86.672 28.3258 96.5691 51.1734C106.466 74.0209 101.943 98.6806 86.8671 110.693L87.3382 111.781L79.2542 115.283C58.2906 124.364 32.0563 110.383 20.6531 84.0586C9.24997 57.7342 16.9921 29.0255 37.9557 19.9445Z" fill="url(#paint0_linear_414_12837)"/>
<path d="M87.3407 111.787C66.3795 120.867 40.1412 106.884 28.7359 80.5548C17.3306 54.2255 25.0772 25.5207 46.0385 16.4408C66.9997 7.36078 93.238 21.344 104.643 47.6733C116.049 74.0025 108.302 102.707 87.3407 111.787Z" fill="#FBC02D"/>
<path d="M85.5193 107.589C67.1498 115.546 43.8264 102.531 33.4249 78.5196C23.0235 54.5078 29.4829 28.5918 47.8524 20.6345C66.2219 12.6772 89.5453 25.692 99.9467 49.7038C110.348 73.7156 103.889 99.6316 85.5193 107.589Z" fill="#F9A825"/>
<path style="mix-blend-mode:multiply" d="M85.5193 107.589C67.1498 115.546 43.8264 102.531 33.4249 78.5196C23.0235 54.5078 29.4829 28.5918 47.8524 20.6345C66.2219 12.6772 89.5453 25.692 99.9467 49.7038C110.348 73.7156 103.889 99.6316 85.5193 107.589Z" fill="url(#paint1_linear_414_12837)"/>
<path style="mix-blend-mode:multiply" d="M97.8876 50.6026C87.6826 27.0442 65.0329 14.0839 46.8357 21.1224C47.1783 20.974 47.5294 20.8219 47.872 20.6735C66.2408 12.7165 89.5646 25.7306 99.9662 49.7428C110.368 73.7551 103.908 99.671 85.5388 107.628C85.1963 107.776 84.8451 107.928 84.5026 108.077C102.051 99.5397 108.093 74.161 97.8876 50.6026Z" fill="url(#paint2_radial_414_12837)"/>
<path style="mix-blend-mode:multiply" d="M52.5672 74.6377C52.4919 71.9751 50.8407 71.826 47.9409 70.1327C45.3077 68.6087 43.5715 64.9061 43.143 61.5219C42.7566 58.2821 42.5389 53.6472 45.3048 51.1574C45.4686 52.5223 45.9606 53.8272 46.7386 54.9605C47.9909 56.5131 49.7138 56.499 50.6019 55.4736C51.49 54.4481 51.9067 52.8743 49.4911 48.3778C47.5372 44.7594 46.9401 42.1601 48.5708 40.1723C49.8073 38.5464 50.5175 36.5816 50.6064 34.5409C51.5655 35.4702 52.1165 36.7423 52.1384 38.0776C52.173 39.6545 52.7704 41.1669 53.8228 42.3417C55.8317 44.3497 58.3903 42.743 59.0621 40.9366C59.8177 38.9006 58.8564 36.2354 56.7007 34.3113C54.3091 32.1945 52.94 30.5602 53.5495 27.8349C54.2079 29.188 55.255 30.3138 56.557 31.0682C57.2767 31.5794 58.0907 31.9427 58.9517 32.1371C59.8128 32.3314 60.7039 32.353 61.5734 32.2006C63.977 31.9147 66.3982 32.5672 68.3326 34.0222C69.3061 34.7905 72.4686 37.865 71.2774 45.3987C70.7183 48.8039 74.2444 50.5106 76.1005 49.1371C77.6425 48.0012 77.3927 46.4619 76.2779 43.7004C77.7026 44.4241 78.8912 45.5393 79.7044 46.9149C81.5128 49.9861 82.6374 52.4179 82.5581 58.1985C82.5321 61.261 82.4187 61.7271 84.0488 63.7059C86.3599 66.0205 88.2099 68.7534 89.5002 71.759C94.4339 83.1486 90.6314 95.7595 81.006 99.929C71.3805 104.099 59.5802 98.2465 54.6465 86.8569C53.0961 83.3037 52.3706 79.4454 52.5243 75.5717C52.5444 75.0545 52.5701 74.7382 52.5672 74.6377Z" fill="url(#paint3_linear_414_12837)"/>
<path d="M53.2532 74.3365C53.1779 71.674 51.5267 71.5248 48.6269 69.8315C45.9937 68.3075 44.2576 64.6049 43.829 61.2207C43.4426 57.9809 43.2334 53.3423 45.9908 50.8562C46.1546 52.2211 46.6466 53.526 47.4246 54.6593C48.6769 56.2119 50.3998 56.1979 51.2879 55.1724C52.1761 54.1469 52.6013 52.5694 50.1771 48.0766C48.2232 44.4582 47.6261 41.8589 49.2567 39.8711C50.4932 38.2452 51.2035 36.2804 51.2924 34.2397C51.7693 34.6983 52.1504 35.2471 52.4134 35.8543C52.6764 36.4615 52.8161 37.1148 52.8244 37.7765C52.8555 39.3545 53.4569 40.8678 54.5173 42.0368C56.5177 44.0485 59.0763 42.4418 59.7567 40.6317C60.5036 38.5995 59.5509 35.9306 57.3867 34.0102C55.0036 31.8896 53.626 30.259 54.2355 27.5338C54.8976 28.8842 55.9439 30.0091 57.243 30.767C57.9627 31.2782 58.7766 31.6415 59.6377 31.8359C60.4988 32.0303 61.3899 32.0519 62.2594 31.8994C64.6559 31.5996 67.0759 32.2339 69.0171 33.6708C69.9907 34.4391 73.1618 37.5099 71.9705 45.0436C71.4115 48.4487 74.9289 50.1592 76.785 48.7857C78.3271 47.6498 78.0773 46.1104 76.9624 43.349C78.3871 44.0727 79.5758 45.1878 80.3889 46.5634C82.1974 49.6347 83.322 52.0665 83.2427 57.8471C83.2252 60.9059 83.1118 61.3719 84.742 63.3508C87.0469 65.6701 88.8934 68.4036 90.1847 71.4076C95.1185 82.7972 91.316 95.4081 81.6991 99.574C72.0822 103.74 60.2733 97.8914 55.3396 86.5018C53.7866 82.9505 53.0581 79.0935 53.2089 75.2203C53.2475 74.7459 53.2903 74.4222 53.2532 74.3365Z" fill="#FDD835"/>
<g style="mix-blend-mode:multiply">
<path d="M60.3797 75.4147L65.3467 70.4459L69.3533 70.9377L71.3243 68.2328L78.8074 67.4526L80.7894 69.7977L81.631 73.5013L83.5735 76.4128L83.3039 80.1808C82.1297 80.4659 81.0575 81.0712 80.2067 81.9292L81.2915 83.2595C81.1664 83.4289 81.0782 83.6226 81.0324 83.8281C80.9865 84.0336 80.9841 84.2464 81.0253 84.4529L78.8201 83.6588C80.983 84.8125 82.8062 86.5122 84.1086 88.589L83.2522 88.9599L84.3198 90.6027C80.4187 90.4312 76.5303 91.1586 72.9549 92.7289L71.6948 92.3086C71.5602 90.3803 71.7188 88.4427 72.1651 86.5619L71.4395 88.7375C71.2948 88.5493 71.1096 88.3959 70.8978 88.2888C70.6859 88.1817 70.4527 88.1235 70.2153 88.1185L70.0945 86.3604C68.8862 86.4115 67.7137 86.7859 66.6995 87.4447L63.7811 85.0983L62.8685 81.7001L60.7595 78.5454L60.3797 75.4147ZM80.9657 75.1117L73.9179 78.1646L76.8637 81.6077C81.0894 80.4688 81.1299 78.59 80.9657 75.1117ZM76.5923 85.5595L78.4608 85.1773C77.9012 84.5471 77.1202 84.1569 76.2802 84.0878C76.1943 84.3384 76.178 84.6076 76.233 84.8667C76.2879 85.1259 76.4121 85.3653 76.5923 85.5595ZM77.0187 88.6802C76.5093 87.0816 75.8407 85.5381 75.0229 84.073C75.5145 85.6783 76.1839 87.2236 77.0187 88.6802ZM75.0338 86.2347C75.013 85.965 74.9194 85.706 74.7629 85.4854C74.6065 85.2648 74.393 85.0908 74.1454 84.9821C73.6213 85.6421 73.3717 86.4787 73.4486 87.318L75.0338 86.2347ZM72.1966 83.6294L71.6999 79.1254L64.6521 82.1784C67.0771 84.6774 68.4496 85.9441 72.1966 83.6294Z" fill="#FBC02D"/>
</g>
<g style="mix-blend-mode:multiply">
<path d="M60.4663 72.6896L54.7945 56.7786C56.1129 59.2587 56.9473 60.5041 59.1382 61.7112L59.7976 63.6326C60.837 64.3417 61.4011 64.4229 62.3037 63.3606C63.3925 64.4654 64.1987 63.7908 64.4189 62.4444L62.2476 56.1639C63.0458 55.0248 63.2198 54.0647 63.3102 52.1135C64.2715 53.2639 65.5014 54.1597 66.8912 54.7219L68.9291 60.6941C70.0053 62.028 71.1607 61.9954 71.3641 60.4224C72.5915 60.9078 73.0967 60.6889 73.5393 59.4801L72.8314 57.3764C73.6791 55.4124 73.5466 53.7917 73.0931 50.937L78.6051 66.7138C70.8795 66.8872 66.8207 68.1063 60.4663 72.6896Z" fill="#FBC02D"/>
</g>
<g style="mix-blend-mode:multiply">
<path d="M85.2553 73.7048L83.2115 72.4849L84.081 69.8199L82.4832 71.4376L81.7685 69.1537L82.5182 68.1374L85.4759 69.9174L86.756 76.7466L84.7538 78.9565L84.0114 76.4914L85.2553 73.7048Z" fill="#FBC02D"/>
</g>
<g style="mix-blend-mode:multiply">
<path d="M84.4595 90.9049L84.7665 91.4024L82.5897 94.7355L81.8372 95.3462L83.3724 98.7494C82.2509 99.4182 81.0478 99.9393 79.7928 100.3L78.3535 96.9773L77.5942 97.1028L74.6001 96.3657L73.2734 94.2656L73.0666 93.0839C76.7357 91.7985 80.575 91.0642 84.4595 90.9049Z" fill="#FBC02D"/>
</g>
<g style="mix-blend-mode:multiply">
<path d="M58.3432 78.6091L59.5973 78.7573L60.7745 80.8409L58.5015 80.8999L61.0403 82.0885L60.5322 84.4139L63.4159 85.4125L64.6978 87.6439L61.7247 87.5892L57.61 81.9878L58.3432 78.6091Z" fill="#FBC02D"/>
</g>
<defs>
<linearGradient id="paint0_linear_414_12837" x1="47.1072" y1="41.0708" x2="97.0119" y2="156.276" gradientUnits="userSpaceOnUse">
<stop offset="0.02" stop-color="white" stop-opacity="0"/>
<stop offset="1" stop-color="#F9A825"/>
</linearGradient>
<linearGradient id="paint1_linear_414_12837" x1="54.1957" y1="35.2782" x2="109.965" y2="164.023" gradientUnits="userSpaceOnUse">
<stop offset="0.02" stop-color="white" stop-opacity="0"/>
<stop offset="1" stop-color="#F9A825"/>
</linearGradient>
<radialGradient id="paint2_radial_414_12837" cx="0" cy="0" r="1" gradientUnits="userSpaceOnUse" gradientTransform="translate(82.2785 55.9146) rotate(156.579) scale(36.0141 47.5386)">
<stop offset="0.02" stop-color="white" stop-opacity="0"/>
<stop offset="1" stop-color="#F9A825"/>
</radialGradient>
<linearGradient id="paint3_linear_414_12837" x1="50.4152" y1="29.1926" x2="81.0302" y2="99.8677" gradientUnits="userSpaceOnUse">
<stop stop-color="#F9A825"/>
<stop offset="0.1" stop-color="#F9AA29" stop-opacity="0.98"/>
<stop offset="0.23" stop-color="#F9AF36" stop-opacity="0.92"/>
<stop offset="0.36" stop-color="#FAB74C" stop-opacity="0.82"/>
<stop offset="0.5" stop-color="#FBC36A" stop-opacity="0.68"/>
<stop offset="0.65" stop-color="#FCD390" stop-opacity="0.51"/>
<stop offset="0.8" stop-color="#FDE6BF" stop-opacity="0.29"/>
<stop offset="0.96" stop-color="#FFFBF6" stop-opacity="0.04"/>
<stop offset="0.98" stop-color="white" stop-opacity="0"/>
</linearGradient>
</defs>
</svg>