<svg width="119" height="113" viewBox="0 0 119 113" fill="none" xmlns="http://www.w3.org/2000/svg">
<path d="M16.3005 35.469L13.4383 43.0236L14.4626 43.4117C12.7622 61.0157 26.0594 79.7353 47.4429 87.837C68.8263 95.9386 91.1494 90.7148 101.549 76.4067L102.565 76.7917L105.427 69.2371C112.85 49.6463 98.9227 26.2129 74.3221 16.8923C49.7216 7.57172 23.723 15.8782 16.3005 35.469Z" fill="#FDD835"/>
<path d="M29.8493 19.4363L23.6093 35.906L21.6406 35.1602L26.7951 21.5554C27.7755 20.7962 28.795 20.0889 29.8493 19.4363Z" fill="#FBC02D"/>
<path d="M38.213 15.5678L29.6413 38.1916L27.6406 37.4336L35.5452 16.5704C36.3839 16.1926 37.2755 15.844 38.213 15.5678Z" fill="#FBC02D"/>
<path d="M45.7494 13.6996L35.6132 40.4529L33.6445 39.707L43.3199 14.1701C44.0968 13.9795 44.9236 13.8261 45.7494 13.6996Z" fill="#FBC02D"/>
<path d="M52.8829 13.0882L41.6491 42.7385L39.6484 41.9805L50.5639 13.1705C51.2972 13.1189 52.0706 13.0825 52.8829 13.0882Z" fill="#FBC02D"/>
<path d="M59.618 13.3287L47.6171 45.0037L45.6484 44.2578L57.4189 13.191C58.122 13.2195 58.8559 13.287 59.618 13.3287Z" fill="#FBC02D"/>
<path d="M66.1027 14.4299L53.653 47.2893L51.6523 46.5312L63.9777 13.9999C64.6474 14.1164 65.3621 14.2591 66.1027 14.4299Z" fill="#FBC02D"/>
<path d="M72.2708 16.163L59.621 49.5506L57.6523 48.8047L70.2597 15.5291C70.9131 15.7126 71.5925 15.9243 72.2708 16.163Z" fill="#FBC02D"/>
<path d="M76.2748 17.6788C76.947 17.9335 77.59 18.2412 78.2361 18.5409L65.6257 51.8244L63.625 51.0664L76.2748 17.6788Z" fill="#FBC02D"/>
<path d="M82.1059 20.4922C82.7418 20.8429 83.3715 21.2096 83.9823 21.5783L71.6569 54.1096L69.6562 53.3516L82.1059 20.4922Z" fill="#FBC02D"/>
<path d="M87.6298 23.9383C88.2434 24.3721 88.8378 24.8078 89.4152 25.2645L77.6296 56.3713L75.6289 55.6133L87.6298 23.9383Z" fill="#FBC02D"/>
<path d="M92.897 28.248C93.4772 28.7698 94.0322 29.3095 94.5763 29.8543L83.6609 58.6643L81.6602 57.9062L92.897 28.248Z" fill="#FBC02D"/>
<path d="M97.769 33.4108C98.3037 34.0526 98.8183 34.7235 99.3088 35.3852L89.6335 60.9221L87.6328 60.1641L97.769 33.4108Z" fill="#FBC02D"/>
<path d="M102.236 39.8254C102.717 40.6573 103.16 41.4932 103.569 42.344L95.6648 63.2072L93.6641 62.4492L102.236 39.8254Z" fill="#FBC02D"/>
<path d="M105.878 48.2407C106.244 49.4395 106.547 50.6569 106.784 51.8877L101.63 65.4924L99.6289 64.7344L105.878 48.2407Z" fill="#FBC02D"/>
<path style="mix-blend-mode:multiply" d="M16.3005 35.469L13.4383 43.0236L14.4626 43.4117C12.7622 61.0157 26.0594 79.7353 47.4429 87.837C68.8263 95.9386 91.1494 90.7148 101.549 76.4067L102.565 76.7917L105.427 69.2371C112.85 49.6463 98.9227 26.2129 74.3221 16.8923C49.7216 7.57172 23.723 15.8782 16.3005 35.469Z" fill="url(#paint0_linear_414_18731)"/>
<path d="M102.541 76.7829C109.963 57.1943 96.0328 33.7573 71.4277 24.435C46.8226 15.1127 20.8598 23.4352 13.4381 43.0239C6.01645 62.6125 19.9464 86.0494 44.5515 95.3717C69.1566 104.694 95.1194 96.3715 102.541 76.7829Z" fill="#FBC02D"/>
<path d="M98.6188 75.2946C105.123 58.1281 92.2046 37.3197 69.7652 28.818C47.3258 20.3162 23.8626 27.3405 17.3586 44.507C10.8546 61.6736 23.7727 82.4819 46.2121 90.9836C68.6515 99.4854 92.1148 92.4612 98.6188 75.2946Z" fill="#F9A825"/>
<path style="mix-blend-mode:multiply" d="M98.6188 75.2946C105.123 58.1281 92.2046 37.3197 69.7652 28.818C47.3258 20.3162 23.8626 27.3405 17.3586 44.507C10.8546 61.6736 23.7727 82.4819 46.2121 90.9836C68.6515 99.4854 92.1148 92.4612 98.6188 75.2946Z" fill="url(#paint1_linear_414_18731)"/>
<path style="mix-blend-mode:multiply" d="M46.9734 89.0663C24.9577 80.7251 12.1182 60.5316 17.788 43.5621C17.6667 43.8822 17.5424 44.2104 17.4211 44.5305C10.9173 61.6964 23.8349 82.5052 46.2747 91.0071C68.7145 99.509 92.1776 92.4841 98.6813 75.3181C98.8026 74.998 98.9269 74.6698 99.0482 74.3497C91.946 90.7765 68.957 97.3954 46.9734 89.0663Z" fill="url(#paint2_radial_414_18731)"/>
<g style="mix-blend-mode:multiply">
<path style="mix-blend-mode:multiply" d="M53.4526 70.9356L49.2227 73.5977L64.516 79.3919L75.9804 72.1039L70.3464 69.9693L63.097 74.5622L53.4526 70.9356Z" fill="url(#paint3_linear_414_18731)"/>
<path style="mix-blend-mode:multiply" d="M43.8275 67.287L42.4275 62.4554L38.1855 65.1494L39.5865 69.954L45.2044 72.0825L49.4374 69.4125L43.8275 67.287Z" fill="url(#paint4_linear_414_18731)"/>
<path style="mix-blend-mode:multiply" d="M44.4576 57.0946L48.6986 54.4276L47.2956 49.604L43.0566 52.29L44.4576 57.0946Z" fill="url(#paint5_linear_414_18731)"/>
<path style="mix-blend-mode:multiply" d="M62.1106 71.1229L66.3275 68.4468L60.7095 66.3183L56.4766 68.9883L62.1106 71.1229Z" fill="url(#paint6_linear_414_18731)"/>
<path style="mix-blend-mode:multiply" d="M73.3828 68.0508L78.9928 70.1763L83.2338 67.5093L81.8308 62.6856L76.2208 60.5601L77.6158 65.3807L73.3828 68.0508Z" fill="url(#paint7_linear_414_18731)"/>
<path style="mix-blend-mode:multiply" d="M53.5657 41.5839L59.1757 43.7094L57.7838 38.8808L52.1658 36.7523L47.9238 39.4463L49.3248 44.2509L53.5657 41.5839Z" fill="url(#paint8_linear_414_18731)"/>
<path style="mix-blend-mode:multiply" d="M63.2 45.2034L72.8263 48.878L75.2073 57.1105L80.8493 59.2481L77.0924 46.193L61.7991 40.3988L63.2 45.2034Z" fill="url(#paint9_linear_414_18731)"/>
<path style="mix-blend-mode:multiply" d="M64.1786 48.6691L65.5826 53.4657L71.2006 55.5942L69.8206 50.8067L64.1786 48.6691Z" fill="url(#paint10_linear_414_18731)"/>
<path style="mix-blend-mode:multiply" d="M39.0397 50.7668L46.3191 46.167L44.9182 41.3624L33.4297 48.6413L37.2167 61.6895L41.4496 59.0195L39.0397 50.7668Z" fill="url(#paint11_linear_414_18731)"/>
<path style="mix-blend-mode:multiply" d="M54.5458 45.0098L54.5518 44.9938L50.3098 47.6878L52.7057 55.9534L45.4494 60.5162L46.8443 65.3368L52.4863 67.4744L59.7418 62.8655L69.3931 66.5222L73.602 63.8431L72.2251 59.0476L62.5737 55.3909L60.1938 47.1314L54.5458 45.0098Z" fill="url(#paint12_linear_414_18731)"/>
</g>
<path d="M52.8843 72.4267L62.4876 76.0652L69.7149 71.4822L75.3169 73.6046L63.9648 80.862L48.6634 75.0647L52.8843 72.4267ZM43.2809 68.7882L48.8829 70.9106L44.622 73.5335L39.0201 71.411L37.6191 66.6064L41.8581 63.9204L43.2809 68.7882ZM43.8714 58.6066L42.4704 53.802L46.7094 51.116L48.1124 55.9396L43.8714 58.6066Z" fill="#FDD835"/>
<path d="M61.5409 72.6222L55.9389 70.4998L60.1719 67.8297L65.7738 69.9522L61.5409 72.6222ZM72.7696 69.5553L77.0105 66.8883L75.6076 62.0647L81.2095 64.1871L82.6045 69.0077L78.4195 71.6959L72.7696 69.5553ZM48.7471 45.738L47.3461 40.9334L51.5851 38.2474L57.1871 40.3698L58.582 45.1904L52.98 43.068L48.7471 45.738ZM72.2508 50.3692L62.6474 46.7307L61.2464 41.9261L76.5397 47.7204L80.2966 60.7755L74.6947 58.653L72.2508 50.3692Z" fill="#FDD835"/>
<path d="M69.249 52.3044L70.6259 57.0999L65.024 54.9774L63.623 50.1729L69.249 52.3044Z" fill="#FDD835"/>
<path d="M53.9512 46.5048L59.5931 48.6424L61.9691 56.8639L71.6205 60.5205L72.9975 65.316L68.8103 68.0583L59.159 64.4016L51.9317 68.9846L46.2497 66.8319L44.8548 62.0113L52.1221 57.4434L49.7061 49.2068L53.9451 46.5208L53.9512 46.5048ZM36.6464 63.1934L32.8594 50.1452L44.3478 42.8663L45.7488 47.6709L38.5215 52.2539L40.8975 60.4753L36.6464 63.1934Z" fill="#FDD835"/>
<defs>
<linearGradient id="paint0_linear_414_18731" x1="36.0434" y1="42.9491" x2="143.705" y2="83.7395" gradientUnits="userSpaceOnUse">
<stop offset="0.02" stop-color="white" stop-opacity="0"/>
<stop offset="1" stop-color="#F9A825"/>
</linearGradient>
<linearGradient id="paint1_linear_414_18731" x1="31.0433" y1="49.6919" x2="151.357" y2="95.2759" gradientUnits="userSpaceOnUse">
<stop offset="0.02" stop-color="white" stop-opacity="0"/>
<stop offset="1" stop-color="#F9A825"/>
</linearGradient>
<radialGradient id="paint2_radial_414_18731" cx="0" cy="0" r="1" gradientUnits="userSpaceOnUse" gradientTransform="translate(51.6704 74.73) rotate(-69.2495) scale(33.025 43.593)">
<stop offset="0.02" stop-color="white" stop-opacity="0"/>
<stop offset="1" stop-color="#F9A825"/>
</radialGradient>
<linearGradient id="paint3_linear_414_18731" x1="41.798" y1="66.3827" x2="160.024" y2="104.651" gradientUnits="userSpaceOnUse">
<stop stop-color="#F9A825"/>
<stop offset="0.05" stop-color="#FAB74B" stop-opacity="0.83"/>
<stop offset="0.12" stop-color="#FBC875" stop-opacity="0.63"/>
<stop offset="0.2" stop-color="#FCD79A" stop-opacity="0.46"/>
<stop offset="0.27" stop-color="#FDE3B9" stop-opacity="0.32"/>
<stop offset="0.35" stop-color="#FEEDD3" stop-opacity="0.2"/>
<stop offset="0.44" stop-color="#FEF5E6" stop-opacity="0.11"/>
<stop offset="0.53" stop-color="#FFFBF4" stop-opacity="0.05"/>
<stop offset="0.63" stop-color="#FFFEFC" stop-opacity="0.01"/>
<stop offset="0.78" stop-color="white" stop-opacity="0"/>
</linearGradient>
<linearGradient id="paint4_linear_414_18731" x1="41.6303" y1="66.5644" x2="160.552" y2="105.05" gradientUnits="userSpaceOnUse">
<stop stop-color="#F9A825"/>
<stop offset="0.05" stop-color="#FAB74B" stop-opacity="0.83"/>
<stop offset="0.12" stop-color="#FBC875" stop-opacity="0.63"/>
<stop offset="0.2" stop-color="#FCD79A" stop-opacity="0.46"/>
<stop offset="0.27" stop-color="#FDE3B9" stop-opacity="0.32"/>
<stop offset="0.35" stop-color="#FEEDD3" stop-opacity="0.2"/>
<stop offset="0.44" stop-color="#FEF5E6" stop-opacity="0.11"/>
<stop offset="0.53" stop-color="#FFFBF4" stop-opacity="0.05"/>
<stop offset="0.63" stop-color="#FFFEFC" stop-opacity="0.01"/>
<stop offset="0.78" stop-color="white" stop-opacity="0"/>
</linearGradient>
<linearGradient id="paint5_linear_414_18731" x1="45.7215" y1="53.2997" x2="164.648" y2="91.7965" gradientUnits="userSpaceOnUse">
<stop stop-color="#F9A825"/>
<stop offset="0.05" stop-color="#FAB74B" stop-opacity="0.83"/>
<stop offset="0.12" stop-color="#FBC875" stop-opacity="0.63"/>
<stop offset="0.2" stop-color="#FCD79A" stop-opacity="0.46"/>
<stop offset="0.27" stop-color="#FDE3B9" stop-opacity="0.32"/>
<stop offset="0.35" stop-color="#FEEDD3" stop-opacity="0.2"/>
<stop offset="0.44" stop-color="#FEF5E6" stop-opacity="0.11"/>
<stop offset="0.53" stop-color="#FFFBF4" stop-opacity="0.05"/>
<stop offset="0.63" stop-color="#FFFEFC" stop-opacity="0.01"/>
<stop offset="0.78" stop-color="white" stop-opacity="0"/>
</linearGradient>
<linearGradient id="paint6_linear_414_18731" x1="42.9136" y1="62.7331" x2="161.14" y2="101.001" gradientUnits="userSpaceOnUse">
<stop stop-color="#F9A825"/>
<stop offset="0.05" stop-color="#FAB74B" stop-opacity="0.83"/>
<stop offset="0.12" stop-color="#FBC875" stop-opacity="0.63"/>
<stop offset="0.2" stop-color="#FCD79A" stop-opacity="0.46"/>
<stop offset="0.27" stop-color="#FDE3B9" stop-opacity="0.32"/>
<stop offset="0.35" stop-color="#FEEDD3" stop-opacity="0.2"/>
<stop offset="0.44" stop-color="#FEF5E6" stop-opacity="0.11"/>
<stop offset="0.53" stop-color="#FFFBF4" stop-opacity="0.05"/>
<stop offset="0.63" stop-color="#FFFEFC" stop-opacity="0.01"/>
<stop offset="0.78" stop-color="white" stop-opacity="0"/>
</linearGradient>
<linearGradient id="paint7_linear_414_18731" x1="45.4355" y1="54.9547" x2="163.662" y2="93.2229" gradientUnits="userSpaceOnUse">
<stop stop-color="#F9A825"/>
<stop offset="0.05" stop-color="#FAB74B" stop-opacity="0.83"/>
<stop offset="0.12" stop-color="#FBC875" stop-opacity="0.63"/>
<stop offset="0.2" stop-color="#FCD79A" stop-opacity="0.46"/>
<stop offset="0.27" stop-color="#FDE3B9" stop-opacity="0.32"/>
<stop offset="0.35" stop-color="#FEEDD3" stop-opacity="0.2"/>
<stop offset="0.44" stop-color="#FEF5E6" stop-opacity="0.11"/>
<stop offset="0.53" stop-color="#FFFBF4" stop-opacity="0.05"/>
<stop offset="0.63" stop-color="#FFFEFC" stop-opacity="0.01"/>
<stop offset="0.78" stop-color="white" stop-opacity="0"/>
</linearGradient>
<linearGradient id="paint8_linear_414_18731" x1="49.7763" y1="40.1848" x2="168.695" y2="78.6786" gradientUnits="userSpaceOnUse">
<stop stop-color="#F9A825"/>
<stop offset="0.05" stop-color="#FAB74B" stop-opacity="0.83"/>
<stop offset="0.12" stop-color="#FBC875" stop-opacity="0.63"/>
<stop offset="0.2" stop-color="#FCD79A" stop-opacity="0.46"/>
<stop offset="0.27" stop-color="#FDE3B9" stop-opacity="0.32"/>
<stop offset="0.35" stop-color="#FEEDD3" stop-opacity="0.2"/>
<stop offset="0.44" stop-color="#FEF5E6" stop-opacity="0.11"/>
<stop offset="0.53" stop-color="#FFFBF4" stop-opacity="0.05"/>
<stop offset="0.63" stop-color="#FFFEFC" stop-opacity="0.01"/>
<stop offset="0.78" stop-color="white" stop-opacity="0"/>
</linearGradient>
<linearGradient id="paint9_linear_414_18731" x1="48.8737" y1="42.5575" x2="168.528" y2="81.2842" gradientUnits="userSpaceOnUse">
<stop stop-color="#F9A825"/>
<stop offset="0.05" stop-color="#FAB74B" stop-opacity="0.83"/>
<stop offset="0.12" stop-color="#FBC875" stop-opacity="0.63"/>
<stop offset="0.2" stop-color="#FCD79A" stop-opacity="0.46"/>
<stop offset="0.27" stop-color="#FDE3B9" stop-opacity="0.32"/>
<stop offset="0.35" stop-color="#FEEDD3" stop-opacity="0.2"/>
<stop offset="0.44" stop-color="#FEF5E6" stop-opacity="0.11"/>
<stop offset="0.53" stop-color="#FFFBF4" stop-opacity="0.05"/>
<stop offset="0.63" stop-color="#FFFEFC" stop-opacity="0.01"/>
<stop offset="0.78" stop-color="white" stop-opacity="0"/>
</linearGradient>
<linearGradient id="paint10_linear_414_18731" x1="47.9139" y1="45.7282" x2="167.576" y2="84.4581" gradientUnits="userSpaceOnUse">
<stop stop-color="#F9A825"/>
<stop offset="0.05" stop-color="#FAB74B" stop-opacity="0.83"/>
<stop offset="0.12" stop-color="#FBC875" stop-opacity="0.63"/>
<stop offset="0.2" stop-color="#FCD79A" stop-opacity="0.46"/>
<stop offset="0.27" stop-color="#FDE3B9" stop-opacity="0.32"/>
<stop offset="0.35" stop-color="#FEEDD3" stop-opacity="0.2"/>
<stop offset="0.44" stop-color="#FEF5E6" stop-opacity="0.11"/>
<stop offset="0.53" stop-color="#FFFBF4" stop-opacity="0.05"/>
<stop offset="0.63" stop-color="#FFFEFC" stop-opacity="0.01"/>
<stop offset="0.78" stop-color="white" stop-opacity="0"/>
</linearGradient>
<linearGradient id="paint11_linear_414_18731" x1="45.7059" y1="53.0271" x2="163.67" y2="91.2142" gradientUnits="userSpaceOnUse">
<stop stop-color="#F9A825"/>
<stop offset="0.05" stop-color="#FAB74B" stop-opacity="0.83"/>
<stop offset="0.12" stop-color="#FBC875" stop-opacity="0.63"/>
<stop offset="0.2" stop-color="#FCD79A" stop-opacity="0.46"/>
<stop offset="0.27" stop-color="#FDE3B9" stop-opacity="0.32"/>
<stop offset="0.35" stop-color="#FEEDD3" stop-opacity="0.2"/>
<stop offset="0.44" stop-color="#FEF5E6" stop-opacity="0.11"/>
<stop offset="0.53" stop-color="#FFFBF4" stop-opacity="0.05"/>
<stop offset="0.63" stop-color="#FFFEFC" stop-opacity="0.01"/>
<stop offset="0.78" stop-color="white" stop-opacity="0"/>
</linearGradient>
<linearGradient id="paint12_linear_414_18731" x1="45.6979" y1="53.701" x2="164.226" y2="92.0652" gradientUnits="userSpaceOnUse">
<stop stop-color="#F9A825"/>
<stop offset="0.05" stop-color="#FAB74B" stop-opacity="0.83"/>
<stop offset="0.12" stop-color="#FBC875" stop-opacity="0.63"/>
<stop offset="0.2" stop-color="#FCD79A" stop-opacity="0.46"/>
<stop offset="0.27" stop-color="#FDE3B9" stop-opacity="0.32"/>
<stop offset="0.35" stop-color="#FEEDD3" stop-opacity="0.2"/>
<stop offset="0.44" stop-color="#FEF5E6" stop-opacity="0.11"/>
<stop offset="0.53" stop-color="#FFFBF4" stop-opacity="0.05"/>
<stop offset="0.63" stop-color="#FFFEFC" stop-opacity="0.01"/>
<stop offset="0.78" stop-color="white" stop-opacity="0"/>
</linearGradient>
</defs>
</svg>
