<svg width="109" height="113" viewBox="0 0 109 113" fill="none" xmlns="http://www.w3.org/2000/svg">
<path d="M78.5155 20.4188L72.1345 16.8759L71.6541 17.7411C56.1378 13.9278 37.6705 23.377 27.6572 41.4112C17.6439 59.4454 19.3723 80.1435 30.8278 91.2705L30.3511 92.1289L36.7321 95.6719C53.2792 104.859 76.0427 95.4611 87.5798 74.6825C99.1169 53.904 95.0626 29.6064 78.5155 20.4188Z" fill="#FDD835"/>
<path d="M91.0821 34.6208L77.1711 26.8969L78.1094 25.207L89.6005 31.5873C90.1472 32.5718 90.6417 33.5843 91.0821 34.6208Z" fill="#FBC02D"/>
<path d="M93.4637 42.5773L74.3547 31.9672L75.293 30.2773L92.9149 40.0617C93.1283 40.8877 93.3313 41.7167 93.4637 42.5773Z" fill="#FBC02D"/>
<path d="M94.139 49.5803L71.5422 37.0336L72.4805 35.3438L94.0499 47.3199C94.1042 48.0664 94.1336 48.8256 94.139 49.5803Z" fill="#FBC02D"/>
<path d="M93.7735 56.0131L68.7297 42.1078L69.668 40.418L94.002 53.9292C93.9376 54.6186 93.8844 55.2877 93.7735 56.0131Z" fill="#FBC02D"/>
<path d="M92.6672 62.0291L65.9133 47.1742L66.8516 45.4844L93.0918 60.0539C92.9598 60.7058 92.8037 61.3532 92.6672 62.0291Z" fill="#FBC02D"/>
<path d="M90.8512 67.6548L63.0969 52.2446L64.0352 50.5547L91.5124 65.8111C91.306 66.4217 91.0853 67.042 90.8512 67.6548Z" fill="#FBC02D"/>
<path d="M88.4848 72.9729L60.2844 57.3149L61.2227 55.625L89.3285 71.2304C89.0643 71.8177 88.7866 72.3976 88.4848 72.9729Z" fill="#FBC02D"/>
<path d="M86.6067 76.3494C86.2915 76.9172 85.9326 77.4519 85.5806 77.9905L57.468 62.3813L58.4062 60.6914L86.6067 76.3494Z" fill="#FBC02D"/>
<path d="M83.3442 81.1759C82.9478 81.6987 82.5379 82.2139 82.1288 82.7119L54.6516 67.4555L55.5898 65.7656L83.3442 81.1759Z" fill="#FBC02D"/>
<path d="M79.5313 85.6868C79.0636 86.1788 78.5966 86.6535 78.1131 87.1102L51.8391 72.5219L52.7773 70.832L79.5313 85.6868Z" fill="#FBC02D"/>
<path d="M75.0076 89.8075C74.4655 90.2582 73.9106 90.6841 73.3528 91.0995L49.0188 77.5883L49.957 75.8984L75.0076 89.8075Z" fill="#FBC02D"/>
<path d="M69.7453 93.5193C69.1018 93.9137 68.4351 94.2863 67.7796 94.6387L46.2102 82.6625L47.1484 80.9727L69.7453 93.5193Z" fill="#FBC02D"/>
<path d="M63.441 96.6491C62.6346 96.9707 61.8296 97.2578 61.0156 97.5133L43.3938 87.7289L44.332 86.0391L63.441 96.6491Z" fill="#FBC02D"/>
<path d="M55.4273 98.8328C54.3079 99.004 53.1802 99.1158 52.0489 99.1678L40.5578 92.7875L41.4961 91.0977L55.4273 98.8328Z" fill="#FBC02D"/>
<path style="mix-blend-mode:multiply" d="M78.5155 20.4188L72.1345 16.8759L71.6541 17.7411C56.1378 13.9278 37.6705 23.377 27.6572 41.4112C17.6439 59.4454 19.3723 80.1435 30.8278 91.2705L30.3511 92.1289L36.7321 95.6719C53.2792 104.859 76.0427 95.4611 87.5798 74.6825C99.1169 53.904 95.0626 29.6064 78.5155 20.4188Z" fill="url(#paint0_linear_414_18796)"/>
<path d="M30.3466 92.1358C46.8919 101.322 69.6589 91.9221 81.1981 71.1396C92.7373 50.3572 88.679 26.0626 72.1337 16.876C55.5884 7.68939 32.8214 17.0896 21.2822 37.8721C9.74303 58.6545 13.8013 82.9492 30.3466 92.1358Z" fill="#FBC02D"/>
<path d="M32.1876 88.8221C46.6872 96.8728 66.9724 88.0346 77.4959 69.0814C88.0195 50.1282 84.7963 28.2372 70.2967 20.1865C55.7972 12.1358 35.5119 20.974 24.9884 39.9272C14.4649 58.8804 17.6881 80.7714 32.1876 88.8221Z" fill="#F9A825"/>
<path style="mix-blend-mode:multiply" d="M32.1876 88.8221C46.6872 96.8728 66.9724 88.0346 77.4959 69.0814C88.0195 50.1282 84.7963 28.2372 70.2967 20.1865C55.7972 12.1358 35.5119 20.974 24.9884 39.9272C14.4649 58.8804 17.6881 80.7714 32.1876 88.8221Z" fill="url(#paint1_linear_414_18796)"/>
<path style="mix-blend-mode:multiply" d="M26.6168 40.832C36.9416 22.2367 56.667 13.3887 71.099 20.6679C70.8286 20.5178 70.5515 20.3639 70.2811 20.2138C55.782 12.1634 35.4965 21.001 24.9728 39.9545C14.4491 58.908 17.6729 80.799 32.172 88.8494C32.4423 88.9995 32.7195 89.1534 32.9899 89.3035C19.2146 80.8414 16.292 59.4273 26.6168 40.832Z" fill="url(#paint2_radial_414_18796)"/>
<path style="mix-blend-mode:multiply" d="M62.0291 64.3259C62.3072 62.1368 63.6807 62.1477 66.2089 60.9869C68.5035 59.944 70.2353 57.0322 70.8631 54.2768C71.4445 51.6371 72 47.8334 69.9216 45.5562C69.6758 46.6682 69.1643 47.7042 68.4309 48.5754C67.2725 49.7539 65.8532 49.6026 65.2041 48.6851C64.5551 47.7676 64.3392 46.4362 66.6956 42.925C68.6001 40.1002 69.3032 38.0056 68.12 36.2344C67.2325 34.7936 66.8063 33.1161 66.8986 31.4264C66.0324 32.1148 65.4749 33.1188 65.3485 34.218C65.1921 35.5153 64.5769 36.7138 63.6139 37.5969C61.7947 39.0895 59.8156 37.5573 59.4082 36.0134C58.9505 34.2736 59.9592 32.1542 61.8926 30.7427C64.0362 29.1915 65.2975 27.9551 65.0161 25.6587C64.3635 26.7209 63.4088 27.5641 62.2742 28.0805C61.6394 28.4436 60.9388 28.6771 60.2131 28.7675C59.4874 28.8579 58.7509 28.8034 58.0464 28.6072C56.088 28.1765 54.0388 28.5181 52.326 29.5608C51.461 30.1152 48.6042 32.3935 48.9752 38.7014C49.1599 41.5542 46.1143 42.6753 44.6954 41.3923C43.5162 40.3307 43.847 39.0819 44.9902 36.8956C43.7569 37.3767 42.6864 38.1996 41.9044 39.2678C40.1642 41.6533 39.0398 43.567 38.6362 48.3393C38.4092 50.8663 38.4649 51.2598 36.9604 52.7591C34.8672 54.4799 33.1203 56.583 31.8126 58.9564C26.821 67.9465 28.933 78.6523 36.5306 82.8708C44.1282 87.0893 54.332 83.2217 59.3236 74.2316C60.8901 71.4278 61.8013 68.3056 61.9888 65.0994C62.0142 64.6713 62.0187 64.4085 62.0291 64.3259Z" fill="url(#paint3_linear_414_18796)"/>
<path d="M61.488 64.0248C61.7661 61.8357 63.1395 61.8467 65.6677 60.6858C67.9624 59.643 69.6941 56.7311 70.322 53.9757C70.9033 51.336 71.4521 47.5285 69.3804 45.2551C69.1347 46.3671 68.6232 47.4031 67.8898 48.2743C66.7313 49.4529 65.312 49.3015 64.663 48.384C64.0139 47.4665 63.7913 46.1314 66.1544 42.6239C68.0589 39.7991 68.7621 37.7045 67.5789 35.9333C66.6913 34.4925 66.2651 32.815 66.3574 31.1253C65.927 31.4647 65.5683 31.8863 65.3022 32.3655C65.0361 32.8448 64.8679 33.3721 64.8074 33.9169C64.6537 35.2154 64.0351 36.4143 63.066 37.2921C61.2536 38.7884 59.2745 37.2562 58.8603 35.7086C58.4093 33.9725 59.4113 31.8494 61.3514 30.4416C63.4883 28.8866 64.7563 27.654 64.4749 25.3577C63.8195 26.4174 62.8656 27.2599 61.733 27.7794C61.0982 28.1425 60.3976 28.376 59.6719 28.4664C58.9462 28.5568 58.2098 28.5023 57.5053 28.3061C55.5538 27.8645 53.5071 28.1912 51.79 29.2184C50.9251 29.7728 48.0615 32.0474 48.4325 38.3552C48.6172 41.2081 45.5784 42.333 44.1595 41.0499C42.9803 39.9884 43.3111 38.7394 44.4543 36.5532C43.221 37.0343 42.1505 37.8572 41.3685 38.9254C39.6283 41.3108 38.5038 43.2246 38.1002 47.997C37.8666 50.5202 37.9222 50.9137 36.4177 52.4129C34.3292 54.1382 32.585 56.242 31.2767 58.614C26.2851 67.6041 28.3971 78.3099 35.9879 82.5246C43.5788 86.7394 53.7893 82.8755 58.7809 73.8854C60.3495 71.0834 61.263 67.9625 61.4529 64.757C61.4595 64.3627 61.4505 64.0924 61.488 64.0248Z" fill="#FDD835"/>
<g style="mix-blend-mode:multiply">
<path d="M55.525 64.337L51.833 59.8375L48.4897 59.9179L47.0841 57.5279L40.9778 56.2776L39.1535 58.0503L38.1592 61.0355L36.3214 63.2783L36.238 66.4068C37.183 66.7372 38.0179 67.3232 38.6498 68.0996L37.6475 69.1084C37.7368 69.2582 37.7939 69.425 37.815 69.5982C37.8361 69.7713 37.8208 69.947 37.7701 70.1139L39.6526 69.6381C37.7758 70.4139 36.1348 71.6673 34.8925 73.2738L35.5685 73.6492L34.555 74.917C37.7853 75.092 40.9322 76.0072 43.7525 77.5919L44.8256 77.3476C45.0929 75.7687 45.1194 74.1583 44.904 72.5715L45.3257 74.424C45.4603 74.2806 45.6254 74.1692 45.8088 74.0981C45.9921 74.0269 46.1891 73.9979 46.3852 74.013L46.6274 72.5733C47.6195 72.7134 48.5558 73.1173 49.3386 73.7427L51.935 72.0449L52.9632 69.3172L54.9579 66.8874L55.525 64.337ZM38.577 62.4172L44.1401 65.506L41.432 68.1057C38.0404 66.8239 38.1595 65.2716 38.577 62.4172ZM41.3352 71.3859L39.8257 70.9191C40.3382 70.445 41.0138 70.1866 41.7119 70.1978C41.7624 70.4114 41.754 70.6347 41.6877 70.8439C41.6214 71.0531 41.4995 71.2404 41.3352 71.3859ZM40.7305 73.9242C41.2802 72.6475 41.9566 71.4292 42.7497 70.2877C42.2142 71.5713 41.5369 72.791 40.7305 73.9242ZM42.5654 72.069C42.6044 71.8483 42.7026 71.6424 42.8495 71.4732C42.9964 71.304 43.1865 71.1779 43.3995 71.1083C43.7781 71.695 43.9159 72.405 43.7845 73.0907L42.5654 72.069ZM45.1159 70.1511L45.8908 66.4781L51.4538 69.5669C49.2517 71.4305 48.0174 72.3635 45.1159 70.1511Z" fill="#FBC02D"/>
</g>
<g style="mix-blend-mode:multiply">
<path d="M55.6763 62.0792L61.6433 49.4212C60.3551 51.359 59.5661 52.3181 57.6619 53.1356L56.9624 54.6662C56.0478 55.1666 55.5762 55.1877 54.9182 54.2387C53.9309 55.0612 53.3209 54.4396 53.2486 53.3117L55.5483 48.3098C54.9826 47.3059 54.917 46.5002 55.0007 44.8841C54.1148 45.7546 53.0282 46.3934 51.8367 46.7442L49.6721 51.5027C48.6766 52.5152 47.7266 52.3946 47.6865 51.0812C46.6352 51.3818 46.2364 51.1604 45.9696 50.1279L46.7239 48.4508C46.1843 46.7628 46.425 45.4373 47.0305 43.1205L41.2062 55.6808C47.5616 56.4505 50.8091 57.7849 55.6763 62.0792Z" fill="#FBC02D"/>
</g>
<g style="mix-blend-mode:multiply">
<path d="M35.1551 60.9055L36.9391 60.0655L36.4385 57.7978L37.6246 59.2611L38.3991 57.4361L37.8635 56.5374L35.2805 57.765L33.6711 63.2916L35.1426 65.2761L35.9547 63.3039L35.1551 60.9055Z" fill="#FBC02D"/>
</g>
<g style="mix-blend-mode:multiply">
<path d="M34.4148 75.1468L34.1213 75.5321L35.6457 78.4567L36.2166 79.0213L34.6748 81.7025C35.5451 82.3449 36.4948 82.8722 37.5002 83.2713L38.9564 80.6487L39.5723 80.8137L42.1006 80.4489L43.3648 78.8251L43.6312 77.8676C40.7104 76.5102 37.6045 75.5933 34.4148 75.1468Z" fill="#FBC02D"/>
</g>
<g style="mix-blend-mode:multiply">
<path d="M56.9465 67.1351L55.9005 67.1556L54.7609 68.778L56.6301 69.011L54.4405 69.7851L54.6708 71.7434L52.2123 72.3328L50.9744 74.0686L53.4301 74.2647L57.2769 69.9803L56.9465 67.1351Z" fill="#FBC02D"/>
</g>
<defs>
<linearGradient id="paint0_linear_414_18796" x1="69.2565" y1="37.0944" x2="18.7659" y2="128.029" gradientUnits="userSpaceOnUse">
<stop offset="0.02" stop-color="white" stop-opacity="0"/>
<stop offset="1" stop-color="#F9A825"/>
</linearGradient>
<linearGradient id="paint1_linear_414_18796" x1="63.8789" y1="31.7452" x2="7.45459" y2="133.367" gradientUnits="userSpaceOnUse">
<stop offset="0.02" stop-color="white" stop-opacity="0"/>
<stop offset="1" stop-color="#F9A825"/>
</linearGradient>
<radialGradient id="paint2_radial_414_18796" cx="0" cy="0" r="1" gradientUnits="userSpaceOnUse" gradientTransform="translate(39.0551 46.4779) rotate(29.0407) scale(29.8359 39.3834)">
<stop offset="0.02" stop-color="white" stop-opacity="0"/>
<stop offset="1" stop-color="#F9A825"/>
</radialGradient>
<linearGradient id="paint3_linear_414_18796" x1="67.49" y1="27.0324" x2="36.5156" y2="82.8182" gradientUnits="userSpaceOnUse">
<stop stop-color="#F9A825"/>
<stop offset="0.1" stop-color="#F9AA29" stop-opacity="0.98"/>
<stop offset="0.23" stop-color="#F9AF36" stop-opacity="0.92"/>
<stop offset="0.36" stop-color="#FAB74C" stop-opacity="0.82"/>
<stop offset="0.5" stop-color="#FBC36A" stop-opacity="0.68"/>
<stop offset="0.65" stop-color="#FCD390" stop-opacity="0.51"/>
<stop offset="0.8" stop-color="#FDE6BF" stop-opacity="0.29"/>
<stop offset="0.96" stop-color="#FFFBF6" stop-opacity="0.04"/>
<stop offset="0.98" stop-color="white" stop-opacity="0"/>
</linearGradient>
</defs>
</svg>
