<svg width="103" height="96" viewBox="0 0 103 96" fill="none" xmlns="http://www.w3.org/2000/svg">
<path d="M93.0665 39.3046L91.0227 32.4029L90.0869 32.68C81.7998 19.2774 62.2739 13.1711 42.7387 18.9562C23.2034 24.7413 10.1876 40.4843 10.5276 56.2404L9.59909 56.5154L11.6429 63.417C16.943 81.3146 39.4578 90.4244 61.932 83.769C84.4063 77.1135 98.3666 57.2021 93.0665 39.3046Z" fill="#FDD835"/>
<path d="M92.1025 57.9812L87.6468 42.935L89.4453 42.4023L93.1259 54.8312C92.84 55.8983 92.4984 56.9498 92.1025 57.9812Z" fill="#FBC02D"/>
<path d="M88.2538 65.2371L82.1332 44.5686L83.9609 44.0273L89.6053 63.0873C89.2142 63.8075 88.7698 64.5356 88.2538 65.2371Z" fill="#FBC02D"/>
<path d="M83.9159 70.6259L76.678 46.185L78.4766 45.6523L85.3853 68.982C84.9371 69.5362 84.4334 70.0909 83.9159 70.6259Z" fill="#FBC02D"/>
<path d="M79.186 74.9023L71.1644 47.8147L72.9922 47.2734L80.7865 73.5933C80.2941 74.0254 79.7653 74.4683 79.186 74.9023Z" fill="#FBC02D"/>
<path d="M74.2825 78.3683L65.7132 49.4311L67.5117 48.8984L75.9165 77.2801C75.4026 77.639 74.8455 77.9869 74.2825 78.3683Z" fill="#FBC02D"/>
<path d="M69.0894 81.084L60.1996 51.0647L62.0273 50.5234L70.8284 80.243C70.2906 80.5216 69.7068 80.8058 69.0894 81.084Z" fill="#FBC02D"/>
<path d="M63.7771 83.179L54.7444 52.6771L56.543 52.1445L65.5453 82.544C64.9829 82.7663 64.3869 82.9825 63.7771 83.179Z" fill="#FBC02D"/>
<path d="M60.1225 84.2636C59.5084 84.4455 58.8864 84.574 58.2666 84.7098L49.2621 54.303L51.0898 53.7617L60.1225 84.2636Z" fill="#FBC02D"/>
<path d="M54.4679 85.4138C53.8278 85.508 53.1834 85.5875 52.5514 85.6554L43.7504 55.9358L45.5781 55.3945L54.4679 85.4138Z" fill="#FBC02D"/>
<path d="M48.6905 85.9451C48.0214 85.9683 47.3648 85.9798 46.709 85.9673L38.2933 57.5491L40.1211 57.0078L48.6905 85.9451Z" fill="#FBC02D"/>
<path d="M42.6331 85.7316C41.9402 85.6744 41.2555 85.5909 40.5759 85.4979L32.7816 59.178L34.6094 58.6367L42.6331 85.7316Z" fill="#FBC02D"/>
<path d="M36.3941 84.6988C35.6687 84.5319 34.942 84.3336 34.2372 84.1288L27.3285 60.7991L29.1562 60.2578L36.3941 84.6988Z" fill="#FBC02D"/>
<path d="M29.7652 82.5591C28.9754 82.2283 28.2105 81.8743 27.4611 81.4919L21.8168 62.4319L23.6445 61.8906L29.7652 82.5591Z" fill="#FBC02D"/>
<path d="M22.6458 78.5486C21.7396 77.8958 20.8686 77.1955 20.0364 76.4506L16.3558 64.0217L18.1836 63.4805L22.6458 78.5486Z" fill="#FBC02D"/>
<path style="mix-blend-mode:multiply" d="M93.0665 39.3046L91.0227 32.4029L90.0869 32.68C81.7998 19.2774 62.2739 13.1711 42.7387 18.9562C23.2034 24.7413 10.1876 40.4843 10.5276 56.2404L9.59909 56.5154L11.6429 63.417C16.943 81.3146 39.4578 90.4244 61.932 83.769C84.4063 77.1135 98.3666 57.2021 93.0665 39.3046Z" fill="url(#paint0_linear_414_19167)"/>
<path d="M9.61975 56.5087C14.9193 74.4042 37.4377 83.5152 59.9162 76.8585C82.3946 70.2018 96.3209 50.2983 91.0214 32.4028C85.7219 14.5072 63.2034 5.3963 40.725 12.053C18.2465 18.7096 4.32024 38.6132 9.61975 56.5087Z" fill="#FBC02D"/>
<path d="M13.2036 55.4469C17.8479 71.1297 38.2313 78.9218 58.7312 72.8511C79.2311 66.7803 92.0847 49.1455 87.4404 33.4627C82.7962 17.7799 62.4128 9.98772 41.9129 16.0585C21.413 22.1292 8.55938 39.764 13.2036 55.4469Z" fill="#F9A825"/>
<path style="mix-blend-mode:multiply" d="M13.2036 55.4469C17.8479 71.1297 38.2313 78.9218 58.7312 72.8511C79.2311 66.7803 92.0847 49.1455 87.4404 33.4627C82.7962 17.7799 62.4128 9.98772 41.9129 16.0585C21.413 22.1292 8.55938 39.764 13.2036 55.4469Z" fill="url(#paint1_linear_414_19167)"/>
<path style="mix-blend-mode:multiply" d="M42.4053 17.8313C62.5181 11.8752 82.5141 19.2737 87.6438 34.3669C87.5572 34.0744 87.4684 33.7747 87.3818 33.4822C82.7377 17.7999 62.3546 10.0071 41.8543 16.078C21.354 22.1489 8.50094 39.7841 13.145 55.4664C13.2316 55.7588 13.3204 56.0586 13.407 56.351C9.58602 40.8703 22.3217 23.7788 42.4053 17.8313Z" fill="url(#paint2_radial_414_19167)"/>
<g style="mix-blend-mode:multiply">
<path style="mix-blend-mode:multiply" d="M61.09 52.7578C61.2164 52.3442 61.2184 51.9024 61.0956 51.4877C60.9728 51.073 60.7306 50.7036 60.3993 50.4255L54.9428 46.1249L51.4003 43.1581L45.9668 38.962C45.6355 38.684 45.3934 38.3145 45.2706 37.8998C45.1478 37.4851 45.1497 37.0434 45.2762 36.6298L47.074 31.5566C47.2508 31.0981 47.5338 30.6879 47.8997 30.3598C48.2655 30.0317 48.7039 29.7949 49.179 29.6689L55.0278 27.9368C55.4956 27.7893 55.9912 27.752 56.4758 27.8278C56.9604 27.9036 57.421 28.0906 57.8213 28.374L61.9842 31.6899C62.3155 31.9679 62.5576 32.3374 62.6804 32.7521C62.8033 33.1668 62.8013 33.6085 62.6748 34.0221L60.877 39.0953C60.6996 39.5535 60.4165 39.9633 60.0507 40.2914C59.6849 40.6195 59.2468 40.8564 58.772 40.983L54.9191 42.124L58.5786 45.0562L62.5266 43.8871C62.9996 43.7566 63.4358 43.5182 63.8011 43.1907C64.1663 42.8631 64.4506 42.4553 64.6316 41.9993L67.8048 32.5745C67.9312 32.1609 67.9332 31.7192 67.8104 31.3045C67.6876 30.8898 67.4454 30.5204 67.1141 30.2423L59.1734 23.9975C58.8052 23.695 58.3656 23.4921 57.8966 23.4082C57.4276 23.3243 56.9449 23.3622 56.4947 23.5183L45.5281 26.766C45.0542 26.8964 44.6174 27.1356 44.2523 27.4646C43.8873 27.7936 43.6041 28.2033 43.4253 28.661L40.2716 38.1516C40.1451 38.5652 40.1432 39.0069 40.266 39.4216C40.3888 39.8363 40.6309 40.2058 40.9622 40.4838L46.2787 44.7146L49.9383 47.6467L55.2496 51.8869C55.5809 52.165 55.823 52.5344 55.9459 52.9491C56.0687 53.3638 56.0667 53.8055 55.9402 54.2192L54.2521 59.2598C54.077 59.7198 53.7949 60.1316 53.4293 60.4611C53.0637 60.7906 52.6249 61.0284 52.1493 61.1549L46.3004 62.887C45.8309 63.0359 45.3332 63.0735 44.8467 62.9967C44.3602 62.9199 43.8983 62.7309 43.4975 62.4447L39.3649 59.2311C39.0336 58.953 38.7914 58.5836 38.6686 58.1689C38.5458 57.7542 38.5478 57.3125 38.6743 56.8988L40.3624 51.8582C40.5407 51.399 40.825 50.9885 41.1921 50.6601C41.5592 50.3317 41.9986 50.0946 42.4747 49.9683L46.2033 48.8641L42.5438 45.9319L38.6982 47.0708C38.2242 47.2015 37.7869 47.4401 37.4204 47.768C37.054 48.0959 36.7684 48.5041 36.5859 48.9607L33.4322 58.4512C33.3097 58.8651 33.3097 59.3057 33.4323 59.7196C33.5549 60.1335 33.7948 60.503 34.1229 60.7834L41.938 67.0337C42.3376 67.3217 42.7995 67.5112 43.2862 67.5868C43.773 67.6624 44.2706 67.6219 44.7388 67.4687L55.8443 64.1799C56.3178 64.0506 56.7546 63.8126 57.12 63.4849C57.4854 63.1572 57.7693 62.7488 57.9493 62.2922L61.09 52.7578Z" fill="url(#paint3_linear_414_19167)"/>
</g>
<path d="M60.7219 51.5131C60.8484 51.0995 60.8503 50.6578 60.7275 50.2431C60.6047 49.8283 60.3625 49.4589 60.0312 49.1809L54.5748 44.8803L51.0322 41.9135L45.5987 37.7174C45.2674 37.4393 45.0253 37.0699 44.9025 36.6552C44.7797 36.2404 44.7816 35.7988 44.9081 35.3851L46.7038 30.3047C46.8806 29.8461 47.1635 29.436 47.5294 29.1078C47.8953 28.7797 48.3337 28.5429 48.8087 28.4169L54.6576 26.6849C55.1254 26.5373 55.621 26.5 56.1056 26.5758C56.5902 26.6517 57.0507 26.8386 57.4511 27.122L61.614 30.4379C61.9453 30.716 62.1874 31.0854 62.3102 31.5001C62.433 31.9148 62.4311 32.3565 62.3046 32.7702L60.5068 37.8433C60.3294 38.3015 60.0463 38.7114 59.6805 39.0394C59.3147 39.3675 58.8766 39.6045 58.4018 39.7311L54.5488 40.8721L58.2084 43.8042L62.1564 42.6351C62.6293 42.5046 63.0656 42.2663 63.4309 41.9387C63.7961 41.6112 64.0804 41.2033 64.2614 40.7473L67.4432 31.3518C67.5697 30.9382 67.5716 30.4965 67.4488 30.0818C67.326 29.667 67.0839 29.2976 66.7525 29.0196L58.7923 22.7089C58.4233 22.4087 57.9838 22.2078 57.5154 22.1252C57.0469 22.0427 56.5652 22.0812 56.1158 22.2371L45.1492 25.4847C44.6762 25.6152 44.24 25.8536 43.8747 26.1811C43.5095 26.5087 43.2252 26.9165 43.0442 27.3725L39.8927 36.8704C39.7662 37.284 39.7643 37.7257 39.8871 38.1404C40.0099 38.5551 40.252 38.9245 40.5834 39.2026L45.8998 43.4333L49.5594 46.3655L54.8707 50.6057C55.202 50.8838 55.4442 51.2532 55.567 51.6679C55.6898 52.0826 55.6878 52.5243 55.5613 52.938L53.8732 57.9786C53.6981 58.4386 53.4161 58.8504 53.0504 59.1799C52.6848 59.5094 52.246 59.7472 51.7704 59.8737L45.9215 61.6057C45.452 61.7547 44.9543 61.7923 44.4678 61.7155C43.9813 61.6387 43.5194 61.4497 43.1186 61.1635L38.986 57.9499C38.6547 57.6718 38.4125 57.3024 38.2897 56.8877C38.1669 56.473 38.1689 56.0313 38.2954 55.6176L39.9836 50.577C40.1619 50.1178 40.4461 49.7073 40.8132 49.3789C41.1803 49.0505 41.6197 48.8134 42.0958 48.6871L45.8245 47.5829L42.1649 44.6507L38.3193 45.7896C37.8453 45.9203 37.408 46.1589 37.0415 46.4868C36.6751 46.8147 36.3895 47.2229 36.207 47.6795L33.0533 57.17C32.9308 57.5839 32.9308 58.0245 33.0534 58.4384C33.176 58.8523 33.4159 59.2218 33.744 59.5022L41.5569 65.7452C41.9564 66.0342 42.4184 66.2249 42.9055 66.3017C43.3925 66.3786 43.8908 66.3395 44.3599 66.1875L55.4654 62.8987C55.9398 62.7694 56.3771 62.5306 56.7423 62.2015C57.1076 61.8723 57.3904 61.4621 57.5682 61.0037L60.7219 51.5131Z" fill="#FDD835"/>
<defs>
<linearGradient id="paint0_linear_414_19167" x1="75.0301" y1="44.6458" x2="-23.326" y2="73.7726" gradientUnits="userSpaceOnUse">
<stop offset="0.02" stop-color="white" stop-opacity="0"/>
<stop offset="1" stop-color="#F9A825"/>
</linearGradient>
<linearGradient id="paint1_linear_414_19167" x1="74.9384" y1="37.165" x2="-34.9765" y2="69.7147" gradientUnits="userSpaceOnUse">
<stop offset="0.02" stop-color="white" stop-opacity="0"/>
<stop offset="1" stop-color="#F9A825"/>
</linearGradient>
<radialGradient id="paint2_radial_414_19167" cx="0" cy="0" r="1" gradientUnits="userSpaceOnUse" gradientTransform="translate(47.0462 30.4609) rotate(73.5041) scale(29.4246 38.8405)">
<stop offset="0.02" stop-color="white" stop-opacity="0"/>
<stop offset="1" stop-color="#F9A825"/>
</radialGradient>
<linearGradient id="paint3_linear_414_19167" x1="68.8551" y1="37.679" x2="-47.4839" y2="87.312" gradientUnits="userSpaceOnUse">
<stop stop-color="#F9A825"/>
<stop offset="0.04" stop-color="#FAB547" stop-opacity="0.85"/>
<stop offset="0.09" stop-color="#FBC56D" stop-opacity="0.67"/>
<stop offset="0.15" stop-color="#FCD390" stop-opacity="0.51"/>
<stop offset="0.21" stop-color="#FDDFAE" stop-opacity="0.37"/>
<stop offset="0.28" stop-color="#FDE9C7" stop-opacity="0.26"/>
<stop offset="0.35" stop-color="#FEF1DC" stop-opacity="0.16"/>
<stop offset="0.44" stop-color="#FEF7EC" stop-opacity="0.09"/>
<stop offset="0.54" stop-color="#FFFCF7" stop-opacity="0.04"/>
<stop offset="0.68" stop-color="#FFFEFD" stop-opacity="0.01"/>
<stop offset="0.98" stop-color="white" stop-opacity="0"/>
</linearGradient>
</defs>
</svg>
