<svg width="22" height="18" viewBox="0 0 22 18" fill="none" xmlns="http://www.w3.org/2000/svg">
<path fill-rule="evenodd" clip-rule="evenodd" d="M11 2C8.52285 2 6.40237 2.177 4.79332 2.37813C3.49282 2.54069 2.50429 3.51403 2.32102 4.81553C2.14238 6.08418 2 7.55411 2 9C2 10.4459 2.14238 11.9158 2.32102 13.1845C2.50429 14.486 3.49282 15.4593 4.79332 15.6219C6.40238 15.823 8.52285 16 11 16C13.4771 16 15.5976 15.823 17.2067 15.6219C18.5072 15.4593 19.4957 14.486 19.679 13.1845C19.8576 11.9158 20 10.4459 20 9C20 7.55411 19.8576 6.08418 19.679 4.81553C19.4957 3.51403 18.5072 2.54069 17.2067 2.37813C15.5976 2.177 13.4771 2 11 2ZM4.54525 0.393578C2.34649 0.66842 0.649532 2.34244 0.340559 4.53666C0.153686 5.86378 0 7.43189 0 9C0 10.5681 0.153686 12.1362 0.34056 13.4633C0.649532 15.6576 2.34649 17.3316 4.54525 17.6064C6.22455 17.8163 8.42861 18 11 18C13.5714 18 15.7755 17.8163 17.4547 17.6064C19.6535 17.3316 21.3505 15.6576 21.6594 13.4633C21.8463 12.1362 22 10.5681 22 9C22 7.43189 21.8463 5.86378 21.6594 4.53666C21.3505 2.34244 19.6535 0.66842 17.4547 0.393578C15.7755 0.183669 13.5714 0 11 0C8.4286 0 6.22455 0.183669 4.54525 0.393578Z" fill="white"/>
<path d="M9.53008 4.95438L14.6433 8.15013C15.2699 8.5418 15.2699 9.45446 14.6433 9.84613L9.53008 13.0419C8.86403 13.4582 8.00008 12.9793 8.00008 12.1939L8.00008 5.80238C8.00008 5.01694 8.86403 4.5381 9.53008 4.95438Z" fill="white"/>
</svg>
