<svg width="947" height="302" viewBox="0 0 947 302" fill="none" xmlns="http://www.w3.org/2000/svg">
<g opacity="0.2">
<circle cx="143.502" cy="143.502" r="100.705" stroke="#FF368B" stroke-opacity="0.4"/>
<circle cx="143.501" cy="143.501" r="92.6491" stroke="#FF368B" stroke-opacity="0.5"/>
<circle cx="143.501" cy="143.501" r="111.782" stroke="#FF368B" stroke-opacity="0.25"/>
<circle cx="143.499" cy="143.503" r="124.874" stroke="#FF368B" stroke-opacity="0.1"/>
<circle cx="143.5" cy="143.5" r="143" stroke="#FF368B" stroke-opacity="0.05"/>
</g>
<path d="M674 30.8281C628.622 61.14 605.833 139.001 674 139.001C742.167 139.001 719.378 61.14 674 30.8281Z" fill="#E71A65"/>
<path d="M674 131.786C638.145 131.786 663.455 85.6325 674 79.8633C684.546 85.6325 709.856 131.786 674 131.786Z" fill="#FF9BC0"/>
<path d="M674.001 131.793C653.613 132.514 647.715 111.978 653.613 100.062C657.798 111.274 676.699 121.216 674.001 131.793Z" fill="#FF9BC0"/>
<path d="M681.305 130.451C701.103 125.403 696.181 106.869 690.776 92.0567C685.183 102.525 675.88 121.04 681.305 130.451Z" fill="#FF9BC0"/>
<path d="M669.504 110.367L674.264 105.607L679.036 110.38L681.808 107.607L674.264 100.062L666.731 107.595L669.504 110.367ZM661.996 112.33L664.769 109.558L667.541 112.33L664.769 115.103L661.996 112.33ZM669.504 114.293L674.264 119.053L679.036 114.281L681.808 117.053L674.264 124.598L666.731 117.065L669.504 114.293ZM680.986 112.33L683.759 109.558L686.531 112.33L683.759 115.103L680.986 112.33ZM677.073 112.33L674.264 115.139L671.454 112.33L671.945 111.839L672.178 111.594L674.264 109.521L677.073 112.33Z" fill="white"/>
<path d="M872 30.8281C826.622 61.14 803.833 139.001 872 139.001C940.167 139.001 917.378 61.14 872 30.8281Z" fill="#E71A65"/>
<path d="M872 131.786C836.145 131.786 861.455 85.6325 872 79.8633C882.546 85.6325 907.856 131.786 872 131.786Z" fill="#FF9BC0"/>
<path d="M872.001 131.793C851.613 132.514 845.715 111.978 851.613 100.062C855.798 111.274 874.699 121.216 872.001 131.793Z" fill="#FF9BC0"/>
<path d="M879.305 130.451C899.103 125.403 894.181 106.869 888.776 92.0567C883.183 102.525 873.88 121.04 879.305 130.451Z" fill="#FF9BC0"/>
<path d="M867.504 110.367L872.264 105.607L877.036 110.38L879.808 107.607L872.264 100.062L864.731 107.595L867.504 110.367ZM859.996 112.33L862.769 109.558L865.541 112.33L862.769 115.103L859.996 112.33ZM867.504 114.293L872.264 119.053L877.036 114.281L879.808 117.053L872.264 124.598L864.731 117.065L867.504 114.293ZM878.986 112.33L881.759 109.558L884.531 112.33L881.759 115.103L878.986 112.33ZM875.073 112.33L872.264 115.139L869.454 112.33L869.945 111.839L870.178 111.594L872.264 109.521L875.073 112.33Z" fill="white"/>
<path d="M440.55 183V169.704L437.79 170.352V168L441.846 166.2H443.742V183H440.55ZM449.255 175.173C448.622 175.173 448.065 175.072 447.585 174.87C447.105 174.659 446.721 174.371 446.433 174.006C446.145 173.642 445.972 173.219 445.914 172.739H447.772C447.83 173.018 447.983 173.258 448.233 173.459C448.492 173.651 448.823 173.747 449.226 173.747C449.63 173.747 449.922 173.666 450.105 173.502C450.297 173.339 450.393 173.152 450.393 172.941C450.393 172.634 450.258 172.427 449.99 172.322C449.721 172.206 449.346 172.096 448.866 171.99C448.559 171.923 448.247 171.842 447.93 171.746C447.614 171.65 447.321 171.53 447.052 171.386C446.793 171.232 446.582 171.04 446.418 170.81C446.255 170.57 446.174 170.277 446.174 169.931C446.174 169.298 446.423 168.765 446.922 168.333C447.431 167.901 448.142 167.685 449.054 167.685C449.898 167.685 450.57 167.882 451.07 168.275C451.578 168.669 451.881 169.211 451.977 169.902H450.234C450.129 169.374 449.73 169.11 449.039 169.11C448.694 169.11 448.425 169.178 448.233 169.312C448.05 169.446 447.959 169.614 447.959 169.816C447.959 170.027 448.098 170.195 448.377 170.32C448.655 170.445 449.025 170.56 449.486 170.666C449.985 170.781 450.441 170.91 450.854 171.054C451.276 171.189 451.612 171.395 451.862 171.674C452.111 171.942 452.236 172.331 452.236 172.84C452.246 173.282 452.13 173.68 451.89 174.035C451.65 174.39 451.305 174.669 450.854 174.87C450.402 175.072 449.87 175.173 449.255 175.173ZM457.258 175C456.509 175 455.909 174.818 455.458 174.453C455.007 174.088 454.781 173.44 454.781 172.509V169.398H453.557V167.858H454.781L454.997 165.942H456.625V167.858H458.554V169.398H456.625V172.523C456.625 172.869 456.697 173.109 456.841 173.243C456.994 173.368 457.253 173.43 457.618 173.43H458.511V175H457.258ZM466.912 183V165.72H469.984V183H466.912ZM474.778 169.248C474.218 169.248 473.754 169.08 473.386 168.744C473.034 168.408 472.858 167.984 472.858 167.472C472.858 166.96 473.034 166.544 473.386 166.224C473.754 165.888 474.218 165.72 474.778 165.72C475.338 165.72 475.794 165.888 476.146 166.224C476.514 166.544 476.698 166.96 476.698 167.472C476.698 167.984 476.514 168.408 476.146 168.744C475.794 169.08 475.338 169.248 474.778 169.248ZM473.242 183V171.096H476.314V183H473.242ZM479.521 183V171.096H482.233L482.473 173.112C482.841 172.408 483.369 171.848 484.057 171.432C484.761 171.016 485.585 170.808 486.529 170.808C488.001 170.808 489.145 171.272 489.961 172.2C490.777 173.128 491.185 174.488 491.185 176.28V183H488.113V176.568C488.113 175.544 487.905 174.76 487.489 174.216C487.073 173.672 486.425 173.4 485.545 173.4C484.681 173.4 483.969 173.704 483.409 174.312C482.865 174.92 482.593 175.768 482.593 176.856V183H479.521ZM499.906 183.288C498.706 183.288 497.642 183.032 496.714 182.52C495.786 182.008 495.058 181.288 494.53 180.36C494.002 179.432 493.738 178.36 493.738 177.144C493.738 175.912 493.994 174.816 494.506 173.856C495.034 172.896 495.754 172.152 496.666 171.624C497.594 171.08 498.682 170.808 499.93 170.808C501.098 170.808 502.13 171.064 503.026 171.576C503.922 172.088 504.618 172.792 505.114 173.688C505.626 174.568 505.882 175.552 505.882 176.64C505.882 176.816 505.874 177 505.858 177.192C505.858 177.384 505.85 177.584 505.834 177.792H496.786C496.85 178.72 497.17 179.448 497.746 179.976C498.338 180.504 499.05 180.768 499.882 180.768C500.506 180.768 501.026 180.632 501.442 180.36C501.874 180.072 502.194 179.704 502.402 179.256H505.522C505.298 180.008 504.922 180.696 504.394 181.32C503.882 181.928 503.242 182.408 502.474 182.76C501.722 183.112 500.866 183.288 499.906 183.288ZM499.93 173.304C499.178 173.304 498.514 173.52 497.938 173.952C497.362 174.368 496.994 175.008 496.834 175.872H502.762C502.714 175.088 502.426 174.464 501.898 174C501.37 173.536 500.714 173.304 499.93 173.304Z" fill="white"/>
<path d="M635.222 183V180.768C636.246 179.92 637.238 179.08 638.198 178.248C639.174 177.416 640.038 176.592 640.79 175.776C641.558 174.96 642.166 174.168 642.614 173.4C643.078 172.616 643.31 171.856 643.31 171.12C643.31 170.432 643.118 169.824 642.734 169.296C642.366 168.768 641.75 168.504 640.886 168.504C640.006 168.504 639.342 168.792 638.894 169.368C638.446 169.944 638.222 170.64 638.222 171.456H635.246C635.278 170.224 635.55 169.2 636.062 168.384C636.574 167.552 637.254 166.936 638.102 166.536C638.95 166.12 639.902 165.912 640.958 165.912C642.67 165.912 643.998 166.384 644.942 167.328C645.902 168.256 646.382 169.464 646.382 170.952C646.382 171.88 646.166 172.784 645.734 173.664C645.318 174.544 644.766 175.392 644.078 176.208C643.39 177.024 642.646 177.792 641.846 178.512C641.046 179.216 640.27 179.872 639.518 180.48H646.79V183H635.222ZM648.645 175V167.858H650.273L650.417 169.067C650.637 168.645 650.954 168.309 651.367 168.059C651.789 167.81 652.284 167.685 652.85 167.685C653.733 167.685 654.42 167.963 654.909 168.52C655.399 169.077 655.644 169.893 655.644 170.968V175H653.801V171.141C653.801 170.526 653.676 170.056 653.426 169.73C653.177 169.403 652.788 169.24 652.26 169.24C651.741 169.24 651.314 169.422 650.978 169.787C650.652 170.152 650.489 170.661 650.489 171.314V175H648.645ZM661.122 175.173C660.45 175.173 659.85 175.01 659.322 174.683C658.794 174.357 658.376 173.91 658.069 173.344C657.762 172.778 657.608 172.134 657.608 171.414C657.608 170.694 657.762 170.056 658.069 169.499C658.376 168.933 658.794 168.491 659.322 168.174C659.85 167.848 660.45 167.685 661.122 167.685C661.659 167.685 662.13 167.786 662.533 167.987C662.936 168.189 663.262 168.472 663.512 168.837V164.632H665.355V175H663.714L663.512 173.978C663.282 174.294 662.974 174.573 662.59 174.813C662.216 175.053 661.726 175.173 661.122 175.173ZM661.51 173.56C662.106 173.56 662.59 173.363 662.965 172.97C663.349 172.566 663.541 172.053 663.541 171.429C663.541 170.805 663.349 170.296 662.965 169.902C662.59 169.499 662.106 169.298 661.51 169.298C660.925 169.298 660.44 169.494 660.056 169.888C659.672 170.282 659.48 170.79 659.48 171.414C659.48 172.038 659.672 172.552 660.056 172.955C660.44 173.358 660.925 173.56 661.51 173.56ZM674.007 183V165.72H677.079V183H674.007ZM681.874 169.248C681.314 169.248 680.85 169.08 680.482 168.744C680.13 168.408 679.954 167.984 679.954 167.472C679.954 166.96 680.13 166.544 680.482 166.224C680.85 165.888 681.314 165.72 681.874 165.72C682.434 165.72 682.89 165.888 683.242 166.224C683.61 166.544 683.794 166.96 683.794 167.472C683.794 167.984 683.61 168.408 683.242 168.744C682.89 169.08 682.434 169.248 681.874 169.248ZM680.338 183V171.096H683.41V183H680.338ZM686.616 183V171.096H689.328L689.568 173.112C689.936 172.408 690.464 171.848 691.152 171.432C691.856 171.016 692.68 170.808 693.624 170.808C695.096 170.808 696.24 171.272 697.056 172.2C697.872 173.128 698.28 174.488 698.28 176.28V183H695.208V176.568C695.208 175.544 695 174.76 694.584 174.216C694.168 173.672 693.52 173.4 692.64 173.4C691.776 173.4 691.064 173.704 690.504 174.312C689.96 174.92 689.688 175.768 689.688 176.856V183H686.616ZM707.002 183.288C705.802 183.288 704.738 183.032 703.81 182.52C702.882 182.008 702.154 181.288 701.626 180.36C701.098 179.432 700.834 178.36 700.834 177.144C700.834 175.912 701.09 174.816 701.602 173.856C702.13 172.896 702.85 172.152 703.762 171.624C704.69 171.08 705.778 170.808 707.026 170.808C708.194 170.808 709.226 171.064 710.122 171.576C711.018 172.088 711.714 172.792 712.21 173.688C712.722 174.568 712.978 175.552 712.978 176.64C712.978 176.816 712.97 177 712.954 177.192C712.954 177.384 712.946 177.584 712.93 177.792H703.882C703.946 178.72 704.266 179.448 704.842 179.976C705.434 180.504 706.146 180.768 706.978 180.768C707.602 180.768 708.122 180.632 708.538 180.36C708.97 180.072 709.29 179.704 709.498 179.256H712.618C712.394 180.008 712.018 180.696 711.49 181.32C710.978 181.928 710.338 182.408 709.57 182.76C708.818 183.112 707.962 183.288 707.002 183.288ZM707.026 173.304C706.274 173.304 705.61 173.52 705.034 173.952C704.458 174.368 704.09 175.008 703.93 175.872H709.858C709.81 175.088 709.522 174.464 708.994 174C708.466 173.536 707.81 173.304 707.026 173.304Z" fill="white"/>
<path d="M472 30.8281C426.622 61.14 403.833 139.001 472 139.001C540.167 139.001 517.378 61.14 472 30.8281Z" fill="#E71A65"/>
<path d="M472 131.786C436.145 131.786 461.455 85.6325 472 79.8633C482.546 85.6325 507.856 131.786 472 131.786Z" fill="#FF9BC0"/>
<path d="M472.001 131.793C451.613 132.514 445.715 111.978 451.613 100.062C455.798 111.274 474.699 121.216 472.001 131.793Z" fill="#FF9BC0"/>
<path d="M479.305 130.451C499.103 125.403 494.181 106.869 488.776 92.0567C483.183 102.525 473.88 121.04 479.305 130.451Z" fill="#FF9BC0"/>
<path d="M467.504 110.367L472.264 105.607L477.036 110.38L479.808 107.607L472.264 100.062L464.731 107.595L467.504 110.367ZM459.996 112.33L462.769 109.558L465.541 112.33L462.769 115.103L459.996 112.33ZM467.504 114.293L472.264 119.053L477.036 114.281L479.808 117.053L472.264 124.598L464.731 117.065L467.504 114.293ZM478.986 112.33L481.759 109.558L484.531 112.33L481.759 115.103L478.986 112.33ZM475.073 112.33L472.264 115.139L469.454 112.33L469.945 111.839L470.178 111.594L472.264 109.521L475.073 112.33Z" fill="white"/>
<g filter="url(#filter0_b_531_31250)">
<rect x="397" y="198" width="60" height="32" rx="16" fill="#23262F" fill-opacity="0.6"/>
</g>
<g filter="url(#filter1_b_531_31250)">
<rect x="465" y="198" width="82" height="32" rx="16" fill="#23262F" fill-opacity="0.6"/>
</g>
<path d="M481 224C486.523 224 491 219.523 491 214C491 208.477 486.523 204 481 204C475.477 204 471 208.477 471 214C471 219.523 475.477 224 481 224Z" fill="#F3BA2F"/>
<path d="M478.575 213L481 210.575L483.431 213.006L484.844 211.594L481 207.75L477.162 211.588L478.575 213ZM474.75 214L476.163 212.587L477.575 214L476.163 215.413L474.75 214ZM478.575 215L481 217.425L483.431 214.994L484.844 216.406L481 220.25L477.162 216.413L478.575 215ZM484.425 214L485.837 212.587L487.25 214L485.837 215.413L484.425 214ZM482.431 214L481 215.431L479.569 214L479.819 213.75L479.938 213.625L481 212.569L482.431 214Z" fill="white"/>
<path d="M408.201 219V211.244L406.591 211.622V210.25L408.957 209.2H410.063V219H408.201ZM415.981 219.168C415.075 219.168 414.301 218.958 413.657 218.538C413.013 218.109 412.513 217.516 412.159 216.76C411.813 215.995 411.641 215.108 411.641 214.1C411.641 213.101 411.813 212.219 412.159 211.454C412.513 210.689 413.013 210.096 413.657 209.676C414.301 209.247 415.075 209.032 415.981 209.032C416.886 209.032 417.661 209.247 418.305 209.676C418.949 210.096 419.443 210.689 419.789 211.454C420.143 212.219 420.321 213.101 420.321 214.1C420.321 215.108 420.143 215.995 419.789 216.76C419.443 217.516 418.949 218.109 418.305 218.538C417.661 218.958 416.886 219.168 415.981 219.168ZM415.981 217.558C416.718 217.558 417.32 217.25 417.787 216.634C418.253 216.018 418.487 215.173 418.487 214.1C418.487 213.027 418.253 212.182 417.787 211.566C417.32 210.95 416.718 210.642 415.981 210.642C415.234 210.642 414.627 210.95 414.161 211.566C413.703 212.182 413.475 213.027 413.475 214.1C413.475 215.173 413.703 216.018 414.161 216.634C414.627 217.25 415.234 217.558 415.981 217.558Z" fill="white"/>
<path d="M425.238 219V209.2H427.03V217.6H431.37V219H425.238ZM434.109 219L430.525 209.2H432.443L435.215 217.166L438.001 209.2H439.891L436.307 219H434.109ZM441.056 219V209.2H442.848V217.6H447.188V219H441.056Z" fill="#ACACAC"/>
<path d="M501.04 219V211.244L499.43 211.622V210.25L501.796 209.2H502.902V219H501.04ZM508.003 219V210.6H511.375C512.247 210.6 512.911 210.804 513.367 211.212C513.831 211.612 514.063 212.128 514.063 212.76C514.063 213.288 513.919 213.712 513.631 214.032C513.351 214.344 513.007 214.556 512.599 214.668C513.079 214.764 513.475 215.004 513.787 215.388C514.099 215.764 514.255 216.204 514.255 216.708C514.255 217.372 514.015 217.92 513.535 218.352C513.055 218.784 512.375 219 511.495 219H508.003ZM509.539 214.128H511.147C511.579 214.128 511.911 214.028 512.143 213.828C512.375 213.628 512.491 213.344 512.491 212.976C512.491 212.624 512.375 212.348 512.143 212.148C511.919 211.94 511.579 211.836 511.123 211.836H509.539V214.128ZM509.539 217.752H511.255C511.711 217.752 512.063 217.648 512.311 217.44C512.567 217.224 512.695 216.924 512.695 216.54C512.695 216.148 512.563 215.84 512.299 215.616C512.035 215.392 511.679 215.28 511.231 215.28H509.539V217.752ZM515.573 219V210.6H517.109L521.057 216.516V210.6H522.593V219H521.057L517.109 213.096V219H515.573ZM524.221 219V210.6H527.593C528.465 210.6 529.129 210.804 529.585 211.212C530.049 211.612 530.281 212.128 530.281 212.76C530.281 213.288 530.137 213.712 529.849 214.032C529.569 214.344 529.225 214.556 528.817 214.668C529.297 214.764 529.693 215.004 530.005 215.388C530.317 215.764 530.473 216.204 530.473 216.708C530.473 217.372 530.233 217.92 529.753 218.352C529.273 218.784 528.593 219 527.713 219H524.221ZM525.757 214.128H527.365C527.797 214.128 528.129 214.028 528.361 213.828C528.593 213.628 528.709 213.344 528.709 212.976C528.709 212.624 528.593 212.348 528.361 212.148C528.137 211.94 527.797 211.836 527.341 211.836H525.757V214.128ZM525.757 217.752H527.473C527.929 217.752 528.281 217.648 528.529 217.44C528.785 217.224 528.913 216.924 528.913 216.54C528.913 216.148 528.781 215.84 528.517 215.616C528.253 215.392 527.897 215.28 527.449 215.28H525.757V217.752Z" fill="#F0B90B"/>
<g filter="url(#filter2_b_531_31250)">
<rect x="599" y="198" width="60" height="32" rx="16" fill="#23262F" fill-opacity="0.6"/>
</g>
<g filter="url(#filter3_b_531_31250)">
<rect x="667" y="198" width="82" height="32" rx="16" fill="#23262F" fill-opacity="0.6"/>
</g>
<path d="M683 224C688.523 224 693 219.523 693 214C693 208.477 688.523 204 683 204C677.477 204 673 208.477 673 214C673 219.523 677.477 224 683 224Z" fill="#F3BA2F"/>
<path d="M680.575 213L683 210.575L685.431 213.006L686.844 211.594L683 207.75L679.162 211.588L680.575 213ZM676.75 214L678.163 212.587L679.575 214L678.163 215.413L676.75 214ZM680.575 215L683 217.425L685.431 214.994L686.844 216.406L683 220.25L679.162 216.413L680.575 215ZM686.425 214L687.837 212.587L689.25 214L687.837 215.413L686.425 214ZM684.431 214L683 215.431L681.569 214L681.819 213.75L681.938 213.625L683 212.569L684.431 214Z" fill="white"/>
<path d="M610.201 219V211.244L608.591 211.622V210.25L610.957 209.2H612.063V219H610.201ZM617.981 219.168C617.075 219.168 616.301 218.958 615.657 218.538C615.013 218.109 614.513 217.516 614.159 216.76C613.813 215.995 613.641 215.108 613.641 214.1C613.641 213.101 613.813 212.219 614.159 211.454C614.513 210.689 615.013 210.096 615.657 209.676C616.301 209.247 617.075 209.032 617.981 209.032C618.886 209.032 619.661 209.247 620.305 209.676C620.949 210.096 621.443 210.689 621.789 211.454C622.143 212.219 622.321 213.101 622.321 214.1C622.321 215.108 622.143 215.995 621.789 216.76C621.443 217.516 620.949 218.109 620.305 218.538C619.661 218.958 618.886 219.168 617.981 219.168ZM617.981 217.558C618.718 217.558 619.32 217.25 619.787 216.634C620.253 216.018 620.487 215.173 620.487 214.1C620.487 213.027 620.253 212.182 619.787 211.566C619.32 210.95 618.718 210.642 617.981 210.642C617.234 210.642 616.627 210.95 616.161 211.566C615.703 212.182 615.475 213.027 615.475 214.1C615.475 215.173 615.703 216.018 616.161 216.634C616.627 217.25 617.234 217.558 617.981 217.558Z" fill="white"/>
<path d="M627.238 219V209.2H629.03V217.6H633.37V219H627.238ZM636.109 219L632.525 209.2H634.443L637.215 217.166L640.001 209.2H641.891L638.307 219H636.109ZM643.056 219V209.2H644.848V217.6H649.188V219H643.056Z" fill="#ACACAC"/>
<path d="M703.04 219V211.244L701.43 211.622V210.25L703.796 209.2H704.902V219H703.04ZM710.003 219V210.6H713.375C714.247 210.6 714.911 210.804 715.367 211.212C715.831 211.612 716.063 212.128 716.063 212.76C716.063 213.288 715.919 213.712 715.631 214.032C715.351 214.344 715.007 214.556 714.599 214.668C715.079 214.764 715.475 215.004 715.787 215.388C716.099 215.764 716.255 216.204 716.255 216.708C716.255 217.372 716.015 217.92 715.535 218.352C715.055 218.784 714.375 219 713.495 219H710.003ZM711.539 214.128H713.147C713.579 214.128 713.911 214.028 714.143 213.828C714.375 213.628 714.491 213.344 714.491 212.976C714.491 212.624 714.375 212.348 714.143 212.148C713.919 211.94 713.579 211.836 713.123 211.836H711.539V214.128ZM711.539 217.752H713.255C713.711 217.752 714.063 217.648 714.311 217.44C714.567 217.224 714.695 216.924 714.695 216.54C714.695 216.148 714.563 215.84 714.299 215.616C714.035 215.392 713.679 215.28 713.231 215.28H711.539V217.752ZM717.573 219V210.6H719.109L723.057 216.516V210.6H724.593V219H723.057L719.109 213.096V219H717.573ZM726.221 219V210.6H729.593C730.465 210.6 731.129 210.804 731.585 211.212C732.049 211.612 732.281 212.128 732.281 212.76C732.281 213.288 732.137 213.712 731.849 214.032C731.569 214.344 731.225 214.556 730.817 214.668C731.297 214.764 731.693 215.004 732.005 215.388C732.317 215.764 732.473 216.204 732.473 216.708C732.473 217.372 732.233 217.92 731.753 218.352C731.273 218.784 730.593 219 729.713 219H726.221ZM727.757 214.128H729.365C729.797 214.128 730.129 214.028 730.361 213.828C730.593 213.628 730.709 213.344 730.709 212.976C730.709 212.624 730.593 212.348 730.361 212.148C730.137 211.94 729.797 211.836 729.341 211.836H727.757V214.128ZM727.757 217.752H729.473C729.929 217.752 730.281 217.648 730.529 217.44C730.785 217.224 730.913 216.924 730.913 216.54C730.913 216.148 730.781 215.84 730.517 215.616C730.253 215.392 729.897 215.28 729.449 215.28H727.757V217.752Z" fill="#F0B90B"/>
<g filter="url(#filter4_b_531_31250)">
<rect x="797" y="198" width="60" height="32" rx="16" fill="#23262F" fill-opacity="0.6"/>
</g>
<g filter="url(#filter5_b_531_31250)">
<rect x="865" y="198" width="82" height="32" rx="16" fill="#23262F" fill-opacity="0.6"/>
</g>
<path d="M881 224C886.523 224 891 219.523 891 214C891 208.477 886.523 204 881 204C875.477 204 871 208.477 871 214C871 219.523 875.477 224 881 224Z" fill="#F3BA2F"/>
<path d="M878.575 213L881 210.575L883.431 213.006L884.844 211.594L881 207.75L877.162 211.588L878.575 213ZM874.75 214L876.163 212.587L877.575 214L876.163 215.413L874.75 214ZM878.575 215L881 217.425L883.431 214.994L884.844 216.406L881 220.25L877.162 216.413L878.575 215ZM884.425 214L885.837 212.587L887.25 214L885.837 215.413L884.425 214ZM882.431 214L881 215.431L879.569 214L879.819 213.75L879.938 213.625L881 212.569L882.431 214Z" fill="white"/>
<path d="M808.201 219V211.244L806.591 211.622V210.25L808.957 209.2H810.063V219H808.201ZM815.981 219.168C815.075 219.168 814.301 218.958 813.657 218.538C813.013 218.109 812.513 217.516 812.159 216.76C811.813 215.995 811.641 215.108 811.641 214.1C811.641 213.101 811.813 212.219 812.159 211.454C812.513 210.689 813.013 210.096 813.657 209.676C814.301 209.247 815.075 209.032 815.981 209.032C816.886 209.032 817.661 209.247 818.305 209.676C818.949 210.096 819.443 210.689 819.789 211.454C820.143 212.219 820.321 213.101 820.321 214.1C820.321 215.108 820.143 215.995 819.789 216.76C819.443 217.516 818.949 218.109 818.305 218.538C817.661 218.958 816.886 219.168 815.981 219.168ZM815.981 217.558C816.718 217.558 817.32 217.25 817.787 216.634C818.253 216.018 818.487 215.173 818.487 214.1C818.487 213.027 818.253 212.182 817.787 211.566C817.32 210.95 816.718 210.642 815.981 210.642C815.234 210.642 814.627 210.95 814.161 211.566C813.703 212.182 813.475 213.027 813.475 214.1C813.475 215.173 813.703 216.018 814.161 216.634C814.627 217.25 815.234 217.558 815.981 217.558Z" fill="white"/>
<path d="M825.238 219V209.2H827.03V217.6H831.37V219H825.238ZM834.109 219L830.525 209.2H832.443L835.215 217.166L838.001 209.2H839.891L836.307 219H834.109ZM841.056 219V209.2H842.848V217.6H847.188V219H841.056Z" fill="#ACACAC"/>
<path d="M901.04 219V211.244L899.43 211.622V210.25L901.796 209.2H902.902V219H901.04ZM908.003 219V210.6H911.375C912.247 210.6 912.911 210.804 913.367 211.212C913.831 211.612 914.063 212.128 914.063 212.76C914.063 213.288 913.919 213.712 913.631 214.032C913.351 214.344 913.007 214.556 912.599 214.668C913.079 214.764 913.475 215.004 913.787 215.388C914.099 215.764 914.255 216.204 914.255 216.708C914.255 217.372 914.015 217.92 913.535 218.352C913.055 218.784 912.375 219 911.495 219H908.003ZM909.539 214.128H911.147C911.579 214.128 911.911 214.028 912.143 213.828C912.375 213.628 912.491 213.344 912.491 212.976C912.491 212.624 912.375 212.348 912.143 212.148C911.919 211.94 911.579 211.836 911.123 211.836H909.539V214.128ZM909.539 217.752H911.255C911.711 217.752 912.063 217.648 912.311 217.44C912.567 217.224 912.695 216.924 912.695 216.54C912.695 216.148 912.563 215.84 912.299 215.616C912.035 215.392 911.679 215.28 911.231 215.28H909.539V217.752ZM915.573 219V210.6H917.109L921.057 216.516V210.6H922.593V219H921.057L917.109 213.096V219H915.573ZM924.221 219V210.6H927.593C928.465 210.6 929.129 210.804 929.585 211.212C930.049 211.612 930.281 212.128 930.281 212.76C930.281 213.288 930.137 213.712 929.849 214.032C929.569 214.344 929.225 214.556 928.817 214.668C929.297 214.764 929.693 215.004 930.005 215.388C930.317 215.764 930.473 216.204 930.473 216.708C930.473 217.372 930.233 217.92 929.753 218.352C929.273 218.784 928.593 219 927.713 219H924.221ZM925.757 214.128H927.365C927.797 214.128 928.129 214.028 928.361 213.828C928.593 213.628 928.709 213.344 928.709 212.976C928.709 212.624 928.593 212.348 928.361 212.148C928.137 211.94 927.797 211.836 927.341 211.836H925.757V214.128ZM925.757 217.752H927.473C927.929 217.752 928.281 217.648 928.529 217.44C928.785 217.224 928.913 216.924 928.913 216.54C928.913 216.148 928.781 215.84 928.517 215.616C928.253 215.392 927.897 215.28 927.449 215.28H925.757V217.752Z" fill="#F0B90B"/>
<path d="M840.423 183.288C839.319 183.288 838.319 183.096 837.423 182.712C836.527 182.312 835.807 181.704 835.263 180.888C834.719 180.072 834.431 179.048 834.399 177.816H837.423C837.439 178.632 837.703 179.32 838.215 179.88C838.743 180.424 839.479 180.696 840.423 180.696C841.319 180.696 842.007 180.448 842.487 179.952C842.967 179.456 843.207 178.832 843.207 178.08C843.207 177.2 842.887 176.536 842.247 176.088C841.623 175.624 840.815 175.392 839.823 175.392H838.575V172.872H839.847C840.663 172.872 841.343 172.68 841.887 172.296C842.431 171.912 842.703 171.344 842.703 170.592C842.703 169.968 842.495 169.472 842.079 169.104C841.679 168.72 841.119 168.528 840.399 168.528C839.615 168.528 838.999 168.76 838.551 169.224C838.119 169.688 837.879 170.256 837.831 170.928H834.831C834.895 169.376 835.431 168.152 836.439 167.256C837.463 166.36 838.783 165.912 840.399 165.912C841.551 165.912 842.519 166.12 843.303 166.536C844.103 166.936 844.703 167.472 845.103 168.144C845.519 168.816 845.727 169.56 845.727 170.376C845.727 171.32 845.463 172.12 844.935 172.776C844.423 173.416 843.783 173.848 843.015 174.072C843.959 174.264 844.727 174.728 845.319 175.464C845.911 176.184 846.207 177.096 846.207 178.2C846.207 179.128 845.983 179.976 845.535 180.744C845.087 181.512 844.431 182.128 843.567 182.592C842.719 183.056 841.671 183.288 840.423 183.288ZM848.527 175V167.858H850.169L850.342 169.197C850.601 168.736 850.951 168.371 851.393 168.102C851.844 167.824 852.372 167.685 852.977 167.685V169.629H852.459C852.055 169.629 851.695 169.691 851.379 169.816C851.062 169.941 850.812 170.157 850.63 170.464C850.457 170.771 850.371 171.198 850.371 171.746V175H848.527ZM857.825 175.173C857.153 175.173 856.553 175.01 856.025 174.683C855.497 174.357 855.08 173.91 854.773 173.344C854.465 172.778 854.312 172.134 854.312 171.414C854.312 170.694 854.465 170.056 854.773 169.499C855.08 168.933 855.497 168.491 856.025 168.174C856.553 167.848 857.153 167.685 857.825 167.685C858.363 167.685 858.833 167.786 859.237 167.987C859.64 168.189 859.966 168.472 860.216 168.837V164.632H862.059V175H860.417L860.216 173.978C859.985 174.294 859.678 174.573 859.294 174.813C858.92 175.053 858.43 175.173 857.825 175.173ZM858.214 173.56C858.809 173.56 859.294 173.363 859.669 172.97C860.053 172.566 860.245 172.053 860.245 171.429C860.245 170.805 860.053 170.296 859.669 169.902C859.294 169.499 858.809 169.298 858.214 169.298C857.629 169.298 857.144 169.494 856.76 169.888C856.376 170.282 856.184 170.79 856.184 171.414C856.184 172.038 856.376 172.552 856.76 172.955C857.144 173.358 857.629 173.56 858.214 173.56ZM870.711 183V165.72H873.783V183H870.711ZM878.578 169.248C878.018 169.248 877.554 169.08 877.186 168.744C876.834 168.408 876.658 167.984 876.658 167.472C876.658 166.96 876.834 166.544 877.186 166.224C877.554 165.888 878.018 165.72 878.578 165.72C879.138 165.72 879.594 165.888 879.946 166.224C880.314 166.544 880.498 166.96 880.498 167.472C880.498 167.984 880.314 168.408 879.946 168.744C879.594 169.08 879.138 169.248 878.578 169.248ZM877.042 183V171.096H880.114V183H877.042ZM883.32 183V171.096H886.032L886.272 173.112C886.64 172.408 887.168 171.848 887.856 171.432C888.56 171.016 889.384 170.808 890.328 170.808C891.8 170.808 892.944 171.272 893.76 172.2C894.576 173.128 894.984 174.488 894.984 176.28V183H891.912V176.568C891.912 175.544 891.704 174.76 891.288 174.216C890.872 173.672 890.224 173.4 889.344 173.4C888.48 173.4 887.768 173.704 887.208 174.312C886.664 174.92 886.392 175.768 886.392 176.856V183H883.32ZM903.706 183.288C902.506 183.288 901.442 183.032 900.514 182.52C899.586 182.008 898.858 181.288 898.33 180.36C897.802 179.432 897.538 178.36 897.538 177.144C897.538 175.912 897.794 174.816 898.306 173.856C898.834 172.896 899.554 172.152 900.466 171.624C901.394 171.08 902.482 170.808 903.73 170.808C904.898 170.808 905.93 171.064 906.826 171.576C907.722 172.088 908.418 172.792 908.914 173.688C909.426 174.568 909.682 175.552 909.682 176.64C909.682 176.816 909.674 177 909.658 177.192C909.658 177.384 909.65 177.584 909.634 177.792H900.586C900.65 178.72 900.97 179.448 901.546 179.976C902.138 180.504 902.85 180.768 903.682 180.768C904.306 180.768 904.826 180.632 905.242 180.36C905.674 180.072 905.994 179.704 906.202 179.256H909.322C909.098 180.008 908.722 180.696 908.194 181.32C907.682 181.928 907.042 182.408 906.274 182.76C905.522 183.112 904.666 183.288 903.706 183.288ZM903.73 173.304C902.978 173.304 902.314 173.52 901.738 173.952C901.162 174.368 900.794 175.008 900.634 175.872H906.562C906.514 175.088 906.226 174.464 905.698 174C905.17 173.536 904.514 173.304 903.73 173.304Z" fill="white"/>
<path d="M447.686 290V268.184L443.618 269.084V266.996L448.694 264.8H450.746V290H447.686ZM466.758 290V284.6H453.978V282.26L466.218 264.8H469.746V281.936H473.49V284.6H469.746V290H466.758ZM457.326 281.936H466.902V268.148L457.326 281.936ZM480.818 276.5C479.738 276.5 478.754 276.26 477.866 275.78C477.002 275.276 476.318 274.58 475.814 273.692C475.31 272.78 475.058 271.7 475.058 270.452C475.058 269.204 475.31 268.136 475.814 267.248C476.342 266.336 477.038 265.64 477.902 265.16C478.79 264.656 479.774 264.404 480.854 264.404C481.934 264.404 482.906 264.656 483.77 265.16C484.634 265.64 485.318 266.336 485.822 267.248C486.326 268.136 486.578 269.204 486.578 270.452C486.578 271.7 486.314 272.78 485.786 273.692C485.282 274.58 484.598 275.276 483.734 275.78C482.87 276.26 481.898 276.5 480.818 276.5ZM478.586 290L493.238 264.8H496.262L481.61 290H478.586ZM480.818 274.16C481.658 274.16 482.39 273.848 483.014 273.224C483.662 272.6 483.986 271.676 483.986 270.452C483.986 269.204 483.674 268.268 483.05 267.644C482.426 266.996 481.694 266.672 480.854 266.672C480.014 266.672 479.258 266.996 478.586 267.644C477.938 268.268 477.614 269.204 477.614 270.452C477.614 271.676 477.938 272.6 478.586 273.224C479.234 273.848 479.978 274.16 480.818 274.16ZM494.282 290.432C493.202 290.432 492.218 290.192 491.33 289.712C490.466 289.208 489.782 288.512 489.278 287.624C488.774 286.712 488.522 285.632 488.522 284.384C488.522 283.136 488.774 282.068 489.278 281.18C489.806 280.268 490.502 279.572 491.366 279.092C492.23 278.588 493.202 278.336 494.282 278.336C495.362 278.336 496.334 278.588 497.198 279.092C498.062 279.572 498.746 280.268 499.25 281.18C499.754 282.068 500.006 283.136 500.006 284.384C500.006 285.632 499.754 286.712 499.25 287.624C498.746 288.512 498.062 289.208 497.198 289.712C496.334 290.192 495.362 290.432 494.282 290.432ZM494.246 288.092C495.11 288.092 495.854 287.78 496.478 287.156C497.126 286.532 497.45 285.608 497.45 284.384C497.45 283.136 497.138 282.2 496.514 281.576C495.89 280.952 495.146 280.64 494.282 280.64C493.442 280.64 492.698 280.952 492.05 281.576C491.402 282.2 491.078 283.136 491.078 284.384C491.078 285.608 491.39 286.532 492.014 287.156C492.662 287.78 493.406 288.092 494.246 288.092Z" fill="white"/>
<path d="M861.686 290V284.6H848.906V282.26L861.146 264.8H864.674V281.936H868.418V284.6H864.674V290H861.686ZM852.254 281.936H861.83V268.148L852.254 281.936ZM875.746 276.5C874.666 276.5 873.682 276.26 872.794 275.78C871.93 275.276 871.246 274.58 870.742 273.692C870.238 272.78 869.986 271.7 869.986 270.452C869.986 269.204 870.238 268.136 870.742 267.248C871.27 266.336 871.966 265.64 872.83 265.16C873.718 264.656 874.702 264.404 875.782 264.404C876.862 264.404 877.834 264.656 878.698 265.16C879.562 265.64 880.246 266.336 880.75 267.248C881.254 268.136 881.506 269.204 881.506 270.452C881.506 271.7 881.242 272.78 880.714 273.692C880.21 274.58 879.526 275.276 878.662 275.78C877.798 276.26 876.826 276.5 875.746 276.5ZM873.514 290L888.166 264.8H891.19L876.538 290H873.514ZM875.746 274.16C876.586 274.16 877.318 273.848 877.942 273.224C878.59 272.6 878.914 271.676 878.914 270.452C878.914 269.204 878.602 268.268 877.978 267.644C877.354 266.996 876.622 266.672 875.782 266.672C874.942 266.672 874.186 266.996 873.514 267.644C872.866 268.268 872.542 269.204 872.542 270.452C872.542 271.676 872.866 272.6 873.514 273.224C874.162 273.848 874.906 274.16 875.746 274.16ZM889.21 290.432C888.13 290.432 887.146 290.192 886.258 289.712C885.394 289.208 884.71 288.512 884.206 287.624C883.702 286.712 883.45 285.632 883.45 284.384C883.45 283.136 883.702 282.068 884.206 281.18C884.734 280.268 885.43 279.572 886.294 279.092C887.158 278.588 888.13 278.336 889.21 278.336C890.29 278.336 891.262 278.588 892.126 279.092C892.99 279.572 893.674 280.268 894.178 281.18C894.682 282.068 894.934 283.136 894.934 284.384C894.934 285.632 894.682 286.712 894.178 287.624C893.674 288.512 892.99 289.208 892.126 289.712C891.262 290.192 890.29 290.432 889.21 290.432ZM889.174 288.092C890.038 288.092 890.782 287.78 891.406 287.156C892.054 286.532 892.378 285.608 892.378 284.384C892.378 283.136 892.066 282.2 891.442 281.576C890.818 280.952 890.074 280.64 889.21 280.64C888.37 280.64 887.626 280.952 886.978 281.576C886.33 282.2 886.006 283.136 886.006 284.384C886.006 285.608 886.318 286.532 886.942 287.156C887.59 287.78 888.334 288.092 889.174 288.092Z" fill="white"/>
<path d="M655.592 290L665.6 267.392H651.776V264.8H668.696V267.068L658.796 290H655.592ZM676.516 276.5C675.436 276.5 674.452 276.26 673.564 275.78C672.7 275.276 672.016 274.58 671.512 273.692C671.008 272.78 670.756 271.7 670.756 270.452C670.756 269.204 671.008 268.136 671.512 267.248C672.04 266.336 672.736 265.64 673.6 265.16C674.488 264.656 675.472 264.404 676.552 264.404C677.632 264.404 678.604 264.656 679.468 265.16C680.332 265.64 681.016 266.336 681.52 267.248C682.024 268.136 682.276 269.204 682.276 270.452C682.276 271.7 682.012 272.78 681.484 273.692C680.98 274.58 680.296 275.276 679.432 275.78C678.568 276.26 677.596 276.5 676.516 276.5ZM674.284 290L688.936 264.8H691.96L677.308 290H674.284ZM676.516 274.16C677.356 274.16 678.088 273.848 678.712 273.224C679.36 272.6 679.684 271.676 679.684 270.452C679.684 269.204 679.372 268.268 678.748 267.644C678.124 266.996 677.392 266.672 676.552 266.672C675.712 266.672 674.956 266.996 674.284 267.644C673.636 268.268 673.312 269.204 673.312 270.452C673.312 271.676 673.636 272.6 674.284 273.224C674.932 273.848 675.676 274.16 676.516 274.16ZM689.98 290.432C688.9 290.432 687.916 290.192 687.028 289.712C686.164 289.208 685.48 288.512 684.976 287.624C684.472 286.712 684.22 285.632 684.22 284.384C684.22 283.136 684.472 282.068 684.976 281.18C685.504 280.268 686.2 279.572 687.064 279.092C687.928 278.588 688.9 278.336 689.98 278.336C691.06 278.336 692.032 278.588 692.896 279.092C693.76 279.572 694.444 280.268 694.948 281.18C695.452 282.068 695.704 283.136 695.704 284.384C695.704 285.632 695.452 286.712 694.948 287.624C694.444 288.512 693.76 289.208 692.896 289.712C692.032 290.192 691.06 290.432 689.98 290.432ZM689.944 288.092C690.808 288.092 691.552 287.78 692.176 287.156C692.824 286.532 693.148 285.608 693.148 284.384C693.148 283.136 692.836 282.2 692.212 281.576C691.588 280.952 690.844 280.64 689.98 280.64C689.14 280.64 688.396 280.952 687.748 281.576C687.1 282.2 686.776 283.136 686.776 284.384C686.776 285.608 687.088 286.532 687.712 287.156C688.36 287.78 689.104 288.092 689.944 288.092Z" fill="white"/>
<path d="M144 75.4219C85.9577 113.413 56.8099 210.999 144 210.999C231.19 210.999 202.042 113.413 144 75.4219Z" fill="#E71A65"/>
<path d="M144.001 201.96C98.1393 201.96 130.512 144.114 144.001 136.883C157.489 144.114 189.862 201.96 144.001 201.96Z" fill="#FF9BC0"/>
<path d="M144 201.961C117.922 202.864 110.378 177.126 117.922 162.191C123.276 176.244 147.451 188.704 144 201.961Z" fill="#FF9BC0"/>
<path d="M153.342 200.285C178.665 193.958 172.369 170.729 165.455 152.164C158.302 165.284 146.402 188.49 153.342 200.285Z" fill="#FF9BC0"/>
<path d="M115.08 73.9754C118.933 70.6599 121.375 65.7354 121.375 60.2377C121.375 54.74 118.933 49.8154 115.08 46.5C111.227 49.8154 108.785 54.74 108.785 60.2377C108.785 65.7354 111.227 70.6599 115.08 73.9754Z" fill="#E71A65"/>
<path d="M187.017 99.2801C190.87 95.9646 193.312 91.0401 193.312 85.5424C193.312 80.0446 190.87 75.1201 187.017 71.8047C183.164 75.1201 180.723 80.0446 180.723 85.5424C180.723 91.0401 183.164 95.9646 187.017 99.2801Z" fill="#E71A65"/>
<path d="M169.935 60.9627C173.237 58.5632 175.33 54.9993 175.33 51.0204C175.33 47.0416 173.237 43.4776 169.935 41.0781C166.632 43.4776 164.539 47.0416 164.539 51.0204C164.539 54.9993 166.632 58.5632 169.935 60.9627Z" fill="#E71A65"/>
<path d="M143.856 37.4615C146.608 35.7164 148.352 33.1245 148.352 30.2308C148.352 27.3371 146.608 24.7451 143.856 23C141.103 24.7451 139.359 27.3371 139.359 30.2308C139.359 33.1245 141.103 35.7164 143.856 37.4615Z" fill="#E71A65"/>
<path d="M39.0502 252V246.024L33.4102 235.2H36.8902L40.6102 242.952L44.3062 235.2H47.7382L42.1222 246.024V252H39.0502ZM53.2134 252.288C52.0614 252.288 51.0214 252.024 50.0934 251.496C49.1814 250.968 48.4534 250.24 47.9094 249.312C47.3814 248.368 47.1174 247.28 47.1174 246.048C47.1174 244.816 47.3894 243.736 47.9334 242.808C48.4774 241.864 49.2054 241.128 50.1174 240.6C51.0454 240.072 52.0854 239.808 53.2374 239.808C54.3734 239.808 55.3974 240.072 56.3094 240.6C57.2374 241.128 57.9654 241.864 58.4934 242.808C59.0374 243.736 59.3094 244.816 59.3094 246.048C59.3094 247.28 59.0374 248.368 58.4934 249.312C57.9654 250.24 57.2374 250.968 56.3094 251.496C55.3814 252.024 54.3494 252.288 53.2134 252.288ZM53.2134 249.624C54.0134 249.624 54.7094 249.328 55.3014 248.736C55.8934 248.128 56.1894 247.232 56.1894 246.048C56.1894 244.864 55.8934 243.976 55.3014 243.384C54.7094 242.776 54.0214 242.472 53.2374 242.472C52.4214 242.472 51.7174 242.776 51.1254 243.384C50.5494 243.976 50.2614 244.864 50.2614 246.048C50.2614 247.232 50.5494 248.128 51.1254 248.736C51.7174 249.328 52.4134 249.624 53.2134 249.624ZM66.5201 252.288C65.0321 252.288 63.8801 251.824 63.0641 250.896C62.2641 249.968 61.8641 248.608 61.8641 246.816V240.096H64.9121V246.528C64.9121 247.552 65.1201 248.336 65.5361 248.88C65.9521 249.424 66.6081 249.696 67.5041 249.696C68.3521 249.696 69.0481 249.392 69.5921 248.784C70.1521 248.176 70.4321 247.328 70.4321 246.24V240.096H73.5041V252H70.7921L70.5521 249.984C70.1841 250.688 69.6481 251.248 68.9441 251.664C68.2561 252.08 67.4481 252.288 66.5201 252.288ZM76.6577 252V240.096H79.3937L79.6817 242.328C80.1137 241.56 80.6977 240.952 81.4337 240.504C82.1857 240.04 83.0657 239.808 84.0737 239.808V243.048H83.2097C82.5377 243.048 81.9377 243.152 81.4097 243.36C80.8817 243.568 80.4657 243.928 80.1617 244.44C79.8737 244.952 79.7297 245.664 79.7297 246.576V252H76.6577ZM95.996 252.288C94.972 252.288 94.132 252.128 93.476 251.808C92.82 251.472 92.332 251.032 92.012 250.488C91.692 249.944 91.532 249.344 91.532 248.688C91.532 247.584 91.964 246.688 92.828 246C93.692 245.312 94.988 244.968 96.716 244.968H99.74V244.68C99.74 243.864 99.508 243.264 99.044 242.88C98.58 242.496 98.004 242.304 97.316 242.304C96.692 242.304 96.148 242.456 95.684 242.76C95.22 243.048 94.932 243.48 94.82 244.056H91.82C91.9 243.192 92.188 242.44 92.684 241.8C93.196 241.16 93.852 240.672 94.652 240.336C95.452 239.984 96.348 239.808 97.34 239.808C99.036 239.808 100.372 240.232 101.348 241.08C102.324 241.928 102.812 243.128 102.812 244.68V252H100.196L99.908 250.08C99.556 250.72 99.06 251.248 98.42 251.664C97.796 252.08 96.988 252.288 95.996 252.288ZM96.692 249.888C97.572 249.888 98.252 249.6 98.732 249.024C99.228 248.448 99.54 247.736 99.668 246.888H97.052C96.236 246.888 95.652 247.04 95.3 247.344C94.948 247.632 94.772 247.992 94.772 248.424C94.772 248.888 94.948 249.248 95.3 249.504C95.652 249.76 96.116 249.888 96.692 249.888ZM111.576 252.288C110.36 252.288 109.288 252.024 108.36 251.496C107.432 250.968 106.696 250.232 106.152 249.288C105.624 248.344 105.36 247.264 105.36 246.048C105.36 244.832 105.624 243.752 106.152 242.808C106.696 241.864 107.432 241.128 108.36 240.6C109.288 240.072 110.36 239.808 111.576 239.808C113.096 239.808 114.376 240.208 115.416 241.008C116.456 241.792 117.12 242.88 117.408 244.272H114.168C114.008 243.696 113.688 243.248 113.208 242.928C112.744 242.592 112.192 242.424 111.552 242.424C110.704 242.424 109.984 242.744 109.392 243.384C108.8 244.024 108.504 244.912 108.504 246.048C108.504 247.184 108.8 248.072 109.392 248.712C109.984 249.352 110.704 249.672 111.552 249.672C112.192 249.672 112.744 249.512 113.208 249.192C113.688 248.872 114.008 248.416 114.168 247.824H117.408C117.12 249.168 116.456 250.248 115.416 251.064C114.376 251.88 113.096 252.288 111.576 252.288ZM125.274 252C124.026 252 123.026 251.696 122.274 251.088C121.522 250.48 121.146 249.4 121.146 247.848V242.664H119.106V240.096H121.146L121.506 236.904H124.218V240.096H127.434V242.664H124.218V247.872C124.218 248.448 124.338 248.848 124.578 249.072C124.834 249.28 125.266 249.384 125.874 249.384H127.362V252H125.274ZM131.728 238.248C131.168 238.248 130.704 238.08 130.336 237.744C129.984 237.408 129.808 236.984 129.808 236.472C129.808 235.96 129.984 235.544 130.336 235.224C130.704 234.888 131.168 234.72 131.728 234.72C132.288 234.72 132.744 234.888 133.096 235.224C133.464 235.544 133.648 235.96 133.648 236.472C133.648 236.984 133.464 237.408 133.096 237.744C132.744 238.08 132.288 238.248 131.728 238.248ZM130.192 252V240.096H133.264V252H130.192ZM139.686 252L135.318 240.096H138.534L141.558 249.096L144.582 240.096H147.798L143.406 252H139.686ZM154.934 252.288C153.734 252.288 152.67 252.032 151.742 251.52C150.814 251.008 150.086 250.288 149.558 249.36C149.03 248.432 148.766 247.36 148.766 246.144C148.766 244.912 149.022 243.816 149.534 242.856C150.062 241.896 150.782 241.152 151.694 240.624C152.622 240.08 153.71 239.808 154.958 239.808C156.126 239.808 157.158 240.064 158.054 240.576C158.95 241.088 159.646 241.792 160.142 242.688C160.654 243.568 160.91 244.552 160.91 245.64C160.91 245.816 160.902 246 160.886 246.192C160.886 246.384 160.878 246.584 160.862 246.792H151.814C151.878 247.72 152.198 248.448 152.774 248.976C153.366 249.504 154.078 249.768 154.91 249.768C155.534 249.768 156.054 249.632 156.47 249.36C156.902 249.072 157.222 248.704 157.43 248.256H160.55C160.326 249.008 159.95 249.696 159.422 250.32C158.91 250.928 158.27 251.408 157.502 251.76C156.75 252.112 155.894 252.288 154.934 252.288ZM154.958 242.304C154.206 242.304 153.542 242.52 152.966 242.952C152.39 243.368 152.022 244.008 151.862 244.872H157.79C157.742 244.088 157.454 243.464 156.926 243C156.398 242.536 155.742 242.304 154.958 242.304ZM169.284 252V235.2H180.132V237.672H172.356V242.376H178.644V244.8H172.356V252H169.284ZM184.087 238.248C183.527 238.248 183.063 238.08 182.695 237.744C182.343 237.408 182.167 236.984 182.167 236.472C182.167 235.96 182.343 235.544 182.695 235.224C183.063 234.888 183.527 234.72 184.087 234.72C184.647 234.72 185.103 234.888 185.455 235.224C185.823 235.544 186.007 235.96 186.007 236.472C186.007 236.984 185.823 237.408 185.455 237.744C185.103 238.08 184.647 238.248 184.087 238.248ZM182.551 252V240.096H185.623V252H182.551ZM188.83 252V240.096H191.566L191.854 242.328C192.286 241.56 192.87 240.952 193.606 240.504C194.358 240.04 195.238 239.808 196.246 239.808V243.048H195.382C194.71 243.048 194.11 243.152 193.582 243.36C193.054 243.568 192.638 243.928 192.334 244.44C192.046 244.952 191.902 245.664 191.902 246.576V252H188.83ZM203.918 252.288C202.718 252.288 201.654 252.032 200.726 251.52C199.798 251.008 199.07 250.288 198.542 249.36C198.014 248.432 197.75 247.36 197.75 246.144C197.75 244.912 198.006 243.816 198.518 242.856C199.046 241.896 199.766 241.152 200.678 240.624C201.606 240.08 202.694 239.808 203.942 239.808C205.11 239.808 206.142 240.064 207.038 240.576C207.934 241.088 208.63 241.792 209.126 242.688C209.638 243.568 209.894 244.552 209.894 245.64C209.894 245.816 209.886 246 209.87 246.192C209.87 246.384 209.862 246.584 209.846 246.792H200.798C200.862 247.72 201.182 248.448 201.758 248.976C202.35 249.504 203.062 249.768 203.894 249.768C204.518 249.768 205.038 249.632 205.454 249.36C205.886 249.072 206.206 248.704 206.414 248.256H209.534C209.31 249.008 208.934 249.696 208.406 250.32C207.894 250.928 207.254 251.408 206.486 251.76C205.734 252.112 204.878 252.288 203.918 252.288ZM203.942 242.304C203.19 242.304 202.526 242.52 201.95 242.952C201.374 243.368 201.006 244.008 200.846 244.872H206.774C206.726 244.088 206.438 243.464 205.91 243C205.382 242.536 204.726 242.304 203.942 242.304ZM217.398 252.288C216.342 252.288 215.414 252.12 214.614 251.784C213.814 251.432 213.174 250.952 212.694 250.344C212.214 249.736 211.926 249.032 211.83 248.232H214.926C215.022 248.696 215.278 249.096 215.694 249.432C216.126 249.752 216.678 249.912 217.35 249.912C218.022 249.912 218.51 249.776 218.814 249.504C219.134 249.232 219.294 248.92 219.294 248.568C219.294 248.056 219.07 247.712 218.622 247.536C218.174 247.344 217.55 247.16 216.75 246.984C216.238 246.872 215.718 246.736 215.19 246.576C214.662 246.416 214.174 246.216 213.726 245.976C213.294 245.72 212.942 245.4 212.67 245.016C212.398 244.616 212.262 244.128 212.262 243.552C212.262 242.496 212.678 241.608 213.51 240.888C214.358 240.168 215.542 239.808 217.062 239.808C218.47 239.808 219.59 240.136 220.422 240.792C221.27 241.448 221.774 242.352 221.934 243.504H219.03C218.854 242.624 218.19 242.184 217.038 242.184C216.462 242.184 216.014 242.296 215.694 242.52C215.39 242.744 215.238 243.024 215.238 243.36C215.238 243.712 215.47 243.992 215.934 244.2C216.398 244.408 217.014 244.6 217.782 244.776C218.614 244.968 219.374 245.184 220.062 245.424C220.766 245.648 221.326 245.992 221.742 246.456C222.158 246.904 222.366 247.552 222.366 248.4C222.382 249.136 222.19 249.8 221.79 250.392C221.39 250.984 220.814 251.448 220.062 251.784C219.31 252.12 218.422 252.288 217.398 252.288ZM225.087 252V234.72H228.159V252H225.087ZM237.01 252.288C235.858 252.288 234.818 252.024 233.89 251.496C232.978 250.968 232.25 250.24 231.706 249.312C231.178 248.368 230.914 247.28 230.914 246.048C230.914 244.816 231.186 243.736 231.73 242.808C232.274 241.864 233.002 241.128 233.914 240.6C234.842 240.072 235.882 239.808 237.034 239.808C238.17 239.808 239.194 240.072 240.106 240.6C241.034 241.128 241.762 241.864 242.29 242.808C242.834 243.736 243.106 244.816 243.106 246.048C243.106 247.28 242.834 248.368 242.29 249.312C241.762 250.24 241.034 250.968 240.106 251.496C239.178 252.024 238.146 252.288 237.01 252.288ZM237.01 249.624C237.81 249.624 238.506 249.328 239.098 248.736C239.69 248.128 239.986 247.232 239.986 246.048C239.986 244.864 239.69 243.976 239.098 243.384C238.506 242.776 237.818 242.472 237.034 242.472C236.218 242.472 235.514 242.776 234.922 243.384C234.346 243.976 234.058 244.864 234.058 246.048C234.058 247.232 234.346 248.128 234.922 248.736C235.514 249.328 236.21 249.624 237.01 249.624ZM250.688 252C249.44 252 248.44 251.696 247.688 251.088C246.936 250.48 246.56 249.4 246.56 247.848V242.664H244.52V240.096H246.56L246.92 236.904H249.632V240.096H252.848V242.664H249.632V247.872C249.632 248.448 249.752 248.848 249.992 249.072C250.248 249.28 250.68 249.384 251.288 249.384H252.776V252H250.688Z" fill="white"/>
<g filter="url(#filter6_b_531_31250)">
<rect x="69" y="270" width="60" height="32" rx="16" fill="#23262F" fill-opacity="0.6"/>
</g>
<g filter="url(#filter7_b_531_31250)">
<rect x="137" y="270" width="82" height="32" rx="16" fill="#23262F" fill-opacity="0.6"/>
</g>
<path d="M153 296C158.523 296 163 291.523 163 286C163 280.477 158.523 276 153 276C147.477 276 143 280.477 143 286C143 291.523 147.477 296 153 296Z" fill="#F3BA2F"/>
<path d="M150.575 285L153 282.575L155.431 285.006L156.844 283.594L153 279.75L149.162 283.588L150.575 285ZM146.75 286L148.163 284.587L149.575 286L148.163 287.413L146.75 286ZM150.575 287L153 289.425L155.431 286.994L156.844 288.406L153 292.25L149.162 288.413L150.575 287ZM156.425 286L157.837 284.587L159.25 286L157.837 287.413L156.425 286ZM154.431 286L153 287.431L151.569 286L151.819 285.75L151.938 285.625L153 284.569L154.431 286Z" fill="white"/>
<path d="M80.2006 291V283.244L78.5906 283.622V282.25L80.9566 281.2H82.0626V291H80.2006ZM87.9807 291.168C87.0754 291.168 86.3007 290.958 85.6567 290.538C85.0127 290.109 84.5134 289.516 84.1587 288.76C83.8134 287.995 83.6407 287.108 83.6407 286.1C83.6407 285.101 83.8134 284.219 84.1587 283.454C84.5134 282.689 85.0127 282.096 85.6567 281.676C86.3007 281.247 87.0754 281.032 87.9807 281.032C88.8861 281.032 89.6607 281.247 90.3047 281.676C90.9487 282.096 91.4434 282.689 91.7887 283.454C92.1434 284.219 92.3207 285.101 92.3207 286.1C92.3207 287.108 92.1434 287.995 91.7887 288.76C91.4434 289.516 90.9487 290.109 90.3047 290.538C89.6607 290.958 88.8861 291.168 87.9807 291.168ZM87.9807 289.558C88.7181 289.558 89.3201 289.25 89.7867 288.634C90.2534 288.018 90.4867 287.173 90.4867 286.1C90.4867 285.027 90.2534 284.182 89.7867 283.566C89.3201 282.95 88.7181 282.642 87.9807 282.642C87.2341 282.642 86.6274 282.95 86.1607 283.566C85.7034 284.182 85.4747 285.027 85.4747 286.1C85.4747 287.173 85.7034 288.018 86.1607 288.634C86.6274 289.25 87.2341 289.558 87.9807 289.558ZM97.2381 291V281.2H99.0301V289.6H103.37V291H97.2381ZM106.109 291L102.525 281.2H104.443L107.215 289.166L110.001 281.2H111.891L108.307 291H106.109ZM113.056 291V281.2H114.848V289.6H119.188V291H113.056Z" fill="white"/>
<path d="M173.04 291V283.244L171.43 283.622V282.25L173.796 281.2H174.902V291H173.04ZM180.003 291V282.6H183.375C184.247 282.6 184.911 282.804 185.367 283.212C185.831 283.612 186.063 284.128 186.063 284.76C186.063 285.288 185.919 285.712 185.631 286.032C185.351 286.344 185.007 286.556 184.599 286.668C185.079 286.764 185.475 287.004 185.787 287.388C186.099 287.764 186.255 288.204 186.255 288.708C186.255 289.372 186.015 289.92 185.535 290.352C185.055 290.784 184.375 291 183.495 291H180.003ZM181.539 286.128H183.147C183.579 286.128 183.911 286.028 184.143 285.828C184.375 285.628 184.491 285.344 184.491 284.976C184.491 284.624 184.375 284.348 184.143 284.148C183.919 283.94 183.579 283.836 183.123 283.836H181.539V286.128ZM181.539 289.752H183.255C183.711 289.752 184.063 289.648 184.311 289.44C184.567 289.224 184.695 288.924 184.695 288.54C184.695 288.148 184.563 287.84 184.299 287.616C184.035 287.392 183.679 287.28 183.231 287.28H181.539V289.752ZM187.573 291V282.6H189.109L193.057 288.516V282.6H194.593V291H193.057L189.109 285.096V291H187.573ZM196.221 291V282.6H199.593C200.465 282.6 201.129 282.804 201.585 283.212C202.049 283.612 202.281 284.128 202.281 284.76C202.281 285.288 202.137 285.712 201.849 286.032C201.569 286.344 201.225 286.556 200.817 286.668C201.297 286.764 201.693 287.004 202.005 287.388C202.317 287.764 202.473 288.204 202.473 288.708C202.473 289.372 202.233 289.92 201.753 290.352C201.273 290.784 200.593 291 199.713 291H196.221ZM197.757 286.128H199.365C199.797 286.128 200.129 286.028 200.361 285.828C200.593 285.628 200.709 285.344 200.709 284.976C200.709 284.624 200.593 284.348 200.361 284.148C200.137 283.94 199.797 283.836 199.341 283.836H197.757V286.128ZM197.757 289.752H199.473C199.929 289.752 200.281 289.648 200.529 289.44C200.785 289.224 200.913 288.924 200.913 288.54C200.913 288.148 200.781 287.84 200.517 287.616C200.253 287.392 199.897 287.28 199.449 287.28H197.757V289.752Z" fill="#F0B90B"/>
<path d="M263 286L276.659 274.242C276.931 274.008 277.306 273.938 277.643 274.057C278.127 274.229 278.397 274.736 278.285 275.226L278.253 275.339L275.578 282.935L423 282.935L423 288.961L275.541 288.961L278.253 296.661C278.357 296.957 278.317 297.283 278.149 297.542L278.069 297.649C277.738 298.038 277.174 298.109 276.76 297.834L276.659 297.758L263 286Z" fill="url(#paint0_linear_531_31250)"/>
<path d="M547 286L560.659 274.242C560.931 274.008 561.306 273.938 561.643 274.057C562.127 274.229 562.397 274.736 562.285 275.226L562.253 275.339L559.578 282.935L631 282.935L631 288.961L559.541 288.961L562.253 296.661C562.357 296.957 562.317 297.283 562.149 297.542L562.069 297.649C561.738 298.038 561.174 298.109 560.76 297.834L560.659 297.758L547 286Z" fill="url(#paint1_linear_531_31250)"/>
<path d="M749 286L762.659 274.242C762.931 274.008 763.306 273.938 763.643 274.057C764.127 274.229 764.397 274.736 764.285 275.226L764.253 275.339L761.578 282.935L833 282.935L833 288.961L761.541 288.961L764.253 296.661C764.357 296.957 764.317 297.283 764.149 297.542L764.069 297.649C763.738 298.038 763.174 298.109 762.76 297.834L762.659 297.758L749 286Z" fill="url(#paint2_linear_531_31250)"/>
<defs>
<filter id="filter0_b_531_31250" x="393" y="194" width="68" height="40" filterUnits="userSpaceOnUse" color-interpolation-filters="sRGB">
<feFlood flood-opacity="0" result="BackgroundImageFix"/>
<feGaussianBlur in="BackgroundImage" stdDeviation="2"/>
<feComposite in2="SourceAlpha" operator="in" result="effect1_backgroundBlur_531_31250"/>
<feBlend mode="normal" in="SourceGraphic" in2="effect1_backgroundBlur_531_31250" result="shape"/>
</filter>
<filter id="filter1_b_531_31250" x="461" y="194" width="90" height="40" filterUnits="userSpaceOnUse" color-interpolation-filters="sRGB">
<feFlood flood-opacity="0" result="BackgroundImageFix"/>
<feGaussianBlur in="BackgroundImage" stdDeviation="2"/>
<feComposite in2="SourceAlpha" operator="in" result="effect1_backgroundBlur_531_31250"/>
<feBlend mode="normal" in="SourceGraphic" in2="effect1_backgroundBlur_531_31250" result="shape"/>
</filter>
<filter id="filter2_b_531_31250" x="595" y="194" width="68" height="40" filterUnits="userSpaceOnUse" color-interpolation-filters="sRGB">
<feFlood flood-opacity="0" result="BackgroundImageFix"/>
<feGaussianBlur in="BackgroundImage" stdDeviation="2"/>
<feComposite in2="SourceAlpha" operator="in" result="effect1_backgroundBlur_531_31250"/>
<feBlend mode="normal" in="SourceGraphic" in2="effect1_backgroundBlur_531_31250" result="shape"/>
</filter>
<filter id="filter3_b_531_31250" x="663" y="194" width="90" height="40" filterUnits="userSpaceOnUse" color-interpolation-filters="sRGB">
<feFlood flood-opacity="0" result="BackgroundImageFix"/>
<feGaussianBlur in="BackgroundImage" stdDeviation="2"/>
<feComposite in2="SourceAlpha" operator="in" result="effect1_backgroundBlur_531_31250"/>
<feBlend mode="normal" in="SourceGraphic" in2="effect1_backgroundBlur_531_31250" result="shape"/>
</filter>
<filter id="filter4_b_531_31250" x="793" y="194" width="68" height="40" filterUnits="userSpaceOnUse" color-interpolation-filters="sRGB">
<feFlood flood-opacity="0" result="BackgroundImageFix"/>
<feGaussianBlur in="BackgroundImage" stdDeviation="2"/>
<feComposite in2="SourceAlpha" operator="in" result="effect1_backgroundBlur_531_31250"/>
<feBlend mode="normal" in="SourceGraphic" in2="effect1_backgroundBlur_531_31250" result="shape"/>
</filter>
<filter id="filter5_b_531_31250" x="861" y="194" width="90" height="40" filterUnits="userSpaceOnUse" color-interpolation-filters="sRGB">
<feFlood flood-opacity="0" result="BackgroundImageFix"/>
<feGaussianBlur in="BackgroundImage" stdDeviation="2"/>
<feComposite in2="SourceAlpha" operator="in" result="effect1_backgroundBlur_531_31250"/>
<feBlend mode="normal" in="SourceGraphic" in2="effect1_backgroundBlur_531_31250" result="shape"/>
</filter>
<filter id="filter6_b_531_31250" x="65" y="266" width="68" height="40" filterUnits="userSpaceOnUse" color-interpolation-filters="sRGB">
<feFlood flood-opacity="0" result="BackgroundImageFix"/>
<feGaussianBlur in="BackgroundImage" stdDeviation="2"/>
<feComposite in2="SourceAlpha" operator="in" result="effect1_backgroundBlur_531_31250"/>
<feBlend mode="normal" in="SourceGraphic" in2="effect1_backgroundBlur_531_31250" result="shape"/>
</filter>
<filter id="filter7_b_531_31250" x="133" y="266" width="90" height="40" filterUnits="userSpaceOnUse" color-interpolation-filters="sRGB">
<feFlood flood-opacity="0" result="BackgroundImageFix"/>
<feGaussianBlur in="BackgroundImage" stdDeviation="2"/>
<feComposite in2="SourceAlpha" operator="in" result="effect1_backgroundBlur_531_31250"/>
<feBlend mode="normal" in="SourceGraphic" in2="effect1_backgroundBlur_531_31250" result="shape"/>
</filter>
<linearGradient id="paint0_linear_531_31250" x1="263" y1="286" x2="388.5" y2="286" gradientUnits="userSpaceOnUse">
<stop stop-color="#FF9601"/>
<stop offset="0.651042" stop-color="#FF3C43"/>
<stop offset="1" stop-color="#141416" stop-opacity="0"/>
</linearGradient>
<linearGradient id="paint1_linear_531_31250" x1="547" y1="286" x2="631" y2="286" gradientUnits="userSpaceOnUse">
<stop stop-color="#FF9601"/>
<stop offset="0.651042" stop-color="#FF3C43"/>
<stop offset="1" stop-color="#141416" stop-opacity="0"/>
</linearGradient>
<linearGradient id="paint2_linear_531_31250" x1="749" y1="286" x2="833" y2="286" gradientUnits="userSpaceOnUse">
<stop stop-color="#FF9601"/>
<stop offset="0.651042" stop-color="#FF3C43"/>
<stop offset="1" stop-color="#141416" stop-opacity="0"/>
</linearGradient>
</defs>
</svg>
