<svg width="79" height="79" viewBox="0 0 79 79" fill="none"
    xmlns="http://www.w3.org/2000/svg">
    <g filter="url(#filter0_d_1208_7095)">
        <path d="M57 39.5059C57 42.9683 55.9737 46.353 54.0508 49.2319C52.1278 52.1107 49.3947 54.3544 46.1969 55.6794C42.9992 57.0044 39.4806 57.351 36.0859 56.6755C32.6913 56.0001 29.573 54.3329 27.1256 51.8846C24.6782 49.4363 23.0115 46.3172 22.3363 42.9213C21.661 39.5255 22.0076 36.0056 23.3321 32.8068C24.6567 29.608 26.8997 26.8738 29.7775 24.9502C32.6554 23.0266 36.0388 22 39.5 22C41.7984 21.9992 44.0744 22.4514 46.1979 23.3308C48.3215 24.2103 50.251 25.4999 51.8762 27.1256C53.5014 28.7514 54.7904 30.6815 55.6695 32.8059C56.5487 34.9302 57.0008 37.2067 57 39.5059V39.5059Z" stroke="#FF2F34" stroke-width="1.5" stroke-linejoin="round"/>
        <path d="M39.5 26.3789C42.6037 26.3804 45.6064 27.4827 47.9744 29.4898C50.3424 31.4969 51.9223 34.2788 52.4334 37.3412C52.9444 40.4036 52.3535 43.548 50.7657 46.2158C49.1779 48.8835 46.696 50.9017 43.7611 51.9117C40.8262 52.9216 37.6283 52.8579 34.7359 51.7318C31.8435 50.6058 29.4439 48.4904 27.9635 45.7616C26.4831 43.0327 26.0178 39.8672 26.6504 36.8276C27.2829 33.7879 28.9723 31.0713 31.4182 29.16" stroke="#FF2F34" stroke-width="1.5" stroke-linecap="round" stroke-linejoin="round"/>
        <path d="M44.189 32.6953L34.8086 46.3104" stroke="#FF2F34" stroke-width="1.5" stroke-miterlimit="10" stroke-linecap="round"/>
        <path d="M38.0364 35.1438C38.0364 35.6003 37.9011 36.0467 37.6476 36.4263C37.3941 36.8059 37.0337 37.1015 36.6121 37.2762C36.1905 37.4509 35.7266 37.4967 35.279 37.4076C34.8315 37.3186 34.4203 37.0986 34.0976 36.7758C33.775 36.453 33.5552 36.042 33.4662 35.5943C33.3772 35.1466 33.4229 34.6824 33.5975 34.2607C33.7722 33.8389 34.0678 33.4785 34.4472 33.2248C34.8267 32.9712 35.2728 32.8359 35.7291 32.8359C36.0324 32.8351 36.3328 32.8942 36.6131 33.0099C36.8934 33.1256 37.1481 33.2955 37.3625 33.51C37.5769 33.7245 37.7468 33.9794 37.8624 34.2598C37.9781 34.5402 38.0373 34.8405 38.0364 35.1438V35.1438Z" stroke="#FF2F34" stroke-width="1.5" stroke-miterlimit="10" stroke-linecap="round"/>
        <path d="M45.5755 43.8642C45.5767 44.321 45.4425 44.7678 45.1897 45.1482C44.9369 45.5286 44.577 45.8255 44.1555 46.0012C43.734 46.1768 43.2699 46.2235 42.8219 46.1351C42.3739 46.0468 41.9622 45.8273 41.6389 45.5048C41.3156 45.1823 41.0953 44.7709 41.0057 44.323C40.9162 43.8751 40.9615 43.4109 41.1359 42.9888C41.3104 42.5667 41.6061 42.2059 41.9857 41.952C42.3652 41.6981 42.8116 41.5625 43.2682 41.5625C43.879 41.5625 44.4649 41.8047 44.8974 42.2362C45.33 42.6677 45.5738 43.2532 45.5755 43.8642V43.8642Z" stroke="#FF2F34" stroke-width="1.5" stroke-miterlimit="10" stroke-linecap="round"/>
    </g>
    <defs>
        <filter id="filter0_d_1208_7095" x="0.25" y="0.25" width="78.5" height="78.5117" filterUnits="userSpaceOnUse" color-interpolation-filters="sRGB">
            <feFlood flood-opacity="0" result="BackgroundImageFix"/>
            <feColorMatrix in="SourceAlpha" type="matrix" values="0 0 0 0 0 0 0 0 0 0 0 0 0 0 0 0 0 0 127 0" result="hardAlpha"/>
            <feOffset/>
            <feGaussianBlur stdDeviation="10.5"/>
            <feComposite in2="hardAlpha" operator="out"/>
            <feColorMatrix type="matrix" values="0 0 0 0 1 0 0 0 0 0.235294 0 0 0 0 0.262745 0 0 0 1 0"/>
            <feBlend mode="normal" in2="BackgroundImageFix" result="effect1_dropShadow_1208_7095"/>
            <feBlend mode="normal" in="SourceGraphic" in2="effect1_dropShadow_1208_7095" result="shape"/>
        </filter>
    </defs>
</svg>
