<svg width="82" height="72" viewBox="0 0 82 72" fill="none"
    xmlns="http://www.w3.org/2000/svg">
    <g filter="url(#filter0_d_1208_7096)">
        <path d="M45.4966 37.3906H36.7505C36.3209 37.3906 35.9727 37.7389 35.9727 38.1684V45.0086C35.9727 45.4381 36.3209 45.7864 36.7505 45.7864H45.4966C45.9261 45.7864 46.2744 45.4381 46.2744 45.0086V38.1684C46.2744 37.7389 45.9261 37.3906 45.4966 37.3906Z" stroke="#FF2F34" stroke-width="1.5" stroke-linecap="round" stroke-linejoin="round"/>
        <path d="M41.125 40.8203V43.2666" stroke="#FF2F34" stroke-width="1.5" stroke-miterlimit="10" stroke-linecap="round"/>
        <path d="M41.5903 40.7251C41.5903 40.8167 41.5632 40.9061 41.5123 40.9822C41.4614 41.0584 41.3891 41.1176 41.3044 41.1527C41.2198 41.1877 41.1267 41.1969 41.0368 41.1791C40.947 41.1612 40.8645 41.1171 40.7997 41.0524C40.7349 40.9876 40.6908 40.9051 40.673 40.8152C40.6551 40.7254 40.6643 40.6322 40.6993 40.5476C40.7344 40.463 40.7937 40.3906 40.8699 40.3397C40.9461 40.2889 41.0356 40.2618 41.1272 40.2618C41.1882 40.261 41.2488 40.2724 41.3054 40.2954C41.3619 40.3184 41.4133 40.3525 41.4565 40.3957C41.4996 40.4389 41.5337 40.4902 41.5567 40.5468C41.5797 40.6033 41.5911 40.664 41.5903 40.7251V40.7251Z" stroke="#FF2F34" stroke-width="1.5" stroke-miterlimit="10"/>
        <path d="M44.2429 37.497V35.9532C44.2429 35.3233 43.9927 34.7193 43.5473 34.2739C43.1019 33.8285 42.4978 33.5781 41.8679 33.5781H40.336C39.7061 33.5781 39.102 33.8285 38.6566 34.2739C38.2112 34.7193 37.9609 35.3233 37.9609 35.9532V37.497" stroke="#FF2F34" stroke-width="1.5" stroke-miterlimit="10"/>
        <path d="M24.6797 29.043H57.574" stroke="#FF2F34" stroke-width="1.5" stroke-linejoin="round"/>
        <path d="M27.4028 25.5763C27.4028 25.6679 27.3757 25.7576 27.3248 25.8337C27.2739 25.9099 27.2016 25.9692 27.1169 26.0042C27.0323 26.0393 26.9392 26.0485 26.8493 26.0306C26.7595 26.0127 26.677 25.9687 26.6122 25.9039C26.5474 25.8391 26.5033 25.7566 26.4855 25.6667C26.4676 25.5769 26.4768 25.4838 26.5118 25.3991C26.5469 25.3145 26.6062 25.2422 26.6824 25.1913C26.7586 25.1404 26.8481 25.1133 26.9397 25.1133C27.0625 25.1133 27.1803 25.1621 27.2672 25.249C27.354 25.3358 27.4028 25.4535 27.4028 25.5763V25.5763Z" stroke="#FF2F34" stroke-width="1.5" stroke-miterlimit="10"/>
        <path d="M31.3616 26.0395C31.6174 26.0395 31.8247 25.8322 31.8247 25.5764C31.8247 25.3206 31.6174 25.1133 31.3616 25.1133C31.1058 25.1133 30.8984 25.3206 30.8984 25.5764C30.8984 25.8322 31.1058 26.0395 31.3616 26.0395Z" stroke="#FF2F34" stroke-width="1.5" stroke-miterlimit="10"/>
        <path d="M35.7874 26.0395C36.0431 26.0395 36.2505 25.8322 36.2505 25.5764C36.2505 25.3206 36.0431 25.1133 35.7874 25.1133C35.5316 25.1133 35.3242 25.3206 35.3242 25.5764C35.3242 25.8322 35.5316 26.0395 35.7874 26.0395Z" stroke="#FF2F34" stroke-width="1.5" stroke-miterlimit="10"/>
        <path d="M58.1303 22H24.1197C22.949 22 22 22.949 22 24.1197V47.971C22 49.1417 22.949 50.0908 24.1197 50.0908H58.1303C59.3009 50.0908 60.25 49.1417 60.25 47.971V24.1197C60.25 22.949 59.3009 22 58.1303 22Z" stroke="#FF2F34" stroke-width="1.5" stroke-miterlimit="10"/>
    </g>
    <defs>
        <filter id="filter0_d_1208_7096" x="0.25" y="0.25" width="81.75" height="71.5898" filterUnits="userSpaceOnUse" color-interpolation-filters="sRGB">
            <feFlood flood-opacity="0" result="BackgroundImageFix"/>
            <feColorMatrix in="SourceAlpha" type="matrix" values="0 0 0 0 0 0 0 0 0 0 0 0 0 0 0 0 0 0 127 0" result="hardAlpha"/>
            <feOffset/>
            <feGaussianBlur stdDeviation="10.5"/>
            <feComposite in2="hardAlpha" operator="out"/>
            <feColorMatrix type="matrix" values="0 0 0 0 1 0 0 0 0 0.235294 0 0 0 0 0.262745 0 0 0 1 0"/>
            <feBlend mode="normal" in2="BackgroundImageFix" result="effect1_dropShadow_1208_7096"/>
            <feBlend mode="normal" in="SourceGraphic" in2="effect1_dropShadow_1208_7096" result="shape"/>
        </filter>
    </defs>
</svg>
