<svg width="133" height="132" viewBox="0 0 133 132" fill="none" xmlns="http://www.w3.org/2000/svg">
<path d="M66.3276 131.788C102.653 131.788 132.1 102.34 132.1 66.0151C132.1 29.6897 102.653 0.242187 66.3276 0.242187C30.0022 0.242187 0.554688 29.6897 0.554688 66.0151C0.554688 102.34 30.0022 131.788 66.3276 131.788Z" fill="#F73A4A"/>
<path fill-rule="evenodd" clip-rule="evenodd" d="M55.5132 4.95832C54.4798 4.11318 53.2942 4.44162 52.1406 4.51372L53.6707 4.97434L55.5132 4.95832Z" fill="#A91F3D"/>
<path fill-rule="evenodd" clip-rule="evenodd" d="M37.2165 12.6123C38.314 12.2118 39.4195 11.8313 40.0203 10.7057C40.2926 9.75645 39.9482 9.10357 39.055 8.73908L38.4541 8.70703C37.4104 9.6 36.1779 10.245 34.8493 10.5936L32.1016 12.7765C33.884 14.6511 35.5182 12.9167 37.2165 12.6123Z" fill="#A91F3D"/>
<path fill-rule="evenodd" clip-rule="evenodd" d="M130.833 70.3846C129.539 69.7998 128.971 70.5768 128.586 71.6142C128.096 72.8373 127.841 74.1418 127.833 75.4594C127.613 76.8934 127.621 78.3633 127.104 79.7452C127.24 81.2352 127.401 82.7292 126.199 83.9269C126.335 85.529 124.196 86.971 125.586 88.6733C123.619 89.234 122.165 90.3796 121.453 92.3663C121.436 92.6356 121.462 92.9059 121.529 93.1674L120.856 93.5038L121.228 95.7589C121.035 95.9783 120.82 96.1781 120.587 96.3557C120.29 96.6373 120.06 96.9823 119.914 97.365C119.674 97.8654 119.481 98.3871 119.338 98.9231C119.278 99.1474 119.213 99.3677 119.145 99.588C117.98 98.9432 116.778 98.4225 115.336 98.6588C114.135 100.013 112.933 101.358 111.695 102.664C112.993 104.583 115.436 105.332 116.558 107.435L117.211 106.982L118.993 105.099C118.993 104.791 118.961 104.487 118.949 104.182C119.002 104.152 119.057 104.126 119.113 104.102C119.155 104.023 119.181 103.936 119.189 103.847C119.198 103.757 119.188 103.667 119.161 103.581C119.415 103.615 119.671 103.626 119.926 103.613C120.151 103.285 120.399 102.969 120.659 102.656C120.736 102.481 120.822 102.31 120.916 102.143C121.432 101.23 122.117 100.421 122.63 99.5159C122.802 98.7607 123.21 98.0801 123.796 97.5733C123.796 97.2369 123.796 96.9004 123.776 96.5599C124.176 96.0072 124.673 95.5145 124.577 94.7495C125.222 94.5572 125.073 93.9965 125.137 93.5479C126.275 92.5786 126.451 91.1086 127.052 89.8629L126.92 88.9937C126.986 88.9736 127.05 88.9481 127.112 88.9176C127.809 88.4249 127.761 87.5918 128.029 86.9149C128.089 85.9616 128.029 84.9723 128.754 84.1992C128.935 84.2123 129.117 84.1864 129.287 84.1231C129.277 83.9898 129.277 83.8559 129.287 83.7226C129.724 83.1498 129.812 82.3888 130.116 81.7479C130.193 81.4868 130.241 81.2183 130.26 80.9468C130.152 80.2675 130.152 79.5754 130.26 78.8961L130.509 78.7158C130.46 78.6473 130.441 78.5624 130.456 78.4798C130.47 78.3972 130.516 78.3236 130.585 78.2752L130.657 74.6303V74.6583C131.045 73.2244 131.614 71.8265 130.833 70.3846ZM122.766 95.0419C122.766 95.102 122.738 95.1621 122.722 95.2221C122.75 95.082 122.75 94.9377 122.722 94.7975L122.918 94.8977C122.861 94.9386 122.81 94.9871 122.766 95.0419Z" fill="#A91F3D"/>
<path fill-rule="evenodd" clip-rule="evenodd" d="M106.954 16.4814C105.849 15.4079 104.691 14.4266 103.129 14.0781C103.93 15.1035 104.771 16.1289 105.588 17.1583L106.954 16.4814Z" fill="#A91F3D"/>
<path fill-rule="evenodd" clip-rule="evenodd" d="M101.939 14.7492L102.772 14.0483C102.711 13.8674 102.637 13.6907 102.552 13.5196L100.701 12.4141C100.177 12.8987 99.1834 12.9668 99.2755 14.0162C99.9124 15.1498 100.725 15.6584 101.939 14.7492Z" fill="#A91F3D"/>
<path fill-rule="evenodd" clip-rule="evenodd" d="M117.122 26.9426L116.321 25.2323L115.359 24.5273C115.351 25.761 115.728 26.7263 117.122 26.9426Z" fill="#A91F3D"/>
<path fill-rule="evenodd" clip-rule="evenodd" d="M86.2994 7.64403C87.0444 7.90037 87.7373 7.45978 88.4663 7.50384L89.1993 7.3316C87.5691 5.46508 85.1939 5.43304 83.043 4.82422L83.5597 5.6253C83.9802 6.9551 85.2019 7.21945 86.2994 7.64403Z" fill="#A91F3D"/>
<path fill-rule="evenodd" clip-rule="evenodd" d="M76.2763 129.529C75.4112 129.557 74.522 129.505 73.821 130.166C73.7169 130.763 73.8451 131.099 74.538 130.831C77.4765 130.996 80.4019 130.328 82.9774 128.904L81.7758 127.73C79.8412 128.015 77.7984 127.979 76.2763 129.529Z" fill="#A91F3D"/>
<path fill-rule="evenodd" clip-rule="evenodd" d="M55.5115 129.519L54.2578 130.24C54.382 130.585 54.5702 130.781 54.9548 130.553L57.7305 129.844C57.0216 129.135 56.2605 129.303 55.5115 129.519Z" fill="#A91F3D"/>
<path fill-rule="evenodd" clip-rule="evenodd" d="M42.7812 123.406L43.8948 124.039C44.3621 124.291 44.8862 124.421 45.4175 124.414C45.9487 124.408 46.4696 124.266 46.9309 124.003C46.7386 123.803 46.5303 123.602 46.3461 123.406C45.1605 123.041 43.9709 121.051 42.7812 123.406Z" fill="#A91F3D"/>
<path fill-rule="evenodd" clip-rule="evenodd" d="M126.96 45.8766C127.144 43.7618 126.411 41.9433 125.165 40.2891C124.737 42.48 125.105 44.4186 126.96 45.8766Z" fill="#A91F3D"/>
<path fill-rule="evenodd" clip-rule="evenodd" d="M121.553 33.0307C121.15 32.4112 120.749 31.7877 120.352 31.1602C119.819 31.769 120.235 32.4179 120.263 33.0507L121.553 33.0307Z" fill="#A91F3D"/>
<path fill-rule="evenodd" clip-rule="evenodd" d="M111.104 111.279C109.958 111.279 109.55 112.14 109.101 112.953C108.905 114.058 108.989 114.876 110.459 114.287L111.66 113.594L113.455 111.827C113.695 111.245 113.933 110.664 114.168 110.085C112.63 109.136 112.389 111.559 111.104 111.279Z" fill="#A91F3D"/>
<path fill-rule="evenodd" clip-rule="evenodd" d="M107.051 113.014C106.441 113.179 105.903 113.541 105.521 114.044C104.72 114.869 103.875 115.646 103.013 116.395C102.768 116.545 102.552 116.74 102.377 116.968C102.2 117.214 102.091 117.502 102.06 117.803C102.029 118.105 102.077 118.409 102.2 118.686C102.462 119.056 102.84 119.329 103.274 119.459L104.379 119.291L108.701 115.65C109.13 114.849 109.17 114.048 108.481 113.335C108.06 113.054 107.551 112.94 107.051 113.014Z" fill="#A91F3D"/>
<path fill-rule="evenodd" clip-rule="evenodd" d="M11.6977 36.7485C12.1229 36.0671 12.6653 35.4664 13.2998 34.9741C13.6724 34.5054 13.8085 33.9126 14.137 33.42C14.6937 31.6055 16.1076 30.3278 17.0769 28.7777C17.169 28.8427 17.2669 28.899 17.3693 28.9459C17.5874 28.9455 17.7973 28.8628 17.957 28.7142C18.1167 28.5657 18.2144 28.3623 18.2305 28.1448C18.2305 27.9446 18.2425 27.7443 18.2666 27.544L17.6497 26.9392C17.6497 26.5387 17.6497 26.1381 17.6497 25.7656C16.4481 25.8938 16.2118 27.2396 15.2465 27.6802C13.4561 30.9326 10.7484 33.6403 9.55078 37.2451C10.5081 38.1103 11.213 37.6697 11.6977 36.7485Z" fill="#A91F3D"/>
<path fill-rule="evenodd" clip-rule="evenodd" d="M7.30357 44.0571C7.70411 42.3307 9.16608 40.9769 9.03791 39.0703C7.1834 40.9849 6.27417 43.3761 5.61328 45.8795H6.5906C7.41972 45.499 7.68007 44.9022 7.30357 44.0571Z" fill="#A91F3D"/>
<path fill-rule="evenodd" clip-rule="evenodd" d="M130.62 68.4865C130.804 68.4865 130.988 68.4865 131.172 68.4865C131.172 67.4611 131.172 66.4397 131.192 65.4183C130.548 63.9844 131.301 62.3982 130.704 60.9603L130.087 60.3555C130.155 63.0671 129.518 65.8349 130.62 68.4865Z" fill="#A91F3D"/>
<path fill-rule="evenodd" clip-rule="evenodd" d="M128.029 54.9288L127.885 55.049C126.988 56.563 128.189 57.5563 128.794 58.6939L130.172 59.3748C130.524 59.2747 130.697 59.0744 130.544 58.6979C130.312 56.8594 130.673 54.8968 129.387 53.2866C128.382 52.6337 129.423 51.1317 128.249 50.5469C128.217 50.8232 128.185 51.0996 128.157 51.372C127.008 52.5696 126.367 53.7592 128.029 54.9288Z" fill="#A91F3D"/>
<path fill-rule="evenodd" clip-rule="evenodd" d="M121.465 42.2152C120.628 42.3034 120.592 42.792 120.852 43.4169C119.763 46.2207 121.185 48.7681 123.904 48.9123V45.8562C123.702 45.2447 123.496 44.6345 123.288 44.0257C122.884 43.2385 122.242 42.5991 121.453 42.1992L121.465 42.2152Z" fill="#A91F3D"/>
<path fill-rule="evenodd" clip-rule="evenodd" d="M76.285 16.5434C77.5067 16.243 78.7283 15.2457 79.9379 16.5434C81.2237 17.701 82.6015 18.2457 84.2157 17.1602C85.9501 17.1602 86.0702 15.9586 86.0782 14.6809C86.0782 14.4886 86.0582 14.2803 86.0542 14.1081L86.5949 12.9065L85.9941 12.3337C85.7453 11.936 85.3804 11.6242 84.9487 11.4405C84.6242 11.4448 84.3015 11.3919 83.9954 11.2843C83.6467 10.6643 83.4892 9.9549 83.5428 9.24554C83.3546 9.24554 83.1703 9.24554 82.9861 9.2175C81.0474 8.84099 79.1969 6.9945 77.1382 8.89707C77.0941 9.05728 77.0621 9.2135 77.03 9.36971L75.6602 9.8063C75.8711 12.06 76.0794 14.3057 76.285 16.5434Z" fill="#A91F3D"/>
<path fill-rule="evenodd" clip-rule="evenodd" d="M77.4736 118.798C77.5139 118.485 77.6562 118.195 77.8785 117.971C78.1008 117.747 78.3907 117.603 78.7032 117.561C79.9703 116.884 81.0399 115.891 81.8074 114.677C82.2681 113.475 81.2547 112.185 82.0518 111.02C82.1759 110.403 82.212 109.798 81.7834 109.265C81.5498 109.048 81.2665 108.891 80.9583 108.809C79.6735 108.571 78.3463 108.83 77.2453 109.534C76.8996 109.777 76.6591 110.142 76.5724 110.555C76.4719 110.48 76.3647 110.414 76.2519 110.359V110.231C75.1625 109.502 75.0783 108.208 74.5256 107.183C74.4687 107.094 74.4058 107.01 74.3373 106.93C74.5771 106.77 74.7829 106.564 74.9431 106.324C75.1032 106.084 75.2145 105.815 75.2706 105.532C75.3195 105.226 75.2934 104.913 75.1945 104.619C75.0427 104.346 74.8144 104.123 74.5376 103.978C72.571 103.502 70.5642 103.437 68.5696 103.253C66.1022 103.029 64.1356 104.591 61.8164 104.291H61.7243C62.0728 103.658 62.8258 103.329 63.3946 102.861L63.3465 102.436C62.9179 101.635 62.6415 100.71 62.1208 99.9808C62.99 99.8486 63.9153 99.2478 64.6322 100.349C64.8038 100.476 65.0079 100.551 65.2208 100.566C65.4336 100.581 65.6463 100.535 65.8338 100.433C67.6643 100.225 67.9407 101.996 68.922 102.865C69.9634 102.817 71.0609 103.065 71.9541 102.264C71.2091 101.03 72.2625 99.8126 71.9902 98.5829H73.8126C74.7579 96.8325 74.3413 94.926 74.4375 93.0755C74.5233 92.9596 74.5697 92.8192 74.5697 92.6749C74.5697 92.5307 74.5233 92.3903 74.4375 92.2744C74.1901 92.0956 73.9027 91.9801 73.6003 91.9379C73.1123 91.9537 72.6427 92.1281 72.2625 92.4346C71.6737 91.7457 70.7285 92.1342 69.8913 92.1943C68.783 92.4344 67.8044 93.0801 67.1476 94.0047C66.3986 93.2557 65.233 93.2717 64.46 92.5748C63.5347 91.7457 62.5254 91.5054 61.3878 92.1342C61.137 92.3243 60.9352 92.5714 60.7991 92.8552C60.2223 94.6136 61.532 96.392 60.739 98.1423C60.8289 98.4563 60.9359 98.7652 61.0594 99.0676C60.898 98.9868 60.7306 98.9185 60.5587 98.8633C60.3007 98.8593 60.0463 98.9243 59.8217 99.0515C59.6239 98.9451 59.4548 98.7921 59.3292 98.6058C59.2036 98.4195 59.1252 98.2054 59.1007 97.9821C58.3758 96.5361 57.6548 96.3519 56.9298 97.4654C56.8577 97.4053 56.7936 97.3452 56.7296 97.2812C56.1965 97.1111 55.6251 97.1027 55.0873 97.2571C55.4598 96.2918 55.7082 95.2784 54.4825 94.8058C53.0205 94.2451 53.1167 95.7992 52.9564 96.7524C52.0672 97.3893 50.9738 97.898 50.9858 99.0716C49.8683 98.627 48.923 98.4507 49.2875 100.421L51.1059 101.667L51.6227 103.165C50.2047 102.008 48.6987 101.355 46.7601 101.847C45.23 102.248 43.7961 101.599 42.4503 100.874C42.0727 100.748 41.6719 100.707 41.2767 100.754C41.0886 100.382 40.8364 100.045 40.5317 99.7605L40.5036 99.7365C40.5657 99.4731 40.5657 99.1988 40.5036 98.9354C39.8708 97.4093 38.9015 97.1049 37.6998 97.6176C38.1004 97.177 38.1484 96.6924 37.6277 96.1396H34.5676C31.9721 94.7297 29.8733 95.3025 28.0708 97.0488C27.7372 96.9009 27.43 96.6993 27.1616 96.452C26.8091 96.0755 26.721 95.5428 26.4166 95.1423C26.2532 94.9214 26.0542 94.7292 25.8278 94.5735C25.6409 94.343 25.4036 94.1585 25.1341 94.0342C24.8647 93.9099 24.5703 93.8491 24.2737 93.8565C24.1122 93.9053 23.9554 93.9683 23.8051 94.0448C23.8069 94.0248 23.8069 94.0047 23.8051 93.9847C23.3004 91.7777 23.1722 90.6202 23.8051 89.9793C23.7676 90.0953 23.7561 90.218 23.7713 90.3389C23.7864 90.4598 23.828 90.576 23.8929 90.6791C23.9578 90.7822 24.0446 90.8698 24.1471 90.9358C24.2495 91.0017 24.3652 91.0444 24.486 91.0607C25.1549 91.1889 25.6876 90.9806 25.7517 90.2116C25.7694 90.0386 25.7373 89.8642 25.6593 89.7088C25.5812 89.5534 25.4604 89.4235 25.3111 89.3344C26.0008 89.2182 26.696 89.1367 27.3939 89.0901H27.6863C28.5274 90.8044 29.2404 92.6309 31.5115 93.0955C33.8867 94.197 36.4101 93.5241 38.8614 93.7083L39.4782 94.3292C39.6751 94.5604 39.9375 94.7263 40.2308 94.805C40.5241 94.8837 40.8343 94.8714 41.1205 94.7698C41.3255 94.6613 41.5045 94.5096 41.6452 94.3252H41.9295C43.4035 94.3973 45.2941 97.0729 46.1993 93.6322C46.1493 93.3049 46.0108 92.9974 45.7988 92.743L45.4343 92.5588C45.3408 92.3963 45.2152 92.2546 45.065 92.1423C44.9149 92.03 44.7434 91.9496 44.5611 91.9059C44.6859 91.6355 44.74 91.3378 44.7183 91.0407C44.6966 90.7437 44.5998 90.457 44.4369 90.2076C42.3982 88.8858 41.7693 87.4759 43.3435 85.1568C44.0724 84.0833 45.1058 83.0059 45.3462 81.596C45.3367 81.512 45.3206 81.429 45.2981 81.3476C45.5685 81.0012 45.7387 80.5873 45.7903 80.1508C45.8418 79.7144 45.7727 79.2722 45.5905 78.8723C44.6853 76.7254 45.6506 75.2193 47.2127 73.8936C47.9657 72.015 49.1112 70.4849 51.0138 69.6358C51.4566 69.5098 51.877 69.3152 52.2595 69.059C52.6304 68.7117 52.8504 68.2329 52.8723 67.7252C52.8791 67.29 52.7785 66.8598 52.5794 66.4728C52.3803 66.0857 52.0888 65.7538 51.7308 65.5062C51.7308 64.7051 51.7308 63.904 51.7308 63.103C51.154 62.0095 50.5852 60.8519 49.0432 61.1804C47.7294 61.4608 46.9163 62.2779 46.8442 63.6918L44.2967 64.641C44.1947 64.6288 44.0913 64.6426 43.996 64.6811C43.9008 64.7196 43.8168 64.7816 43.752 64.8613H43.6078C43.6078 64.8173 43.6078 64.7732 43.6078 64.7292C42.9149 63.5996 43.3595 62.2138 42.7707 61.0642C42.1899 60.2631 41.6932 59.406 41.0604 58.661C40.9362 58.5874 40.801 58.5347 40.6598 58.5047C41.525 57.5755 41.9976 56.502 41.1164 55.2804C39.8427 53.538 38.4528 54.8037 37.1471 55.4767C36.9668 55.567 36.7775 55.6381 36.5823 55.6889H35.2605C34.665 55.503 34.1084 55.2098 33.6183 54.8238C33.3143 54.6924 32.991 54.6112 32.661 54.5835C33.1256 53.9586 33.0255 53.1896 32.8333 52.3925C32.6971 52.0929 32.4843 51.8345 32.2164 51.6435C30.2137 50.9545 28.8439 52.4886 27.1896 53.0294C26.9399 53.1737 26.7197 53.3639 26.5408 53.5901C26.3325 54.283 25.6516 54.5794 25.1789 55.0521C24.522 54.7116 23.737 54.6075 23.2323 53.9866C22.6675 53.3418 22.0667 52.785 21.1214 53.2897C21.1179 53.4732 21.1045 53.6564 21.0814 53.8384L20.4685 55.0601C20.4685 55.4606 20.4685 55.8612 20.4886 56.2938C20.2856 57.928 20.08 59.5635 19.8717 61.2004C19.8717 61.4087 19.8717 61.6009 19.8998 61.8252C19.8998 62.2258 19.8717 62.6263 19.8597 63.0269C19.6554 63.2271 19.4592 63.4274 19.2429 63.6357C18.3977 64.2846 18.2255 65.4301 17.4244 66.115L16.8116 66.7319L16.7635 67.9335C16.335 68.7706 16.8717 69.2873 17.3884 69.808L17.4485 71.0096C18.077 70.9955 18.692 71.193 19.1948 71.5704C19.5729 72.8435 19.7843 74.1603 19.8237 75.4877C19.8878 75.696 19.9599 75.8883 20.032 76.1005C19.8117 76.8656 20.1882 77.6306 20.4926 78.3956C20.6563 78.7106 20.8891 78.9844 21.1735 79.1967C21.2496 79.4571 21.3217 79.7174 21.3738 79.9978C21.393 80.1128 21.4239 80.2255 21.4659 80.3342C19.9318 80.5866 18.3216 81.4758 17.0159 79.6974C16.8298 79.4026 16.5845 79.1497 16.2957 78.9546C16.0068 78.7594 15.6806 78.6264 15.3376 78.5639C15.9865 77.5705 15.5098 76.6693 14.6487 75.8762C13.8476 75.1432 13.3549 74.3502 13.4471 73.2487C13.427 72.788 13.427 72.3194 13.423 71.8548C13.6714 69.9002 12.5859 68.5063 11.212 67.4488C10.0104 66.5276 8.90893 66.7118 8.83683 68.5904C9.08516 70.0363 7.19461 70.7613 7.59916 72.2593L6.99434 73.497H6.3775C6.16817 73.066 5.84203 72.7024 5.43623 72.4476V72.3314C5.4503 71.8539 5.40592 71.3763 5.30405 70.9095C5.0829 70.4715 4.81426 70.0591 4.50297 69.6799C3.16516 67.9415 2.9649 67.6771 2.22389 68.2299C2.22389 68.1338 2.19585 68.0376 2.17582 67.9455C3.37745 66.5917 4.29069 65.2138 2.48024 63.6477C2.33119 63.5715 2.16315 63.5404 1.99669 63.5581C1.83023 63.5759 1.67256 63.6418 1.54297 63.7478L1.57902 70.3528C1.75259 72.4196 1.92615 74.4863 2.09972 76.5531L2.64045 77.2741C2.68318 78.0351 2.72857 78.7962 2.77664 79.5572L3.35342 83.2021C3.51764 83.2582 3.68186 83.3103 3.85009 83.3583C3.89816 83.8831 3.94221 84.4038 3.99028 84.9245C4.16794 84.9705 4.35203 84.9868 4.53501 84.9725C5.15986 86.3824 4.56305 88.1368 5.78871 89.3785C5.80874 89.5787 5.82476 89.779 5.84078 89.9833C6.08002 91.1464 6.62473 92.2248 7.41891 93.1075C7.55776 93.1639 7.6735 93.2655 7.74736 93.3959L7.41891 93.1075C7.63575 94.2159 8.09838 95.2616 8.77274 96.1676C8.90317 96.8899 9.28309 97.5434 9.84619 98.0141C9.85786 98.2164 9.92737 98.411 10.0465 98.5749C10.6473 99.8059 11.2494 101.033 11.8529 102.256C12.8823 103.349 12.9023 105.188 14.5045 105.861C14.8289 107.062 15.3456 108.096 16.6954 108.42L17.4204 109.558C17.6167 109.594 17.821 109.626 18.0012 109.674C17.7969 109.626 18.7062 111.528 18.8944 111.713C19.5231 112.363 20.2357 112.926 21.0133 113.387C21.2376 112.735 21.4632 112.085 21.6902 111.436L22.299 111.456C22.4404 111.995 22.717 112.489 23.1024 112.891C23.4879 113.294 23.9696 113.591 24.502 113.755C27.6422 114.661 30.8025 115.49 33.9508 116.347C34.828 117.148 35.7572 117.416 36.7986 116.647C36.8426 116.537 36.88 116.425 36.9108 116.311L37.0069 116.359C37.3233 117.681 38.541 118.101 39.4662 118.814H41.9095C43.3795 119.92 45.0778 120.068 46.8322 119.992C49.3356 121.27 52.1554 120.208 54.7629 121.029C55.3357 121.209 56.9939 121.081 56.6374 119.427C56.4082 119.184 56.2352 118.894 56.1307 118.577C56.0261 118.26 55.9927 117.924 56.0326 117.593H56.329H56.6294C57.3023 117.593 57.9552 117.685 58.4679 118.193L59.9179 118.089C59.4052 115.77 61.7643 114.617 62.1409 112.658C62.277 112.021 62.8018 111.492 62.7096 110.787C63.9793 110.787 65.2891 111.068 66.4427 110.215L67.0435 111.416C67.444 111.817 67.8446 112.217 68.2772 112.618C68.7218 113.331 69.5469 112.91 70.1196 113.239C70.1196 113.579 70.1196 113.924 70.1196 114.264C69.9475 114.254 69.7752 114.281 69.6138 114.341C69.4524 114.402 69.3054 114.496 69.1824 114.617C68.2892 117.613 68.9581 118.742 71.8099 119.059C72.4828 119.131 73.2038 118.87 73.8126 119.363C75.0663 119.427 76.34 119.447 77.4736 118.798ZM9.29745 94.3933L9.42963 94.3612C9.45867 94.6096 9.58375 94.8367 9.7781 94.9941C9.67764 95.0596 9.58374 95.1347 9.49772 95.2184C9.52914 95.0747 9.52744 94.9257 9.49274 94.7827C9.45804 94.6398 9.39125 94.5066 9.29745 94.3933V94.3933ZM36.1337 82.8376C36.2909 82.8082 36.4433 82.7569 36.5863 82.6854C36.4852 82.9626 36.4413 83.2574 36.4571 83.552C36.473 83.8466 36.5482 84.135 36.6784 84.3998C36.4358 83.9462 36.1281 83.5306 35.7652 83.1661C35.8753 83.0501 35.993 82.9417 36.1177 82.8416L36.1337 82.8376ZM41.7493 67.9615C41.5809 67.9251 41.4074 67.9183 41.2366 67.9415C41.3181 67.7402 41.4317 67.5536 41.5731 67.3888C41.5934 67.5874 41.6476 67.7811 41.7333 67.9615H41.7493ZM30.4701 112.45V112.43V112.45Z" fill="#A91F3D"/>
<path fill-rule="evenodd" clip-rule="evenodd" d="M65.3203 127.922C66.55 128.019 67.1308 127.991 67.5193 127.382C66.7262 126.925 66.1975 127.061 65.3203 127.922Z" fill="#A91F3D"/>
<path fill-rule="evenodd" clip-rule="evenodd" d="M102.53 97.79C102.795 95.1424 105.038 95.2706 106.808 94.7378C107.737 95.563 108.811 96.304 108.639 97.79H110.473C113.173 99.0597 113.818 98.7513 114.118 95.8874C114.238 94.7378 114.459 93.7004 115.356 92.9034H116.557C117.759 91.2011 116.505 89.9714 115.26 90.3239C111.655 91.3332 109.252 89.9954 107.153 87.3799C107.105 87.3238 106.96 87.3479 106.868 87.3398C105.226 87.456 104.645 88.4213 104.777 89.9594C104.865 90.0881 104.946 90.2219 105.018 90.3599C103.768 89.8993 103.436 88.0608 101.902 88.0248H100.091C99.8853 88.1798 99.7377 88.3998 99.6723 88.6491C99.6069 88.8984 99.6274 89.1625 99.7307 89.3986C99.7507 89.4267 99.9109 89.687 99.9109 89.687C99.8999 89.6983 99.8937 89.7133 99.8937 89.7291C99.8937 89.7448 99.8999 89.7599 99.9109 89.7711C99.8721 89.7036 99.8103 89.6522 99.7367 89.6265C99.6632 89.6007 99.5828 89.6023 99.5104 89.6309C99.2714 89.7205 99.0592 89.8694 98.8935 90.0635C98.7265 90.2973 98.6367 90.5773 98.6367 90.8646C98.6367 91.1519 98.7265 91.432 98.8935 91.6657C98.9977 93.6884 98.5491 95.7672 99.238 97.7219C99.9269 99.6765 100.944 100.706 102.554 98.3868C102.526 98.1985 102.53 97.9942 102.53 97.79Z" fill="#A91F3D"/>
<path fill-rule="evenodd" clip-rule="evenodd" d="M103.762 100.226C104.294 100.194 104.935 100.675 105.316 99.9697C105.384 99.8375 105.136 99.3529 104.955 99.3008C104.194 99.0765 103.942 99.6332 103.762 100.226Z" fill="#A91F3D"/>
<path fill-rule="evenodd" clip-rule="evenodd" d="M90.9323 26.3353C91.0365 27.5369 90.3075 28.4461 89.7067 29.3874C89.947 30.2726 90.648 30.6411 91.425 30.9255C91.5116 30.9209 91.5975 30.9075 91.6814 30.8854C91.6277 31.0476 91.5941 31.2158 91.5812 31.3861C92.2461 33.4369 93.4157 34.8908 95.7829 34.9189C97.5213 33.7493 99.2396 33.8414 100.938 34.979C101.242 35.0146 101.551 34.9693 101.832 34.8476C102.113 34.7259 102.358 34.5322 102.54 34.286H104.375C104.375 33.0844 104.375 31.8467 104.375 30.6251C104.166 30.2245 103.974 29.824 103.758 29.4235C102.268 28.7706 101.667 27.2766 100.93 26.0469C100.369 25.1176 100.385 23.868 98.8711 23.924L98.2623 23.3112C98.6628 22.5542 99.4439 21.8813 98.8711 20.8759H97.0526C95.4505 18.8291 94.5733 21.0521 93.3997 21.5088C93.3997 21.705 93.3757 21.9093 93.3676 22.0976V22.1176V22.0976C91.5652 21.9814 90.3516 23.0468 88.7734 24.2405C90.0592 24.633 90.8162 25.2258 90.9323 26.3353Z" fill="#A91F3D"/>
<path fill-rule="evenodd" clip-rule="evenodd" d="M94.5943 101.453C93.9173 102.138 93.2124 102.767 92.151 102.655C92.095 102.602 92.0264 102.565 91.9518 102.547C91.8773 102.529 91.7993 102.531 91.7256 102.552C91.6518 102.573 91.5847 102.612 91.5308 102.667C91.4769 102.721 91.438 102.789 91.418 102.863C92.6997 104.982 94.2818 103.88 95.8239 103.264C95.8239 103.063 95.8239 102.863 95.8239 102.663C95.7818 102.353 95.6382 102.067 95.4156 101.848C95.1931 101.629 94.9042 101.49 94.5943 101.453V101.453Z" fill="#A91F3D"/>
<path fill-rule="evenodd" clip-rule="evenodd" d="M21.9036 44.6486C21.503 44.1519 21.3588 42.9142 20.5337 43.4469C19.7086 43.9797 20.1011 45.0731 20.6899 45.8502L21.9036 44.6486Z" fill="#A91F3D"/>
<path fill-rule="evenodd" clip-rule="evenodd" d="M82.1562 106.167H85.0442C84.1069 106.007 83.1496 105.27 82.1562 106.167Z" fill="#A91F3D"/>
<path fill-rule="evenodd" clip-rule="evenodd" d="M93.3485 92.8877C93.4967 91.8143 92.8358 91.3537 91.9586 91.0613C91.6958 91.0322 91.4299 91.0616 91.1799 91.1475C90.9299 91.2334 90.702 91.3735 90.5126 91.5579C90.4526 91.598 90.3965 91.642 90.3404 91.6861H88.4859L86.6554 91.0733C85.8103 90.5686 85.3457 91.2215 84.8209 91.6821L82.3816 92.2949C82.618 93.7128 80.411 95.4993 82.9905 96.5687C83.2508 98.5354 84.4124 99.8572 86.0426 100.842H89.6955C89.6955 99.8892 89.6955 98.9359 89.6955 97.9826C90.8691 98.5514 91.0974 97.3898 91.522 96.5807C92.1989 95.3711 92.267 93.8811 93.3485 92.8877ZM86.4952 96.5847C86.1974 96.7499 85.8797 96.8764 85.5499 96.9612C85.3645 97.0244 85.1901 97.1163 85.0332 97.2336C85.0633 97.1018 85.0633 96.9649 85.0332 96.8331V96.8331C85.8063 96.3003 86.1227 96.1722 86.4952 96.5847V96.5847Z" fill="#A91F3D"/>
<path fill-rule="evenodd" clip-rule="evenodd" d="M24.3496 48.9414C23.9663 48.9572 23.5947 49.0774 23.2748 49.2892C22.955 49.501 22.6992 49.7963 22.5352 50.143V50.7358C24.2695 51.2565 24.4578 50.2512 24.3496 48.9414Z" fill="#A91F3D"/>
<path fill-rule="evenodd" clip-rule="evenodd" d="M76.2501 100.249C77.2795 101.154 78.3049 101.162 79.3303 100.249L81.1448 99.624C82.1541 97.8696 81.1448 97.1807 79.6227 97.0285C78.5227 96.8743 77.4017 97.0412 76.3943 97.5091C75.5332 97.9457 74.8563 98.5025 75.0485 99.616C75.4571 99.8242 75.8536 100.041 76.2501 100.249Z" fill="#A91F3D"/>
<path fill-rule="evenodd" clip-rule="evenodd" d="M100.915 54.6262C100.515 55.9279 101.352 56.6609 102.277 57.3218C102.357 57.3819 102.445 57.4259 102.529 57.478H103.134C104.011 55.9199 103.034 55.0748 101.893 54.3137C101.812 54.2533 101.719 54.2131 101.62 54.1963C101.521 54.1796 101.419 54.1868 101.323 54.2174C101.227 54.248 101.14 54.301 101.069 54.3722C100.999 54.4433 100.946 54.5304 100.915 54.6262Z" fill="#A91F3D"/>
<path fill-rule="evenodd" clip-rule="evenodd" d="M99.3027 56.3092C99.3189 56.1831 99.31 56.0551 99.2764 55.9325C99.2428 55.8099 99.1852 55.6951 99.107 55.5949C99.0288 55.4947 98.9314 55.411 98.8206 55.3487C98.7098 55.2863 98.5878 55.2466 98.4615 55.2317C97.7806 55.1356 97.2599 55.448 97.2279 56.2051C97.2141 56.4802 97.3101 56.7495 97.4949 56.9539C97.6797 57.1582 97.9381 57.2807 98.2132 57.2945C98.4883 57.3083 98.7577 57.2123 98.962 57.0275C99.1663 56.8427 99.2889 56.5843 99.3027 56.3092V56.3092Z" fill="#A91F3D"/>
<path fill-rule="evenodd" clip-rule="evenodd" d="M46.3964 49.017C48.0947 50.9596 49.9332 50.2947 51.7797 49.3975C51.7797 50.1225 52.3204 50.4429 53.0614 50.5991C53.0614 51.0597 53.0614 51.5164 53.0614 51.981H53.6582C54.6356 52.6018 55.6129 52.8942 56.5862 52.0891L56.3299 52.3335C55.6489 54.4804 56.6383 55.3776 58.685 55.3736C59.6904 55.3736 60.6877 55.4857 61.7011 55.4857C62.6824 55.2454 62.9027 54.4964 62.9588 53.6352C63.0189 52.694 63.4715 52.3375 64.3647 52.738C65.1097 53.0705 65.6024 53.5391 64.8854 54.3402C64.5522 54.6815 64.3678 55.1409 64.3727 55.6179H64.1805C64.0713 55.5452 63.9431 55.5065 63.812 55.5065C63.6808 55.5065 63.5526 55.5452 63.4435 55.6179C63.219 55.8267 62.9406 55.9685 62.6398 56.0272C62.3389 56.086 62.0277 56.0593 61.7412 55.9504C59.7385 55.2654 59.3379 56.0345 59.6263 57.5125C59.2123 57.5561 58.8281 57.7482 58.5448 58.0532L57.928 58.658C57.4392 60.2516 57.4392 61.9551 57.928 63.5486C58.5408 63.7088 59.9027 63.4805 58.5849 64.6942C57.9949 65.1804 57.3697 65.6222 56.7144 66.016C56.6291 66.0911 56.5609 66.1836 56.5141 66.2872C56.4673 66.3908 56.4432 66.5031 56.4432 66.6168C56.4432 66.7304 56.4673 66.8428 56.5141 66.9464C56.5609 67.05 56.6291 67.1424 56.7144 67.2176L56.1056 68.4392C54.6556 67.7543 53.8505 68.255 53.7023 69.8091C53.6222 70.7744 53.6662 71.7517 53.6542 72.725C55.0481 72.8692 56.4901 72.9013 57.3272 74.3272C58.7571 75.0842 59.2458 77.5636 61.585 76.6463V76.8065C61.4087 76.9467 61.2685 77.0909 61.3406 77.2712C61.5689 78.2605 61.9815 79.0055 63.0349 78.9014C63.0139 79.1492 63.0438 79.3986 63.123 79.6344C63.7098 80.3064 64.0663 81.1485 64.1404 82.0376C63.8187 82.1409 63.5262 82.3194 63.2873 82.5583C63.5796 81.7052 63.7639 80.856 62.8547 80.091C61.4287 77.6677 60.0068 79.7105 58.5809 80.091C57.7798 81.1084 57.7798 82.1297 58.5809 83.1471C58.6079 83.6252 58.8105 84.0764 59.1498 84.4142C59.4891 84.7521 59.9412 84.9527 60.4194 84.9776H61.621C63.1711 85.1739 64.4248 84.7693 65.1658 83.3754C65.3434 83.4398 65.5298 83.4762 65.7185 83.4836C68.6145 82.5944 68.5744 80.5796 67.7212 78.2525C67.6221 78.1867 67.5408 78.0975 67.4845 77.9926C67.4282 77.8878 67.3988 77.7707 67.3988 77.6517C67.3988 77.5327 67.4282 77.4156 67.4845 77.3108C67.5408 77.2059 67.6221 77.1166 67.7212 77.0509C68.0014 76.7291 68.1662 76.3232 68.1899 75.8973C68.1202 75.7976 68.0599 75.6917 68.0096 75.5809C68.8988 74.8319 69.8601 74.0949 68.4582 72.8852C68.5061 72.7035 68.5303 72.5164 68.5303 72.3285C67.6572 70.7624 65.9909 71.4233 64.7172 70.9747C64.4174 70.9722 64.1226 71.0512 63.864 71.203C63.5596 70.2697 62.6624 70.0534 61.9254 69.6849C62.4661 68.5914 62.9107 67.494 61.9534 66.3965C62.3134 66.1093 62.6375 65.7798 62.9188 65.4152C63.5276 64.3057 65.0216 64.0934 65.5022 62.8557C65.5147 62.7131 65.5025 62.5695 65.4662 62.4311C67.0684 62.7275 67.0123 61.9224 66.6318 60.893C66.8018 61.0124 66.9916 61.1006 67.1925 61.1534C68.7947 61.2695 69.5117 60.4244 69.8641 58.9344C70.2166 57.4444 69.9923 55.9504 69.8641 54.4563C70.0724 51.3722 68.987 48.993 66.1271 47.5871C65.5168 47.4556 64.8866 47.4461 64.2726 47.559C64.0581 47.6499 63.8529 47.7612 63.6598 47.8915C64.0148 47.5593 64.3233 47.1807 64.577 46.7659H64.8093C65.0793 46.6931 65.3305 46.5633 65.5463 46.3854C65.956 46.1084 66.302 45.7472 66.561 45.3259C66.82 44.9045 66.9862 44.4328 67.0483 43.9421C67.0412 43.8058 67.0156 43.671 66.9722 43.5416C67.6892 43.6297 68.3942 43.83 69.1191 43.858C68.8162 44.2935 68.6502 44.8096 68.6425 45.34C68.5744 48.5724 69.043 49.1131 72.6078 49.8782C73.4034 49.9724 74.188 50.1428 74.951 50.3868L75.1273 50.4109C75.4517 51.1158 76.4851 51.1078 77.0619 51.5604C79.5532 52.1572 81.8964 51.961 83.9672 50.3868C84.2055 50.3892 84.4437 50.3759 84.6802 50.3468C85.0241 50.2856 85.3407 50.1196 85.5867 49.8715C85.8326 49.6234 85.9958 49.3054 86.054 48.9609C86.3624 47.3387 87.4078 46.2733 88.982 46.6218C91.8218 47.2506 91.4773 45.8207 90.9326 44.0663C90.2437 43.3894 90.1836 42.2398 89.2944 41.7111C89.388 41.5335 89.4439 41.3385 89.4586 41.1383C89.416 40.8656 89.2732 40.6185 89.0581 40.4454C87.3918 38.9274 87.1996 37.6416 89.5748 36.6443C89.9821 36.425 90.3459 36.1331 90.6482 35.7831L90.9566 35.6349C91.2061 35.4682 91.4221 35.2563 91.5935 35.0101C91.7555 34.7694 91.8553 34.4923 91.884 34.2036C91.9127 33.9149 91.8693 33.6236 91.7577 33.3558C92.0181 32.7951 91.7577 32.2463 91.4894 31.6976C90.9246 30.6922 89.8872 30.1755 89.0861 29.4105H88.4693L87.2677 28.7897C86.9312 28.3571 86.6548 27.8604 86.042 27.7683C85.6738 27.7501 85.3064 27.8169 84.9682 27.9634C84.6299 28.11 84.3299 28.3324 84.0914 28.6134C83.2903 27.1915 83.6267 24.4278 80.5506 25.7375L79.3249 26.9392L76.2728 26.3303L73.8415 25.7095C71.9189 26.1981 73.6853 29.1501 71.3862 29.3865C71.639 29.6463 71.7824 29.9933 71.7867 30.3558C71.7964 31.0184 71.5818 31.6649 71.1779 32.1903C71.0939 32.4674 71.0856 32.762 71.1539 33.0434C71.1539 33.0794 71.1979 33.1155 71.222 33.1515C69.6759 34.1329 68.3781 33.1515 67.0243 32.6068C66.9411 32.2976 66.7545 32.0262 66.4956 31.8378C63.075 32.743 60.2431 28.9819 56.7344 30.6121L56.1216 31.2169C54.1189 31.1368 52.4766 31.3611 51.4833 33.6723C51.0341 34.7438 50.3326 35.6909 49.4386 36.433C48.5445 37.175 47.4843 37.69 46.3484 37.934L45.1267 38.5428C45.1267 38.7391 45.1267 38.9434 45.1267 39.1276C42.367 40.7738 45.0626 42.392 45.1507 44.0262C46.0119 45.5884 45.5393 47.4669 46.3964 49.017ZM76.1927 47.0904H76.2728H76.2087H76.1927ZM62.7225 33.8365L62.5863 33.6562C62.6224 33.7283 62.6744 33.7804 62.7225 33.8365Z" fill="#A91F3D"/>
<path fill-rule="evenodd" clip-rule="evenodd" d="M84.2102 86.7969L83.8577 86.909C83.2556 87.2817 82.5631 87.4825 81.855 87.4898C81.6177 87.4777 81.381 87.4536 81.1461 87.4177C80.0901 87.3317 79.031 87.5397 78.0859 88.0185C78.2381 89.1841 78.9631 89.9131 79.9324 90.4618C80.1995 91.108 80.4785 91.7529 80.7696 92.3964L81.1701 91.0747V90.4498C84.8391 90.2936 85.1875 89.877 84.2102 86.7969Z" fill="#A91F3D"/>
<path fill-rule="evenodd" clip-rule="evenodd" d="M76.2706 88.6304C76.0302 85.382 73.5749 85.6864 71.38 85.5742C71.2245 85.7238 71.1071 85.9083 71.0374 86.1125C70.9677 86.3166 70.9479 86.5344 70.9794 86.7478C71.4801 87.8052 72.4374 88.4461 73.2465 89.2151H76.2786C76.2626 89.0309 76.2666 88.8466 76.2706 88.6304Z" fill="#A91F3D"/>
<path fill-rule="evenodd" clip-rule="evenodd" d="M58.1205 94.2449C57.2913 94.1047 56.9188 94.6454 56.7266 95.3504H58.561C58.6892 94.8577 58.7813 94.3571 58.1205 94.2449Z" fill="#A91F3D"/>
<path fill-rule="evenodd" clip-rule="evenodd" d="M49.2779 97.4079C49.3347 97.471 49.4059 97.5195 49.4853 97.5494C49.5647 97.5794 49.6501 97.5899 49.7345 97.5802C49.8426 97.5601 49.9147 97.3439 50.0108 97.2077C49.8747 97.0995 49.7425 96.9073 49.6103 96.8993C49.2698 96.8832 49.1016 97.1035 49.2779 97.4079Z" fill="#A91F3D"/>
<g style="mix-blend-mode:overlay">
<path d="M98.1069 55.6205C99.5303 46.0668 92.278 40.9306 82.358 37.5064L85.5768 24.5659L77.7192 22.6029L74.5884 35.2011C72.5226 34.6858 70.4027 34.184 68.2929 33.7162L71.4474 21.0333L63.5966 19.0703L60.3711 32.0075C58.6603 31.6176 56.9901 31.2311 55.3536 30.8243V30.7836L44.5343 28.0714L42.4516 36.486C42.4516 36.486 48.2805 37.8251 48.1588 37.9065C51.3404 38.7032 51.9151 40.8153 51.8205 42.4867L48.1554 57.2309C48.4327 57.2991 48.7049 57.3863 48.9702 57.4919L48.1419 57.2851L43.0027 77.9385C42.6139 78.9081 41.6266 80.3625 39.4019 79.8099C39.483 79.9251 33.6947 78.3792 33.6947 78.3792L29.793 87.3972L40.0172 89.9535C41.9174 90.4315 43.7837 90.9299 45.6162 91.4011L42.3603 104.504L50.2043 106.467L53.4264 93.5166C55.57 94.0997 57.6494 94.6388 59.6848 95.1473L56.4762 108.03L64.3337 109.993L67.5829 96.9272C80.9786 99.4699 91.0541 98.446 95.3074 86.2954C98.7223 76.5146 95.135 70.8698 88.0889 67.1914C93.2078 65.998 97.0723 62.6112 98.1069 55.6205ZM80.157 80.8575C77.7294 90.6383 61.3043 85.3495 55.9791 84.0239L60.2933 66.6863C65.6185 68.0186 82.686 70.6562 80.157 80.8575ZM82.5879 55.4781C80.37 64.3775 66.697 59.8549 62.2645 58.7463L66.1764 43.019C70.6123 44.1276 84.8938 46.1922 82.5879 55.4781Z" fill="white"/>
</g>
</svg>