<svg width="20" height="20" viewBox="0 0 20 20" fill="none" xmlns="http://www.w3.org/2000/svg">
<path d="M10 20C15.5228 20 20 15.5228 20 10C20 4.47715 15.5228 0 10 0C4.47715 0 0 4.47715 0 10C0 15.5228 4.47715 20 10 20Z" fill="#F3BA2F"/>
<path d="M7.575 9L10 6.575L12.4312 9.00625L13.8438 7.59375L10 3.75L6.1625 7.5875L7.575 9ZM3.75 10L5.1625 8.5875L6.575 10L5.1625 11.4125L3.75 10ZM7.575 11L10 13.425L12.4312 10.9938L13.8438 12.4062L10 16.25L6.1625 12.4125L7.575 11ZM13.425 10L14.8375 8.5875L16.25 10L14.8375 11.4125L13.425 10ZM11.4313 10L10 11.4313L8.56875 10L8.81875 9.75L8.9375 9.625L10 8.56875L11.4313 10Z" fill="white"/>
</svg>
