<svg width="970" height="294" viewBox="0 0 970 294" fill="none" xmlns="http://www.w3.org/2000/svg">
<path fill-rule="evenodd" clip-rule="evenodd" d="M358.382 242.141C366.301 234.019 394.37 232.366 407.857 232.066C380.936 232.259 288.95 232.753 282.319 229.287C274.529 225.21 274.99 216.411 274.99 216.411C267.651 220.489 258.037 224.555 258.037 224.555C258.037 224.555 283.231 245.553 279.561 249.609C275.892 253.665 242.908 249.609 164.549 251.648C86.1893 253.686 0.0078125 247.592 0.0078125 247.592C0.0078125 247.592 4.60015 229.963 13.7634 227.924C22.9266 225.886 34.3753 233.354 34.3753 233.354L35.7594 227.259C37.1435 221.143 60.0516 171.679 71.4788 165.584C82.906 159.49 109.505 163.546 114.548 168.953C119.591 174.361 124.205 183.181 124.205 183.181C130.471 171.057 140.053 179.608 142.735 182.387C143.121 182.795 143.368 183.074 143.433 183.149V183.052C143.368 181.604 142.875 164.747 150.761 162.151C153.465 161.271 157.306 161.475 161.233 162.151C156.212 156.786 153.325 150.552 153.325 143.91C153.325 124.039 178.862 107.933 210.386 107.933C217.37 107.919 224.33 108.744 231.116 110.39C237.168 93.8022 255.698 79.8535 280.86 71.8276C292.587 55.0141 317.448 43.4259 346.215 43.4259C353.233 43.4259 360.233 44.145 367.105 45.5719C378.275 23.5651 400.368 7.052 427.117 1.80514L429.263 1.40814C430.915 1.12917 432.578 0.893113 434.252 0.689247C437.973 0.242964 441.717 0.0136749 445.465 0.00254259C466.815 -0.157091 487.541 7.20464 504.007 20.7968C506.784 20.1676 509.624 19.8509 512.472 19.8526C542.269 19.8526 566.432 54.2845 566.432 96.7636C566.435 102.55 565.972 108.327 565.048 114.039C566.593 114.039 568.117 114.039 569.651 113.974C571.186 113.91 572.581 113.888 574.04 113.856C576.186 86.8922 597.237 65.7546 622.849 65.7546C628.961 65.7578 635.009 66.9836 640.639 69.3598C646.766 59.542 655.661 53.351 665.64 53.351C675.232 53.351 683.88 59.1021 689.964 68.2975C694.093 74.6955 696.868 81.8707 698.119 89.3815C706.381 90.0682 713.387 101.023 716.295 116.324L717.969 116.227L718.076 209.061L718.162 273.333H117.295C153.508 262.474 268.08 268.579 268.08 268.579C268.08 268.579 278.156 254.341 301.997 250.274C325.839 246.208 351.022 251.637 351.022 251.637L358.382 242.141Z" fill="#531536"/>
<path fill-rule="evenodd" clip-rule="evenodd" d="M117.32 273.329H83.4141C88.2406 268.996 94.3614 266.374 100.828 265.872C111.365 265.196 117.32 273.329 117.32 273.329Z" fill="#531536"/>
<path fill-rule="evenodd" clip-rule="evenodd" d="M0 247.573C0 247.573 42.1143 234.022 74.2285 232.67C106.343 231.318 141.611 247.573 141.611 247.573C141.611 247.573 262.6 244.183 279.564 249.612C279.564 249.612 233.276 256.758 137.717 256.576C42.1573 256.393 0 247.573 0 247.573Z" fill="#290932"/>
<path fill-rule="evenodd" clip-rule="evenodd" d="M258.022 224.531H204.18C204.18 224.531 264.438 209.617 272.689 208.941L268.569 201.484C268.569 201.484 315.308 187.932 356.092 201.484L351.972 209.993L489.001 224.531L405.18 232.579C405.18 232.579 311.231 234.017 282.357 229.274C279.073 225.517 276.578 221.138 275.018 216.398L258.022 224.531Z" fill="#290932"/>
<path fill-rule="evenodd" clip-rule="evenodd" d="M279.562 273.333C279.562 273.333 374.424 253.376 504.577 256.573L488.997 264.771H578.816L564.159 256.573L717.68 256.23L718.185 273.333H279.562Z" fill="#290932"/>
<path fill-rule="evenodd" clip-rule="evenodd" d="M718.092 209.061C717.527 214.575 717.405 220.126 717.727 225.66C708.072 225.34 698.408 225.853 688.842 227.194C676.975 206.925 658.863 195.713 640.741 194.833C622.618 193.953 604.624 202.795 589.42 217.366C585.654 220.992 581.974 224.994 577.618 226.926C573.873 228.589 569.903 228.557 565.997 228.503C538.479 228.102 510.964 226.747 483.453 224.436L518.454 217.516C519.934 209.662 513.454 203.481 507.971 202.955C502.488 202.43 496.49 204.404 491.79 200.144C507.305 195.509 522.828 190.884 538.357 186.271C532.241 191.56 527.499 200.219 525.246 210.134L565.171 217.816C568.326 218.428 571.544 219.007 574.688 218.46C578.98 217.709 583.004 214.866 586.91 212.022C593.197 207.501 599.488 202.973 605.783 198.438C610.783 194.844 616.127 190.766 618.53 183.352C620.612 176.914 620.032 169.403 619.389 162.333C618.058 147.654 616.545 132.289 610.633 120.368C609.313 117.749 607.739 115.266 605.933 112.954C616.974 114.896 627.189 119.971 637.672 124.07C647.973 128.105 657.737 130.508 667.919 129.07C673.08 128.362 676.203 128.469 678.316 126.323C687.029 117.461 668.166 87.5783 666.9 85.604C673.391 86.5375 680.849 86.4087 685.505 81.8808C688.917 78.5331 690.001 73.5223 689.98 68.2969C694.108 74.6948 696.883 81.8701 698.134 89.3809C706.396 90.0676 713.403 101.023 716.311 116.323L717.984 116.227L718.092 209.061Z" fill="#290932"/>
<path fill-rule="evenodd" clip-rule="evenodd" d="M34.375 233.343C34.375 233.343 47.0898 192.173 67.369 183.482C87.6483 174.791 117.316 178.407 117.316 178.407L127.52 189.652C127.52 189.652 122.584 177.205 114.569 168.911C106.554 160.617 84.2255 157.108 68.0665 168.257C51.9074 179.405 34.375 233.343 34.375 233.343Z" fill="#792139"/>
<path fill-rule="evenodd" clip-rule="evenodd" d="M142.734 182.41C143.121 182.818 143.367 183.097 143.432 183.172C143.496 183.247 143.432 183.494 143.432 183.601L142.734 182.41Z" fill="#52A8FF"/>
<path fill-rule="evenodd" clip-rule="evenodd" d="M427.134 1.77344C412.22 8.81217 398.336 18.9411 387.788 33.5014C382.56 40.745 378.385 48.6924 375.385 57.1069C370.674 55.2721 332.648 41.1517 303.442 62.0747C296.986 66.7452 291.516 72.6451 287.347 79.4355C264.815 79.3389 247.228 91.4958 243.924 106.732C242.046 115.434 245.233 123.31 247.647 127.816C244.428 125.842 213.247 107.494 186.863 121.614C184.395 122.945 163.161 134.308 164.534 151.389C165.242 160.059 171.433 166.164 174.459 168.75C166.895 163.739 157.388 163.825 150.854 168.75C144.598 173.503 143.611 180.885 143.45 183.128C143.386 181.679 142.892 164.823 150.779 162.226C153.482 161.347 157.324 161.55 161.251 162.226C156.229 156.862 153.343 150.628 153.343 143.986C153.343 124.114 178.88 108.009 210.404 108.009C217.387 107.995 224.347 108.82 231.134 110.466C237.185 93.8778 255.716 79.9291 280.877 71.9032C292.605 55.0897 317.465 43.5015 346.232 43.5015C353.251 43.5015 360.251 44.2206 367.123 45.6475C378.293 23.5334 400.396 7.02029 427.134 1.77344Z" fill="#792139"/>
<path fill-rule="evenodd" clip-rule="evenodd" d="M490.749 94.2743C476.066 90.2911 460.535 90.7165 446.092 95.4975C416.853 105.401 404.021 129.961 401.435 135.198C393.173 126.431 388.956 127.354 387.786 127.751C381.885 129.758 379.943 143.524 382.829 162.483C380.265 159.436 374.245 151.4 374.149 140.155C374.149 137.505 373.934 122.043 382.829 119.071C390.34 116.56 398.559 124.865 398.924 125.273C402.419 117.314 407.48 110.139 413.806 104.178C421.258 97.3172 430.163 92.2297 439.858 89.2957C464.021 82.096 485.041 91.4953 490.749 94.2743Z" fill="#792139"/>
<path d="M759.934 228.258C797.616 228.258 828.164 204.931 828.164 176.155C828.164 147.378 797.616 124.051 759.934 124.051C722.251 124.051 691.703 147.378 691.703 176.155C691.703 204.931 722.251 228.258 759.934 228.258Z" fill="#290932"/>
<path d="M753.111 207.163C776.062 207.163 794.668 180.228 794.668 147.002C794.668 113.775 776.062 86.8398 753.111 86.8398C730.16 86.8398 711.555 113.775 711.555 147.002C711.555 180.228 730.16 207.163 753.111 207.163Z" fill="#290932"/>
<path d="M779.788 228.256C831.171 228.256 872.826 216.592 872.826 202.204C872.826 187.816 831.171 176.152 779.788 176.152C728.404 176.152 686.75 187.816 686.75 202.204C686.75 216.592 728.404 228.256 779.788 228.256Z" fill="#290932"/>
<path d="M811.417 282.829C898.771 282.829 969.585 270.613 969.585 255.544C969.585 240.474 898.771 228.258 811.417 228.258C724.064 228.258 653.25 240.474 653.25 255.544C653.25 270.613 724.064 282.829 811.417 282.829Z" fill="#290932"/>
<path d="M645.191 293.998C712.675 293.998 767.381 285.39 767.381 274.771C767.381 264.151 712.675 255.543 645.191 255.543C577.707 255.543 523 264.151 523 274.771C523 285.39 577.707 293.998 645.191 293.998Z" fill="#290932"/>
<path d="M761.169 255.542C788.571 255.542 810.784 239.156 810.784 218.943C810.784 198.73 788.571 182.344 761.169 182.344C733.768 182.344 711.555 198.73 711.555 218.943C711.555 239.156 733.768 255.542 761.169 255.542Z" fill="#290932"/>
</svg>