<svg width="647" height="263" viewBox="0 0 647 263" fill="none" xmlns="http://www.w3.org/2000/svg">
<path fill-rule="evenodd" clip-rule="evenodd" d="M138.984 211.042C144.055 204.162 155.427 198.404 170.433 194.75C170.207 193.77 170.035 192.778 169.918 191.778V191.778C168.612 191.888 167.289 191.943 165.946 191.943C144.886 191.943 127.811 178.39 127.811 161.672C127.81 159.527 128.094 157.391 128.656 155.321C132.332 141.651 147.635 131.4 165.953 131.4C168.526 131.401 171.095 131.606 173.635 132.012H173.683C177.157 132.574 180.552 133.547 183.798 134.909V134.909C184.926 131.072 186.833 127.51 189.398 124.444C189.115 123.112 188.973 121.754 188.972 120.392C188.972 107.478 201.587 96.8762 217.687 95.7342C218.078 86.9622 220.03 75.5828 227.258 72.6863C239.448 67.7947 249.095 81.3275 249.095 81.3275C249.095 81.3275 251.156 71.6956 258.481 71.6199C260.406 71.5123 262.306 72.1005 263.834 73.2773C265.363 74.4542 266.418 76.1415 266.809 78.032C266.5 76.1951 265.036 66.1504 269.894 63.1713C273.488 60.9698 282.448 65.0083 289.573 73.6908C293.391 78.367 296.199 83.7857 297.819 89.6041L299.88 70.8081C294.983 69.2381 290.479 66.6338 286.674 63.1713C283.039 59.7314 281.96 41.4307 283.403 25.71C284.262 16.25 286.035 7.71203 288.707 3.90741C295.812 -6.2474 320.693 5.40724 329.584 15.9267C329.584 15.9267 336.689 16.3051 339.479 21.5614C342.268 26.8177 339.479 36.2226 339.479 36.2226L345.306 50.9044C345.306 50.9044 345.793 50.7943 346.68 50.6567H346.817C347.504 50.5535 348.418 50.4365 349.463 50.354H349.545C354.486 49.9893 362.6 50.354 367.616 55.8579C369.304 57.6457 370.506 59.8368 371.107 62.2219C371.505 63.8761 371.623 65.5853 371.457 67.2787V67.2787C371.224 69.715 370.524 72.0835 369.396 74.2549L369.458 74.3306C370.207 75.5621 377.112 87.32 374.714 99.4081C374.524 100.392 374.238 101.355 373.862 102.284V102.346C370.866 109.577 363.253 109.914 358.292 107.162C356.837 106.391 355.603 105.262 354.705 103.88C354.189 108.714 354.796 113.602 356.478 118.163V118.163C357.165 118.039 370.337 115.734 377.016 122.683C383.887 129.817 385.901 151.627 381.331 163.646C381.331 163.646 378.789 167.031 372.955 163.646L372.907 164.898L372.433 176.051C372.433 176.051 378.013 166.288 387.151 170.416C387.151 170.416 392.236 173.423 393.507 182.449C393.507 182.449 396.043 169.673 400.378 167.788C404.714 165.903 411.544 168.545 411.544 168.545L409.256 160.289C409.256 160.289 406.226 159.504 402.508 158.156C400.887 154.138 401.443 150.23 404.151 146.047C407.112 141.467 411.088 137.632 415.77 134.84C420.793 131.957 425.231 132.04 430.728 132.989C434.851 133.677 439.888 134.503 443.543 131.826C445.419 130.45 445.859 128.049 447.501 126.405C449.294 124.623 451.102 122.848 452.998 121.156C457.08 117.482 461.628 113.987 466.871 112.17L467.84 111.861C469.303 111.428 470.793 111.09 472.299 110.849C472.716 111.023 473.161 111.116 473.612 111.125C478.229 111.249 482.72 112.657 486.585 115.191C488.495 116.429 490.652 118.128 491.504 120.302C491.875 121.245 491.951 122.291 492.246 123.247C492.337 123.536 492.444 123.818 492.569 124.093C492.398 126.274 492.198 128.221 492.02 129.79C491.813 131.654 491.628 132.962 491.559 133.436V133.636L500.451 131.379C500.451 131.379 500.519 130.863 500.684 130.003C501.2 127.396 502.629 121.685 505.714 118.748C506.368 118.06 507.183 117.546 508.085 117.253C508.987 116.96 509.948 116.896 510.881 117.069V117.069C512.859 117.268 514.805 117.702 516.68 118.362C525.613 121.321 537.823 128.937 543.059 138.507C550.679 152.411 547.381 165.566 543.059 169.322C538.868 172.975 531.563 170.244 531.144 170.086V175.349L531.33 175.48C532.752 176.525 541.891 183.811 542.832 199.401H549.429C549.429 199.401 549.174 189.625 553.489 187.017C554.219 186.569 555.039 186.289 555.89 186.198C556.741 186.108 557.602 186.209 558.409 186.495C558.887 186.657 559.347 186.866 559.784 187.121H559.845C559.97 187.183 560.092 187.252 560.21 187.327C562.463 188.703 564.518 191.276 565.933 194.51C566.886 196.686 567.303 199.06 567.149 201.431C567.156 201.477 567.156 201.523 567.149 201.568C567.049 202.978 566.755 204.367 566.277 205.696V205.696C566.195 205.932 566.099 206.162 565.988 206.384V206.391C566.297 206.082 574.749 197.778 582.225 198.507C589.845 199.264 605.834 204.527 610.665 217.31C611.406 219.3 611.869 221.384 612.039 223.502C612.183 225.104 612.183 226.716 612.039 228.318C611.613 232.524 610.492 236.63 608.72 240.468C608.212 241.596 607.751 242.456 607.463 242.986C607.353 243.165 607.25 243.344 607.154 243.529V243.571C607.628 243.062 617.378 232.453 622.016 232.934C622.185 232.96 622.353 232.997 622.518 233.044H622.586C632.591 236.904 639.455 240.922 643.289 245.607C645.549 248.223 646.857 251.529 647 254.984V254.984C647.082 257.874 624.325 256.209 619.453 255.445L618.979 255.363C610.933 253.725 602.488 255.734 602.488 255.734C599.076 258.278 595.333 260.345 591.364 261.878C588.56 262.862 585.66 263.371 583.221 262.683C582.486 262.485 581.789 262.164 581.16 261.734C581.16 261.734 564.964 262.03 556.011 261.596H555.894C554.658 261.534 553.565 261.459 552.672 261.369C552.672 261.369 535.494 259.931 526.706 258.569L526.602 258.404C526.369 258.074 526.068 257.798 525.719 257.592C525.371 257.387 524.984 257.258 524.582 257.214C515.086 255.693 505.446 255.273 495.792 255.239C493.181 254.9 490.568 254.583 487.952 254.29C476.759 251.964 465.517 249.914 454.132 249.013C444.361 248.242 434.528 248.744 424.771 247.816C415.777 246.962 406.906 245.022 397.898 244.788C391.714 243.481 385.53 242.305 379.242 241.493C370.064 240.404 360.829 239.864 351.586 239.876C350.99 239.271 350.198 238.9 349.353 238.83C341.258 238.067 333.315 236.264 325.242 235.294C319.976 234.755 314.683 234.526 309.39 234.606C309.026 234.446 308.638 234.346 308.242 234.31C306.222 234.106 304.215 233.792 302.23 233.368L301.983 233.182L301.935 233.147C301.719 233.01 301.488 232.897 301.247 232.81C301.111 232.761 300.971 232.722 300.828 232.693C300.526 232.625 300.21 232.556 299.901 232.501L298.966 232.322C295.056 230.533 291.133 228.765 287.223 226.969C284.557 225.171 281.971 223.286 279.466 221.314C276.717 236.051 245.707 247.671 207.902 247.671C200.831 247.678 193.766 247.258 186.746 246.412C167.183 244.018 151.187 238.39 142.701 231.09C141.384 229.985 140.192 228.736 139.149 227.368C137.24 225.034 136.166 222.128 136.098 219.112C136.098 218.652 136.125 218.193 136.18 217.736C136.512 215.297 137.479 212.989 138.984 211.042V211.042Z" fill="#531536"/>
<path fill-rule="evenodd" clip-rule="evenodd" d="M387.551 238.041C367.191 249.737 350.295 252.055 340.827 252.489C330.477 252.841 320.118 252.15 309.906 250.425C298.582 248.361 296.232 246.338 287.231 246.297C278.23 246.256 275.804 248.271 263.869 248.361C258.207 248.402 252.937 248.443 246.691 246.985C238.714 245.12 222.827 239.334 222.642 233.225C222.312 222.293 272.114 203.868 320.213 210.521C351.93 214.904 375.183 229.097 387.551 238.041Z" fill="#290932"/>
<path fill-rule="evenodd" clip-rule="evenodd" d="M647 254.977C647 254.977 644.588 236.181 622.511 233.174C622.511 233.174 614.417 230.491 607.044 243.673C607.044 243.673 615.152 233.924 610.583 217.392C606.013 200.859 597.885 199.346 592.807 197.089L596.62 191.454C596.62 191.454 598.902 185.813 592.807 179.07C592.807 179.07 589 179.82 589.254 187.326L592.078 201.086C592.078 201.086 584.232 194.853 576.563 196.374C568.895 197.894 565.899 206.515 565.899 206.515C565.899 206.515 571.485 193.243 559.811 187.106C548.137 180.969 549.401 199.38 549.401 199.38H542.805C542.805 199.38 544.571 184.354 531.124 175.3V170.037C531.124 170.037 550.171 180.55 550.398 155.369C550.624 130.188 517.924 112.135 507.796 114.399C497.668 116.662 500.437 131.317 500.437 131.317L491.546 133.573C491.477 132.197 490.859 123.171 483.087 116.951C478.409 113.29 472.507 111.566 466.596 112.135C476.147 106.384 487.801 109.769 492.02 117.639C495.242 123.646 493.923 131.874 488.509 137.701L500.437 134.392C500.437 134.392 499.551 111.447 516.619 118.327C533.687 125.207 550.068 149.108 542.908 160.446C535.748 171.785 528.334 164.918 528.334 164.918L529.853 178.678C529.853 178.678 541.912 180.742 541.657 200.481L536.456 202.359L553.716 205.744L550.542 201.045C550.542 201.045 550.398 184.134 559.426 189.39C568.455 194.647 563.041 208.186 563.041 208.186L567.802 210.25C567.802 210.25 578.178 197.234 594.078 206.301C609.978 215.369 611.338 233.085 605.12 245.063L618.175 247.457C618.175 247.457 616.636 244.63 617.845 242.05C619.646 238.231 625.706 238.011 626.936 237.984C638.047 237.681 646.189 253.367 647 254.977Z" fill="#792139"/>
<path fill-rule="evenodd" clip-rule="evenodd" d="M487.147 186.562C471.92 177.99 459.071 185.069 451.224 192.1C458.096 184.436 472.965 172.149 491.27 182.434C516.652 196.717 527.57 241.079 527.57 241.079L522.328 241.203C518.961 229.968 507.884 198.23 487.147 186.562Z" fill="#792139"/>
<path fill-rule="evenodd" clip-rule="evenodd" d="M442.97 201.473C442.97 201.473 436.869 177.077 418.825 174.16C416.524 173.781 414.167 174.311 412.249 175.639C415.114 171.676 418.639 169.337 422.948 170.032C438.999 172.625 445.623 192.206 446.859 196.499C445.451 198.066 444.152 199.728 442.97 201.473Z" fill="#792139"/>
<path fill-rule="evenodd" clip-rule="evenodd" d="M606.161 185.661C607.577 183.693 608.951 181.675 610.284 179.606C610.547 179.252 610.732 178.847 610.827 178.416C610.868 177.916 610.77 177.415 610.543 176.968C610.316 176.521 609.969 176.146 609.542 175.884C607.707 174.605 605.46 174.274 603.674 175.705C601.887 177.137 600.815 180.611 601.674 183.335C602.533 186.06 605.495 186.844 606.663 184.395L606.161 185.661Z" fill="#792139"/>
<path fill-rule="evenodd" clip-rule="evenodd" d="M602.54 190.979C602.657 190.614 603.09 190.979 603.028 191.371C603.004 191.531 602.928 191.679 602.811 191.791C602.694 191.904 602.543 191.973 602.382 191.99C601.338 192.135 600.321 190.876 600.176 189.328C600.863 188.873 601.619 188.509 602.306 188.901C602.687 189.205 602.951 189.631 603.054 190.108C603.157 190.584 603.092 191.081 602.87 191.515L602.54 190.979Z" fill="#792139"/>
<path fill-rule="evenodd" clip-rule="evenodd" d="M372.432 176.036C372.432 176.036 372.055 173.346 368.241 160.412L372.941 163.632C372.941 163.632 382.08 148.042 379.125 132.816C376.17 117.591 356.402 118.155 356.402 118.155C356.402 118.155 372.652 111.392 381.283 126.411C389.913 141.43 383.062 161.981 380.52 164.87C377.978 167.76 372.859 164.87 372.859 164.87L372.432 176.036Z" fill="#792139"/>
<path fill-rule="evenodd" clip-rule="evenodd" d="M354.699 103.881C354.699 103.881 364.724 109.709 369.17 100.503C373.615 91.2979 369.424 74.1875 369.424 74.1875C369.424 74.1875 377.8 85.6495 374.749 99.3681C371.698 113.087 359.653 110.259 354.699 103.881Z" fill="#792139"/>
<path fill-rule="evenodd" clip-rule="evenodd" d="M371.485 67.2086C371.485 67.2086 362.951 47.3736 346.638 50.6279C346.638 50.6279 371.835 42.8879 371.485 67.2086Z" fill="#792139"/>
<path fill-rule="evenodd" clip-rule="evenodd" d="M286.662 63.1626C290.468 66.6251 294.971 69.2293 299.868 70.7994L297.807 89.5954C296.188 83.777 293.38 78.3583 289.562 73.6821C297.958 88.0612 302.617 107.311 301.792 126.334C304.947 120.913 308.684 115.854 312.938 111.247C308.437 113.125 303.723 107.758 302.15 101.257C300.576 94.7554 301.332 87.552 302.253 80.7753C303.689 70.1802 305.544 59.3993 309.811 50.6205C303.545 56.5647 294.694 52.994 289.514 45.1165C286.188 40.101 284.965 32.3886 283.378 25.6875C281.948 41.422 283.027 59.7089 286.662 63.1626Z" fill="#290932"/>
<path opacity="0.45" fill-rule="evenodd" clip-rule="evenodd" d="M299.888 232.48C300.197 232.536 300.513 232.604 300.816 232.673C300.958 232.702 301.098 232.741 301.235 232.79L301.565 232.914H301.702C302.925 233.093 304.155 233.258 305.378 233.409C306.876 233.595 308.381 233.76 309.879 233.925L308.285 233.616C305.942 233.182 303.592 232.776 301.235 232.563C300.795 232.536 300.342 232.536 299.888 232.48Z" fill="url(#paint0_linear_587_22083)"/>
<path fill-rule="evenodd" clip-rule="evenodd" d="M72.8479 186.097C72.8479 195.447 82.9623 203.882 99.1784 209.84C103.792 211.512 108.5 212.908 113.278 214.023C120.809 215.776 128.449 217.024 136.145 217.759C143.082 218.454 150.049 218.794 157.02 218.777C166.327 218.797 175.624 218.186 184.849 216.947C185.735 216.83 186.615 216.706 187.48 216.568C213.24 212.695 232.83 204.033 239.111 193.404C240.444 191.199 241.157 188.674 241.172 186.097C241.129 183.275 240.267 180.526 238.691 178.185C237.628 176.561 236.375 175.069 234.96 173.741C228.598 167.7 217.707 162.554 203.916 158.956C200.996 158.192 197.945 157.497 194.784 156.892C192.082 156.36 189.303 155.887 186.45 155.474C176.694 154.086 166.853 153.396 157 153.41C152.705 153.41 148.479 153.534 144.357 153.782C138.928 154.091 133.679 154.614 128.642 155.316C118.748 156.602 109.012 158.908 99.5906 162.196C96.5458 163.281 93.5636 164.535 90.658 165.953C87.8257 167.328 85.1136 168.939 82.55 170.769C76.3797 175.364 72.8479 180.572 72.8479 186.097Z" fill="#531536"/>
<path fill-rule="evenodd" clip-rule="evenodd" d="M95.1774 146.535C97.4587 146.535 99.3002 153.367 99.6094 162.194V164.423C99.6094 166.535 99.5201 168.551 99.3551 170.436C98.7367 177.357 97.0808 182.311 95.1431 182.311C93.2054 182.311 91.4739 177.123 90.8898 169.927C90.7936 168.654 90.7249 167.319 90.6905 165.937V164.423C90.7111 154.543 92.7107 146.535 95.1774 146.535Z" fill="#531536"/>
<path fill-rule="evenodd" clip-rule="evenodd" d="M56.3597 194.35C56.3597 200.507 59.6923 206.135 65.1961 210.428C71.7444 215.547 81.3641 218.773 92.09 218.773C99.4258 218.852 106.68 217.224 113.281 214.019C115.416 212.948 117.436 211.66 119.307 210.174C124.618 205.915 127.82 200.383 127.82 194.35C127.82 182.571 115.624 172.74 99.3941 170.435C96.9741 170.097 94.5335 169.927 92.09 169.926H90.9288C88.1413 169.986 85.3631 170.271 82.6215 170.779C67.4842 173.627 56.3597 183.101 56.3597 194.35Z" fill="#531536"/>
<path fill-rule="evenodd" clip-rule="evenodd" d="M0.0119982 221.182C0.0119982 227.45 42.9296 232.534 95.8654 232.534H98.2291C114.342 232.493 129.466 231.977 142.665 231.096C155.865 230.215 167.024 229.032 175.407 227.525C185.713 225.716 191.719 223.535 191.719 221.189C191.719 219.689 189.273 218.258 184.848 216.951C176.128 214.385 159.726 212.286 139.01 211.048C132.826 210.676 126.216 210.36 119.331 210.181C112.858 209.988 106.124 209.871 99.2048 209.844H95.8928C85.1669 209.844 74.8464 210.05 65.2198 210.442C27.2976 211.942 0.0119982 216.187 0.0119982 221.182Z" fill="#531536"/>
<path fill-rule="evenodd" clip-rule="evenodd" d="M90.7122 237.351C90.7122 243.048 119.784 247.671 155.645 247.671C166.9 247.671 177.482 247.217 186.71 246.412C206.891 244.665 220.578 241.259 220.578 237.351C220.578 232.748 201.607 228.848 175.407 227.52C169.181 227.203 162.537 227.031 155.645 227.031C149.928 227.031 144.39 227.148 139.113 227.368C121.392 228.111 106.626 230.01 98.2294 232.528C93.4607 233.966 90.7122 235.611 90.7122 237.351Z" fill="#531536"/>
<path fill-rule="evenodd" clip-rule="evenodd" d="M305.39 233.435L302.016 233.166L302.264 233.352C304.249 233.776 306.256 234.091 308.276 234.295C308.672 234.33 309.059 234.43 309.423 234.591C314.716 234.51 320.009 234.74 325.275 235.279C333.349 236.249 341.292 238.03 349.386 238.815C350.232 238.885 351.024 239.256 351.619 239.861C360.871 239.849 370.116 240.389 379.304 241.477C385.57 242.289 391.775 243.466 397.959 244.773C406.995 245.007 415.824 246.947 424.832 247.8C434.589 248.729 444.422 248.227 454.193 248.997C465.578 249.898 476.82 251.949 488.013 254.274C490.624 254.568 493.237 254.884 495.853 255.224C505.473 255.224 515.147 255.678 524.643 257.198C525.045 257.243 525.432 257.372 525.781 257.577C526.129 257.782 526.43 258.059 526.664 258.388C532.051 259.076 543.697 260.549 555.956 261.581H556.01C565.63 262.386 575.58 262.957 583.207 262.668C585.936 262.611 588.656 262.339 591.342 261.856V261.856C591.445 262.062 593.452 265.605 602.467 255.712L619.446 255.423L646.992 254.962C637.571 251.076 627.763 248.205 617.735 246.397C613.554 245.656 609.327 245.21 605.085 245.062C600.616 244.881 596.142 245.243 591.761 246.142V250.002H520.988C520.988 250.002 528.1 246.734 527.591 241.058V241.023C527.584 240.967 527.57 240.911 527.55 240.858V240.789C527.11 239.75 524.801 238.629 521.222 237.508C505.28 232.52 463.668 227.47 443.508 229.252L443.728 221.216C443.728 221.216 420.119 206.08 400.701 217.363L406.472 223.823C406.472 223.823 373.078 238.003 308.351 233.614L305.39 233.435Z" fill="#290932"/>
<path fill-rule="evenodd" clip-rule="evenodd" d="M95.8677 232.534H98.2314C93.4216 233.972 90.7143 235.616 90.7143 237.35C90.7143 243.046 119.786 247.67 155.647 247.67C166.902 247.67 177.484 247.216 186.712 246.411C193.732 247.256 200.797 247.677 207.868 247.67C245.66 247.67 276.663 236.049 279.466 221.299C281.968 223.285 284.556 225.17 287.231 226.954C291.141 228.75 295.064 230.518 298.974 232.307L299.908 232.486C300.218 232.541 300.534 232.609 300.836 232.678C300.978 232.707 301.118 232.746 301.255 232.795C301.508 232.879 301.75 232.992 301.977 233.132L301.722 232.94L301.482 232.768L301.255 232.589C300.911 232.314 268.493 216.813 256.317 200.886C250.58 193.38 249.281 185.33 246.698 169.238C245.2 159.957 244.739 150.538 245.323 141.154V141.085C245.22 144.003 235.25 143.198 232.955 147.222C230.007 152.396 242.575 160.528 240.651 172.293C240.438 173.6 239.847 175.121 238.72 178.189C236.59 183.975 234.089 188.688 231.416 192.135C228.743 195.582 225.232 199.269 221.274 198.822C217.151 198.354 213.441 193.284 212.342 186.438C206.02 195.189 197.356 198.086 193.102 195.382C188.849 192.678 189.083 184.697 191.041 179.558C193.789 172.293 201.499 167.277 210.967 166.486C195.954 165.413 189.034 169.238 185.544 173.366C180.507 179.297 181.256 187.346 176.611 188.502C173.32 189.321 171.485 185.64 165.617 182.31C153.112 175.224 143.1 182.241 139.507 176.118C135.68 169.603 139.617 160.597 144.385 153.786C146.009 151.452 147.822 149.257 149.807 147.222C162.175 134.701 179.112 134.708 183.476 134.838C181.105 134.082 177.8 133.077 173.684 132.018H173.636C171.096 131.605 168.527 131.398 165.954 131.398C147.635 131.398 132.333 141.65 128.664 155.32C118.77 156.606 109.034 158.912 99.6125 162.2C99.3377 153.373 97.4618 146.541 95.1806 146.541C92.7138 146.541 90.7143 154.549 90.7143 164.429V165.956C87.882 167.332 85.1699 168.943 82.6063 170.772C67.4896 173.607 56.3445 183.081 56.3445 194.329C56.3445 200.487 59.6771 206.115 65.1809 210.408C27.2862 211.894 0.0143379 216.166 0.0143379 221.161C0.0143379 227.449 42.9319 232.534 95.8677 232.534Z" fill="#290932"/>
<path fill-rule="evenodd" clip-rule="evenodd" d="M362.34 190.368C352.792 188.957 343.371 186.786 334.168 183.874C318.563 178.927 310.751 176.45 304.409 169.24C295.641 159.305 295.401 146.935 293.415 147.224C290.604 147.63 295.139 171.792 288.605 174.744C284.606 176.553 276.003 170.616 257.684 145.16C257.973 152.9 259.746 169.529 271.949 179.636C278.511 185.064 285.856 186.791 309.906 188.504C323.181 189.453 341.018 190.361 362.34 190.368Z" fill="#290932"/>
<defs>
<linearGradient id="paint0_linear_587_22083" x1="304.884" y1="233.953" x2="304.884" y2="232.419" gradientUnits="userSpaceOnUse">
<stop stop-color="#802965"/>
<stop offset="1" stop-color="#4C1F5E"/>
</linearGradient>
</defs>
</svg>
