<svg width="17" height="16" viewBox="0 0 17 16" fill="none" xmlns="http://www.w3.org/2000/svg">
<path fill-rule="evenodd" clip-rule="evenodd" d="M8.4987 13.332C11.4442 13.332 13.832 10.9442 13.832 7.9987C13.832 5.05318 11.4442 2.66536 8.4987 2.66536C5.55318 2.66536 3.16536 5.05318 3.16536 7.9987C3.16536 10.9442 5.55318 13.332 8.4987 13.332ZM8.4987 14.6654C12.1806 14.6654 15.1654 11.6806 15.1654 7.9987C15.1654 4.3168 12.1806 1.33203 8.4987 1.33203C4.8168 1.33203 1.83203 4.3168 1.83203 7.9987C1.83203 11.6806 4.8168 14.6654 8.4987 14.6654Z" fill="white"/>
<path d="M7.83203 4.66667C7.83203 4.29848 8.13051 4 8.4987 4C8.86689 4 9.16536 4.29848 9.16536 4.66667C10.2699 4.66667 11.1654 5.5621 11.1654 6.66667C11.1654 7.03486 10.8669 7.33333 10.4987 7.33333C10.1305 7.33333 9.83203 7.03486 9.83203 6.66667C9.83203 6.29848 9.53355 6 9.16536 6H7.66098C7.38726 6 7.16536 6.22189 7.16536 6.49561C7.16536 6.70894 7.30187 6.89833 7.50425 6.96579L9.91478 7.7693C10.6616 8.01825 11.1654 8.71716 11.1654 9.50439C11.1654 10.5145 10.3465 11.3333 9.33642 11.3333H9.16536C9.16536 11.7015 8.86689 12 8.4987 12C8.13051 12 7.83203 11.7015 7.83203 11.3333C6.72746 11.3333 5.83203 10.4379 5.83203 9.33333C5.83203 8.96514 6.13051 8.66667 6.4987 8.66667C6.86689 8.66667 7.16536 8.96514 7.16536 9.33333C7.16536 9.70152 7.46384 10 7.83203 10H9.33642C9.61014 10 9.83203 9.77811 9.83203 9.50439C9.83203 9.29106 9.69552 9.10167 9.49315 9.03421L7.08261 8.2307C6.33578 7.98176 5.83203 7.28284 5.83203 6.49561C5.83203 5.48551 6.65088 4.66667 7.66098 4.66667H7.83203Z" fill="white"/>
</svg>
