<svg width="603" height="468" viewBox="0 0 603 468" fill="none" xmlns="http://www.w3.org/2000/svg">
<path d="M141.347 21.5788L134.032 17.7897L133.518 18.7817C115.885 14.9862 95.3558 26.2521 84.6467 46.9288C73.9376 67.6055 76.5645 90.904 89.8543 103.085L89.3445 104.069L96.6604 107.858C115.632 117.684 141.011 106.335 153.349 82.5122C165.688 58.689 160.319 31.4049 141.347 21.5788Z" fill="#FDD835"/>
<path d="M156 37.1942L140.051 28.9336L141.055 26.9961L154.229 33.8198C154.879 34.9127 155.47 36.0391 156 37.1942Z" fill="#FBC02D"/>
<path d="M158.944 46.0934L137.036 34.7461L138.039 32.8086L158.243 43.2729C158.511 44.1979 158.767 45.1267 158.944 46.0934Z" fill="#FBC02D"/>
<path d="M159.936 53.9771L134.028 40.5586L135.031 38.6211L159.761 51.4295C159.847 52.27 159.905 53.1257 159.936 53.9771Z" fill="#FBC02D"/>
<path d="M159.725 61.2426L131.012 46.3711L132.016 44.4336L159.915 58.8837C159.865 59.6637 159.827 60.4204 159.725 61.2426Z" fill="#FBC02D"/>
<path d="M158.678 68.0667L128.004 52.1797L129.008 50.2422L159.093 65.8242C158.965 66.5641 158.81 67.2996 158.678 68.0667Z" fill="#FBC02D"/>
<path d="M156.818 74.4772L124.997 57.9961L126 56.0586L157.503 72.3752C157.29 73.0709 157.062 73.778 156.818 74.4772Z" fill="#FBC02D"/>
<path d="M154.313 80.5546L121.981 63.8086L122.984 61.8711L155.208 78.561C154.929 79.2323 154.635 79.8956 154.313 80.5546Z" fill="#FBC02D"/>
<path d="M152.309 84.4258C151.972 85.0767 151.584 85.6919 151.205 86.311L118.973 69.6172L119.977 67.6797L152.309 84.4258Z" fill="#FBC02D"/>
<path d="M148.79 89.9772C148.36 90.5801 147.914 91.1749 147.469 91.7501L115.965 75.4336L116.969 73.4961L148.79 89.9772Z" fill="#FBC02D"/>
<path d="M144.635 95.1918C144.123 95.7622 143.612 96.3131 143.081 96.8442L112.957 81.2422L113.961 79.3047L144.635 95.1918Z" fill="#FBC02D"/>
<path d="M139.659 99.9928C139.062 100.519 138.449 101.018 137.834 101.505L109.934 87.0547L110.938 85.1172L139.659 99.9928Z" fill="#FBC02D"/>
<path d="M133.845 104.348C133.132 104.814 132.392 105.257 131.664 105.676L106.934 92.8672L107.938 90.9297L133.845 104.348Z" fill="#FBC02D"/>
<path d="M126.831 108.09C125.931 108.479 125.032 108.829 124.122 109.144L103.918 98.6797L104.922 96.7422L126.831 108.09Z" fill="#FBC02D"/>
<path d="M117.863 110.816C116.606 111.045 115.337 111.208 114.062 111.304L100.887 104.48L101.891 102.543L117.863 110.816Z" fill="#FBC02D"/>
<path style="mix-blend-mode:multiply" d="M141.347 21.5788L134.032 17.7897L133.518 18.7817C115.885 14.9862 95.3558 26.2521 84.6467 46.9288C73.9376 67.6055 76.5645 90.904 89.8543 103.085L89.3445 104.069L96.6604 107.858C115.632 117.684 141.011 106.335 153.349 82.5122C165.688 58.689 160.319 31.4049 141.347 21.5788Z" fill="url(#paint0_linear_607_12778)"/>
<path d="M89.344 104.077C108.314 113.902 133.696 102.55 146.037 78.7229C158.378 54.8954 153.005 27.6147 134.035 17.7897C115.065 7.96472 89.6831 19.316 77.342 43.1435C65.001 66.9711 70.3744 94.2519 89.344 104.077Z" fill="#FBC02D"/>
<path d="M91.312 100.278C107.936 108.889 130.536 98.2527 141.791 76.5224C153.046 54.7921 148.693 30.1963 132.069 21.5862C115.445 12.976 92.8449 23.612 81.5901 45.3423C70.3353 67.0725 74.6879 91.6683 91.312 100.278Z" fill="#F9A825"/>
<path style="mix-blend-mode:multiply" d="M91.312 100.278C107.936 108.889 130.536 98.2527 141.791 76.5224C153.046 54.7921 148.693 30.1963 132.069 21.5862C115.445 12.976 92.8449 23.612 81.5901 45.3423C70.3353 67.0725 74.6879 91.6683 91.312 100.278Z" fill="url(#paint1_linear_607_12778)"/>
<path style="mix-blend-mode:multiply" d="M83.4582 46.3099C94.5005 24.99 116.469 14.3613 132.991 22.1031C132.681 21.9425 132.364 21.778 132.054 21.6174C115.43 13.0075 92.8295 23.6428 81.5745 45.3735C70.3194 67.1042 74.6728 91.6999 91.2963 100.31C91.6063 100.47 91.9241 100.635 92.2341 100.795C76.4139 91.6973 72.4159 67.6298 83.4582 46.3099Z" fill="url(#paint2_radial_607_12778)"/>
<path style="mix-blend-mode:multiply" d="M124.185 71.6613C124.427 69.1821 125.978 69.1496 128.792 67.7571C131.347 66.5053 133.206 63.163 133.825 60.0334C134.394 57.0358 134.897 52.7256 132.477 50.2241C132.236 51.4869 131.693 52.6726 130.894 53.6797C129.625 55.0473 128.019 54.9229 127.256 53.9089C126.494 52.8948 126.207 51.3996 128.751 47.3606C130.808 44.1109 131.533 41.7244 130.14 39.7645C129.091 38.1678 128.555 36.2889 128.604 34.3792C127.649 35.1843 127.053 36.3355 126.946 37.5799C126.812 39.0488 126.157 40.4213 125.1 41.4493C123.096 43.193 120.812 41.5288 120.302 39.8C119.729 37.8518 120.798 35.4274 122.933 33.7715C125.301 31.951 126.684 30.5147 126.291 27.9328C125.59 29.1526 124.54 30.1353 123.277 30.755C122.572 31.1855 121.789 31.4719 120.973 31.5976C120.158 31.7233 119.325 31.6859 118.523 31.4876C116.299 31.0656 113.998 31.518 112.1 32.7506C111.142 33.4044 107.993 36.0686 108.618 43.1741C108.919 46.3871 105.519 47.7518 103.877 46.3504C102.511 45.1911 102.844 43.7711 104.062 41.2668C102.686 41.85 101.505 42.8136 100.658 44.0445C98.7722 46.793 97.566 48.9891 97.2666 54.3873C97.0931 57.2462 97.1688 57.6883 95.5201 59.4292C93.2145 61.4394 91.3121 63.8696 89.9142 66.5904C84.5757 76.8978 87.3088 88.9088 96.0196 93.4205C104.731 97.9321 116.118 93.2344 121.456 82.9271C123.132 79.7121 124.058 76.1594 124.165 72.5354C124.18 72.0516 124.176 71.7548 124.185 71.6613Z" fill="url(#paint3_linear_607_12778)"/>
<path d="M123.568 71.3373C123.81 68.8581 125.36 68.8256 128.175 67.4331C130.73 66.1813 132.589 62.839 133.207 59.7094C133.777 56.7118 134.272 52.3976 131.86 49.9001C131.619 51.1629 131.076 52.3486 130.277 53.3557C129.008 54.7233 127.401 54.5989 126.639 53.5849C125.877 52.5708 125.582 51.0716 128.134 47.0366C130.19 43.7869 130.915 41.4004 129.522 39.4405C128.474 37.8438 127.938 35.9649 127.987 34.0552C127.512 34.4523 127.121 34.9397 126.837 35.4892C126.552 36.0386 126.38 36.6392 126.329 37.2559C126.198 38.7261 125.539 40.0992 124.474 41.1213C122.478 42.869 120.195 41.2048 119.677 39.472C119.111 37.5278 120.173 35.0994 122.316 33.4475C124.676 31.623 126.067 30.1907 125.674 27.6088C124.969 28.826 123.92 29.8078 122.659 30.431C121.955 30.8615 121.172 31.1479 120.356 31.2736C119.54 31.3993 118.708 31.3619 117.906 31.1636C115.69 30.7291 113.391 31.1646 111.487 32.3798C110.529 33.0337 107.372 35.6938 107.997 42.7994C108.299 46.0123 104.907 47.381 103.264 45.9797C101.898 44.8204 102.231 43.4003 103.449 40.896C102.073 41.4792 100.892 42.4428 100.045 43.6736C98.1595 46.4222 96.9532 48.6183 96.6538 54.0166C96.4726 56.8714 96.5483 57.3135 94.8996 59.0544C92.5995 61.0694 90.7002 63.5004 89.3014 66.2196C83.9629 76.527 86.696 88.5381 95.3992 93.0457C104.102 97.5533 115.497 92.8596 120.836 82.5523C122.514 79.3393 123.443 75.7879 123.552 72.1647C123.547 71.7196 123.528 71.4148 123.568 71.3373Z" fill="#FDD835"/>
<g style="mix-blend-mode:multiply">
<path d="M116.849 71.8886L112.536 66.9321L108.766 67.1321L107.102 64.4813L100.171 63.2701L98.1704 65.33L97.1461 68.731L95.1457 71.3218L95.1539 74.8546C96.231 75.1965 97.1922 75.8304 97.9306 76.6858L96.8326 77.8569C96.9383 78.023 97.0082 78.2094 97.0377 78.4041C97.0672 78.5988 97.0557 78.7975 97.0039 78.9874L99.1125 78.389C97.0201 79.3257 95.2094 80.7937 93.8602 82.6471L94.6352 83.0485L93.533 84.5123C97.1838 84.6041 100.765 85.5339 103.999 87.2298L105.202 86.9191C105.452 85.1287 105.429 83.3108 105.134 81.5273L105.67 83.6039C105.818 83.4376 106 83.3065 106.205 83.2203C106.409 83.134 106.631 83.0948 106.852 83.1054L107.079 81.473C108.203 81.5987 109.272 82.0238 110.176 82.7039L113.05 80.7032L114.121 77.5918L116.293 74.7849L116.849 71.8886ZM97.6628 70.2763L104.041 73.5798L101.07 76.6018C97.2013 75.2663 97.2849 73.5109 97.6628 70.2763ZM101.068 80.3062L99.3496 79.8289C99.9125 79.2771 100.666 78.9635 101.454 78.9533C101.518 79.1926 101.516 79.4448 101.448 79.6831C101.38 79.9213 101.249 80.1367 101.068 80.3062ZM100.469 83.1902C101.047 81.7316 101.771 80.3348 102.628 79.0207C102.066 80.4866 101.342 81.8851 100.469 83.1902ZM102.479 81.0367C102.515 80.7865 102.62 80.5509 102.78 80.3552C102.94 80.1595 103.15 80.0109 103.388 79.9255C103.835 80.5751 104.014 81.3717 103.888 82.1498L102.479 81.0367ZM105.294 78.7893L106.048 74.6194L112.426 77.9229C110.002 80.0977 108.64 81.1908 105.294 78.7893Z" fill="#FBC02D"/>
</g>
<g style="mix-blend-mode:multiply">
<path d="M116.941 69.3331L123.26 54.8551C121.87 57.0837 121.011 58.1918 118.889 59.1765L118.15 60.9264C117.134 61.5209 116.603 61.5602 115.829 60.5109C114.742 61.4713 114.033 60.7898 113.915 59.5195L116.346 53.8003C115.675 52.686 115.575 51.779 115.616 49.9527C114.645 50.9639 113.44 51.7203 112.107 52.155L109.82 57.5952C108.73 58.7702 107.654 58.6652 107.566 57.1845C106.389 57.5581 105.932 57.3212 105.597 56.1649L106.394 54.2479C105.73 52.3609 105.958 50.8573 106.565 48.2233L100.404 62.5864C107.6 63.2472 111.308 64.6467 116.941 69.3331Z" fill="#FBC02D"/>
</g>
<g style="mix-blend-mode:multiply">
<path d="M93.753 68.6812L95.7386 67.6751L95.0995 65.1326L96.4857 66.745L97.3 64.6603L96.6662 63.6638L93.7919 65.1334L92.1565 71.4221L93.8818 73.6132L94.7336 71.3613L93.753 68.6812Z" fill="#FBC02D"/>
</g>
<g style="mix-blend-mode:multiply">
<path d="M93.3804 84.7769L93.0618 85.2213L94.8775 88.4715L95.5401 89.0899L93.888 92.1657C94.8911 92.8621 95.9799 93.4261 97.1275 93.8436L98.6849 90.8366L99.3852 91.0027L102.226 90.5084L103.6 88.6348L103.869 87.5456C100.529 86.1095 96.9942 85.1765 93.3804 84.7769Z" fill="#FBC02D"/>
</g>
<g style="mix-blend-mode:multiply">
<path d="M118.54 74.9946L117.36 75.0519L116.127 76.9198L118.244 77.1217L115.799 78.0666L116.122 80.2689L113.368 81.0143L112.028 83.0133L114.805 83.1543L119.005 78.1942L118.54 74.9946Z" fill="#FBC02D"/>
</g>
<path d="M84.3007 324.744L78.8602 317.256L75.9735 319.353C66.2219 316.735 51.5546 320.632 38.2343 330.31C24.9141 339.988 16.7055 352.712 16.1531 362.817L13.2664 364.914L18.7069 372.402C26.0393 382.494 46.6633 379.994 64.7732 366.836C82.8831 353.678 91.6331 334.835 84.3007 324.744Z" fill="#FDD835"/>
<path d="M86.4117 337.775L76.9647 324.773L78.4375 323.703L86.8015 335.215C86.7202 336.075 86.59 336.93 86.4117 337.775Z" fill="#FBC02D"/>
<path d="M84.3048 344.162L72.5506 327.984L74.0234 326.914L85.1184 342.184C84.874 342.839 84.6033 343.495 84.3048 344.162Z" fill="#FBC02D"/>
<path d="M81.4281 349.499L68.1287 331.195L69.6016 330.125L82.443 347.799C82.1241 348.364 81.7834 348.935 81.4281 349.499Z" fill="#FBC02D"/>
<path d="M78.097 354.197L63.7147 334.402L65.1875 333.332L79.2531 352.691C78.8813 353.195 78.4993 353.698 78.097 354.197Z" fill="#FBC02D"/>
<path d="M74.4157 358.427L59.2928 337.613L60.7656 336.543L75.6788 357.068C75.2684 357.519 74.8522 357.975 74.4157 358.427Z" fill="#FBC02D"/>
<path d="M70.4518 362.268L54.8709 340.824L56.3438 339.754L71.8048 361.033C71.3773 361.461 70.9124 361.862 70.4518 362.268Z" fill="#FBC02D"/>
<path d="M66.2389 365.756L50.4569 344.035L51.9297 342.965L67.6689 364.627C67.2014 365.012 66.7252 365.385 66.2389 365.756Z" fill="#FBC02D"/>
<path d="M63.2899 367.897C62.795 368.257 62.2846 368.582 61.7742 368.908L46.035 347.246L47.5078 346.176L63.2899 367.897Z" fill="#FBC02D"/>
<path d="M58.6746 370.831C58.1455 371.144 57.6078 371.444 57.082 371.736L41.6209 350.457L43.0938 349.387L58.6746 370.831Z" fill="#FBC02D"/>
<path d="M53.7947 373.408C53.2298 373.683 52.668 373.938 52.1122 374.189L37.199 353.664L38.6719 352.594L53.7947 373.408Z" fill="#FBC02D"/>
<path d="M48.6402 375.599C48.041 375.828 47.445 376.036 46.8506 376.234L32.785 356.875L34.2578 355.805L48.6402 375.599Z" fill="#FBC02D"/>
<path d="M43.1311 377.318C42.4848 377.481 41.8358 377.629 41.2045 377.764L28.3631 360.09L29.8359 359.02L43.1311 377.318Z" fill="#FBC02D"/>
<path d="M37.1682 378.404C36.4416 378.482 35.7387 378.543 35.0362 378.567L23.9412 363.297L25.4141 362.227L37.1682 378.404Z" fill="#FBC02D"/>
<path d="M30.447 378.44C29.5878 378.348 28.7345 378.208 27.8912 378.019L19.5272 366.508L21 365.438L30.447 378.44Z" fill="#FBC02D"/>
<path style="mix-blend-mode:multiply" d="M84.3007 324.744L78.8602 317.256L75.9735 319.353C66.2219 316.735 51.5546 320.632 38.2343 330.31C24.9141 339.988 16.7055 352.712 16.1531 362.817L13.2664 364.914L18.7069 372.402C26.0393 382.494 46.6633 379.994 64.7732 366.836C82.8831 353.678 91.6331 334.835 84.3007 324.744Z" fill="url(#paint4_linear_607_12778)"/>
<path d="M13.2694 364.922C20.5979 375.008 41.2225 372.516 59.3357 359.355C77.449 346.195 86.1917 327.349 78.8632 317.263C71.5347 307.177 50.9101 309.669 32.7969 322.829C14.6836 335.99 5.94087 354.835 13.2694 364.922Z" fill="#FBC02D"/>
<path d="M16.1534 362.826C22.5765 371.666 41.1747 369.103 57.6936 357.101C74.2126 345.099 82.3969 328.202 75.9738 319.362C69.5507 310.522 50.9525 313.085 34.4336 325.087C17.9147 337.09 9.73035 353.986 16.1534 362.826Z" fill="#F9A825"/>
<path style="mix-blend-mode:multiply" d="M16.1534 362.826C22.5765 371.666 41.1747 369.103 57.6936 357.101C74.2126 345.099 82.3969 328.202 75.9738 319.362C69.5507 310.522 50.9525 313.085 34.4336 325.087C17.9147 337.09 9.73035 353.986 16.1534 362.826Z" fill="url(#paint5_linear_607_12778)"/>
<path style="mix-blend-mode:multiply" d="M35.6107 326.707C51.6233 315.073 69.5844 312.303 76.5248 320.195C76.3515 319.907 76.1664 319.627 75.9695 319.356C69.5488 310.519 50.9528 313.085 34.4336 325.087C17.9144 337.09 9.72846 353.983 16.1492 362.82C16.3455 363.092 16.5565 363.354 16.7811 363.603C11.4136 354.568 19.5981 338.342 35.6107 326.707Z" fill="url(#paint6_radial_607_12778)"/>
<g style="mix-blend-mode:multiply">
<path style="mix-blend-mode:multiply" d="M38.9272 347.898L52.0663 350.161L67.5648 327.091L40.8387 334.708L38.9272 347.898Z" fill="url(#paint7_linear_607_12778)"/>
<path style="mix-blend-mode:multiply" d="M36.5162 349.65L38.4219 336.465L26.1004 357.218L49.6538 351.924L36.5162 349.65Z" fill="url(#paint8_linear_607_12778)"/>
</g>
<path d="M66.8585 326.12L65.7859 326.638L38.3736 346.555L38.2209 346.927L51.3558 349.185L66.8585 326.12Z" fill="#FDD835"/>
<path d="M66.8609 326.118L40.1434 333.747L38.2361 346.943L66.8738 326.136L66.8609 326.118Z" fill="#FDD835"/>
<path d="M35.8133 348.675L35.552 348.712L25.7842 355.809L25.3974 356.243L48.9465 350.943L35.8133 348.675Z" fill="#FDD835"/>
<path d="M25.4044 356.245L35.8202 348.677L37.7344 335.504L25.4044 356.245Z" fill="#FDD835"/>
<path d="M38.2228 346.927L51.3577 349.185L51.5312 337.258L38.2228 346.927Z" fill="#FDD835"/>
<path d="M40.1444 333.75L38.2372 346.946L51.5457 337.276L40.1444 333.75Z" fill="#FDD835"/>
<path d="M574.966 224.161L583.039 217.051L580.298 213.939C582.267 202.37 576.163 185.822 563.515 171.461C550.868 157.1 535.223 148.953 523.499 149.444L520.763 146.338L512.69 153.448C501.81 163.03 506.94 186.617 524.135 206.142C541.331 225.667 564.086 233.743 574.966 224.161Z" fill="#FDD835"/>
<path d="M560.121 228.029L574.14 215.684L575.516 217.246L563.104 228.176C562.108 228.183 561.112 228.134 560.121 228.029Z" fill="#FBC02D"/>
<path d="M552.48 226.253L569.922 210.893L571.32 212.48L554.857 226.98C554.095 226.793 553.307 226.551 552.48 226.253Z" fill="#FBC02D"/>
<path d="M546.014 223.536L565.749 206.156L567.125 207.719L548.07 224.5C547.404 224.218 546.706 223.886 546.014 223.536Z" fill="#FBC02D"/>
<path d="M540.19 220.16L561.531 201.365L562.93 202.953L542.058 221.334C541.457 220.984 540.834 220.597 540.19 220.16Z" fill="#FBC02D"/>
<path d="M534.918 216.392L557.358 196.629L558.734 198.191L536.605 217.68C536.061 217.28 535.489 216.848 534.918 216.392Z" fill="#FBC02D"/>
<path d="M530.021 212.199L553.141 191.838L554.539 193.426L531.597 213.631C531.078 213.208 530.564 212.714 530.021 212.199Z" fill="#FBC02D"/>
<path d="M525.549 207.722L548.968 187.098L550.344 188.66L526.989 209.229C526.515 208.755 526.032 208.244 525.549 207.722Z" fill="#FBC02D"/>
<path d="M522.753 204.55C522.283 204.017 521.851 203.461 521.418 202.906L544.773 182.338L546.172 183.926L522.753 204.55Z" fill="#FBC02D"/>
<path d="M518.833 199.498C518.414 198.92 518.008 198.33 517.612 197.754L540.555 177.549L541.953 179.137L518.833 199.498Z" fill="#FBC02D"/>
<path d="M515.341 194.157C514.961 193.534 514.604 192.911 514.254 192.295L536.383 172.807L537.781 174.395L515.341 194.157Z" fill="#FBC02D"/>
<path d="M512.221 188.405C511.892 187.736 511.586 187.069 511.293 186.403L532.164 168.021L533.562 169.609L512.221 188.405Z" fill="#FBC02D"/>
<path d="M509.655 182.249C509.395 181.519 509.154 180.784 508.929 180.069L527.984 163.287L529.383 164.875L509.655 182.249Z" fill="#FBC02D"/>
<path d="M507.73 175.443C507.561 174.61 507.414 173.803 507.31 172.993L523.773 158.494L525.172 160.082L507.73 175.443Z" fill="#FBC02D"/>
<path d="M506.982 167.685C506.994 166.681 507.064 165.679 507.19 164.682L519.602 153.752L521 155.34L506.982 167.685Z" fill="#FBC02D"/>
<path style="mix-blend-mode:multiply" d="M574.966 224.161L583.039 217.051L580.298 213.939C582.267 202.37 576.163 185.822 563.515 171.461C550.868 157.1 535.223 148.953 523.499 149.444L520.763 146.338L512.69 153.448C501.81 163.03 506.94 186.617 524.135 206.142C541.331 225.667 564.086 233.743 574.966 224.161Z" fill="url(#paint9_linear_607_12778)"/>
<path d="M520.755 146.34C509.88 155.917 515.007 179.512 532.206 199.041C549.404 218.569 572.162 226.637 583.036 217.06C593.911 207.483 588.784 183.888 571.586 164.359C554.387 144.83 531.629 136.763 520.755 146.34Z" fill="#FBC02D"/>
<path d="M523.498 149.454C513.967 157.848 518.955 179.09 534.64 196.899C550.325 214.709 570.766 222.342 580.297 213.948C589.828 205.555 584.84 184.312 569.155 166.503C553.47 148.693 533.029 141.06 523.498 149.454Z" fill="#F9A825"/>
<path style="mix-blend-mode:multiply" d="M523.498 149.454C513.967 157.848 518.955 179.09 534.64 196.899C550.325 214.709 570.766 222.342 580.297 213.948C589.828 205.555 584.84 184.312 569.155 166.503C553.47 148.693 533.029 141.06 523.498 149.454Z" fill="url(#paint10_linear_607_12778)"/>
<path style="mix-blend-mode:multiply" d="M567.385 168.018C582.589 185.281 587.748 205.764 579.37 214.653C579.685 214.421 579.988 214.177 580.28 213.919C589.808 205.529 584.817 184.289 569.131 166.479C553.446 148.669 533.008 141.034 523.481 149.425C523.188 149.682 522.896 149.939 522.643 150.241C532.542 143.079 552.203 150.779 567.385 168.018Z" fill="url(#paint11_radial_607_12778)"/>
<g style="mix-blend-mode:multiply">
<path style="mix-blend-mode:multiply" d="M559.055 175.835L563.438 175.945L552.748 163.807L540.86 163.551L544.798 168.022L552.307 168.199L559.055 175.835Z" fill="url(#paint12_linear_607_12778)"/>
<path style="mix-blend-mode:multiply" d="M565.791 183.476L565.346 187.849L569.735 187.954L570.179 183.592L566.253 179.133L561.87 179.023L565.791 183.476Z" fill="url(#paint13_linear_607_12778)"/>
<path style="mix-blend-mode:multiply" d="M561.883 190.897L557.501 190.775L557.049 195.154L561.444 195.253L561.883 190.897Z" fill="url(#paint14_linear_607_12778)"/>
<path style="mix-blend-mode:multiply" d="M551.984 171.31L547.612 171.212L551.539 175.671L555.922 175.781L551.984 171.31Z" fill="url(#paint15_linear_607_12778)"/>
<path style="mix-blend-mode:multiply" d="M541.664 167.941L537.743 163.489L533.361 163.367L532.909 167.746L536.83 172.198L537.288 167.826L541.664 167.941Z" fill="url(#paint16_linear_607_12778)"/>
<path style="mix-blend-mode:multiply" d="M549.205 198.081L545.284 193.629L544.833 197.996L548.76 202.455L553.149 202.559L553.594 198.198L549.205 198.081Z" fill="url(#paint17_linear_607_12778)"/>
<path style="mix-blend-mode:multiply" d="M542.463 190.45L535.741 182.791L536.52 175.327L532.576 170.849L531.335 182.668L542.025 194.806L542.463 190.45Z" fill="url(#paint18_linear_607_12778)"/>
<path style="mix-blend-mode:multiply" d="M542.811 187.327L543.25 182.971L539.323 178.512L538.868 182.849L542.811 187.327Z" fill="url(#paint19_linear_607_12778)"/>
<path style="mix-blend-mode:multiply" d="M564.249 198.444L556.711 198.259L556.272 202.615L568.17 202.896L569.382 191.069L565 190.959L564.249 198.444Z" fill="url(#paint20_linear_607_12778)"/>
<path style="mix-blend-mode:multiply" d="M549.546 194.97L549.533 194.981L553.922 195.086L554.698 187.591L562.205 187.791L562.656 183.424L558.712 178.946L551.191 178.781L544.445 171.121L540.085 171.024L539.624 175.367L546.37 183.027L545.583 190.509L549.546 194.97Z" fill="url(#paint21_linear_607_12778)"/>
</g>
<path d="M560.027 174.982L553.314 167.36L545.817 167.196L541.901 162.75L553.783 163L564.422 175.081L560.027 174.982ZM566.739 182.604L562.824 178.158L567.206 178.268L571.122 182.714L570.677 187.076L566.288 186.971L566.739 182.604ZM562.832 190.026L562.388 194.388L557.999 194.283L558.444 189.91L562.832 190.026Z" fill="#FDD835"/>
<path d="M552.954 170.452L556.869 174.898L552.487 174.788L548.571 170.342L552.954 170.452ZM542.659 167.112L538.271 166.996L537.826 171.369L533.91 166.923L534.361 162.556L538.744 162.666L542.659 167.112ZM554.57 197.348L554.125 201.709L549.736 201.605L545.82 197.159L546.271 192.792L550.187 197.238L554.57 197.348ZM536.717 181.943L543.43 189.565L542.985 193.927L532.295 181.789L533.543 169.964L537.459 174.41L536.717 181.943Z" fill="#FDD835"/>
<path d="M539.834 181.996L540.295 177.654L544.211 182.1L543.766 186.462L539.834 181.996Z" fill="#FDD835"/>
<path d="M550.525 194.143L546.582 189.665L547.379 182.195L540.633 174.535L541.088 170.199L545.454 170.29L552.172 177.918L559.682 178.071L563.654 182.58L563.197 186.953L555.69 186.74L554.921 194.242L550.532 194.137L550.525 194.143ZM570.354 190.213L569.136 202.046L557.238 201.765L557.682 197.403L565.186 197.561L565.971 190.103L570.354 190.213Z" fill="#FDD835"/>
<path d="M333.301 390.469L330.438 398.024L331.463 398.412C329.762 416.016 343.059 434.735 364.443 442.837C385.826 450.939 408.149 445.715 418.549 431.407L419.565 431.792L422.427 424.237C429.85 404.646 415.923 381.213 391.322 371.892C366.722 362.572 340.723 370.878 333.301 390.469Z" fill="#FDD835"/>
<path d="M346.849 374.436L340.609 390.906L338.641 390.16L343.795 376.555C344.776 375.796 345.795 375.089 346.849 374.436Z" fill="#FBC02D"/>
<path d="M355.213 370.568L346.641 393.192L344.641 392.434L352.545 371.57C353.384 371.193 354.276 370.844 355.213 370.568Z" fill="#FBC02D"/>
<path d="M362.745 368.7L352.609 395.453L350.641 394.707L360.316 369.17C361.093 368.979 361.92 368.826 362.745 368.7Z" fill="#FBC02D"/>
<path d="M369.883 368.088L358.649 397.738L356.648 396.98L367.564 368.17C368.297 368.119 369.071 368.082 369.883 368.088Z" fill="#FBC02D"/>
<path d="M376.618 368.329L364.617 400.004L362.648 399.258L374.419 368.191C375.122 368.219 375.856 368.287 376.618 368.329Z" fill="#FBC02D"/>
<path d="M383.099 369.43L370.649 402.289L368.648 401.531L380.974 369C381.643 369.116 382.358 369.259 383.099 369.43Z" fill="#FBC02D"/>
<path d="M389.275 371.163L376.625 404.551L374.656 403.805L387.264 370.529C387.917 370.713 388.596 370.924 389.275 371.163Z" fill="#FBC02D"/>
<path d="M393.275 372.679C393.947 372.933 394.59 373.241 395.236 373.541L382.626 406.824L380.625 406.066L393.275 372.679Z" fill="#FBC02D"/>
<path d="M399.106 375.492C399.742 375.843 400.372 376.21 400.982 376.578L388.657 409.11L386.656 408.352L399.106 375.492Z" fill="#FBC02D"/>
<path d="M404.626 378.938C405.239 379.372 405.834 379.808 406.411 380.265L394.626 411.371L392.625 410.613L404.626 378.938Z" fill="#FBC02D"/>
<path d="M409.893 383.248C410.473 383.77 411.028 384.31 411.572 384.854L400.657 413.664L398.656 412.906L409.893 383.248Z" fill="#FBC02D"/>
<path d="M414.769 388.411C415.304 389.053 415.818 389.723 416.309 390.385L406.634 415.922L404.633 415.164L414.769 388.411Z" fill="#FBC02D"/>
<path d="M419.236 394.825C419.717 395.657 420.16 396.493 420.569 397.344L412.665 418.207L410.664 417.449L419.236 394.825Z" fill="#FBC02D"/>
<path d="M422.874 403.241C423.24 404.439 423.543 405.657 423.78 406.888L418.626 420.492L416.625 419.734L422.874 403.241Z" fill="#FBC02D"/>
<path style="mix-blend-mode:multiply" d="M333.301 390.469L330.438 398.024L331.463 398.412C329.762 416.016 343.059 434.735 364.443 442.837C385.826 450.939 408.149 445.715 418.549 431.407L419.565 431.792L422.427 424.237C429.85 404.646 415.923 381.213 391.322 371.892C366.722 362.572 340.723 370.878 333.301 390.469Z" fill="url(#paint22_linear_607_12778)"/>
<path d="M419.541 431.783C426.963 412.194 413.033 388.757 388.428 379.435C363.823 370.113 337.86 378.435 330.438 398.024C323.016 417.612 336.946 441.049 361.551 450.372C386.157 459.694 412.119 451.371 419.541 431.783Z" fill="#FBC02D"/>
<path d="M415.615 430.295C422.119 413.128 409.201 392.32 386.761 383.818C364.322 375.316 340.859 382.34 334.355 399.507C327.851 416.674 340.769 437.482 363.208 445.984C385.648 454.485 409.111 447.461 415.615 430.295Z" fill="#F9A825"/>
<path style="mix-blend-mode:multiply" d="M415.615 430.295C422.119 413.128 409.201 392.32 386.761 383.818C364.322 375.316 340.859 382.34 334.355 399.507C327.851 416.674 340.769 437.482 363.208 445.984C385.648 454.485 409.111 447.461 415.615 430.295Z" fill="url(#paint23_linear_607_12778)"/>
<path style="mix-blend-mode:multiply" d="M363.969 444.066C341.954 435.725 329.114 415.532 334.784 398.562C334.663 398.882 334.538 399.21 334.417 399.53C327.913 416.696 340.831 437.505 363.271 446.007C385.711 454.509 409.174 447.484 415.677 430.318C415.799 429.998 415.923 429.67 416.044 429.35C408.942 445.776 385.953 452.395 363.969 444.066Z" fill="url(#paint24_radial_607_12778)"/>
<g style="mix-blend-mode:multiply">
<path style="mix-blend-mode:multiply" d="M370.456 425.936L366.227 428.598L381.52 434.392L392.984 427.104L387.35 424.969L380.101 429.562L370.456 425.936Z" fill="url(#paint25_linear_607_12778)"/>
<path style="mix-blend-mode:multiply" d="M360.824 422.287L359.424 417.455L355.182 420.149L356.583 424.954L362.201 427.083L366.434 424.413L360.824 422.287Z" fill="url(#paint26_linear_607_12778)"/>
<path style="mix-blend-mode:multiply" d="M361.458 412.095L365.699 409.428L364.296 404.604L360.057 407.29L361.458 412.095Z" fill="url(#paint27_linear_607_12778)"/>
<path style="mix-blend-mode:multiply" d="M379.111 426.123L383.327 423.447L377.71 421.318L373.477 423.988L379.111 426.123Z" fill="url(#paint28_linear_607_12778)"/>
<path style="mix-blend-mode:multiply" d="M390.383 423.051L395.993 425.176L400.234 422.509L398.831 417.686L393.221 415.56L394.616 420.381L390.383 423.051Z" fill="url(#paint29_linear_607_12778)"/>
<path style="mix-blend-mode:multiply" d="M370.566 396.584L376.176 398.709L374.784 393.881L369.166 391.752L364.924 394.446L366.325 399.251L370.566 396.584Z" fill="url(#paint30_linear_607_12778)"/>
<path style="mix-blend-mode:multiply" d="M380.2 400.203L389.826 403.878L392.207 412.11L397.849 414.248L394.092 401.193L378.799 395.399L380.2 400.203Z" fill="url(#paint31_linear_607_12778)"/>
<path style="mix-blend-mode:multiply" d="M381.179 403.669L382.583 408.466L388.201 410.594L386.821 405.807L381.179 403.669Z" fill="url(#paint32_linear_607_12778)"/>
<path style="mix-blend-mode:multiply" d="M356.036 405.767L363.315 401.167L361.914 396.362L350.426 403.641L354.213 416.689L358.446 414.019L356.036 405.767Z" fill="url(#paint33_linear_607_12778)"/>
<path style="mix-blend-mode:multiply" d="M371.542 400.01L371.548 399.994L367.306 402.688L369.702 410.953L362.445 415.516L363.84 420.337L369.482 422.474L376.738 417.866L386.389 421.522L390.598 418.843L389.221 414.048L379.57 410.391L377.19 402.131L371.542 400.01Z" fill="url(#paint34_linear_607_12778)"/>
</g>
<path d="M369.884 427.427L379.488 431.065L386.715 426.482L392.317 428.605L380.965 435.862L365.663 430.065L369.884 427.427ZM360.281 423.788L365.883 425.911L361.622 428.533L356.02 426.411L354.619 421.606L358.858 418.92L360.281 423.788ZM360.871 413.607L359.47 408.802L363.709 406.116L365.112 410.94L360.871 413.607Z" fill="#FDD835"/>
<path d="M378.545 427.622L372.943 425.5L377.176 422.83L382.778 424.952L378.545 427.622ZM389.773 424.555L394.014 421.888L392.611 417.065L398.213 419.187L399.608 424.008L395.423 426.696L389.773 424.555ZM365.751 400.738L364.35 395.933L368.589 393.247L374.191 395.37L375.586 400.19L369.984 398.068L365.751 400.738ZM389.255 405.369L379.651 401.731L378.25 396.926L393.544 402.72L397.301 415.775L391.699 413.653L389.255 405.369Z" fill="#FDD835"/>
<path d="M386.253 407.304L387.63 412.1L382.028 409.977L380.627 405.173L386.253 407.304Z" fill="#FDD835"/>
<path d="M370.947 401.505L376.589 403.642L378.965 411.864L388.617 415.521L389.994 420.316L385.806 423.058L376.155 419.402L368.928 423.985L363.246 421.832L361.851 417.011L369.118 412.443L366.702 404.207L370.941 401.521L370.947 401.505ZM353.642 418.193L349.856 405.145L361.344 397.866L362.745 402.671L355.518 407.254L357.894 415.475L353.642 418.193Z" fill="#FDD835"/>
<defs>
<linearGradient id="paint0_linear_607_12778" x1="131.445" y1="40.6978" x2="77.4458" y2="144.957" gradientUnits="userSpaceOnUse">
<stop offset="0.02" stop-color="white" stop-opacity="0"/>
<stop offset="1" stop-color="#F9A825"/>
</linearGradient>
<linearGradient id="paint1_linear_607_12778" x1="125.206" y1="34.8385" x2="64.8602" y2="151.35" gradientUnits="userSpaceOnUse">
<stop offset="0.02" stop-color="white" stop-opacity="0"/>
<stop offset="1" stop-color="#F9A825"/>
</linearGradient>
<radialGradient id="paint2_radial_607_12778" cx="0" cy="0" r="1" gradientUnits="userSpaceOnUse" gradientTransform="translate(97.6778 52.2739) rotate(27.3811) scale(33.6801 44.4577)">
<stop offset="0.02" stop-color="white" stop-opacity="0"/>
<stop offset="1" stop-color="#F9A825"/>
</radialGradient>
<linearGradient id="paint3_linear_607_12778" x1="129.128" y1="29.4019" x2="96.001" y2="93.3616" gradientUnits="userSpaceOnUse">
<stop stop-color="#F9A825"/>
<stop offset="0.1" stop-color="#F9AA29" stop-opacity="0.98"/>
<stop offset="0.23" stop-color="#F9AF36" stop-opacity="0.92"/>
<stop offset="0.36" stop-color="#FAB74C" stop-opacity="0.82"/>
<stop offset="0.5" stop-color="#FBC36A" stop-opacity="0.68"/>
<stop offset="0.65" stop-color="#FCD390" stop-opacity="0.51"/>
<stop offset="0.8" stop-color="#FDE6BF" stop-opacity="0.29"/>
<stop offset="0.96" stop-color="#FFFBF6" stop-opacity="0.04"/>
<stop offset="0.98" stop-color="white" stop-opacity="0"/>
</linearGradient>
<linearGradient id="paint4_linear_607_12778" x1="73.3016" y1="332.735" x2="0.296528" y2="385.779" gradientUnits="userSpaceOnUse">
<stop offset="0.02" stop-color="white" stop-opacity="0"/>
<stop offset="1" stop-color="#F9A825"/>
</linearGradient>
<linearGradient id="paint5_linear_607_12778" x1="62.3648" y1="329.25" x2="-34.4117" y2="399.565" gradientUnits="userSpaceOnUse">
<stop offset="0.02" stop-color="white" stop-opacity="0"/>
<stop offset="1" stop-color="#F9A825"/>
</linearGradient>
<radialGradient id="paint6_radial_607_12778" cx="0" cy="0" r="1" gradientUnits="userSpaceOnUse" gradientTransform="translate(40.4119 333.589) rotate(53.9989) scale(27.1552 36.6595)">
<stop offset="0.02" stop-color="white" stop-opacity="0"/>
<stop offset="1" stop-color="#F9A825"/>
</radialGradient>
<linearGradient id="paint7_linear_607_12778" x1="74.6562" y1="322.145" x2="-95.6855" y2="444.696" gradientUnits="userSpaceOnUse">
<stop stop-color="#F9A825"/>
<stop offset="0.04" stop-color="#FAB443" stop-opacity="0.86"/>
<stop offset="0.09" stop-color="#FBC36A" stop-opacity="0.68"/>
<stop offset="0.15" stop-color="#FCD28E" stop-opacity="0.52"/>
<stop offset="0.22" stop-color="#FDDEAC" stop-opacity="0.38"/>
<stop offset="0.29" stop-color="#FDE8C6" stop-opacity="0.26"/>
<stop offset="0.37" stop-color="#FEF1DB" stop-opacity="0.16"/>
<stop offset="0.46" stop-color="#FEF7EB" stop-opacity="0.09"/>
<stop offset="0.56" stop-color="#FFFCF7" stop-opacity="0.04"/>
<stop offset="0.7" stop-color="#FFFEFD" stop-opacity="0.01"/>
<stop offset="0.98" stop-color="white" stop-opacity="0"/>
</linearGradient>
<linearGradient id="paint8_linear_607_12778" x1="74.6045" y1="322.201" x2="-95.5252" y2="444.598" gradientUnits="userSpaceOnUse">
<stop stop-color="#F9A825"/>
<stop offset="0.04" stop-color="#FAB443" stop-opacity="0.86"/>
<stop offset="0.09" stop-color="#FBC36A" stop-opacity="0.68"/>
<stop offset="0.15" stop-color="#FCD28E" stop-opacity="0.52"/>
<stop offset="0.22" stop-color="#FDDEAC" stop-opacity="0.38"/>
<stop offset="0.29" stop-color="#FDE8C6" stop-opacity="0.26"/>
<stop offset="0.37" stop-color="#FEF1DB" stop-opacity="0.16"/>
<stop offset="0.46" stop-color="#FEF7EB" stop-opacity="0.09"/>
<stop offset="0.56" stop-color="#FFFCF7" stop-opacity="0.04"/>
<stop offset="0.7" stop-color="#FFFEFD" stop-opacity="0.01"/>
<stop offset="0.98" stop-color="white" stop-opacity="0"/>
</linearGradient>
<linearGradient id="paint9_linear_607_12778" x1="564.522" y1="212.303" x2="495.21" y2="133.599" gradientUnits="userSpaceOnUse">
<stop offset="0.02" stop-color="white" stop-opacity="0"/>
<stop offset="1" stop-color="#F9A825"/>
</linearGradient>
<linearGradient id="paint10_linear_607_12778" x1="567.376" y1="199.276" x2="475.486" y2="94.9374" gradientUnits="userSpaceOnUse">
<stop offset="0.02" stop-color="white" stop-opacity="0"/>
<stop offset="1" stop-color="#F9A825"/>
</linearGradient>
<radialGradient id="paint11_radial_607_12778" cx="0" cy="0" r="1" gradientUnits="userSpaceOnUse" gradientTransform="translate(559.399 173.702) rotate(138.63) scale(31.5611 42.6076)">
<stop offset="0.02" stop-color="white" stop-opacity="0"/>
<stop offset="1" stop-color="#F9A825"/>
</radialGradient>
<linearGradient id="paint12_linear_607_12778" x1="567.285" y1="184.963" x2="481.973" y2="97.1846" gradientUnits="userSpaceOnUse">
<stop stop-color="#F9A825"/>
<stop offset="0.05" stop-color="#FAB74B" stop-opacity="0.83"/>
<stop offset="0.12" stop-color="#FBC875" stop-opacity="0.63"/>
<stop offset="0.2" stop-color="#FCD79A" stop-opacity="0.46"/>
<stop offset="0.27" stop-color="#FDE3B9" stop-opacity="0.32"/>
<stop offset="0.35" stop-color="#FEEDD3" stop-opacity="0.2"/>
<stop offset="0.44" stop-color="#FEF5E6" stop-opacity="0.11"/>
<stop offset="0.53" stop-color="#FFFBF4" stop-opacity="0.05"/>
<stop offset="0.63" stop-color="#FFFEFC" stop-opacity="0.01"/>
<stop offset="0.78" stop-color="white" stop-opacity="0"/>
</linearGradient>
<linearGradient id="paint13_linear_607_12778" x1="567.384" y1="185.118" x2="481.221" y2="96.4765" gradientUnits="userSpaceOnUse">
<stop stop-color="#F9A825"/>
<stop offset="0.05" stop-color="#FAB74B" stop-opacity="0.83"/>
<stop offset="0.12" stop-color="#FBC875" stop-opacity="0.63"/>
<stop offset="0.2" stop-color="#FCD79A" stop-opacity="0.46"/>
<stop offset="0.27" stop-color="#FDE3B9" stop-opacity="0.32"/>
<stop offset="0.35" stop-color="#FEEDD3" stop-opacity="0.2"/>
<stop offset="0.44" stop-color="#FEF5E6" stop-opacity="0.11"/>
<stop offset="0.53" stop-color="#FFFBF4" stop-opacity="0.05"/>
<stop offset="0.63" stop-color="#FFFEFC" stop-opacity="0.01"/>
<stop offset="0.78" stop-color="white" stop-opacity="0"/>
</linearGradient>
<linearGradient id="paint14_linear_607_12778" x1="559.582" y1="193.138" x2="473.413" y2="104.49" gradientUnits="userSpaceOnUse">
<stop stop-color="#F9A825"/>
<stop offset="0.05" stop-color="#FAB74B" stop-opacity="0.83"/>
<stop offset="0.12" stop-color="#FBC875" stop-opacity="0.63"/>
<stop offset="0.2" stop-color="#FCD79A" stop-opacity="0.46"/>
<stop offset="0.27" stop-color="#FDE3B9" stop-opacity="0.32"/>
<stop offset="0.35" stop-color="#FEEDD3" stop-opacity="0.2"/>
<stop offset="0.44" stop-color="#FEF5E6" stop-opacity="0.11"/>
<stop offset="0.53" stop-color="#FFFBF4" stop-opacity="0.05"/>
<stop offset="0.63" stop-color="#FFFEFC" stop-opacity="0.01"/>
<stop offset="0.78" stop-color="white" stop-opacity="0"/>
</linearGradient>
<linearGradient id="paint15_linear_607_12778" x1="565.109" y1="187.224" x2="479.796" y2="99.4459" gradientUnits="userSpaceOnUse">
<stop stop-color="#F9A825"/>
<stop offset="0.05" stop-color="#FAB74B" stop-opacity="0.83"/>
<stop offset="0.12" stop-color="#FBC875" stop-opacity="0.63"/>
<stop offset="0.2" stop-color="#FCD79A" stop-opacity="0.46"/>
<stop offset="0.27" stop-color="#FDE3B9" stop-opacity="0.32"/>
<stop offset="0.35" stop-color="#FEEDD3" stop-opacity="0.2"/>
<stop offset="0.44" stop-color="#FEF5E6" stop-opacity="0.11"/>
<stop offset="0.53" stop-color="#FFFBF4" stop-opacity="0.05"/>
<stop offset="0.63" stop-color="#FFFEFC" stop-opacity="0.01"/>
<stop offset="0.78" stop-color="white" stop-opacity="0"/>
</linearGradient>
<linearGradient id="paint16_linear_607_12778" x1="560.485" y1="191.707" x2="475.173" y2="103.929" gradientUnits="userSpaceOnUse">
<stop stop-color="#F9A825"/>
<stop offset="0.05" stop-color="#FAB74B" stop-opacity="0.83"/>
<stop offset="0.12" stop-color="#FBC875" stop-opacity="0.63"/>
<stop offset="0.2" stop-color="#FCD79A" stop-opacity="0.46"/>
<stop offset="0.27" stop-color="#FDE3B9" stop-opacity="0.32"/>
<stop offset="0.35" stop-color="#FEEDD3" stop-opacity="0.2"/>
<stop offset="0.44" stop-color="#FEF5E6" stop-opacity="0.11"/>
<stop offset="0.53" stop-color="#FFFBF4" stop-opacity="0.05"/>
<stop offset="0.63" stop-color="#FFFEFC" stop-opacity="0.01"/>
<stop offset="0.78" stop-color="white" stop-opacity="0"/>
</linearGradient>
<linearGradient id="paint17_linear_607_12778" x1="551.877" y1="201.051" x2="465.721" y2="112.404" gradientUnits="userSpaceOnUse">
<stop stop-color="#F9A825"/>
<stop offset="0.05" stop-color="#FAB74B" stop-opacity="0.83"/>
<stop offset="0.12" stop-color="#FBC875" stop-opacity="0.63"/>
<stop offset="0.2" stop-color="#FCD79A" stop-opacity="0.46"/>
<stop offset="0.27" stop-color="#FDE3B9" stop-opacity="0.32"/>
<stop offset="0.35" stop-color="#FEEDD3" stop-opacity="0.2"/>
<stop offset="0.44" stop-color="#FEF5E6" stop-opacity="0.11"/>
<stop offset="0.53" stop-color="#FFFBF4" stop-opacity="0.05"/>
<stop offset="0.63" stop-color="#FFFEFC" stop-opacity="0.01"/>
<stop offset="0.78" stop-color="white" stop-opacity="0"/>
</linearGradient>
<linearGradient id="paint18_linear_607_12778" x1="553.634" y1="199.638" x2="466.576" y2="110.07" gradientUnits="userSpaceOnUse">
<stop stop-color="#F9A825"/>
<stop offset="0.05" stop-color="#FAB74B" stop-opacity="0.83"/>
<stop offset="0.12" stop-color="#FBC875" stop-opacity="0.63"/>
<stop offset="0.2" stop-color="#FCD79A" stop-opacity="0.46"/>
<stop offset="0.27" stop-color="#FDE3B9" stop-opacity="0.32"/>
<stop offset="0.35" stop-color="#FEEDD3" stop-opacity="0.2"/>
<stop offset="0.44" stop-color="#FEF5E6" stop-opacity="0.11"/>
<stop offset="0.53" stop-color="#FFFBF4" stop-opacity="0.05"/>
<stop offset="0.63" stop-color="#FFFEFC" stop-opacity="0.01"/>
<stop offset="0.78" stop-color="white" stop-opacity="0"/>
</linearGradient>
<linearGradient id="paint19_linear_607_12778" x1="555.453" y1="197.724" x2="468.395" y2="108.156" gradientUnits="userSpaceOnUse">
<stop stop-color="#F9A825"/>
<stop offset="0.05" stop-color="#FAB74B" stop-opacity="0.83"/>
<stop offset="0.12" stop-color="#FBC875" stop-opacity="0.63"/>
<stop offset="0.2" stop-color="#FCD79A" stop-opacity="0.46"/>
<stop offset="0.27" stop-color="#FDE3B9" stop-opacity="0.32"/>
<stop offset="0.35" stop-color="#FEEDD3" stop-opacity="0.2"/>
<stop offset="0.44" stop-color="#FEF5E6" stop-opacity="0.11"/>
<stop offset="0.53" stop-color="#FFFBF4" stop-opacity="0.05"/>
<stop offset="0.63" stop-color="#FFFEFC" stop-opacity="0.01"/>
<stop offset="0.78" stop-color="white" stop-opacity="0"/>
</linearGradient>
<linearGradient id="paint20_linear_607_12778" x1="559.517" y1="193.442" x2="474.514" y2="105.989" gradientUnits="userSpaceOnUse">
<stop stop-color="#F9A825"/>
<stop offset="0.05" stop-color="#FAB74B" stop-opacity="0.83"/>
<stop offset="0.12" stop-color="#FBC875" stop-opacity="0.63"/>
<stop offset="0.2" stop-color="#FCD79A" stop-opacity="0.46"/>
<stop offset="0.27" stop-color="#FDE3B9" stop-opacity="0.32"/>
<stop offset="0.35" stop-color="#FEEDD3" stop-opacity="0.2"/>
<stop offset="0.44" stop-color="#FEF5E6" stop-opacity="0.11"/>
<stop offset="0.53" stop-color="#FFFBF4" stop-opacity="0.05"/>
<stop offset="0.63" stop-color="#FFFEFC" stop-opacity="0.01"/>
<stop offset="0.78" stop-color="white" stop-opacity="0"/>
</linearGradient>
<linearGradient id="paint21_linear_607_12778" x1="559.744" y1="192.745" x2="474.059" y2="104.595" gradientUnits="userSpaceOnUse">
<stop stop-color="#F9A825"/>
<stop offset="0.05" stop-color="#FAB74B" stop-opacity="0.83"/>
<stop offset="0.12" stop-color="#FBC875" stop-opacity="0.63"/>
<stop offset="0.2" stop-color="#FCD79A" stop-opacity="0.46"/>
<stop offset="0.27" stop-color="#FDE3B9" stop-opacity="0.32"/>
<stop offset="0.35" stop-color="#FEEDD3" stop-opacity="0.2"/>
<stop offset="0.44" stop-color="#FEF5E6" stop-opacity="0.11"/>
<stop offset="0.53" stop-color="#FFFBF4" stop-opacity="0.05"/>
<stop offset="0.63" stop-color="#FFFEFC" stop-opacity="0.01"/>
<stop offset="0.78" stop-color="white" stop-opacity="0"/>
</linearGradient>
<linearGradient id="paint22_linear_607_12778" x1="353.043" y1="397.949" x2="460.705" y2="438.739" gradientUnits="userSpaceOnUse">
<stop offset="0.02" stop-color="white" stop-opacity="0"/>
<stop offset="1" stop-color="#F9A825"/>
</linearGradient>
<linearGradient id="paint23_linear_607_12778" x1="348.039" y1="404.692" x2="468.353" y2="450.276" gradientUnits="userSpaceOnUse">
<stop offset="0.02" stop-color="white" stop-opacity="0"/>
<stop offset="1" stop-color="#F9A825"/>
</linearGradient>
<radialGradient id="paint24_radial_607_12778" cx="0" cy="0" r="1" gradientUnits="userSpaceOnUse" gradientTransform="translate(368.666 429.73) rotate(-69.2495) scale(33.025 43.593)">
<stop offset="0.02" stop-color="white" stop-opacity="0"/>
<stop offset="1" stop-color="#F9A825"/>
</radialGradient>
<linearGradient id="paint25_linear_607_12778" x1="358.802" y1="421.383" x2="477.028" y2="459.651" gradientUnits="userSpaceOnUse">
<stop stop-color="#F9A825"/>
<stop offset="0.05" stop-color="#FAB74B" stop-opacity="0.83"/>
<stop offset="0.12" stop-color="#FBC875" stop-opacity="0.63"/>
<stop offset="0.2" stop-color="#FCD79A" stop-opacity="0.46"/>
<stop offset="0.27" stop-color="#FDE3B9" stop-opacity="0.32"/>
<stop offset="0.35" stop-color="#FEEDD3" stop-opacity="0.2"/>
<stop offset="0.44" stop-color="#FEF5E6" stop-opacity="0.11"/>
<stop offset="0.53" stop-color="#FFFBF4" stop-opacity="0.05"/>
<stop offset="0.63" stop-color="#FFFEFC" stop-opacity="0.01"/>
<stop offset="0.78" stop-color="white" stop-opacity="0"/>
</linearGradient>
<linearGradient id="paint26_linear_607_12778" x1="358.626" y1="421.564" x2="477.548" y2="460.05" gradientUnits="userSpaceOnUse">
<stop stop-color="#F9A825"/>
<stop offset="0.05" stop-color="#FAB74B" stop-opacity="0.83"/>
<stop offset="0.12" stop-color="#FBC875" stop-opacity="0.63"/>
<stop offset="0.2" stop-color="#FCD79A" stop-opacity="0.46"/>
<stop offset="0.27" stop-color="#FDE3B9" stop-opacity="0.32"/>
<stop offset="0.35" stop-color="#FEEDD3" stop-opacity="0.2"/>
<stop offset="0.44" stop-color="#FEF5E6" stop-opacity="0.11"/>
<stop offset="0.53" stop-color="#FFFBF4" stop-opacity="0.05"/>
<stop offset="0.63" stop-color="#FFFEFC" stop-opacity="0.01"/>
<stop offset="0.78" stop-color="white" stop-opacity="0"/>
</linearGradient>
<linearGradient id="paint27_linear_607_12778" x1="362.722" y1="408.3" x2="481.648" y2="446.797" gradientUnits="userSpaceOnUse">
<stop stop-color="#F9A825"/>
<stop offset="0.05" stop-color="#FAB74B" stop-opacity="0.83"/>
<stop offset="0.12" stop-color="#FBC875" stop-opacity="0.63"/>
<stop offset="0.2" stop-color="#FCD79A" stop-opacity="0.46"/>
<stop offset="0.27" stop-color="#FDE3B9" stop-opacity="0.32"/>
<stop offset="0.35" stop-color="#FEEDD3" stop-opacity="0.2"/>
<stop offset="0.44" stop-color="#FEF5E6" stop-opacity="0.11"/>
<stop offset="0.53" stop-color="#FFFBF4" stop-opacity="0.05"/>
<stop offset="0.63" stop-color="#FFFEFC" stop-opacity="0.01"/>
<stop offset="0.78" stop-color="white" stop-opacity="0"/>
</linearGradient>
<linearGradient id="paint28_linear_607_12778" x1="359.914" y1="417.733" x2="478.14" y2="456.001" gradientUnits="userSpaceOnUse">
<stop stop-color="#F9A825"/>
<stop offset="0.05" stop-color="#FAB74B" stop-opacity="0.83"/>
<stop offset="0.12" stop-color="#FBC875" stop-opacity="0.63"/>
<stop offset="0.2" stop-color="#FCD79A" stop-opacity="0.46"/>
<stop offset="0.27" stop-color="#FDE3B9" stop-opacity="0.32"/>
<stop offset="0.35" stop-color="#FEEDD3" stop-opacity="0.2"/>
<stop offset="0.44" stop-color="#FEF5E6" stop-opacity="0.11"/>
<stop offset="0.53" stop-color="#FFFBF4" stop-opacity="0.05"/>
<stop offset="0.63" stop-color="#FFFEFC" stop-opacity="0.01"/>
<stop offset="0.78" stop-color="white" stop-opacity="0"/>
</linearGradient>
<linearGradient id="paint29_linear_607_12778" x1="362.435" y1="409.955" x2="480.662" y2="448.223" gradientUnits="userSpaceOnUse">
<stop stop-color="#F9A825"/>
<stop offset="0.05" stop-color="#FAB74B" stop-opacity="0.83"/>
<stop offset="0.12" stop-color="#FBC875" stop-opacity="0.63"/>
<stop offset="0.2" stop-color="#FCD79A" stop-opacity="0.46"/>
<stop offset="0.27" stop-color="#FDE3B9" stop-opacity="0.32"/>
<stop offset="0.35" stop-color="#FEEDD3" stop-opacity="0.2"/>
<stop offset="0.44" stop-color="#FEF5E6" stop-opacity="0.11"/>
<stop offset="0.53" stop-color="#FFFBF4" stop-opacity="0.05"/>
<stop offset="0.63" stop-color="#FFFEFC" stop-opacity="0.01"/>
<stop offset="0.78" stop-color="white" stop-opacity="0"/>
</linearGradient>
<linearGradient id="paint30_linear_607_12778" x1="366.776" y1="395.185" x2="485.695" y2="433.679" gradientUnits="userSpaceOnUse">
<stop stop-color="#F9A825"/>
<stop offset="0.05" stop-color="#FAB74B" stop-opacity="0.83"/>
<stop offset="0.12" stop-color="#FBC875" stop-opacity="0.63"/>
<stop offset="0.2" stop-color="#FCD79A" stop-opacity="0.46"/>
<stop offset="0.27" stop-color="#FDE3B9" stop-opacity="0.32"/>
<stop offset="0.35" stop-color="#FEEDD3" stop-opacity="0.2"/>
<stop offset="0.44" stop-color="#FEF5E6" stop-opacity="0.11"/>
<stop offset="0.53" stop-color="#FFFBF4" stop-opacity="0.05"/>
<stop offset="0.63" stop-color="#FFFEFC" stop-opacity="0.01"/>
<stop offset="0.78" stop-color="white" stop-opacity="0"/>
</linearGradient>
<linearGradient id="paint31_linear_607_12778" x1="365.874" y1="397.557" x2="485.528" y2="436.284" gradientUnits="userSpaceOnUse">
<stop stop-color="#F9A825"/>
<stop offset="0.05" stop-color="#FAB74B" stop-opacity="0.83"/>
<stop offset="0.12" stop-color="#FBC875" stop-opacity="0.63"/>
<stop offset="0.2" stop-color="#FCD79A" stop-opacity="0.46"/>
<stop offset="0.27" stop-color="#FDE3B9" stop-opacity="0.32"/>
<stop offset="0.35" stop-color="#FEEDD3" stop-opacity="0.2"/>
<stop offset="0.44" stop-color="#FEF5E6" stop-opacity="0.11"/>
<stop offset="0.53" stop-color="#FFFBF4" stop-opacity="0.05"/>
<stop offset="0.63" stop-color="#FFFEFC" stop-opacity="0.01"/>
<stop offset="0.78" stop-color="white" stop-opacity="0"/>
</linearGradient>
<linearGradient id="paint32_linear_607_12778" x1="364.914" y1="400.728" x2="484.576" y2="439.458" gradientUnits="userSpaceOnUse">
<stop stop-color="#F9A825"/>
<stop offset="0.05" stop-color="#FAB74B" stop-opacity="0.83"/>
<stop offset="0.12" stop-color="#FBC875" stop-opacity="0.63"/>
<stop offset="0.2" stop-color="#FCD79A" stop-opacity="0.46"/>
<stop offset="0.27" stop-color="#FDE3B9" stop-opacity="0.32"/>
<stop offset="0.35" stop-color="#FEEDD3" stop-opacity="0.2"/>
<stop offset="0.44" stop-color="#FEF5E6" stop-opacity="0.11"/>
<stop offset="0.53" stop-color="#FFFBF4" stop-opacity="0.05"/>
<stop offset="0.63" stop-color="#FFFEFC" stop-opacity="0.01"/>
<stop offset="0.78" stop-color="white" stop-opacity="0"/>
</linearGradient>
<linearGradient id="paint33_linear_607_12778" x1="362.702" y1="408.027" x2="480.666" y2="446.214" gradientUnits="userSpaceOnUse">
<stop stop-color="#F9A825"/>
<stop offset="0.05" stop-color="#FAB74B" stop-opacity="0.83"/>
<stop offset="0.12" stop-color="#FBC875" stop-opacity="0.63"/>
<stop offset="0.2" stop-color="#FCD79A" stop-opacity="0.46"/>
<stop offset="0.27" stop-color="#FDE3B9" stop-opacity="0.32"/>
<stop offset="0.35" stop-color="#FEEDD3" stop-opacity="0.2"/>
<stop offset="0.44" stop-color="#FEF5E6" stop-opacity="0.11"/>
<stop offset="0.53" stop-color="#FFFBF4" stop-opacity="0.05"/>
<stop offset="0.63" stop-color="#FFFEFC" stop-opacity="0.01"/>
<stop offset="0.78" stop-color="white" stop-opacity="0"/>
</linearGradient>
<linearGradient id="paint34_linear_607_12778" x1="362.694" y1="408.701" x2="481.222" y2="447.065" gradientUnits="userSpaceOnUse">
<stop stop-color="#F9A825"/>
<stop offset="0.05" stop-color="#FAB74B" stop-opacity="0.83"/>
<stop offset="0.12" stop-color="#FBC875" stop-opacity="0.63"/>
<stop offset="0.2" stop-color="#FCD79A" stop-opacity="0.46"/>
<stop offset="0.27" stop-color="#FDE3B9" stop-opacity="0.32"/>
<stop offset="0.35" stop-color="#FEEDD3" stop-opacity="0.2"/>
<stop offset="0.44" stop-color="#FEF5E6" stop-opacity="0.11"/>
<stop offset="0.53" stop-color="#FFFBF4" stop-opacity="0.05"/>
<stop offset="0.63" stop-color="#FFFEFC" stop-opacity="0.01"/>
<stop offset="0.78" stop-color="white" stop-opacity="0"/>
</linearGradient>
</defs>
</svg>