<svg width="26" height="24" viewBox="0 0 26 24" fill="none" xmlns="http://www.w3.org/2000/svg">
<path fill-rule="evenodd" clip-rule="evenodd" d="M3.25 5C3.25 2.79086 5.1901 1 7.58333 1H16.6217C17.771 1 18.8732 1.42143 19.6859 2.17157L21.4808 3.82843C22.2935 4.57857 22.75 5.59599 22.75 6.65685V19C22.75 21.2091 20.8099 23 18.4167 23H7.58333C5.1901 23 3.25 21.2091 3.25 19V5ZM20.5833 8V19C20.5833 20.1046 19.6133 21 18.4167 21H7.58333C6.38672 21 5.41667 20.1046 5.41667 19V5C5.41667 3.89543 6.38672 3 7.58333 3H15.1667V5C15.1667 6.65685 16.6217 8 18.4167 8H20.5833ZM20.4631 6C20.3568 5.7176 20.1821 5.45808 19.9487 5.24264L18.1538 3.58579C17.9204 3.37035 17.6393 3.20914 17.3333 3.11094V5C17.3333 5.55228 17.8184 6 18.4167 6H20.4631Z" fill="#00FF94"/>
<path fill-rule="evenodd" clip-rule="evenodd" d="M17.0173 11.2929C17.4404 11.6834 17.4404 12.3166 17.0173 12.7071L12.684 16.7071C12.2609 17.0976 11.575 17.0976 11.1519 16.7071L8.98527 14.7071C8.5622 14.3166 8.5622 13.6834 8.98527 13.2929C9.40834 12.9024 10.0943 12.9024 10.5173 13.2929L11.918 14.5858L15.4853 11.2929C15.9083 10.9024 16.5943 10.9024 17.0173 11.2929Z" fill="#00FF94"/>
</svg>
