<svg width="11" height="11" viewBox="0 0 11 11" fill="none" xmlns="http://www.w3.org/2000/svg">
<path fill-rule="evenodd" clip-rule="evenodd" d="M1.375 2.29036C1.375 1.27784 2.19581 0.457031 3.20833 0.457031H7.03228C7.51851 0.457031 7.98482 0.650186 8.32864 0.994002L9.08803 1.75339C9.43185 2.09721 9.625 2.56353 9.625 3.04976V8.70703C9.625 9.71955 8.80419 10.5404 7.79167 10.5404H3.20833C2.19581 10.5404 1.375 9.71955 1.375 8.70703V2.29036ZM8.70833 3.66536V8.70703C8.70833 9.21329 8.29793 9.6237 7.79167 9.6237H3.20833C2.70207 9.6237 2.29167 9.21329 2.29167 8.70703V2.29036C2.29167 1.7841 2.70207 1.3737 3.20833 1.3737H6.41667V2.29036C6.41667 3.04976 7.03228 3.66536 7.79167 3.66536H8.70833ZM8.65749 2.7487C8.61248 2.61926 8.53859 2.50032 8.43985 2.40158L7.68046 1.64218C7.58172 1.54344 7.46277 1.46955 7.33333 1.42455V2.29036C7.33333 2.54349 7.53854 2.7487 7.79167 2.7487H8.65749Z" fill="#FF3C43"/>
<path d="M5.5013 4.125C5.24817 4.125 5.04297 4.3302 5.04297 4.58333V6.41667C5.04297 6.6698 5.24817 6.875 5.5013 6.875C5.75443 6.875 5.95964 6.6698 5.95964 6.41667V4.58333C5.95964 4.3302 5.75443 4.125 5.5013 4.125Z" fill="#FF3C43"/>
<path d="M5.5013 7.33333C5.24817 7.33333 5.04297 7.53854 5.04297 7.79167C5.04297 8.0448 5.24817 8.25 5.5013 8.25C5.75443 8.25 5.95964 8.0448 5.95964 7.79167C5.95964 7.53854 5.75443 7.33333 5.5013 7.33333Z" fill="#FF3C43"/>
</svg>
