<svg width="24" height="24" viewBox="0 0 24 24" fill="none" xmlns="http://www.w3.org/2000/svg">
<path d="M23.001 9.7095C23.0505 8.27815 22.7374 6.85751 22.091 5.5795C21.6524 5.05509 21.0437 4.70121 20.371 4.5795C17.5885 4.32702 14.7945 4.22354 12.001 4.2695C9.21765 4.22145 6.43371 4.3216 3.661 4.5695C3.11282 4.66921 2.60552 4.92634 2.201 5.3095C1.301 6.1395 1.201 7.5595 1.101 8.7595C0.955916 10.9171 0.955916 13.0819 1.101 15.2395C1.12993 15.9149 1.2305 16.5853 1.401 17.2395C1.52158 17.7446 1.76553 18.2118 2.111 18.5995C2.51827 19.003 3.03739 19.2747 3.601 19.3795C5.75692 19.6456 7.92922 19.7559 10.101 19.7095C13.601 19.7595 16.671 19.7095 20.301 19.4295C20.8785 19.3311 21.4122 19.059 21.831 18.6495C22.111 18.3694 22.3201 18.0266 22.441 17.6495C22.7986 16.5521 22.9743 15.4036 22.961 14.2495C23.001 13.6895 23.001 10.3095 23.001 9.7095ZM9.741 14.8495V8.6595L15.661 11.7695C14.001 12.6895 11.811 13.7295 9.741 14.8495Z" fill="white"/>
</svg>
