<svg width="24" height="24" viewBox="0 0 24 24" fill="none" xmlns="http://www.w3.org/2000/svg">
<path d="M16.1125 9.29128C16.6645 8.73928 17.2125 7.45128 14.9125 9.01528C11.6445 11.2703 8.42345 13.3873 8.42345 13.3873C8.09189 13.5372 7.73345 13.6186 7.36965 13.6265C7.00585 13.6344 6.64421 13.5687 6.30645 13.4333C4.92645 13.0193 3.31545 12.4673 3.31545 12.4673C3.31545 12.4673 2.21545 11.7763 4.09845 11.0403C4.09845 11.0403 12.0595 7.77328 14.8205 6.62228C15.8785 6.16228 19.4675 4.69028 19.4675 4.69028C19.4675 4.69028 21.1245 4.04528 20.9865 5.61028C20.9405 6.25428 20.5725 8.51028 20.2045 10.9483C19.6515 14.3993 19.0535 18.1733 19.0535 18.1733C19.0535 18.1733 18.9615 19.2313 18.1795 19.4153C17.3423 19.4011 16.5335 19.1099 15.8795 18.5873C15.6955 18.4493 12.4285 16.3783 11.2315 15.3663C11.1097 15.2838 11.0108 15.1719 10.9439 15.0409C10.877 14.9099 10.8443 14.7641 10.8489 14.6171C10.8535 14.4701 10.8952 14.3267 10.9701 14.2001C11.0451 14.0736 11.1508 13.968 11.2775 13.8933C12.9375 12.3753 14.9165 10.4883 16.1125 9.29128Z" fill="white"/>
</svg>
