<svg width="144" height="145" viewBox="0 0 144 145" fill="none" xmlns="http://www.w3.org/2000/svg">
<path d="M135.085 70.3558C134.438 71.0028 134.438 72.0519 135.085 72.6989C135.733 73.3459 136.782 73.3459 137.43 72.6989C138.077 72.0519 138.077 71.0028 137.43 70.3558C136.782 69.7088 135.733 69.7087 135.085 70.3558Z" fill="#FF2F34"/>
<path d="M5.86673 70.3558C5.21944 71.0028 5.21945 72.0519 5.86674 72.6989C6.51403 73.3459 7.56349 73.3459 8.21079 72.6989C8.85808 72.0519 8.85808 71.0028 8.21079 70.3558C7.5635 69.7088 6.51403 69.7087 5.86673 70.3558Z" fill="#FF2F34"/>
<path d="M129.903 90.6856L130.345 88.9205L132.695 89.5092L133.726 85.3904L131.376 84.8017L131.818 83.038L138.874 84.8031L138.432 86.5681L135.496 85.8326L134.464 89.9514L137.401 90.6869L136.959 92.4507L129.903 90.6856Z" fill="white"/>
<path d="M132.996 102.242L126.331 99.3299L129.485 92.1055L136.151 95.0172L132.996 102.242ZM128.724 98.3911L132.057 99.8533L133.756 95.9622L130.424 94.5001L128.724 98.3911Z" fill="white"/>
<path d="M130.348 103.553L131.898 104.503L127.778 111.224L126.227 110.273L127.813 107.688L123.162 104.837L124.109 103.29L128.761 106.14L130.348 103.553Z" fill="white"/>
<path d="M112.734 117.405L114 116.1L115.739 117.787L118.696 114.738L116.957 113.053L118.222 111.747L123.444 116.81L122.178 118.116L120.004 116.008L117.048 119.057L119.221 121.164L117.954 122.47L112.734 117.405Z" fill="white"/>
<path d="M106.418 124.593L105.322 123.142L111.615 118.393L115.996 124.199L109.704 128.948L108.608 127.496L113.449 123.843L112.901 123.118L108.06 126.771L106.965 125.319L111.806 121.666L111.259 120.941L106.418 124.593Z" fill="white"/>
<path d="M103.469 126.676L102.464 124.806L104.066 123.945L107.51 130.351L100.561 134.083L97.1169 127.677L98.7191 126.816L99.7249 128.685L103.469 126.676ZM101.307 131.621L105.047 129.61L104.331 128.277L100.591 130.288L101.307 131.621Z" fill="white"/>
<path d="M91.8305 137.393L90.3773 136.7L89.239 133.488L88.7076 131.99L89.3997 130.537L95.7556 128.283L98.1851 135.14L91.8305 137.393ZM90.9462 132.88L91.8341 135.385L91.9296 135.426L95.8599 134.033L94.6451 130.604L90.7148 131.998L90.6686 132.095L90.9462 132.88Z" fill="white"/>
<path d="M79.9889 137.245L79.1401 132.778L86.8843 131.308L87.2239 133.093L81.2654 134.225L81.4352 135.118L87.3937 133.986L88.2426 138.453L80.497 139.925L80.1575 138.137L86.116 137.006L85.9465 136.107L79.9889 137.245Z" fill="white"/>
<path d="M65.6566 137.502L65.8008 132.957L73.68 133.208L73.6226 135.026L67.5609 134.834L67.5317 135.742L73.5932 135.935L73.4491 140.478L65.5699 140.228L65.6273 138.41L71.6902 138.603L71.7182 137.694L65.6566 137.502Z" fill="white"/>
<path d="M62.9701 139.939L55.224 138.477L56.5725 131.329L58.36 131.667L57.348 137.027L58.5411 137.252L59.553 131.892L61.3393 132.23L60.3273 137.59L61.5142 137.811L62.5261 132.451L64.3124 132.787L62.9701 139.939Z" fill="white"/>
<path d="M52.7091 132.339L53.4175 130.338L55.1311 130.945L52.704 137.802L45.2715 135.174L47.6987 128.315L49.4123 128.922L48.7052 130.923L52.7091 132.339ZM47.5944 134.066L51.5984 135.481L52.1035 134.054L48.0996 132.638L47.5944 134.066Z" fill="white"/>
<path d="M35.9459 130.403L37.6966 127.134L38.4183 126.915L38.1992 126.193L39.3792 123.99L40.982 124.845L40.1578 126.384L40.3116 126.894L43.7239 128.72L44.7209 126.849L46.3237 127.703L42.8905 134.114L35.9459 130.403ZM38.9447 128.655L38.4081 129.658L42.152 131.662L42.8641 130.327L39.4518 128.5L38.9447 128.655Z" fill="white"/>
<path d="M34.838 127.546L33.7443 128.999L27.446 124.257L28.546 122.804L30.9673 124.628L34.2496 120.27L35.7011 121.37L32.4202 125.727L34.838 127.546Z" fill="white"/>
<path d="M27.839 114.69L22.2998 119.405L17.1909 113.403L18.575 112.224L22.503 116.841L25.2726 114.484L22.5205 111.251L21.8285 111.84L23.4021 113.69L22.0166 114.868L19.2647 111.633L22.7263 108.687L27.839 114.69Z" fill="white"/>
<path d="M19.0955 107.047L20.903 105.933L21.8559 107.483L15.6646 111.295L11.5345 104.577L17.7258 100.765L18.6789 102.312L16.8702 103.426L19.0955 107.047ZM14.0326 105.175L16.2569 108.792L17.5465 107.999L15.3209 104.383L14.0326 105.175Z" fill="white"/>
<path d="M10.3354 102.262L7.27496 94.997L13.9776 92.1723L14.6843 93.8483L9.65606 95.9737L10.128 97.0924L15.155 94.9669L15.8618 96.6429L10.8339 98.7607L11.3059 99.8806L16.3329 97.7551L17.0397 99.4312L10.3354 102.262Z" fill="white"/>
<path d="M9.82334 83.5532L11.587 83.1106L13.5075 90.7562L6.4524 92.5276L4.53328 84.8821L6.29582 84.4382L7.77362 90.3213L8.65553 90.1001L7.17773 84.217L8.94143 83.7744L10.4193 89.6563L11.305 89.4352L9.82334 83.5532Z" fill="white"/>
<path d="M13.3009 54.1383L12.8765 55.9068L10.5202 55.3407L9.52895 59.477L11.8854 60.0419L11.461 61.8105L4.38802 60.1131L4.8124 58.3445L7.75664 59.0512L8.74741 54.9224L5.80312 54.2157L6.2275 52.4472L13.3009 54.1383Z" fill="white"/>
<path d="M9.96573 42.6976L16.7223 45.3908L13.803 52.7202L7.04638 50.0269L9.96573 42.6976ZM14.3601 46.4076L10.9812 45.061L9.40886 49.0051L12.7878 50.3517L14.3601 46.4076Z" fill="white"/>
<path d="M12.7325 41.2772L11.1737 40.3427L15.2278 33.5868L16.7866 34.5226L15.2267 37.1231L19.9053 39.9333L18.9706 41.4934L14.292 38.6831L12.7325 41.2772Z" fill="white"/>
<path d="M30.216 27.2545L28.9624 28.5714L27.207 26.9012L24.2804 29.9784L26.0358 31.6486L24.7822 32.9654L19.5123 27.9521L20.7659 26.6353L22.9586 28.722L25.8865 25.6448L23.6925 23.5581L24.95 22.2389L30.216 27.2545Z" fill="white"/>
<path d="M36.459 20.0055L37.5694 21.4467L31.3208 26.2556L26.8831 20.4922L33.1317 15.6833L34.2407 17.1244L29.4358 20.8244L29.9904 21.545L34.7951 17.8475L35.9043 19.2874L31.0995 22.9874L31.654 23.708L36.459 20.0055Z" fill="white"/>
<path d="M39.3877 17.8913L40.4104 19.7519L38.8174 20.6286L35.3118 14.2554L42.2189 10.459L45.7245 16.8322L44.1303 17.7089L43.1075 15.8483L39.3877 17.8913ZM41.5013 12.93L37.7812 14.9768L38.5106 16.3034L42.2307 14.2565L41.5013 12.93Z" fill="white"/>
<path d="M50.9244 7.06512L52.3836 7.74365L53.553 10.9444L54.1025 12.4385L53.4239 13.8977L47.0874 16.2122L44.5917 9.37988L50.9244 7.06512ZM51.845 11.5655L50.9338 9.06955L50.837 9.0284L46.9201 10.4553L48.1687 13.8702L52.0856 12.4434L52.1306 12.3456L51.845 11.5655Z" fill="white"/>
<path d="M62.7694 7.09919L63.6569 11.557L55.9274 13.1015L55.5699 11.3185L61.5174 10.1354L61.3386 9.24325L55.3924 10.4264L54.5049 5.96865L62.2356 4.42419L62.5919 6.20712L56.6441 7.39657L56.8228 8.28744L62.7694 7.09919Z" fill="white"/>
<path d="M77.0975 6.70805L76.9965 11.2526L69.1154 11.0793L69.1551 9.26071L75.2188 9.39438L75.2392 8.48573L69.1755 8.35206L69.2766 3.80751L77.1576 3.98077L77.1167 5.79934L71.0542 5.66574L71.0338 6.57439L77.0975 6.70805Z" fill="white"/>
<path d="M79.7592 4.23942L87.5198 5.62565L86.2404 12.7862L84.4506 12.4661L85.4098 7.0966L84.2149 6.88308L83.2557 12.2526L81.4646 11.9337L82.4251 6.56296L81.2302 6.34944L80.2697 11.7201L78.4799 11.4L79.7592 4.23942Z" fill="white"/>
<path d="M90.0934 11.7422L89.4049 13.751L87.6852 13.1617L90.0387 6.28145L97.4955 8.83959L95.1357 15.7195L93.4147 15.1302L94.1045 13.1214L90.0934 11.7422ZM95.1917 9.96902L91.1739 8.59453L90.6838 10.0264L94.7002 11.4008L95.1917 9.96902Z" fill="white"/>
<path d="M106.872 13.5204L105.159 16.8058L104.439 17.0313L104.665 17.7508L103.506 19.9651L101.895 19.1228L102.705 17.5747L102.546 17.0674L99.1157 15.2731L98.1321 17.1544L96.5209 16.3121L99.8914 9.86634L106.872 13.5204ZM103.891 15.2971L104.418 14.2879L100.655 12.3207L99.9542 13.6617L103.384 15.456L103.891 15.2971Z" fill="white"/>
<path d="M108.009 16.3609L109.088 14.898L115.426 19.5826L114.347 21.0454L111.909 19.2458L108.67 23.6342L107.207 22.5539L110.446 18.1656L108.009 16.3609Z" fill="white"/>
<path d="M115.131 29.1521L120.625 24.385L125.791 30.3377L124.419 31.5296L120.443 26.9503L117.696 29.3338L120.48 32.5435L121.166 31.9476L119.575 30.114L120.949 28.9222L123.732 32.1318L120.298 35.1113L115.131 29.1521Z" fill="white"/>
<path d="M123.952 36.7114L122.153 37.8419L121.186 36.3021L127.344 32.4309L131.535 39.1052L125.376 42.9764L124.408 41.4366L126.206 40.3061L123.952 36.7114ZM129.033 38.5282L126.773 34.9331L125.492 35.7388L127.752 39.3339L129.033 38.5282Z" fill="white"/>
<path d="M132.745 41.409L135.875 48.645L129.199 51.5334L128.478 49.8642L133.484 47.6982L133.002 46.584L128.004 48.7454L127.281 47.0762L132.288 44.9101L131.806 43.796L126.799 45.962L126.078 44.2928L132.745 41.409Z" fill="white"/>
<path d="M133.452 60.1125L131.693 60.5718L129.7 52.9449L136.737 51.1065L138.73 58.7333L136.972 59.1927L135.437 53.3254L134.558 53.5557L136.092 59.423L134.332 59.8822L132.799 54.015L131.919 54.2453L133.452 60.1125Z" fill="white"/>
</svg>
