<svg width="467" height="364" viewBox="0 0 467 364" fill="none" xmlns="http://www.w3.org/2000/svg">
<g clip-path="url(#clip0_823_12813)">
<g filter="url(#filter0_dd_823_12813)">
<path d="M214.911 116.179C212.254 115.713 208.531 114.619 205.755 111.654C202.318 107.978 204.474 103.53 200.616 95.7156C199.847 94.1603 198.754 92.2561 196.666 90.7987C195.52 90.0006 195.069 90.0302 191.562 88.7633C185.495 86.5696 183.942 85.4323 183.14 84.768C182.127 83.9245 181.235 82.9499 180.489 81.8706C180.816 82.0871 186.083 85.5117 189.385 83.4424C189.778 83.205 190.388 82.8111 190.386 82.2983C190.382 80.6134 183.817 78.9409 178.786 78.4437C167.425 77.3227 165.217 82.7023 156.394 80.6293C151.174 79.4094 150.618 77.4093 143.645 76.1066C139.487 75.3205 135.228 75.1984 131.03 75.745C124.181 76.6752 119.48 79.287 117.469 80.2707C111.567 83.1763 101.622 85.5112 84.1061 82.1826C89.9064 79.998 95.9582 77.4771 95.6767 76.4546C95.3201 75.1558 85.1738 77.8434 71.5822 78.113C57.4186 78.3865 42.0248 78.701 33.7043 69.2323C31.776 67.0349 26.9021 60.5418 28.1649 47.2315C30.7311 50.7695 33.6613 54.7083 33.978 54.5066C34.1436 54.4022 33.4605 53.2697 33.0438 52.0041C31.7914 48.1861 33.411 44.4835 34.4095 42.2004C37.8518 34.3315 46.9274 30.2052 48.4324 29.5443C42.9622 33.9021 40.2563 40.3158 41.5232 45.9676C43.0892 52.9703 50.6029 56.2661 54.0675 57.786C55.3031 58.3231 56.5765 58.7723 57.8776 59.1301C69.6324 62.2517 83.2212 54.4861 100.018 53.1943C114.886 52.0517 127.371 55.8567 127.371 55.8567C133.468 57.7171 138.872 60.3496 147.776 60.3617C153.133 60.3689 160.325 59.4284 160.505 57.5941C160.62 56.4784 158.178 55.3008 155.864 54.416C161.057 53.4395 166.326 52.896 171.612 52.7913C178.915 52.6469 187.653 52.4728 197.575 56.1286C202.059 57.771 209.388 61.1713 216.76 68.2958C217.599 66.5212 221.159 59.5405 229.554 56.0446C234.094 54.1872 239.093 53.6987 243.916 54.641C247.676 52.9351 251.742 51.9799 255.88 51.8307C260.017 51.6815 264.144 52.3413 268.02 53.7719C262.971 54.565 260.449 55.331 260.456 56.0699C260.459 56.9584 264.116 57.8059 271.429 58.6122C276.731 58.6763 282.021 58.1069 287.184 56.9167C291.913 55.8219 292.027 55.3395 295.054 55.0196C304.107 54.0506 307.528 58.2954 312.21 55.7876C314.766 54.4197 316.688 51.5812 316.825 48.9388C316.937 46.8116 315.823 45.926 315.112 43.3236C314.563 41.3093 314.243 38.2167 315.704 33.9025C315.817 35.5328 316.333 39.7284 319.433 41.7928C319.674 41.9528 321.297 43.0309 321.908 42.5448C322.673 41.9355 321.27 39.3208 320.503 37.2314C319.534 34.5706 318.774 30.5505 320.006 24.7764C321.488 30.6568 324.004 34.3273 326.062 36.6095C329.448 40.3628 331.744 40.5222 333.962 44.3376C337.057 49.6561 335.993 55.1816 335.845 55.8768C334.709 61.3292 331.006 64.5505 329.383 65.9207C324.667 69.9079 319.665 70.5567 319.821 71.2629C319.915 71.6951 321.882 71.8932 329.86 70.9341C321.798 76.5749 315.219 77.7667 310.723 77.821C305.015 77.888 302.759 76.1239 293.72 75.8782C291.093 75.8071 285.998 75.5652 279.818 76.8268C269.031 79.0293 266.651 83.138 258.051 82.8085C254.888 82.6868 252.456 81.6415 247.388 81.9242C241.309 82.2521 239.665 83.8043 238.985 84.6923C237.289 86.8922 237.622 90.0201 237.917 90.0879C238.139 90.1393 238.351 88.4916 239.764 86.9684C240.633 86.059 241.719 85.3778 242.924 84.9868C240.341 89.0134 242.668 92.2019 243.312 93.2023C246.058 97.472 243.608 100.44 241.621 102.23C239.635 104.021 239.204 105.092 239.168 107.505C239.111 111.359 240.65 113.104 240.294 113.345C231.912 119.119 215.834 116.517 214.911 116.179Z" fill="#FF8F01"/>
<path d="M215.02 111.49C210.946 108.693 209.43 105.878 208.819 103.76C207.771 100.126 209.311 98.2973 207.56 94.9509C207.043 93.9645 206.61 93.5521 202.526 89.4957C200.408 87.3933 198.762 85.7553 197.948 84.9492C204.097 87.3317 205.974 87.4496 206.297 86.9029C207.211 85.3455 197.59 74.831 185.405 73.5892C178.674 72.8979 169.977 74.9035 167.643 75.4579C164.627 76.1747 163.899 76.5736 161.776 76.7919C155.049 77.476 150.761 74.5663 145.182 72.4801C145.182 72.4801 135.801 68.96 125.353 69.4813C120.898 69.7033 112.839 70.932 103.381 77.6021C105.79 74.4223 108.802 71.7315 112.252 69.6787C119.606 65.3466 130.129 63.4285 139.509 66.1144C144.545 67.5546 149.17 70.0758 157.133 70.6244C164.176 71.1093 165.106 69.3297 175.048 68.4505C183.181 67.732 191.121 67.0306 199.772 70.21C208.672 73.4762 214.005 79.2638 216.488 82.0151C225.147 91.6152 227.454 102.26 228.178 107.202L215.02 111.49Z" fill="#FFC501"/>
<path d="M273.189 62.6218C274.826 62.3566 276.442 61.9805 278.026 61.496C272.843 61.4175 267.676 60.9229 262.575 60.0171C257.329 59.0855 255.226 58.2309 250.106 57.8213C245.893 57.485 242.309 57.199 238.159 58.2568C231.149 60.0475 226.797 64.5868 225.203 66.2925C215.934 76.2138 217.274 89.5953 217.547 91.9365L225.908 98.8008C224.082 93.3871 223.642 87.6138 224.627 81.9926C225.337 78.0442 226.327 72.5354 230.565 68.3036C239.673 59.2217 257.913 62.0427 259.18 62.2544C261.375 62.6197 266.528 63.7003 273.189 62.6218Z" fill="#FFC501"/>
<path d="M219.547 92.9898C219.381 90.9768 221.498 80.8867 227.077 74.8955C232.519 69.0537 240.359 68.5912 244.156 68.3685C248.226 68.1215 247.228 68.9844 256.929 69.5497C267.158 70.1467 270.855 69.3477 272.274 69.0037C273.792 68.6358 273.369 68.6274 280.301 66.4517C284.705 65.0671 287.882 64.0686 289.356 63.6937C293.045 62.7388 299.081 62.359 308.211 66.1752C301.1 64.5138 293.61 65.6225 287.311 69.2691C291.795 67.816 296.583 67.5242 301.214 68.422C298.436 68.8838 295.686 69.4993 292.978 70.2657C288.949 71.4058 288.811 71.8056 285.982 72.6141C277.892 74.9276 272.586 74.4172 268.996 75.3929C261.812 77.259 272.927 77.1065 264.085 78.3784C260.45 78.9013 256.953 78.5048 253.143 78.1687C246.093 77.5468 246.651 77.0797 244.592 77.2813C243.225 77.4149 236.424 78.0779 233.69 83.1824C230.883 90.5019 239.381 93.7474 239.031 91.8264C238.682 89.9053 240.638 88.0535 240.638 88.0535C240.638 88.0535 240.358 90.4708 241.21 92.8101C241.812 94.4606 243.038 95.2 243.102 97.392C243.167 99.5839 240.604 100.584 238.156 103.501C235.708 106.418 237.199 111.528 237.199 111.528L229.422 109.471L222.594 108.051L220.107 99.5168L219.547 92.9898Z" fill="#FFC501"/>
<path d="M231.7 106.587C232.325 101.15 228.313 98.244 227.339 93.0782C226.622 89.299 227.383 83.4789 234.861 75.1314C230.119 76.68 227.403 79.0928 225.915 80.7769C219.031 88.5627 219.37 102.264 226.966 114.96C228.809 113.235 231.26 110.392 231.7 106.587Z" fill="#FF8F01"/>
<path d="M217.961 112.85C220.984 108.291 219.767 102.308 219.005 98.796C218.49 96.4106 217.806 93.3899 215.687 89.9169C214.217 87.5079 212.349 85.3565 210.16 83.5508C211.158 84.8314 214.479 89.2985 214.201 93.111C214.148 93.865 213.991 94.7658 213.991 94.7658C213.578 96.4755 212.667 97.3688 212.213 100.111C211.091 106.84 214.472 114.157 216.575 114.076C216.928 114.056 217.315 113.828 217.961 112.85Z" fill="#FF8F01"/>
<path d="M333.013 66.8231C334.114 66.074 335.077 65.147 335.863 64.0814C337.331 62.0807 337.55 60.3786 338.096 60.4292C338.641 60.4797 339.235 62.2104 338.798 63.6176C338.234 65.4435 335.935 66.6949 333.013 66.8231Z" fill="#FF8F01"/>
<path d="M154.009 56.2514C152.974 55.7183 151.907 55.2476 150.814 54.8419C146.678 53.3258 142.258 52.7023 137.856 53.0137C139.463 53.4298 141.026 53.9979 142.522 54.71C144.789 55.7935 145.411 56.5008 146.801 56.9793C148.244 57.4765 150.533 57.728 154.009 56.2514Z" fill="#FF8F01"/>
<path d="M277.708 55.9039C279.122 56.231 280.595 56.2271 282.007 55.8926C282.759 55.704 282.879 55.5619 285.325 54.5676C287.058 53.8541 287.927 53.5092 288.72 53.2921C290.028 52.9389 291.38 52.7651 292.737 52.7758C290.145 52.3173 287.489 52.3499 284.91 52.872C282.333 53.4177 279.888 54.4471 277.708 55.9039V55.9039Z" fill="#FF8F01"/>
<path d="M51.7266 52.2148C57.6707 55.2737 64.3527 56.6749 71.049 56.2666C69.253 57.2919 67.251 57.919 65.1829 58.104C57.7204 58.7357 52.4689 53.0447 51.7266 52.2148Z" fill="#FF8F01"/>
<path d="M42.0671 59.5813C49.7569 65.8589 56.6775 67.5257 60.5 68.0663C67.741 69.0895 74.0644 67.5132 85.2102 64.7356C91.5696 63.1497 92.7308 62.4306 96.8639 61.3634C103.699 59.5944 113.754 58.1359 127.219 59.9911C122.518 59.6992 117.799 60.148 113.241 61.3205C105.487 63.3353 104.086 66.0141 94.4148 69.4968C88.9577 71.401 83.3199 72.7617 77.5865 73.5584C72.0383 74.3483 66.4264 74.6178 60.8265 74.3633L77.1151 70.6742C72.3053 71.7645 67.3372 72.0087 62.4409 71.3957C59.7556 71.053 56.5174 70.6148 52.8048 68.864C47.0974 66.1802 43.7341 62.0275 42.0671 59.5813Z" fill="#FFC501"/>
<path d="M163.376 64.7576C166.438 63.0363 174.982 58.7767 185.92 60.2935C204.361 62.8446 212.886 79.5063 213.628 81.0333L198.612 72.4897C196.268 69.6385 193.374 67.2712 190.096 65.5241C178.263 59.2715 165.762 63.8368 163.376 64.7576Z" fill="#FFC501"/>
<path d="M315.739 67.5731C318.177 66.8013 320.495 65.7051 322.63 64.3151C325.545 62.4169 328.779 60.3028 330.233 56.4966C332.254 51.2025 329.53 46.0438 328.863 44.8521C328.892 47.5669 328.481 50.269 327.647 52.857C324.886 61.3717 318.275 65.9878 315.739 67.5731Z" fill="#FFC501"/>
<path d="M321.35 47.7111C321.147 49.8048 320.522 51.8379 319.513 53.6924C318.796 54.994 317.217 57.9025 314.068 59.4776C312.148 60.4421 310.773 60.3346 303.049 60.2155C299.964 60.1692 297.522 60.1449 296.15 60.1343C300.346 61.1513 303.674 62.1304 305.904 62.824C310.457 64.2418 312.158 65.0053 314.494 64.3399C317.306 63.5314 318.894 61.242 319.631 60.1719C323.136 55.1079 321.722 49.1139 321.35 47.7111Z" fill="#FFC501"/>
</g>
<path d="M295.386 101.604L277.7 133.136L272.619 142.207L238.141 133.222C240.253 129.482 242.377 125.745 244.512 122.013C249.591 113.135 254.728 104.293 259.924 95.4872L279.393 93.2164L280.465 93.323C285.44 96.0812 290.414 98.8415 295.386 101.604Z" fill="#FFBE00"/>
<path d="M277.799 132.357L272.719 141.428L238.235 132.44C239.06 131.421 240.26 129.865 241.576 127.875C242.893 125.889 244.088 123.823 245.153 121.691C247.032 117.964 251.58 109.755 259.381 96.0554L279.483 92.4352C279.724 92.5602 279.963 92.6873 280.204 92.8123C277.041 102.918 273.917 111.009 271.45 116.918C268.785 123.302 266.745 127.488 268.618 130.179C270.204 132.447 273.961 132.759 277.799 132.357Z" fill="#C9830A"/>
<path d="M258.008 139.034C257.928 138.994 257.857 138.937 257.8 138.866C257.744 138.796 257.703 138.714 257.682 138.627L256.392 133.548C256.362 133.429 256.367 133.305 256.407 133.189C256.446 133.073 256.518 132.971 256.614 132.895C256.709 132.822 256.822 132.777 256.94 132.765C257.059 132.754 257.178 132.776 257.285 132.829C257.285 132.829 257.285 132.829 257.297 132.842L273.44 141.561C273.575 141.633 273.679 141.753 273.732 141.897C273.785 142.041 273.784 142.199 273.729 142.342C273.673 142.485 273.568 142.603 273.432 142.674C273.296 142.745 273.138 142.763 272.989 142.726L258.138 139.088C258.093 139.075 258.049 139.057 258.008 139.034V139.034ZM257.968 134.63L258.81 137.954L268.526 140.333L257.968 134.63Z" fill="#1D1D1B"/>
<path d="M235.125 138.969L258.851 94.9916L280.429 92.0302L256.701 136.01L235.125 138.969ZM259.655 96.1508L237.42 137.376L255.911 134.824L278.147 93.5992L259.655 96.1508Z" fill="#1D1D1B"/>
<path d="M263.399 216.04L234.247 208.691L234.203 208.682L234.156 208.676C234.031 208.884 233.894 209.101 233.747 209.324L224.629 213.236L194.617 208.827L195.013 208.41L193.594 208.491L188.889 125.293L201.682 124.566L200.759 108.236L218.385 107.231C218.54 107.26 218.698 107.285 218.862 107.305L218.893 107.311L241.147 113.025L242.37 129.617C247.25 130.872 252.13 132.127 257.009 133.381L260.172 176.245C260.371 178.949 260.685 183.54 261.167 189.806C262.031 200.966 262.843 210.053 263.399 216.04Z" fill="#FFBE00"/>
<path d="M262.947 215.991L236.779 215.489L224.629 213.236C214.623 211.768 204.619 210.298 194.617 208.827L195.013 208.41L193.594 208.491L188.889 125.293L201.684 124.564L200.761 108.234L218.385 107.231C218.54 107.26 218.698 107.285 218.862 107.305L219.347 130.699C219.675 136.46 220.001 142.221 220.324 147.982L222.554 172.106L259.224 159.184C259.351 161.927 259.491 164.693 259.644 167.483C259.811 170.372 259.988 173.295 260.176 176.249L260.261 177.515C260.543 181.664 260.848 185.763 261.177 189.812C258.537 190.97 255.96 192.264 253.455 193.689C246.367 197.734 239.902 202.785 234.262 208.684C234.246 208.683 234.231 208.68 234.217 208.676L234.17 208.67C234.17 208.67 246.64 211.85 262.947 215.991Z" fill="#C9830A"/>
<path d="M194.657 209.432C194.511 209.355 194.399 209.227 194.344 209.071C194.308 208.962 194.302 208.845 194.327 208.733C194.352 208.621 194.407 208.518 194.486 208.434L194.882 208.018C194.992 207.901 195.144 207.83 195.305 207.821L222.986 206.247L222.578 199.03C222.574 198.943 222.587 198.855 222.618 198.773C222.649 198.691 222.696 198.617 222.758 198.554C222.819 198.492 222.892 198.443 222.973 198.411C223.054 198.378 223.14 198.362 223.228 198.363C223.53 198.375 223.829 198.387 224.123 198.402C224.278 198.411 224.424 198.477 224.534 198.588C224.643 198.698 224.707 198.845 224.715 199L225.14 206.43L234.342 208.054L234.59 208.099L234.634 208.108L263.557 215.43C263.707 215.468 263.837 215.56 263.924 215.688C264.01 215.816 264.047 215.971 264.027 216.125C264.006 216.278 263.929 216.418 263.811 216.518C263.693 216.618 263.543 216.671 263.388 216.668L235.832 216.098C235.803 216.098 235.773 216.095 235.745 216.091L194.846 209.484C194.781 209.475 194.717 209.458 194.657 209.432V209.432ZM224.034 207.338C223.934 207.419 223.811 207.467 223.682 207.473L198.957 208.88L235.905 214.841L257.896 215.289L234.342 209.327L234.116 209.287C230.885 208.715 227.653 208.144 224.421 207.574C224.268 207.545 224.13 207.462 224.034 207.338V207.338Z" fill="#1D1D1B"/>
<path d="M260.246 177.523L223.603 196.641L222.96 179.5L259.63 167.491C259.796 170.381 259.974 173.303 260.161 176.257L260.246 177.523Z" fill="#F2D890"/>
<path d="M220.211 157.297L218.345 124.307L201.407 125.272L200.407 107.676L219.001 106.583L222.148 157.18L220.211 157.297ZM201.741 108.869L202.592 123.942L218.961 123.011L218.108 107.939L201.741 108.869Z" fill="#1D1D1B"/>
<path d="M219.541 124.382L218.993 106.577L242.048 112.582L242.084 113.027L243.155 127.579L243.371 130.496L219.541 124.382ZM219.878 108.19L220.746 123.391L241.985 128.843L241.899 127.675L240.865 113.567L219.878 108.19Z" fill="#1D1D1B"/>
<path d="M193.323 209.204L188.55 124.749L219.542 122.984L224.317 207.437L193.323 209.204ZM189.878 125.935L194.501 207.875L222.974 206.256L218.343 124.316L189.878 125.935Z" fill="#1D1D1B"/>
<path d="M223.936 207.501L223.461 199.082L220.661 150.081L219.111 122.973L220.313 123.289L257.923 132.943L257.962 133.39L264.106 216.871L234.376 209.342L234.131 209.298C230.899 208.727 227.668 208.155 224.435 207.585L223.936 207.501ZM220.461 124.622L221.91 150.003L224.713 199.003L225.137 206.433L234.34 208.057L234.721 208.127L262.709 215.22L256.728 133.933L220.461 124.622Z" fill="#1D1D1B"/>
<path d="M233.754 129.252L254.926 134.713C255.696 141.207 256.473 147.697 257.256 154.184C255.788 150.536 253.867 147.087 251.538 143.918C246.881 137.665 240.78 132.633 233.754 129.252V129.252Z" fill="#F2D890"/>
<path d="M228.524 112.021L238.803 114.667L240.039 125.565C236.197 121.056 232.359 116.542 228.524 112.021Z" fill="#F2D890"/>
<path d="M232.215 114.499C232.841 113.879 232.846 112.87 232.226 112.245C231.607 111.619 230.598 111.614 229.973 112.234C229.347 112.853 229.342 113.862 229.961 114.488C230.58 115.113 231.589 115.118 232.215 114.499Z" fill="#1D1D1B"/>
<path d="M232.832 124.456C233.458 123.836 233.463 122.827 232.844 122.202C232.224 121.576 231.215 121.571 230.59 122.191C229.964 122.81 229.959 123.819 230.578 124.445C231.197 125.07 232.207 125.075 232.832 124.456Z" fill="#1D1D1B"/>
<path d="M239.434 121.706C240.059 121.086 240.064 120.077 239.445 119.452C238.826 118.826 237.817 118.821 237.191 119.441C236.566 120.06 236.561 121.069 237.18 121.695C237.799 122.32 238.808 122.325 239.434 121.706Z" fill="#1D1D1B"/>
<path d="M224.715 117.749C225.341 117.129 225.346 116.12 224.727 115.495C224.107 114.869 223.098 114.864 222.473 115.484C221.847 116.103 221.842 117.112 222.461 117.738C223.08 118.363 224.089 118.368 224.715 117.749Z" fill="#1D1D1B"/>
<path d="M273.393 142.963L257.038 133.989L280.082 92.0168L296.439 100.993L273.393 142.963ZM258.753 133.484L272.905 141.245L294.739 101.48L280.587 93.7189L258.753 133.484Z" fill="#1D1D1B"/>
<path d="M259.108 96.6211C258.967 96.5506 258.857 96.4297 258.801 96.2824C258.745 96.1351 258.747 95.9721 258.805 95.8257C258.867 95.6705 258.989 95.5464 259.143 95.4805C259.296 95.4146 259.47 95.4124 259.625 95.4742L274.826 101.543C274.902 101.573 274.972 101.618 275.032 101.676C275.091 101.733 275.138 101.802 275.171 101.878C275.204 101.954 275.221 102.035 275.222 102.118C275.223 102.2 275.208 102.282 275.177 102.359C275.115 102.514 274.994 102.638 274.841 102.704C274.687 102.771 274.514 102.774 274.359 102.712L259.158 96.6437C259.141 96.6374 259.124 96.6299 259.108 96.6211V96.6211Z" fill="#1D1D1B"/>
<path d="M209.371 124.197L201.427 124.664C201.154 124.466 198.167 122.236 198.237 118.364C198.298 114.752 200.92 112.677 201.251 112.427L208.107 112.228L209.371 124.197Z" fill="#C9830A"/>
<path d="M201.249 125.294L201.067 125.164C200.707 124.906 197.551 122.515 197.613 118.345C197.673 114.552 200.341 112.323 200.875 111.915L201.036 111.792L208.678 111.57L210.077 124.772L201.249 125.294ZM201.486 113.039C200.82 113.59 198.92 115.427 198.872 118.363C198.826 121.52 200.958 123.474 201.633 124.009L208.69 123.592L207.551 112.861L201.486 113.039Z" fill="#1D1D1B"/>
<path d="M281.473 95.6266L293.188 102.008L281.768 123.364C284.49 118.427 285.686 112.794 285.203 107.178C284.819 103.101 283.546 99.158 281.473 95.6266V95.6266Z" fill="#F2D890"/>
<path d="M212.74 117.905C212.66 114.696 210.63 112.145 208.206 112.206C205.781 112.267 203.881 114.918 203.961 118.127C204.041 121.336 206.071 123.888 208.495 123.827C210.919 123.765 212.82 121.114 212.74 117.905Z" fill="#C9830A"/>
<path d="M206.459 124.026C205.8 123.682 205.223 123.199 204.767 122.611C203.793 121.33 203.259 119.768 203.244 118.159C203.18 116.551 203.637 114.964 204.547 113.637C205.465 112.356 206.73 111.629 208.103 111.595C209.476 111.561 210.776 112.221 211.757 113.456C212.732 114.736 213.268 116.298 213.283 117.908C213.345 119.517 212.888 121.103 211.979 122.432C211.06 123.713 209.795 124.44 208.423 124.474C207.741 124.491 207.066 124.337 206.459 124.026ZM209.496 113.169C209.075 112.951 208.607 112.841 208.133 112.85C207.164 112.876 206.26 113.407 205.567 114.369C204.817 115.475 204.444 116.793 204.504 118.128C204.508 119.465 204.945 120.765 205.748 121.834C206.476 122.753 207.416 123.245 208.384 123.219C209.353 123.193 210.259 122.664 210.949 121.702C211.699 120.597 212.073 119.279 212.014 117.945C212.011 116.607 211.575 115.307 210.77 114.239C210.425 113.796 209.987 113.433 209.488 113.177L209.496 113.169Z" fill="#1D1D1B"/>
<path d="M413.918 251.442C416.078 260.346 414.004 270.307 408.388 279.359C402.833 288.314 393.806 296.399 381.95 301.742C376.688 300.844 371.377 300.259 366.045 299.991C346.169 298.992 340.058 303.136 325.517 303.53C314.554 303.835 302.233 300.087 277.594 292.596C265.03 288.774 254.751 285.08 247.581 282.361C242.768 285.144 237.686 287.43 232.412 289.187C224.429 291.838 216.088 293.257 207.678 293.394C203.318 289.963 199.335 286.078 195.798 281.804C190.863 275.812 191.023 274.091 185.978 268.988C184.948 267.948 184.059 267.127 183.299 266.413C181.596 264.811 180.521 263.721 179.841 261.757C178.586 258.122 179.659 254.34 181.016 251.425C181.154 251.119 181.298 250.823 181.441 250.539C177.568 248.293 170.697 243.46 167.202 234.933C166.627 233.572 166.125 232.18 165.698 230.765C164.736 227.479 164.241 223.469 166.463 220.516C167.454 219.256 168.779 218.3 170.287 217.757C169.863 216.898 169.493 216.013 169.18 215.108C168.527 213.26 168.133 211.33 168.009 209.374C167.939 208.252 167.964 207.126 168.083 206.007C168.314 203.844 169.114 196.361 174.528 193.889C176.115 193.196 177.864 192.956 179.579 193.194C179.547 193.133 179.519 193.076 179.491 193.015C177.037 188.033 174.926 182.888 173.173 177.618C171.545 172.723 170.228 167.729 169.232 162.668C170.109 161.649 170.982 160.637 171.853 159.632L180.902 149.133C186.698 150.548 192.731 151.858 199.001 153.063C213.869 155.881 228.901 157.757 244.007 158.679L262.894 169.683C262.696 169.341 262.509 168.993 262.337 168.643C259.134 162.319 259.396 155.174 263.099 150.227C263.729 149.387 264.449 148.62 265.247 147.939C267.119 146.37 269.313 145.233 271.673 144.606C272.68 149.003 275.885 160.234 286.165 169.591C299.824 182.026 316.09 182.171 319.872 182.104C323.596 187.482 328.004 192.353 332.986 196.594C342.3 204.503 350.723 207.654 360.297 211.754C373.134 217.278 385.68 223.455 397.886 230.262C402.411 233.292 411.196 240.218 413.918 251.442Z" fill="#E1CAA5"/>
<path d="M181.281 250.898C177.418 248.662 170.537 243.818 167.041 235.292C166.466 233.93 165.964 232.539 165.537 231.124C167.432 231.486 169.501 231.947 171.697 232.54C179.883 234.75 182.766 236.877 189.067 238.081C192.946 238.818 198.785 239.323 206.367 237.751C203.478 239.602 200.449 241.44 197.278 243.268C191.649 246.498 186.148 249.323 180.852 251.795C180.993 251.477 181.131 251.175 181.281 250.898Z" fill="#B08D5F"/>
<path d="M170.594 217.125C169.518 215.873 168.726 214.403 168.273 212.817C167.988 211.808 167.845 210.766 167.848 209.718C170.811 210.825 174.308 211.193 178.087 211.446C186.696 212.021 199.549 212.168 215.985 209.773C209.126 213.695 201.613 216.343 193.811 217.586C186.106 218.818 178.243 218.662 170.594 217.125V217.125Z" fill="#B08D5F"/>
<path d="M267.583 158.709C271.696 171.284 279.416 179.232 283.624 182.984C276.511 180.198 269.996 176.078 264.431 170.845C264.431 170.845 263.596 170.055 262.336 168.665C259.134 162.34 259.396 155.196 263.099 150.249C263.728 149.409 264.448 148.642 265.247 147.96C265.657 151.614 266.44 155.215 267.583 158.709V158.709Z" fill="#B08D5F"/>
<path d="M189.108 192.77C185.78 193.026 182.524 193.227 179.34 193.371C176.885 188.388 174.773 183.243 173.02 177.972C171.39 173.073 170.072 168.076 169.074 163.01L171.693 159.972C174.848 163.159 178.192 166.153 181.707 168.938C193.148 177.966 206.222 184.705 220.215 188.786C210.81 190.465 200.396 191.888 189.108 192.77Z" fill="#B08D5F"/>
<path d="M406.975 270.197C408.043 273.25 408.471 276.491 408.232 279.717C402.677 288.672 393.648 296.755 381.792 302.098C376.53 301.202 371.22 300.618 365.889 300.349C346.013 299.351 339.9 303.492 325.361 303.888C314.398 304.193 302.077 300.445 277.436 292.952C264.874 289.132 254.593 285.436 247.425 282.719C242.612 285.5 237.529 287.787 232.256 289.545C224.272 292.196 215.932 293.615 207.522 293.752C203.162 290.321 199.179 286.436 195.642 282.162C190.705 276.168 190.867 274.449 185.822 269.347C184.79 268.304 183.903 267.486 183.143 266.771C186.406 265.621 187.032 264.331 190.589 263.192C194.525 261.934 197.848 262.203 204.501 262.751C210.998 263.279 214.447 264.337 214.897 263.318C215.571 261.782 207.922 259.037 207.533 253.603C207.342 250.916 208.957 248.004 211.173 246.723C216.234 243.796 224.506 249.359 227.724 251.433C250.291 265.982 284.198 276.628 307.485 277.76C315.15 278.118 322.83 277.532 330.353 276.015C317.133 270.67 303.912 265.322 290.692 259.972L347.702 265.803L311.369 243.596C336.553 250.87 349.72 253.13 350.872 250.373C352.091 247.45 339.78 238.88 313.937 224.665C343.43 232.816 366.13 242.303 381.763 249.698C395.397 256.141 403.73 261.046 406.975 270.197Z" fill="#B08D5F"/>
<path d="M401.426 289.848C395.909 295.253 389.474 299.633 382.422 302.782L382.102 302.929L381.755 302.868C376.539 301.979 371.274 301.4 365.988 301.134C354.36 300.55 347.483 301.744 340.83 302.9C336.071 303.726 331.577 304.507 325.549 304.673C314.402 304.984 301.988 301.211 277.261 293.689C267.292 290.659 257.345 287.271 247.682 283.623C242.942 286.32 237.949 288.548 232.776 290.273C224.682 292.963 216.225 294.401 207.698 294.537L207.292 294.536L206.971 294.28C202.549 290.796 198.509 286.852 194.919 282.516C193.31 280.569 191.82 278.527 190.456 276.401C188.954 273.997 187.18 271.775 185.168 269.779C184.301 268.903 183.537 268.185 182.861 267.55C180.884 265.697 179.579 264.472 178.76 262.111C177.64 258.869 178.053 255.135 179.957 250.967C175.23 248.059 169.328 243.09 166.154 235.34C164.74 231.892 161.828 224.747 165.539 219.787C166.394 218.672 167.492 217.766 168.751 217.14C167.179 213.596 166.552 209.705 166.933 205.846C167.664 199.012 170.056 194.623 174.046 192.803C175.199 192.282 176.441 191.987 177.705 191.935C175.545 187.388 173.665 182.714 172.075 177.937C170.432 172.997 169.104 167.958 168.098 162.849L167.991 162.301L180.484 147.809L181.168 147.976C187.122 149.43 193.199 150.739 199.202 151.902C214.02 154.716 229 156.593 244.055 157.524L244.329 157.539L260.258 166.818C257.987 160.715 258.627 154.222 262.146 149.518C264.894 145.847 268.663 144.204 271.341 143.476L272.484 143.152L272.754 144.319C274 149.753 277.494 160.148 286.892 168.705C299.322 180.034 314.039 181.018 319.808 180.922L320.42 180.91L320.77 181.416C324.437 186.707 328.774 191.499 333.675 195.673C341.958 202.708 349.37 205.85 357.953 209.489C358.857 209.871 359.77 210.259 360.694 210.654C373.565 216.197 386.145 222.392 398.386 229.212L398.465 229.259C404.579 233.335 412.411 240.437 415.002 251.128C417.195 260.185 415.218 270.353 409.433 279.758C407.175 283.428 404.487 286.815 401.426 289.848ZM381.796 300.545C392.752 295.535 401.871 287.755 407.508 278.593C412.971 269.713 414.852 260.166 412.812 251.701C410.4 241.754 403.039 235.078 397.273 231.227C385.112 224.455 372.615 218.303 359.83 212.798C358.908 212.402 358.001 212.015 357.097 211.633C348.717 208.068 340.782 204.717 332.236 197.461C327.339 193.291 322.986 188.52 319.281 183.262C312.872 183.281 298.019 181.935 285.395 170.442C276.182 162.053 272.382 151.993 270.845 146.061C268.135 146.959 265.757 148.65 264.017 150.914C260.378 155.774 260.329 162.917 263.889 169.109L266.039 172.844L243.664 159.81C228.603 158.868 213.617 156.984 198.792 154.171C192.97 153.067 187.09 151.794 181.314 150.398L170.471 162.976C171.444 167.8 172.711 172.56 174.264 177.229C176.022 182.513 178.143 187.67 180.611 192.661L181.55 194.56L179.441 194.309C177.937 194.093 176.401 194.301 175.008 194.909C171.81 196.37 169.864 200.135 169.226 206.104C168.729 210.774 170.087 214.73 171.319 217.224L171.874 218.351L170.704 218.803C169.398 219.264 168.25 220.086 167.392 221.173C164.454 225.08 167.037 231.428 168.288 234.467C171.427 242.128 177.492 246.886 182.033 249.521L182.977 250.065L182.482 251.036C180.464 255.002 179.945 258.474 180.943 261.352C181.573 263.18 182.594 264.134 184.441 265.868C185.134 266.515 185.91 267.242 186.813 268.158C188.933 270.259 190.803 272.599 192.384 275.131C193.705 277.187 195.147 279.163 196.703 281.049C200.103 285.153 203.919 288.893 208.09 292.21C216.244 292.038 224.327 290.644 232.068 288.072C237.268 286.337 242.28 284.082 247.028 281.341L247.5 281.067L248.007 281.261C257.782 284.964 267.856 288.399 277.949 291.469C302.436 298.916 314.73 302.654 325.508 302.354C331.375 302.201 335.784 301.424 340.46 300.612C347.234 299.436 354.25 298.211 366.126 298.816C371.378 299.09 376.61 299.668 381.796 300.545V300.545Z" fill="#1D1D1B"/>
<path d="M246.955 283.582C244.235 282.346 241.264 281.759 238.277 281.867C236.214 281.951 234.156 282.562 232.026 282.566C230.914 282.567 229.808 282.422 228.734 282.136C222.625 280.391 217.115 276.982 211.894 273.477C208.454 271.087 205.164 268.488 202.043 265.695C208.512 270.935 215.579 275.537 223.234 278.806C225.106 279.631 227.052 280.275 229.046 280.729C231.054 281.185 232.939 280.987 234.952 280.537C237.072 280.015 239.261 279.827 241.438 279.981C243.633 280.153 245.79 280.652 247.837 281.46L246.953 283.58L246.955 283.582Z" fill="#1D1D1B"/>
<path d="M180.951 249.404C188.673 247.218 196.002 243.826 202.667 239.353C204.967 237.884 207.427 236.462 210.113 235.79C212.781 235.015 215.609 235.116 218.335 235.391C221.061 235.666 223.716 236.123 226.368 236.658C231.666 237.744 236.873 239.234 241.944 241.114C236.823 239.419 231.58 238.119 226.261 237.224C222.299 236.589 218.281 236.026 214.274 236.2C210.266 236.374 206.715 238.237 203.457 240.555C201.233 242.094 198.963 243.638 196.607 244.985C191.857 247.709 186.834 249.926 181.622 251.601L180.951 249.404V249.404Z" fill="#1D1D1B"/>
<path d="M170.389 216.584C180.943 217.589 191.716 216.846 201.922 213.888C208.137 212.179 214.004 209.198 220.434 208.201C222.595 207.888 224.782 207.791 226.962 207.911C231.303 208.058 235.548 209.28 239.586 210.765C249.69 214.41 259.564 218.774 268.716 224.404C259.441 218.98 249.507 214.853 239.347 211.442C234.827 209.857 230.133 208.759 225.326 208.888L223.744 208.948L222.172 209.098C217.409 209.636 213.015 211.522 208.493 213.245C205.466 214.42 202.38 215.438 199.248 216.293C189.809 218.843 179.93 219.558 170.195 218.862L170.385 216.572L170.389 216.584Z" fill="#1D1D1B"/>
<path d="M179.533 192.03C191.103 191.795 202.641 190.717 214.055 188.805C218.66 188.068 223.25 187.143 227.938 186.926C232.654 186.694 237.374 187.265 241.898 188.615C246.37 189.997 250.619 191.907 254.906 193.739C265.618 198.254 275.991 203.535 285.944 209.541C275.882 203.748 265.416 198.688 254.626 194.4C249.281 192.267 243.946 189.884 238.262 188.784C234.876 188.178 231.429 187.987 227.996 188.214C221.077 188.749 214.296 190.551 207.426 191.555C198.208 193.02 188.913 193.944 179.588 194.322L179.519 192.028L179.533 192.03Z" fill="#1D1D1B"/>
<path d="M183.519 172.058C189.836 179.206 197.878 184.282 207.109 186.649C210.182 187.449 213.302 188.061 216.45 188.482C209.092 189.521 201.598 188.064 195.166 184.344C190.243 181.478 185.968 177.201 183.509 172.048L183.519 172.058Z" fill="#1D1D1B"/>
<path d="M217.98 276.723C215.938 280.981 212.704 284.554 208.67 287.009C210.502 285.622 212.123 283.978 213.485 282.128C214.822 280.303 215.889 278.295 216.651 276.165L217.976 276.719L217.98 276.723Z" fill="#1D1D1B"/>
<path d="M261.438 250.609C279.366 256.171 297.279 262.556 314.676 269.601C296.746 264.046 278.838 257.651 261.438 250.609Z" fill="#1D1D1B"/>
<path d="M289.777 236C307.703 241.56 325.617 247.944 343.011 254.992C325.085 249.436 307.176 243.04 289.777 236Z" fill="#1D1D1B"/>
<path d="M302.625 218.777C320.063 225.718 337.423 233.478 354.218 241.859C336.776 234.923 319.422 227.152 302.625 218.777Z" fill="#1D1D1B"/>
<path d="M263.004 168.446C280.876 183.606 303.224 193.269 326.48 196.247C302.938 194.017 280.088 184.941 261.549 170.226L263.012 168.438L263.004 168.446Z" fill="#1D1D1B"/>
<path d="M204.158 257.958C200.953 252.933 201.879 246.125 206.114 241.972C207.456 240.607 209.069 239.539 210.849 238.835C207.503 241.227 204.696 244.5 203.693 248.515C202.844 251.63 203.16 254.869 204.154 257.962L204.158 257.958Z" fill="#1D1D1B"/>
<path d="M214.924 226.401C210.735 222.322 211.761 215.941 216.438 212.696C217.843 211.688 219.47 211.032 221.181 210.783C218.352 212.053 215.851 213.92 214.373 216.644C212.651 219.832 213.11 223.312 214.924 226.401Z" fill="#1D1D1B"/>
<path d="M225.756 201.948C221.791 197.793 223.554 191.85 228.602 189.583C230.081 188.895 231.711 188.592 233.339 188.702C231.82 189.033 230.362 189.599 229.016 190.377C224.614 193.031 223.321 197.346 225.756 201.948Z" fill="#1D1D1B"/>
<path d="M237.191 180.174C233.037 173.967 236.276 166.13 242.984 163.464C243.866 163.113 244.784 162.862 245.721 162.713C244.867 163.081 244.036 163.5 243.232 163.966C242.645 164.315 242.077 164.696 241.532 165.107C236.67 168.798 235.045 174.423 237.195 180.166L237.191 180.174Z" fill="#1D1D1B"/>
<path d="M193.011 243.736C193.608 244.07 194.241 244.288 194.652 244.915C194.734 245.057 194.785 245.215 194.802 245.378C194.819 245.542 194.801 245.707 194.75 245.862C194.698 246.018 194.614 246.162 194.504 246.283C194.393 246.404 194.258 246.5 194.107 246.566C193.856 246.666 193.589 246.719 193.318 246.72C192.132 246.697 190.952 246.535 189.804 246.236C184.553 245.036 179.672 242.127 176.457 237.778C180.611 242.268 186.591 244.658 192.602 244.694C192.831 244.696 193.06 244.669 193.283 244.614C193.262 244.618 193.242 244.624 193.223 244.632C192.998 244.74 192.823 244.93 192.732 245.162C192.641 245.395 192.641 245.653 192.734 245.885C192.769 245.97 192.816 246.05 192.873 246.123C192.953 246.205 192.947 246.199 192.941 246.193C192.67 246.057 192.39 245.95 192.094 245.839L193.005 243.726L193.011 243.736Z" fill="#1D1D1B"/>
<path d="M720.362 315.134C723.09 320.845 710.803 335.508 658.559 370.744C639.44 383.638 614.972 399.295 583.926 418.269C575.019 413.957 565.877 409.692 556.5 405.474C535.165 395.891 514.356 387.404 494.239 379.848L508.166 374.045C495.623 372.087 483.319 368.821 471.456 364.3C455.365 358.157 440.225 349.765 426.489 339.374L444.716 338.535C435.548 335.321 425.889 331.518 415.877 327.003C397.969 318.921 380.756 309.381 364.41 298.48L380.745 298.42C372.92 289.415 365.095 280.409 357.269 271.401C362.248 274.916 368.057 277.073 374.124 277.658C378.852 278.093 383.62 277.556 388.133 276.078C386.421 269.919 383.194 264.286 378.746 259.695C374.76 255.615 369.913 252.477 364.559 250.51C363.11 249.976 361.631 249.53 360.129 249.175C363.562 247.619 367.236 246.661 370.991 246.343C380.829 245.523 388.353 249.419 391.42 251.247C390.075 249.01 388.317 247.048 386.241 245.466C383.054 243.069 379.254 241.623 375.279 241.293C378.335 239.53 381.622 238.205 385.046 237.356C391.327 235.84 397.888 235.92 404.129 237.589C394.487 231.015 384.853 223.992 385.673 222.538C386.572 220.94 399.507 226.981 415.615 233.388C433.173 240.353 451.078 246.412 469.258 251.543C466.603 246.584 463.951 241.628 461.303 236.676C468.852 242.076 476.79 246.911 485.052 251.141C494.196 255.824 501.259 258.48 512.722 262.803C524.673 267.313 530.646 269.565 538.488 271.44C550.235 274.245 553.072 273.339 563.848 275.825C572.645 277.85 581.192 280.837 589.335 284.731C583.828 278.986 578.321 273.239 572.813 267.489C580.859 268.631 588.542 271.579 595.284 276.113C598.086 278.015 600.696 280.187 603.075 282.597L595.339 265.954C603.808 273.601 612.924 280.5 622.585 286.572C624.977 288.074 638.468 296.49 653.691 302.476C691.67 317.385 716.977 308.045 720.362 315.134Z" fill="#664121"/>
<path d="M658.56 370.744C639.44 383.638 614.972 399.295 583.927 418.269C575.019 413.957 565.877 409.692 556.5 405.474C535.165 395.891 514.356 387.404 494.239 379.848L508.167 374.045C495.623 372.087 483.319 368.821 471.457 364.3C455.365 358.157 440.225 349.765 426.489 339.374L444.716 338.535C435.548 335.321 425.89 331.519 415.878 327.003C397.969 318.921 380.756 309.381 364.41 298.48L380.745 298.42C372.92 289.415 365.095 280.409 357.27 271.401C362.248 274.916 368.057 277.073 374.124 277.658C378.852 278.093 383.62 277.556 388.133 276.078C386.421 269.919 383.194 264.287 378.746 259.695C374.761 255.615 369.913 252.477 364.559 250.51C367.779 250.988 370.941 251.8 373.993 252.931C384.216 256.724 390.476 263.176 398.332 271.442C411.22 285.001 411.365 291.164 422.07 300.383C430.306 307.477 438.791 311.213 444.657 313.259C441.242 308.722 437.833 304.176 434.432 299.622C441.724 305.145 449.017 310.67 456.31 316.198C461.615 320.376 467.245 324.124 473.147 327.406C483.757 333.299 495.152 337.651 506.989 340.334L490.319 323.498C494.846 323.404 501.64 323.853 508.832 327.018C516.724 330.497 520.207 335.093 526.328 339.998C531.823 344.404 540.552 349.95 553.991 353.582C548.482 347.747 542.974 341.911 537.464 336.075C542.527 338.739 550.081 342.694 559.234 347.57C575.449 356.19 586.44 362.131 587.71 362.81C598.208 368.391 618.203 372.73 658.56 370.744Z" fill="#492E1A"/>
<path d="M712.26 331.387C697.805 345.699 662.997 371.384 584.261 419.514L583.727 419.84L583.162 419.568C574.132 415.195 564.915 410.895 555.766 406.786C535.401 397.649 514.484 389.027 493.57 381.189L490.852 380.171L503.78 374.784C492.521 372.77 481.475 369.706 470.787 365.633C454.592 359.45 439.355 351.003 425.53 340.545L422.986 338.62L438.599 337.9C430.672 334.977 422.808 331.75 415.134 328.298C397.172 320.186 379.906 310.618 363.506 299.69L360.367 297.598L377.973 297.54L349.934 265.266L357.673 270.722C362.487 274.123 368.106 276.21 373.974 276.776C378.171 277.17 382.406 276.763 386.452 275.577C384.725 270.016 381.715 264.94 377.664 260.758C372.739 255.708 366.474 252.168 359.606 250.553L356.314 249.772L359.39 248.388C362.942 246.775 366.743 245.782 370.63 245.452C376.229 245.002 381.854 245.92 387.019 248.126C386.467 247.591 385.883 247.09 385.27 246.625C382.257 244.358 378.663 242.992 374.904 242.687L371.255 242.377L374.43 240.546C377.58 238.732 380.968 237.369 384.496 236.494C389.143 235.36 393.957 235.084 398.702 235.681C395.117 233.17 392.2 231.032 389.991 229.296C385.026 225.396 383.614 223.61 384.395 222.223C385.464 220.323 388.564 221.4 403.913 227.742C407.489 229.219 411.542 230.891 415.763 232.574C432.177 239.102 449.3 244.944 466.697 249.961L457.704 233.156L461.704 236.012C469.207 241.374 477.095 246.178 485.303 250.383C494.378 255.025 501.332 257.648 512.853 261.993C524.748 266.479 530.715 268.729 538.482 270.585C542.885 271.652 547.351 272.436 551.854 272.933C555.888 273.376 559.892 274.053 563.846 274.962C570.798 276.564 577.599 278.761 584.173 281.53L569.411 266.127L572.72 266.612C580.938 267.761 588.785 270.77 595.664 275.41C596.936 276.273 598.17 277.193 599.367 278.171L591.651 261.569L595.847 265.357C604.272 272.957 613.338 279.813 622.944 285.849C626.577 288.135 639.547 296.025 653.868 301.655C675.927 310.331 693.611 310.736 705.312 311.005C714.118 311.207 719.431 311.328 721.139 314.902C722.437 317.633 721.601 322.137 712.26 331.387ZM583.599 417.224C636.216 385.048 674.033 359.887 696.015 342.429C705.384 334.991 712.023 328.833 715.745 324.13C718.702 320.393 719.852 317.546 719.062 315.895C717.966 313.595 712.628 313.479 705.255 313.303C693.392 313.03 675.47 312.613 653.024 303.795C638.519 298.093 625.395 290.109 621.72 287.797C613.55 282.66 605.765 276.937 598.425 270.672L606.66 288.377L602.013 283.685C599.685 281.327 597.133 279.202 594.393 277.339C588.779 273.541 582.474 270.883 575.835 269.516L594.263 288.744L588.597 286.047C580.528 282.194 572.061 279.235 563.347 277.222C559.469 276.331 555.542 275.668 551.586 275.234C546.998 274.727 542.447 273.928 537.961 272.842C530.051 270.953 524.04 268.687 512.065 264.168C500.458 259.794 493.452 257.143 484.271 252.451C477.386 248.926 470.723 244.982 464.32 240.642L471.293 253.677L468.692 252.939C450.472 247.788 432.527 241.71 414.928 234.731C410.694 233.047 406.636 231.369 403.053 229.89C396.618 227.232 389.998 224.498 387.197 223.84C388.592 225.336 392.676 228.844 404.516 236.915L410.03 240.675L403.581 238.979C397.526 237.362 391.161 237.286 385.067 238.757C382.856 239.305 380.701 240.059 378.631 241.009C381.55 241.717 384.291 243.019 386.685 244.832C388.88 246.505 390.737 248.579 392.158 250.944L394.532 254.877L390.587 252.525C386.295 249.966 379.378 247.058 370.841 247.78C368.337 247.99 365.867 248.498 363.483 249.293C369.486 251.262 374.925 254.653 379.334 259.178C383.915 263.908 387.24 269.709 389.006 276.054L389.299 277.113L388.254 277.453C383.592 278.987 378.665 279.543 373.779 279.086C369.821 278.714 365.954 277.684 362.336 276.036L383.017 299.842L367.981 299.898C383.33 309.893 399.421 318.699 416.115 326.239C425.481 330.465 435.151 334.332 444.868 337.725L450.452 339.691L429.528 340.655C442.489 350.103 456.648 357.787 471.633 363.507C483.42 367.998 495.643 371.246 508.106 373.196L512.129 373.827L497.115 380.079C517.161 387.669 537.211 395.942 556.733 404.71C565.688 408.724 574.731 412.938 583.599 417.224Z" fill="#1D1D1B"/>
<path d="M435.83 275.225C434.297 270.203 431.725 265.56 428.28 261.598C424.367 257.119 419.443 253.637 413.916 251.439C418.631 250.531 423.452 250.312 428.229 250.791C434.091 251.383 439.8 253.014 445.089 255.608C441.359 255.461 437.516 255.236 433.561 254.934C430.718 254.714 427.939 254.46 425.225 254.174C428.041 256.388 430.403 259.126 432.181 262.236C434.436 266.204 435.689 270.662 435.83 275.225V275.225Z" fill="#492E1A"/>
<path d="M477.975 307.859C474.125 305.903 470.54 303.464 467.307 300.6C457.958 292.309 453.927 282.494 452.191 277.054C455.848 279.843 459.765 282.275 463.888 284.316C467.553 286.129 471.366 287.625 475.285 288.789C472.272 288.638 469.295 288.07 466.438 287.1C463.753 286.184 462.419 285.331 461.915 285.842C460.745 287.024 465.769 293.772 467.315 295.848C470.522 300.147 474.088 304.165 477.975 307.859V307.859Z" fill="#492E1A"/>
</g>
<defs>
<filter id="filter0_dd_823_12813" x="-10.043" y="-16.2227" width="386.992" height="168.277" filterUnits="userSpaceOnUse" color-interpolation-filters="sRGB">
<feFlood flood-opacity="0" result="BackgroundImageFix"/>
<feColorMatrix in="SourceAlpha" type="matrix" values="0 0 0 0 0 0 0 0 0 0 0 0 0 0 0 0 0 0 127 0" result="hardAlpha"/>
<feOffset dy="-3"/>
<feGaussianBlur stdDeviation="19"/>
<feComposite in2="hardAlpha" operator="out"/>
<feColorMatrix type="matrix" values="0 0 0 0 1 0 0 0 0 0 0 0 0 0 0 0 0 0 0.39 0"/>
<feBlend mode="normal" in2="BackgroundImageFix" result="effect1_dropShadow_823_12813"/>
<feColorMatrix in="SourceAlpha" type="matrix" values="0 0 0 0 0 0 0 0 0 0 0 0 0 0 0 0 0 0 127 0" result="hardAlpha"/>
<feOffset/>
<feGaussianBlur stdDeviation="4"/>
<feComposite in2="hardAlpha" operator="out"/>
<feColorMatrix type="matrix" values="0 0 0 0 1 0 0 0 0 0.72 0 0 0 0 0 0 0 0 0.4 0"/>
<feBlend mode="normal" in2="effect1_dropShadow_823_12813" result="effect2_dropShadow_823_12813"/>
<feBlend mode="normal" in="SourceGraphic" in2="effect2_dropShadow_823_12813" result="shape"/>
</filter>
<clipPath id="clip0_823_12813">
<rect width="467" height="364" fill="white"/>
</clipPath>
</defs>
</svg>