<svg width="100" height="100" viewBox="0 0 100 100" fill="none" xmlns="http://www.w3.org/2000/svg">
<g clip-path="url(#clip0_414_13767)">
<g filter="url(#filter0_d_414_13767)">
<path d="M59.2891 78.7305C55.2891 70.4705 55.5091 70.6605 47.2891 66.7305C55.5491 62.7305 55.3591 62.9405 59.2891 54.7305C63.2891 62.9805 63.0691 62.8005 71.2891 66.7305C63.0691 70.6605 63.2591 70.4705 59.2891 78.7305Z" stroke="#FF2F34" stroke-width="1.5"/>
<path d="M37.7704 61.1602C34.6304 54.6102 34.7705 54.7604 28.2305 51.6104C34.7705 48.4704 34.6304 48.6103 37.7704 42.0703C40.9204 48.6103 40.7705 48.4704 47.3105 51.6104C40.7705 54.7604 40.9404 54.6102 37.7704 61.1602Z" stroke="#FF2F34" stroke-width="1.5"/>
<path d="M32.8711 68.4297V76.7197" stroke="#FF2F34" stroke-width="1.5"/>
<path d="M37.0205 72.5781H28.7305" stroke="#FF2F34" stroke-width="1.5"/>
<path d="M53.1289 21.25V29.54" stroke="#FF2F34" stroke-width="1.5"/>
<path d="M57.2722 25.3906H48.9922" stroke="#FF2F34" stroke-width="1.5"/>
<path d="M63.1289 32.3789V43.9089" stroke="#FF2F34" stroke-width="1.5"/>
<path d="M68.8994 38.1406H57.3594" stroke="#FF2F34" stroke-width="1.5"/>
</g>
</g>
<defs>
<filter id="filter0_d_414_13767" x="5.5" y="0.25" width="88.5273" height="101.207" filterUnits="userSpaceOnUse" color-interpolation-filters="sRGB">
<feFlood flood-opacity="0" result="BackgroundImageFix"/>
<feColorMatrix in="SourceAlpha" type="matrix" values="0 0 0 0 0 0 0 0 0 0 0 0 0 0 0 0 0 0 127 0" result="hardAlpha"/>
<feOffset/>
<feGaussianBlur stdDeviation="10.5"/>
<feComposite in2="hardAlpha" operator="out"/>
<feColorMatrix type="matrix" values="0 0 0 0 1 0 0 0 0 0.235294 0 0 0 0 0.262745 0 0 0 1 0"/>
<feBlend mode="normal" in2="BackgroundImageFix" result="effect1_dropShadow_414_13767"/>
<feBlend mode="normal" in="SourceGraphic" in2="effect1_dropShadow_414_13767" result="shape"/>
</filter>
<clipPath id="clip0_414_13767">
<rect width="100" height="100" fill="white"/>
</clipPath>
</defs>
</svg>
