<svg width="158" height="45" viewBox="0 0 158 45" fill="none" xmlns="http://www.w3.org/2000/svg">
<path d="M27.7313 25.4313C27.1227 23.9591 28.139 23.5433 29.579 22.0364C30.885 20.671 31.0773 18.3126 30.5113 16.3551C29.9745 14.5031 28.9448 11.9001 26.5567 11.1131C26.7174 11.9907 26.8768 12.6995 26.5835 13.4827C26.1672 14.5875 25.0596 14.9239 24.2368 14.5416C23.3604 14.1344 22.753 13.3561 23.1876 10.4342C23.5405 8.05464 23.2789 6.51174 21.7403 5.75456C20.4538 5.00979 19.8586 4.43012 19.0419 3.08085C18.6159 3.91499 18.6512 4.65603 18.9433 5.32508C19.3875 6.3603 19.2086 7.44269 18.9189 7.99754C18.1351 9.49949 16.0987 9.13952 15.2151 8.28056C14.2292 7.31981 14.1805 5.67387 15.0934 4.18434C16.0951 2.54338 16.571 1.36913 15.5035 0C15.4032 0.899508 15.0077 1.73804 14.3813 2.37953C13.5342 3.26456 12.9061 3.73004 11.4382 4.00932C9.82056 4.31344 8.31856 5.2506 7.54931 6.3392C7.11478 6.95363 5.84526 9.27482 8.48166 13.1662C9.66962 14.9201 7.85482 16.5661 6.32483 16.1875C5.06384 15.8759 4.83501 14.9822 4.86422 13.2407C4.14973 13.8789 3.65271 14.7322 3.445 15.6773C3.0482 17.7229 2.935 19.2857 4.41874 22.4361C5.19043 24.0758 5.37909 24.3365 4.83501 25.7341C3.9344 27.437 3.42184 29.3251 3.33545 31.2578C3.00073 38.487 8.5693 44.6301 15.7616 44.9764C22.9539 45.3227 29.0653 39.742 29.3939 32.5115C29.5055 30.1676 28.9874 27.8371 27.8956 25.7714C27.8128 25.5988 27.7508 25.4834 27.7313 25.4313Z" fill="#FF2F34"/>
<path d="M23.973 29.2557L23.4459 27.4583L19.0312 25.7379L16.5896 26.8116L14.6531 25.7305L9.66874 26.8129L8.9786 28.496L9.36079 30.6683L8.83984 32.6543L9.94869 34.6652C10.9395 34.6068 11.4714 34.6751 12.3684 35.0003L12.0033 35.9449C12.1239 36.0041 12.2301 36.0897 12.3143 36.1958C12.3985 36.3018 12.4585 36.4256 12.4901 36.5581L13.7073 35.6768C12.4901 37.0323 11.9339 37.8317 11.5371 39.4429L12.1457 39.4726L11.8694 40.5898C14.8369 39.6563 16.5421 39.3795 19.6776 39.4726L20.3811 38.9923C19.8589 37.8031 19.6058 37.1055 18.6503 35.935L19.6581 36.9839C19.8042 36.6736 19.938 36.542 20.2862 36.3968L19.9295 35.4124C20.8716 35.1964 21.4047 35.1642 22.3639 35.3218L23.6529 33.4487L23.3936 31.4019L23.973 29.2557ZM10.1787 31.4403L15.4613 31.6886L14.4242 34.1711C11.4349 34.3946 10.9419 33.3742 10.1787 31.4403ZM15.5769 36.2813L14.2709 36.4489C14.6032 35.8705 14.843 35.6296 15.4029 35.3988C15.6439 35.693 15.7351 35.9387 15.5818 36.2813H15.5769ZM16.0723 38.0774C16.0035 37.1006 16.0488 36.1189 16.2074 35.153C16.2939 36.1273 16.2501 37.109 16.0772 38.0712L16.0723 38.0774ZM16.7405 36.3397C16.6188 35.9884 16.732 35.7538 16.9949 35.477C17.5305 35.76 17.7483 36.0231 18.0246 36.6301L16.7405 36.3397ZM17.909 34.34L17.1166 31.768L22.3833 32.0225C21.4522 33.8794 20.868 34.8489 17.9139 34.3325L17.909 34.34Z" fill="black"/>
<path d="M22.7145 25.98L22.398 16.1255C22.1667 17.7466 21.9403 18.5981 20.8376 19.7016L20.8887 20.8908C20.4018 21.4903 20.0622 21.6455 19.22 21.2483C18.7964 22.07 18.1087 21.8614 17.6376 21.1725L17.4672 17.2911C16.6676 16.8268 16.3207 16.3378 15.779 15.2852C15.3067 16.2546 14.9854 16.7548 14.1346 17.4375L14.3074 21.1192C13.9532 22.0638 13.2023 22.2797 12.6825 21.4568C11.9948 21.962 11.6357 21.9769 11.0564 21.3786L10.987 20.0839C9.95605 19.1815 9.6481 18.2679 9.19531 16.6084L9.58116 26.3524C14.6008 24.8988 17.4697 24.7474 22.7145 25.98Z" fill="black"/>
<path d="M7.08963 31.528L8.09501 30.4493L6.87662 29.1658L8.2995 29.7269L8.19239 28.3329L7.46086 27.9258L6.00391 29.496L6.88027 33.4966L8.70969 34.3059L8.5758 32.8015L7.08963 31.528Z" fill="black"/>
<path d="M11.8663 40.7874L11.7969 41.1226L14.0182 42.5091C14.241 42.5798 14.4491 42.6419 14.6463 42.694L14.51 44.8563C15.396 44.9922 16.2938 45.0297 17.1877 44.968L17.2851 42.8579C17.4507 42.8355 17.6223 42.8082 17.8049 42.7759L19.5357 41.7668L19.8692 40.3505L19.7073 39.6641C16.5719 39.7572 14.8617 40.034 11.8663 40.7874Z" fill="black"/>
<path d="M25.5401 28.7969L24.7733 29.132L24.5384 30.5086L26.0063 30.0878L24.6759 31.2484L25.5766 32.4177L23.9797 33.5435L23.707 35.0281L25.6022 34.3975L26.8449 30.4999L25.5401 28.7969Z" fill="black"/>
<path d="M52.7175 16.1094V28.3891H49.4069V23.7481H42.6609V28.3891H39.3516V16.1094H42.6609V20.6433H49.4069V16.1094H52.7175Z" fill="white"/>
<path d="M67.7487 16.1289V28.3734H53.9453V16.1289H67.7487ZM64.4393 19.2296H57.256V25.2726H64.4326L64.4393 19.2296Z" fill="white"/>
<path d="M82.7852 16.1289V19.2296H77.2145V28.3734H73.8862V19.2296H68.9805V16.1289H82.7852Z" fill="white"/>
<path d="M97.3803 16.1094V28.3891H94.0709V23.7481H87.325V28.3891H84.0156V16.1094H87.325V20.6433H94.0696V16.1094H97.3803Z" fill="white"/>
<path d="M101.921 19.4345V20.6252H108.77V23.7273H101.921V25.0752H111.17V28.3845H98.6094V16.1211H111.17V19.4304L101.921 19.4345Z" fill="white"/>
<path d="M127.429 25.9985V28.3989H112.398V25.9985L118.916 16.1016H120.91L127.429 25.9985ZM122.84 25.0502L119.901 20.6206L116.989 25.0529L122.84 25.0502Z" fill="white"/>
<path d="M139.206 28.3734H128.66V16.1289H139.168L143.652 22.2952L139.206 28.3734ZM139.504 22.2952L137.296 19.4234H131.972V25.064H137.506L139.504 22.2952Z" fill="white"/>
<path d="M157.862 21.6287V28.3734H144.883V25.1683H154.552V24.2729L144.988 22.8546V16.1289H157.794V19.2296H148.292V20.228L157.862 21.6287Z" fill="white"/>
</svg>
