<svg width="32" height="32" viewBox="0 0 32 32" fill="none" xmlns="http://www.w3.org/2000/svg">
<path d="M10.3751 8.5001C9.85728 7.98228 9.01772 7.98228 8.4999 8.5001C7.98207 9.01793 7.98207 9.85749 8.4999 10.3753L21.6264 23.5018C22.1442 24.0196 22.9837 24.0196 23.5016 23.5018C24.0194 22.9839 24.0194 22.1444 23.5016 21.6266L10.3751 8.5001Z" fill="#FF2F34"/>
<path d="M23.4999 10.3751C24.0177 9.85728 24.0177 9.01772 23.4999 8.4999C22.9821 7.98207 22.1425 7.98207 21.6247 8.4999L8.49823 21.6264C7.98041 22.1442 7.98041 22.9837 8.49823 23.5016C9.01606 24.0194 9.85562 24.0194 10.3734 23.5016L23.4999 10.3751Z" fill="#FF2F34"/>
</svg>