<svg width="24" height="24" viewBox="0 0 24 24" fill="none" xmlns="http://www.w3.org/2000/svg">
<path fill-rule="evenodd" clip-rule="evenodd" d="M2 6C2 3.79086 3.79086 2 6 2H18C20.2091 2 22 3.79086 22 6V14.3431C22 15.404 21.5786 16.4214 20.8284 17.1716L17.1716 20.8284C16.4214 21.5786 15.404 22 14.3431 22H6C3.79086 22 2 20.2091 2 18V6ZM13 20H6C4.89543 20 4 19.1046 4 18V6C4 4.89543 4.89543 4 6 4H18C19.1046 4 20 4.89543 20 6V13H16C14.3431 13 13 14.3431 13 16V20ZM15 19.8891C15.2824 19.7909 15.5419 19.6296 15.7574 19.4142L19.4142 15.7574C19.6296 15.5419 19.7909 15.2824 19.8891 15H16C15.4477 15 15 15.4477 15 16V19.8891Z" fill="#FF2F34"/>
</svg>