<svg width="44" height="44" viewBox="0 0 44 44" fill="none" xmlns="http://www.w3.org/2000/svg">
<path d="M22 44C34.1503 44 44 34.1503 44 22C44 9.84974 34.1503 0 22 0C9.84974 0 0 9.84974 0 22C0 34.1503 9.84974 44 22 44Z" fill="url(#paint0_linear_587_22569)"/>
<path d="M17.9646 32.0846C17.2518 32.0846 17.373 31.8155 17.1271 31.1368L15.0312 24.2393L31.1646 14.668" fill="#D7DBE0"/>
<path d="M17.9688 32.0853C18.5187 32.0853 18.7617 31.8337 19.0687 31.5353L22.0021 28.683L18.3431 26.4766" fill="#B4BCC2"/>
<path d="M18.341 26.4765L27.207 33.0269C28.2188 33.5851 28.9488 33.296 29.2009 32.0876L32.8098 15.0811C33.1793 13.5998 32.2452 12.9277 31.2772 13.3671L10.0857 21.5385C8.63918 22.1187 8.6478 22.9257 9.82205 23.2853L15.2603 24.9827L27.8503 17.0398C28.4447 16.6794 28.9903 16.873 28.5426 17.2705" fill="white"/>
<defs>
<linearGradient id="paint0_linear_587_22569" x1="22" y1="0" x2="22" y2="43.6737" gradientUnits="userSpaceOnUse">
<stop stop-color="#475361"/>
<stop offset="1" stop-color="#1D1D1D"/>
</linearGradient>
</defs>
</svg>