<svg width="1201" height="707" viewBox="0 0 1201 707" fill="none"
    xmlns="http://www.w3.org/2000/svg">
    <path style="mix-blend-mode:multiply" opacity="0.57" d="M291.211 628.094L429.264 522.322L511.562 412.561L511.741 412.488L519.449 399.922H458.965L291.211 628.094Z" fill="url(#paint0_linear_1378_9197)"/>
    <path style="mix-blend-mode:multiply" opacity="0.57" d="M653.538 400.66L587.096 469.096L585.246 471.772L613.407 498.435H643.039L769.944 591.982H846.363L723.826 451.162L845.445 576.784L846.639 577.954L967.665 624.174L1048.3 654.968L1145.98 692.286L1143.85 690.645L1143.97 690.685L1072.64 624.174L855.186 455.488H855.978L917.517 455.167L836.745 400.66H653.969H653.538Z" fill="url(#paint1_linear_1378_9197)"/>
    <path style="mix-blend-mode:multiply" opacity="0.67" d="M855.109 455.176L1150.92 665.782H1200.51L1197.59 637.969L917.836 455.176H855.109Z" fill="url(#paint2_linear_1378_9197)"/>
    <path d="M294.908 223.46V415.124H232.035V202.527H256.234L294.908 223.46Z" fill="#100D42"/>
    <path d="M294.907 248.018V394.396C294.528 401.3 294.152 408.21 293.778 415.126H232.043V239.773C253.78 291.225 265.932 304.181 273.113 302.686C275.404 302.215 278.474 300.006 289.96 264.053C291.726 258.502 293.375 253.158 294.907 248.018Z" fill="#110650"/>
    <path d="M255.925 202.528L232.035 198.027V415.116H255.925V202.528Z" fill="#0E023A"/>
    <path style="mix-blend-mode:multiply" opacity="0.57" d="M69.6602 706.973H193.358L363.544 489.974L365.388 500.908H374.445L450.363 399.922H357.622L69.6602 706.973Z" fill="url(#paint3_linear_1378_9197)"/>
    <path style="mix-blend-mode:multiply" opacity="0.57" d="M58.4414 667.783L169.489 635.25L262.152 525.956L271.989 543.75L346.79 463.062L285.87 463.086L58.4414 667.783Z" fill="url(#paint4_linear_1378_9197)"/>
    <path style="mix-blend-mode:multiply" opacity="0.57" d="M1053.54 628.195L842.047 547.41L708.734 411.508L769.654 411.531L900.323 507.786L1053.54 628.195Z" fill="url(#paint5_linear_1378_9197)"/>
    <path style="mix-blend-mode:multiply" opacity="0.57" d="M855.202 455.504L861.008 475.797L770.105 411.508L838.957 411.531L855.202 424.734V455.504Z" fill="url(#paint6_linear_1378_9197)"/>
    <path style="mix-blend-mode:multiply" opacity="0.67" d="M64.4883 475.25H179.674L249.488 422.25L141.01 419.25L64.4883 475.25Z" fill="url(#paint7_linear_1378_9197)"/>
    <path style="mix-blend-mode:multiply" opacity="0.67" d="M340.482 406.836L269.172 415.115L147.762 511.524L179.032 507.033L0 646.207L125.475 598.643L340.482 406.836Z" fill="url(#paint8_linear_1378_9197)"/>
    <path d="M445.486 215.25H452.984V435.376H442.537H433.488V236.93L445.486 215.25Z" fill="#0E023A"/>
    <path d="M452.982 210.535L445.574 215.248V435.366H452.982V210.535Z" fill="#090157"/>
    <path d="M308.837 200.27L291.633 200.326L308.837 200.383V200.27Z" fill="#FF3C43"/>
    <path d="M308.837 190.316L291.633 190.381L308.837 190.438V190.316Z" fill="#FF3C43"/>
    <path d="M249.488 346.735V421.765L151.488 422.25V346.25L165.312 346.323L249.488 346.735Z" fill="#090157"/>
    <path d="M151.488 422.193L140.488 419.25V346.25L151.488 346.307V422.193Z" fill="#0E023A"/>
    <path d="M246.67 351.543L235.322 351.437L223.95 351.372L201.092 351.242L178.095 351.169L166.544 351.137H154.961L166.544 351.242L178.095 351.307L201.092 351.445L223.95 351.51L235.322 351.543H246.67Z" fill="#FF3C43"/>
    <path d="M246.67 358.579L235.322 358.489L223.95 358.433L201.092 358.319L178.095 358.27L166.544 358.254L154.961 358.262L166.544 358.351L178.095 358.408L201.092 358.522L223.95 358.563L235.322 358.587L246.67 358.579Z" fill="#FF3C43"/>
    <path d="M246.67 365.607L235.322 365.534L223.95 365.485L201.092 365.396L178.095 365.371L166.544 365.363L154.961 365.379L166.544 365.461L178.095 365.509L201.092 365.599L223.95 365.623L235.322 365.631L246.67 365.607Z" fill="#FF3C43"/>
    <path d="M246.67 372.639L235.322 372.574L223.95 372.542L201.092 372.469H178.095H166.544L154.961 372.501L166.544 372.566L178.095 372.607L201.092 372.672H223.95H235.322L246.67 372.639Z" fill="#FF3C43"/>
    <path d="M246.67 379.689L235.322 379.624L223.95 379.6L201.092 379.551L178.095 379.575L166.544 379.583L154.961 379.624L166.544 379.681L178.095 379.713L201.092 379.754L223.95 379.738L235.322 379.73L246.67 379.689Z" fill="#FF3C43"/>
    <path d="M246.67 386.718L235.322 386.67L223.95 386.653L201.092 386.629L178.095 386.67L166.544 386.686L154.961 386.743L166.544 386.791L178.095 386.799L201.092 386.832L223.95 386.791L235.322 386.767L246.67 386.718Z" fill="#FF3C43"/>
    <path d="M246.67 393.748L235.322 393.715H223.95L201.092 393.707L178.095 393.764L166.544 393.796L154.961 393.861L166.544 393.902H178.095L201.092 393.91L223.95 393.845L235.322 393.813L246.67 393.748Z" fill="#FF3C43"/>
    <path d="M246.67 400.79L235.322 400.758L223.95 400.766L201.092 400.782L178.095 400.863L166.544 400.912L154.961 400.985L166.544 401.01L178.095 401.002L201.092 400.985L223.95 400.904L235.322 400.863L246.67 400.79Z" fill="#FF3C43"/>
    <path d="M241.766 357.61L247.021 357.634V353.435L241.766 353.41V357.61Z" fill="#FF3C43"/>
    <path d="M212.332 364.634L217.628 364.65V360.442L212.332 360.426V364.634Z" fill="#FF3C43"/>
    <path d="M249.488 408.092V422.249H151.488V346.734L165.32 346.807C169.398 357.71 175.518 367.745 183.358 376.382C202.453 397.258 226.048 403.314 235.665 405.651C240.216 406.753 244.833 407.568 249.488 408.092Z" fill="#110650"/>
    <path d="M236.662 381.664H231.391V385.864H236.662V381.664Z" fill="#FF3C43"/>
    <path d="M167.105 364.846L172.467 364.862V360.622L167.105 360.605V364.846Z" fill="#FF3C43"/>
    <path d="M172.467 373.98H167.105V378.221H172.467V373.98Z" fill="#FF3C43"/>
    <path d="M214.097 374.527H208.801V378.743H214.097V374.527Z" fill="#FF3C43"/>
    <path d="M227.883 372.278L233.155 372.286V368.086L227.883 368.078V372.278Z" fill="#FF3C43"/>
    <path d="M186.208 388.483L180.871 388.488L180.876 392.72L186.212 392.715L186.208 388.483Z" fill="#FF3C43"/>
    <path d="M212.336 387.652H207.031V391.868H212.336V387.652Z" fill="#FF3C43"/>
    <path d="M433.852 0.25H357.617V416.296H433.852V0.25Z" fill="#0E023A"/>
    <path d="M426.56 0.25H364.922V416.296H426.56V0.25Z" fill="#090157"/>
    <path d="M308.839 207.552V130.48H285.859V463.07H346.798V207.552H308.839Z" fill="#0E023A"/>
    <path d="M340.966 207.552V463.07H291.691V130.48H308.839L346.797 207.552H340.966Z" fill="#150C6F"/>
    <path d="M340.894 363.367H291.344V463.07H340.894V363.367Z" fill="#110650"/>
    <path d="M340.966 238.337V395.461L291.684 395.712V185.699L317.328 307.284L340.966 238.337Z" fill="#110650"/>
    <path d="M291.633 439.01L340.964 438.84V439.181L291.633 439.01Z" fill="#FF3C43"/>
    <path d="M291.633 429.065L340.964 428.887V429.236L291.633 429.065Z" fill="#FF3C43"/>
    <path d="M291.633 419.112L340.964 418.941V419.283L291.633 419.112Z" fill="#FF3C43"/>
    <path d="M291.633 409.175L340.964 409.004V409.345L291.633 409.175Z" fill="#FF3C43"/>
    <path d="M291.633 399.23L340.964 399.051V399.4L291.633 399.23Z" fill="#FF3C43"/>
    <path d="M291.633 389.28L340.964 389.109V389.459L291.633 389.28Z" fill="#FF3C43"/>
    <path d="M291.633 379.339L340.964 379.168V379.509L291.633 379.339Z" fill="#FF3C43"/>
    <path d="M291.633 369.397L340.964 369.227V369.568L291.633 369.397Z" fill="#FF3C43"/>
    <path d="M291.633 359.444L340.964 359.273V359.623L291.633 359.444Z" fill="#FF3C43"/>
    <path d="M291.633 349.499L340.964 349.328V349.669L291.633 349.499Z" fill="#FF3C43"/>
    <path d="M291.633 339.557L340.964 339.387V339.728L291.633 339.557Z" fill="#FF3C43"/>
    <path d="M291.633 329.612L340.964 329.441V329.783L291.633 329.612Z" fill="#FF3C43"/>
    <path d="M291.633 319.663L340.964 319.492V319.833L291.633 319.663Z" fill="#FF3C43"/>
    <path d="M291.633 309.721L340.964 309.551V309.892L291.633 309.721Z" fill="#FF3C43"/>
    <path d="M291.633 299.78L340.964 299.609V299.951L291.633 299.78Z" fill="#FF3C43"/>
    <path d="M291.633 289.839L340.964 289.66V290.009L291.633 289.839Z" fill="#FF3C43"/>
    <path d="M291.633 279.885L340.964 279.715V280.056L291.633 279.885Z" fill="#FF3C43"/>
    <path d="M291.633 269.944L340.964 269.773V270.115L291.633 269.944Z" fill="#FF3C43"/>
    <path d="M291.633 260.003L340.964 259.824V260.174L291.633 260.003Z" fill="#FF3C43"/>
    <path d="M291.633 250.05L340.964 249.879V250.228L291.633 250.05Z" fill="#FF3C43"/>
    <path d="M291.633 240.108L340.964 239.938V240.279L291.633 240.108Z" fill="#FF3C43"/>
    <path d="M291.633 230.167L340.964 229.996V230.337L291.633 230.167Z" fill="#FF3C43"/>
    <path d="M291.633 220.214L340.964 220.043V220.392L291.633 220.214Z" fill="#FF3C43"/>
    <path d="M291.633 210.272L340.964 210.102V210.443L291.633 210.272Z" fill="#FF3C43"/>
    <path d="M330.646 197.852L291.633 198.216L330.646 198.633V197.852Z" fill="#FF3C43"/>
    <path d="M325.966 183.543L291.633 183.814L325.966 184.086V183.543Z" fill="#FF3C43"/>
    <path d="M321.286 169.219L291.633 169.526L321.286 169.795V169.219Z" fill="#FF3C43"/>
    <path d="M315.282 154.91L291.633 155.163L315.282 155.385V154.91Z" fill="#FF3C43"/>
    <path d="M308.896 140.223L291.691 140.481L308.896 140.777V140.223Z" fill="#FF3C43"/>
    <g style="mix-blend-mode:darken">
        <path d="M346.799 66.875V207.75L308.84 130.478L346.799 66.875Z" fill="#090157"/>
    </g>
    <path d="M285.859 130.478L346.798 66.875L308.839 130.478H285.859Z" fill="#140888"/>
    <g style="mix-blend-mode:hard-light" opacity="0.4">
        <path d="M414.562 68.0742L364.922 178.97V127.795L414.562 68.0742Z" fill="#110650"/>
    </g>
    <g style="mix-blend-mode:hard-light" opacity="0.4">
        <path d="M406.309 60.7344L364.922 112.421V90.4322L406.309 60.7344Z" fill="#110650"/>
    </g>
    <g style="mix-blend-mode:hard-light" opacity="0.4">
        <path d="M426.56 221.302V416.232H364.922V247.206L406.764 187.559L382.151 281.193L426.56 221.302Z" fill="#110650"/>
    </g>
    <path d="M364.844 386.199L426.563 385.988V386.419L364.844 386.199Z" fill="#FF3C43"/>
    <path d="M364.844 373.762L426.563 373.543V373.973L364.844 373.762Z" fill="#FF3C43"/>
    <path d="M364.844 361.317L426.563 361.105V361.536L364.844 361.317Z" fill="#FF3C43"/>
    <path d="M364.844 348.879L426.563 348.66V349.091L364.844 348.879Z" fill="#FF3C43"/>
    <path d="M364.844 336.438L426.563 336.227V336.657L364.844 336.438Z" fill="#FF3C43"/>
    <path d="M364.844 324.001L426.563 323.781V324.212L364.844 324.001Z" fill="#FF3C43"/>
    <path d="M364.844 311.555L426.563 311.344V311.774L364.844 311.555Z" fill="#FF3C43"/>
    <path d="M364.844 299.118L426.563 298.898V299.329L364.844 299.118Z" fill="#FF3C43"/>
    <path d="M364.844 286.672L426.563 286.461V286.891L364.844 286.672Z" fill="#FF3C43"/>
    <path d="M364.844 274.239L426.563 274.02V274.45L364.844 274.239Z" fill="#FF3C43"/>
    <path d="M364.844 261.797L426.563 261.586V262.016L364.844 261.797Z" fill="#FF3C43"/>
    <path d="M364.844 249.352L426.563 249.133V249.563L364.844 249.352Z" fill="#FF3C43"/>
    <path d="M364.844 236.914L426.563 236.703V237.134L364.844 236.914Z" fill="#FF3C43"/>
    <path d="M364.844 224.477L426.563 224.258V224.688L364.844 224.477Z" fill="#FF3C43"/>
    <path d="M364.844 212.032L426.563 211.82V212.251L364.844 212.032Z" fill="#FF3C43"/>
    <path d="M364.844 199.598L426.563 199.379V199.809L364.844 199.598Z" fill="#FF3C43"/>
    <path d="M364.844 187.153L426.563 186.941V187.372L364.844 187.153Z" fill="#FF3C43"/>
    <path d="M364.844 174.712L426.563 174.492V174.923L364.844 174.712Z" fill="#FF3C43"/>
    <path d="M364.844 162.27L426.563 162.059V162.489L364.844 162.27Z" fill="#FF3C43"/>
    <path d="M364.844 149.833L426.563 149.613V150.044L364.844 149.833Z" fill="#FF3C43"/>
    <path d="M364.844 137.391L426.563 137.18V137.602L364.844 137.391Z" fill="#FF3C43"/>
    <path d="M364.844 124.954L426.563 124.734V125.165L364.844 124.954Z" fill="#FF3C43"/>
    <path d="M364.844 112.508L426.563 112.297V112.719L364.844 112.508Z" fill="#FF3C43"/>
    <path d="M364.844 100.075L426.563 99.8555V100.286L364.844 100.075Z" fill="#FF3C43"/>
    <path d="M364.844 87.6252L426.563 87.4141V87.8365L364.844 87.6252Z" fill="#FF3C43"/>
    <path d="M364.844 75.1881L426.563 74.9688V75.3993L364.844 75.1881Z" fill="#FF3C43"/>
    <path d="M484.182 231.93C484.133 238.607 484.082 245.284 484.028 251.961C483.691 245.287 483.742 238.598 484.182 231.93V231.93Z" fill="#110650"/>
    <path d="M829.344 120.25H839.271V411.421H825.445H813.488L803.488 170.25L829.344 120.25Z" fill="#090157"/>
    <path d="M839.273 114.312L829.477 120.249V411.42H839.273V114.312Z" fill="#0E023A"/>
    <path d="M894.035 193.201V114.18H917.592V455.177H855.109V193.201H894.035Z" fill="#0E023A"/>
    <path d="M911.611 120.231V455.177H861.094V184.524H894.033V114.18L911.611 120.231Z" fill="#090157"/>
    <path d="M894.035 112.211V185.856H855.109V73.4338L876.733 85.2072L894.035 112.211Z" fill="#090157"/>
    <path d="M876.742 85.207L894.036 114.182H917.593L889.828 85.207H876.742Z" fill="#130972"/>
    <path d="M452.984 465.041V104.613H472.479L563.449 215.517L561.345 465.041H452.984Z" fill="#0E023A"/>
    <path d="M452.984 104.613L513.574 216.24V465.041H562.954L563.441 215.509L472.48 104.613H452.984Z" fill="#090157"/>
    <path d="M513.574 216.238L563.449 215.515L472.479 104.611L452.984 95.7031V104.611L513.574 216.238Z" fill="#130972"/>
    <g style="mix-blend-mode:hard-light">
        <path d="M513.578 225.707V240.483L558.336 272.163L513.578 225.707Z" fill="#110650" fill-opacity="0.5"/>
    </g>
    <g style="mix-blend-mode:hard-light">
        <path d="M513.576 298.691V415.265C530.082 409.238 546.599 403.2 563.127 397.151L563.281 319.17C543.234 324.344 532.974 320.266 528.19 317.366C528.084 317.301 527.702 317.074 527.215 316.749C524.583 315.003 519.652 310.73 513.576 298.691Z" fill="#110650" fill-opacity="0.5"/>
    </g>
    <path d="M498.42 465.041L498.396 439.064L498.509 327.364L498.566 271.518L498.737 215.672L498.899 271.518L498.964 327.364L499.078 439.064L499.054 465.041H498.42Z" fill="#FF3C43"/>
    <path d="M484.83 465.043L484.806 439.066L484.92 327.366L484.985 271.52L485.147 184.043L485.309 271.52L485.375 327.366L485.488 439.066L485.464 465.043H484.83Z" fill="#FF3C43"/>
    <path d="M471.237 465.04L471.212 439.063L471.326 327.363L471.391 271.517L471.553 155.926L471.724 271.517L471.781 327.363L471.895 439.063L471.87 465.04H471.237Z" fill="#FF3C43"/>
    <path d="M457.651 465.04L457.626 439.062L457.74 327.362L457.805 271.516L457.967 132.336L458.138 271.516L458.195 327.362L458.309 439.062L458.284 465.04H457.651Z" fill="#FF3C43"/>
    <path d="M557.832 465.045L557.881 421.724L557.938 363.767L558.092 305.809L558.246 363.767L558.311 421.724L558.344 465.045H557.832Z" fill="#FF3C43"/>
    <path d="M544.949 465.042L544.99 421.722L545.047 363.764L545.201 272.98L545.363 363.764L545.42 421.722L545.461 465.042H544.949Z" fill="#FF3C43"/>
    <path d="M532.059 465.044L532.099 421.724L532.156 363.766L532.318 243.805L532.473 363.766L532.53 421.724L532.57 465.044H532.059Z" fill="#FF3C43"/>
    <path d="M519.176 465.042L519.216 421.722L519.273 363.764L519.428 219.32L519.582 363.764L519.639 421.722L519.688 465.042H519.176Z" fill="#FF3C43"/>
    <path d="M839.108 411.508L781.954 13.7305L667.638 121.475L655.535 411.508H839.108Z" fill="#0E023A"/>
    <path d="M781.952 12.4492L778.76 117.285L777.867 146.561L774.195 267.204L769.841 410.227H667.637V120.193L781.952 12.4492Z" fill="#090157"/>
    <g style="mix-blend-mode:hard-light">
        <path d="M778.752 117.285L777.867 146.528L667.637 243.761V206.184L778.752 117.285Z" fill="#110650" fill-opacity="0.3"/>
    </g>
    <g style="mix-blend-mode:hard-light">
        <path d="M739.063 232.082L667.637 301.177V284.029L739.063 232.082Z" fill="#110650" fill-opacity="0.3"/>
    </g>
    <g style="mix-blend-mode:hard-light">
        <path d="M774.188 267.203L769.817 410.226H723.89L667.613 406.976V352.341C695.839 337.435 721.988 318.892 745.391 297.185C755.557 287.752 765.172 277.741 774.188 267.203Z" fill="#110650" fill-opacity="0.3"/>
    </g>
    <path d="M667.508 388.873L769.842 388.516V389.23L667.508 388.873Z" fill="#FF3C43"/>
    <path d="M667.508 368.236L769.842 367.879V368.594L667.508 368.236Z" fill="#FF3C43"/>
    <path d="M667.508 347.607L769.842 347.25V347.965L667.508 347.607Z" fill="#FF3C43"/>
    <path d="M667.508 326.982L769.842 326.625V327.332L667.508 326.982Z" fill="#FF3C43"/>
    <path d="M667.508 306.35L769.842 305.992V306.707L667.508 306.35Z" fill="#FF3C43"/>
    <path d="M667.508 285.716L769.842 285.367V286.074L667.508 285.716Z" fill="#FF3C43"/>
    <path d="M667.508 265.092L769.842 264.734V265.449L667.508 265.092Z" fill="#FF3C43"/>
    <path d="M667.508 244.459L769.842 244.102V244.816L667.508 244.459Z" fill="#FF3C43"/>
    <path d="M667.508 223.826L769.842 223.469V224.184L667.508 223.826Z" fill="#FF3C43"/>
    <path d="M667.508 203.201L769.842 202.844V203.55L667.508 203.201Z" fill="#FF3C43"/>
    <path d="M667.508 182.568L769.842 182.211V182.926L667.508 182.568Z" fill="#FF3C43"/>
    <path d="M667.508 161.936L769.842 161.578V162.293L667.508 161.936Z" fill="#FF3C43"/>
    <path d="M667.508 141.311L769.842 140.953V141.66L667.508 141.311Z" fill="#FF3C43"/>
    <path d="M667.637 120.193L779.101 94.0127L781.952 12.4492L667.637 120.193Z" fill="#130972"/>
    <path d="M680.479 146.379H671.43V157.938H680.479V146.379Z" fill="#FF3C43"/>
    <path d="M730.233 207.703H721.184V219.262H730.233V207.703Z" fill="#FF3C43"/>
    <path d="M750.338 166.484H741.289V178.043H750.338V166.484Z" fill="#FF3C43"/>
    <path d="M697.561 272.039H688.512V283.598H697.561V272.039Z" fill="#FF3C43"/>
    <path d="M743.807 352.453H734.758V364.012H743.807V352.453Z" fill="#FF3C43"/>
    <path d="M748.834 310.738H739.785V322.297H748.834V310.738Z" fill="#FF3C43"/>
    <path d="M702.592 332.852H693.543V344.411H702.592V332.852Z" fill="#FF3C43"/>
    <path d="M689.518 207.703H680.469V219.262H689.518V207.703Z" fill="#FF3C43"/>
    <g style="mix-blend-mode:hard-light">
        <path d="M911.611 200.578V274.441L861.094 321.555V269.803C864.767 268.099 868.298 266.105 871.654 263.84C893.09 249.373 900.897 228.099 903.407 220.171L877.998 223.347L911.611 200.578Z" fill="#110650" fill-opacity="0.3"/>
    </g>
    <g style="mix-blend-mode:hard-light">
        <path d="M911.611 285.965V405.097L861.094 399.752V336.969L911.611 285.965Z" fill="#110650" fill-opacity="0.3"/>
    </g>
    <g style="mix-blend-mode:hard-light">
        <path d="M894.036 139.875V455.174H861.09L861.091 145.45C863.71 148.511 867.024 151.018 871.059 151.607C876.401 152.391 880.753 149.505 889.203 143.391C890.743 142.284 892.345 141.115 894.036 139.875Z" fill="#110650" fill-opacity="0.3"/>
    </g>
    <path d="M911.676 430.511L861.094 430.332V430.689L911.676 430.511Z" fill="#FF3C43"/>
    <path d="M911.676 420.315L861.094 420.137V420.486L911.676 420.315Z" fill="#FF3C43"/>
    <path d="M911.676 410.112L861.094 409.941V410.291L911.676 410.112Z" fill="#FF3C43"/>
    <path d="M911.676 399.917L861.094 399.746V400.095L911.676 399.917Z" fill="#FF3C43"/>
    <path d="M911.676 389.726L861.094 389.547V389.904L911.676 389.726Z" fill="#FF3C43"/>
    <path d="M911.676 379.53L861.094 379.352V379.701L911.676 379.53Z" fill="#FF3C43"/>
    <path d="M911.676 369.335L861.094 369.156V369.506L911.676 369.335Z" fill="#FF3C43"/>
    <path d="M911.676 359.131L861.094 358.961V359.31L911.676 359.131Z" fill="#FF3C43"/>
    <path d="M911.676 348.936L861.094 348.758V349.115L911.676 348.936Z" fill="#FF3C43"/>
    <path d="M911.676 338.741L861.094 338.562V338.912L911.676 338.741Z" fill="#FF3C43"/>
    <path d="M911.676 328.542L861.094 328.371V328.72L911.676 328.542Z" fill="#FF3C43"/>
    <path d="M911.676 318.35L861.094 318.18V318.529L911.676 318.35Z" fill="#FF3C43"/>
    <path d="M911.676 308.151L861.094 307.973V308.33L911.676 308.151Z" fill="#FF3C43"/>
    <path d="M911.676 297.956L861.094 297.777V298.135L911.676 297.956Z" fill="#FF3C43"/>
    <path d="M911.676 287.756L861.094 287.586V287.935L911.676 287.756Z" fill="#FF3C43"/>
    <path d="M911.676 277.561L861.094 277.391V277.74L911.676 277.561Z" fill="#FF3C43"/>
    <path d="M911.676 267.37L861.094 267.191V267.549L911.676 267.37Z" fill="#FF3C43"/>
    <path d="M911.676 257.171L861.094 256.992V257.35L911.676 257.171Z" fill="#FF3C43"/>
    <path d="M911.676 246.979L861.094 246.801V247.15L911.676 246.979Z" fill="#FF3C43"/>
    <path d="M911.676 236.776L861.094 236.605V236.955L911.676 236.776Z" fill="#FF3C43"/>
    <path d="M911.676 226.581L861.094 226.402V226.76L911.676 226.581Z" fill="#FF3C43"/>
    <path d="M911.676 216.386L861.094 216.207V216.556L911.676 216.386Z" fill="#FF3C43"/>
    <path d="M911.676 206.19L861.094 206.012V206.361L911.676 206.19Z" fill="#FF3C43"/>
    <path d="M911.676 195.987L861.094 195.816V196.166L911.676 195.987Z" fill="#FF3C43"/>
    <path d="M861.09 185.734L911.678 185.791L861.09 185.856V185.734Z" fill="#FF3C43"/>
    <path d="M894.035 175.535L911.678 175.6L894.035 175.657V175.535Z" fill="#FF3C43"/>
    <path d="M894.035 165.34L911.678 165.405L894.035 165.462V165.34Z" fill="#FF3C43"/>
    <path d="M894.035 155.148L911.678 155.205L894.035 155.27V155.148Z" fill="#FF3C43"/>
    <path d="M894.035 144.953L911.678 145.01L894.035 145.075V144.953Z" fill="#FF3C43"/>
    <path d="M894.035 134.746L911.678 134.811L894.035 134.868V134.746Z" fill="#FF3C43"/>
    <path d="M894.035 124.555L911.678 124.62L894.035 124.677V124.555Z" fill="#FF3C43"/>
    <g style="mix-blend-mode:hard-light">
        <path d="M522.127 430.919L571.718 447.799L535.189 399.922H500.617L522.127 430.919Z" fill="url(#paint9_linear_1378_9197)"/>
    </g>
    <path d="M876.773 85.2334C876.894 85.3371 885.54 85.2766 889.847 85.2334L855.113 73.457C862.283 77.3393 876.652 85.1297 876.773 85.2334Z" fill="#1C0DA8"/>
    <path d="M340.961 117.303L346.795 105.613V208.229H340.961V117.303Z" fill="#0E023A"/>
    <path d="M855.109 106.762L861.09 117.223V203.402H855.109V106.762Z" fill="#0E023A"/>
    <path d="M364.844 50.3092L426.563 50.0898V50.5204L364.844 50.3092Z" fill="#FF3C43"/>
    <path d="M364.844 62.7425L426.563 62.5312V62.9536L364.844 62.7425Z" fill="#FF3C43"/>
    <path d="M364.844 37.8674L426.563 37.6562V38.0786L364.844 37.8674Z" fill="#FF3C43"/>
    <path d="M364.844 25.4303L426.563 25.2109V25.6415L364.844 25.4303Z" fill="#FF3C43"/>
    <path d="M364.844 12.9846L426.563 12.7734V13.1958L364.844 12.9846Z" fill="#FF3C43"/>
    <path d="M616.711 379.228V454.257L714.711 454.742V378.742L700.888 378.815L616.711 379.228Z" fill="#090157"/>
    <path d="M714.711 454.686L725.711 451.742V378.742L714.711 378.799V454.686Z" fill="#0E023A"/>
    <path d="M619.525 384.035L630.873 383.929L642.245 383.864L665.104 383.735L688.1 383.661L699.651 383.629H711.234L699.651 383.735L688.1 383.799L665.104 383.938L642.245 384.003L630.873 384.035H619.525Z" fill="#FF3C43"/>
    <path d="M619.525 391.071L630.873 390.982L642.245 390.925L665.104 390.811L688.1 390.762L699.651 390.746L711.234 390.754L699.651 390.844L688.1 390.9L665.104 391.014L642.245 391.055L630.873 391.079L619.525 391.071Z" fill="#FF3C43"/>
    <path d="M619.525 398.099L630.873 398.026L642.245 397.977L665.104 397.888L688.1 397.864L699.651 397.855L711.234 397.872L699.651 397.953L688.1 398.002L665.104 398.091L642.245 398.115L630.873 398.123L619.525 398.099Z" fill="#FF3C43"/>
    <path d="M619.525 405.131L630.873 405.066L642.245 405.034L665.104 404.961H688.1H699.651L711.234 404.993L699.651 405.058L688.1 405.099L665.104 405.164H642.245H630.873L619.525 405.131Z" fill="#FF3C43"/>
    <path d="M619.525 412.181L630.873 412.116L642.245 412.092L665.104 412.043L688.1 412.067L699.651 412.075L711.234 412.116L699.651 412.173L688.1 412.205L665.104 412.246L642.245 412.23L630.873 412.222L619.525 412.181Z" fill="#FF3C43"/>
    <path d="M619.525 419.21L630.873 419.162L642.245 419.145L665.104 419.121L688.1 419.162L699.651 419.178L711.234 419.235L699.651 419.284L688.1 419.292L665.104 419.324L642.245 419.284L630.873 419.259L619.525 419.21Z" fill="#FF3C43"/>
    <path d="M619.525 426.24L630.873 426.207H642.245L665.104 426.199L688.1 426.256L699.651 426.289L711.234 426.354L699.651 426.394H688.1L665.104 426.402L642.245 426.337L630.873 426.305L619.525 426.24Z" fill="#FF3C43"/>
    <path d="M619.525 433.283L630.873 433.25L642.245 433.258L665.104 433.274L688.1 433.356L699.651 433.404L711.234 433.477L699.651 433.502L688.1 433.494L665.104 433.477L642.245 433.396L630.873 433.356L619.525 433.283Z" fill="#FF3C43"/>
    <path d="M624.434 390.102L619.178 390.126V385.927L624.434 385.902V390.102Z" fill="#FF3C43"/>
    <path d="M653.867 397.126L648.571 397.142V392.934L653.867 392.918V397.126Z" fill="#FF3C43"/>
    <path d="M616.711 440.584V454.741H714.711V379.227L700.879 379.299C696.802 390.202 690.681 400.237 682.842 408.875C663.746 429.75 640.151 435.806 630.534 438.143C625.983 439.245 621.366 440.06 616.711 440.584Z" fill="#110650"/>
    <path d="M629.537 414.156H634.809V418.356H629.537V414.156Z" fill="#FF3C43"/>
    <path d="M699.094 397.338L693.733 397.354V393.114L699.094 393.098V397.338Z" fill="#FF3C43"/>
    <path d="M693.733 406.473H699.094V410.713H693.733V406.473Z" fill="#FF3C43"/>
    <path d="M652.102 407.02H657.398V411.235H652.102V407.02Z" fill="#FF3C43"/>
    <path d="M638.316 404.77L633.045 404.778V400.578L638.316 400.57V404.77Z" fill="#FF3C43"/>
    <path d="M679.991 420.975L685.328 420.98L685.324 425.213L679.987 425.207L679.991 420.975Z" fill="#FF3C43"/>
    <path d="M653.868 420.145H659.172V424.36H653.868V420.145Z" fill="#FF3C43"/>
    <path d="M578.603 286.621V438.284H606.266V309.492L578.603 286.621Z" fill="#100D42"/>
    <path d="M589.055 297.73L563.305 285.367L563.036 438.284H589.055V297.73Z" fill="#0E023A"/>
    <path d="M587.389 246.297V471.185H647.5V206.363L587.389 246.297Z" fill="#100D42"/>
    <path d="M615.276 227.773L647.5 206.363V471.185H615.276V227.773Z" fill="#0E023A"/>
    <g style="mix-blend-mode:soft-light">
        <path d="M249.488 401.115V415.116C230.459 410.829 201.416 400.815 175.575 376.051C166.353 367.197 158.26 357.185 151.488 346.25C177.502 374.932 211.891 394.184 249.488 401.115Z" fill="#110650" fill-opacity="0.4"/>
    </g>
    <defs>
        <linearGradient id="paint0_linear_1378_9197" x1="467.04" y1="423.419" x2="271.714" y2="662.022" gradientUnits="userSpaceOnUse">
            <stop stop-color="#1B1442"/>
            <stop offset="1" stop-color="#1B1442" stop-opacity="0"/>
        </linearGradient>
        <linearGradient id="paint1_linear_1378_9197" x1="702.52" y1="423.139" x2="799.063" y2="691.547" gradientUnits="userSpaceOnUse">
            <stop stop-color="#1B1442"/>
            <stop offset="1" stop-color="#1B1442" stop-opacity="0.14"/>
        </linearGradient>
        <linearGradient id="paint2_linear_1378_9197" x1="873.598" y1="443.096" x2="1516.83" y2="873.112" gradientUnits="userSpaceOnUse">
            <stop stop-color="#1B1442"/>
            <stop offset="0.05" stop-color="#1B1442" stop-opacity="0.73"/>
            <stop offset="0.13" stop-color="#1B1442" stop-opacity="0.41"/>
            <stop offset="0.23" stop-color="#1B1442" stop-opacity="0.18"/>
            <stop offset="0.33" stop-color="#1B1442" stop-opacity="0.04"/>
            <stop offset="0.49" stop-color="#1B1442" stop-opacity="0"/>
        </linearGradient>
        <linearGradient id="paint3_linear_1378_9197" x1="396.234" y1="424.24" x2="-117.505" y2="1071.55" gradientUnits="userSpaceOnUse">
            <stop stop-color="#1B1442"/>
            <stop offset="0.04" stop-color="#1B1442" stop-opacity="0.76"/>
            <stop offset="0.11" stop-color="#1B1442" stop-opacity="0.48"/>
            <stop offset="0.19" stop-color="#1B1442" stop-opacity="0.29"/>
            <stop offset="0.29" stop-color="#1B1442" stop-opacity="0.17"/>
            <stop offset="0.51" stop-color="#1B1442" stop-opacity="0.14"/>
        </linearGradient>
        <linearGradient id="paint4_linear_1378_9197" x1="156.794" y1="460.633" x2="156.794" y2="927.899" gradientUnits="userSpaceOnUse">
            <stop stop-color="#1B1442"/>
            <stop offset="0.04" stop-color="#1B1442" stop-opacity="0.76"/>
            <stop offset="0.11" stop-color="#1B1442" stop-opacity="0.48"/>
            <stop offset="0.19" stop-color="#1B1442" stop-opacity="0.29"/>
            <stop offset="0.29" stop-color="#1B1442" stop-opacity="0.17"/>
            <stop offset="0.51" stop-color="#1B1442" stop-opacity="0.14"/>
        </linearGradient>
        <linearGradient id="paint5_linear_1378_9197" x1="898.729" y1="409.078" x2="898.729" y2="876.344" gradientUnits="userSpaceOnUse">
            <stop stop-color="#1B1442"/>
            <stop offset="0.04" stop-color="#1B1442" stop-opacity="0.76"/>
            <stop offset="0.11" stop-color="#1B1442" stop-opacity="0.48"/>
            <stop offset="0.19" stop-color="#1B1442" stop-opacity="0.29"/>
            <stop offset="0.29" stop-color="#1B1442" stop-opacity="0.17"/>
            <stop offset="0.51" stop-color="#1B1442" stop-opacity="0.14"/>
        </linearGradient>
        <linearGradient id="paint6_linear_1378_9197" x1="968.968" y1="409.078" x2="968.968" y2="876.344" gradientUnits="userSpaceOnUse">
            <stop stop-color="#1B1442"/>
            <stop offset="0.04" stop-color="#1B1442" stop-opacity="0.76"/>
            <stop offset="0.11" stop-color="#1B1442" stop-opacity="0.48"/>
            <stop offset="0.19" stop-color="#1B1442" stop-opacity="0.29"/>
            <stop offset="0.29" stop-color="#1B1442" stop-opacity="0.17"/>
            <stop offset="0.51" stop-color="#1B1442" stop-opacity="0.14"/>
        </linearGradient>
        <linearGradient id="paint7_linear_1378_9197" x1="262.52" y1="397.105" x2="93.0468" y2="521.915" gradientUnits="userSpaceOnUse">
            <stop stop-color="#1B1442"/>
            <stop offset="1" stop-color="#1B1442" stop-opacity="0"/>
        </linearGradient>
        <linearGradient id="paint8_linear_1378_9197" x1="341.62" y1="384.383" x2="3.07073" y2="653.384" gradientUnits="userSpaceOnUse">
            <stop stop-color="#1B1442"/>
            <stop offset="0.989225" stop-color="#1B1442" stop-opacity="0"/>
        </linearGradient>
        <linearGradient id="paint9_linear_1378_9197" x1="536.172" y1="-266.168" x2="536.172" y2="512.548" gradientUnits="userSpaceOnUse">
            <stop stop-color="#1B1442"/>
            <stop offset="0.08" stop-color="#1B1442" stop-opacity="0.67"/>
            <stop offset="0.21" stop-color="#1B1442" stop-opacity="0.18"/>
            <stop offset="0.28" stop-color="#1B1442" stop-opacity="0"/>
        </linearGradient>
    </defs>
</svg>
