<svg width="16" height="16" viewBox="0 0 16 16" fill="none" xmlns="http://www.w3.org/2000/svg">
<path fill-rule="evenodd" clip-rule="evenodd" d="M12.668 3.33333H3.33464C2.59826 3.33333 2.0013 3.93029 2.0013 4.66667V11.3333C2.0013 12.0697 2.59826 12.6667 3.33464 12.6667H12.668C13.4043 12.6667 14.0013 12.0697 14.0013 11.3333V4.66667C14.0013 3.93029 13.4043 3.33333 12.668 3.33333ZM3.33464 2C1.86188 2 0.667969 3.19391 0.667969 4.66667V11.3333C0.667969 12.8061 1.86188 14 3.33464 14H12.668C14.1407 14 15.3346 12.8061 15.3346 11.3333V4.66667C15.3346 3.19391 14.1407 2 12.668 2H3.33464Z" fill="#FCFCFD"/>
<path fill-rule="evenodd" clip-rule="evenodd" d="M8.66797 8.0013C8.66797 6.16035 10.1604 4.66797 12.0013 4.66797H14.668C15.0362 4.66797 15.3346 4.96645 15.3346 5.33464C15.3346 5.70283 15.0362 6.0013 14.668 6.0013H12.0013C10.8967 6.0013 10.0013 6.89673 10.0013 8.0013C10.0013 9.10587 10.8967 10.0013 12.0013 10.0013H14.668C15.0362 10.0013 15.3346 10.2998 15.3346 10.668C15.3346 11.0362 15.0362 11.3346 14.668 11.3346H12.0013C10.1604 11.3346 8.66797 9.84225 8.66797 8.0013Z" fill="#FCFCFD"/>
<path d="M12.6654 7.9987C12.6654 8.36689 12.3669 8.66536 11.9987 8.66536C11.6305 8.66536 11.332 8.36689 11.332 7.9987C11.332 7.63051 11.6305 7.33203 11.9987 7.33203C12.3669 7.33203 12.6654 7.63051 12.6654 7.9987Z" fill="#FCFCFD"/>
</svg>
